<svg width="24" height="24" viewBox="0 0 24 24" fill="none" xmlns="http://www.w3.org/2000/svg">
<g clip-path="url(#clip0_4162_114776)">
<path d="M3 6.83325C3 4.62411 4.79086 2.83325 7 2.83325H17C19.2091 2.83325 21 4.62411 21 6.83325V14.8333C21 17.0424 19.2091 18.8333 17 18.8333H14.25L12.8 20.7666C12.4 21.2999 11.6 21.2999 11.2 20.7666L9.75 18.8333H7C4.79086 18.8333 3 17.0424 3 14.8333V6.83325Z" stroke="white" stroke-width="1.5" stroke-linecap="round" stroke-linejoin="round"/>
<path d="M16.3508 14.2735V11.3013C16.3508 10.1967 15.4554 9.3013 14.3508 9.3013H7.64941M7.64941 9.3013L10.1355 6.81519M7.64941 9.3013L10.1355 11.7874" stroke="white" stroke-width="1.5" stroke-linecap="round" stroke-linejoin="round"/>
</g>
<defs>
<clipPath id="clip0_4162_114776">
<rect width="24" height="24" fill="white"/>
</clipPath>
</defs>
</svg>
