<svg width="58" height="56" viewBox="0 0 58 56" fill="none" xmlns="http://www.w3.org/2000/svg">
<path d="M28.9617 55.6047C43.6259 55.6047 55.5136 43.717 55.5136 29.0529C55.5136 14.3887 43.6259 2.50098 28.9617 2.50098C14.2975 2.50098 2.40985 14.3887 2.40985 29.0529C2.40985 43.717 14.2975 55.6047 28.9617 55.6047Z" fill="#1E1E1E"/>
<path d="M40.2344 21.3345C40.3598 21.3334 41.1841 21.3226 41.559 20.763C41.7729 20.4432 41.7642 20.0597 41.7545 19.9257C41.7243 19.5227 41.532 19.2354 41.4336 19.0928C40.417 17.6127 39.6489 16.7743 39.6489 16.7743C39.2567 16.3465 38.588 15.6162 38.2822 15.2824C36.3452 13.2837 34.4837 11.7561 32.941 10.6249C32.7454 10.4813 29.3672 8.02562 25.6054 6.31542C24.7227 5.9146 24.0032 5.58834 23.4122 5.33337C22.8105 5.41764 22.3189 5.45221 21.9873 5.46842C21.567 5.48895 21.4503 5.47706 20.3894 5.49543C20.2814 5.49759 19.8287 5.50407 19.2777 5.52027C18.3659 5.5462 17.91 5.56025 17.7263 5.57645C17.3244 5.61211 16.5758 5.67909 15.8573 5.93945C15.4878 6.07342 14.0629 6.58875 13.3196 8.01697C13.3196 8.01697 12.7502 9.10921 12.8874 10.7784C12.9112 11.0722 12.9685 11.338 12.9706 11.3499C13.0981 11.9376 13.3196 12.3481 13.4449 12.5772C13.5356 12.7435 13.6318 12.8959 13.7301 13.0385C13.8025 13.1379 13.8965 13.2632 14.0088 13.4036C14.1104 13.53 14.1893 13.6219 14.2487 13.6888C14.4691 13.9438 14.5825 14.0734 14.7208 14.1782C14.7424 14.1944 14.7186 14.189 14.952 14.3338C15.1659 14.4656 15.4317 14.6309 15.7633 15.0047C16.0702 15.3515 16.351 15.6983 16.4602 16.0991C16.9161 15.882 17.3385 15.4541 17.4476 14.8934C17.5891 14.1674 17.1332 13.5851 17.05 13.4814C16.956 13.4684 16.7929 13.4393 16.6092 13.3604C15.2945 12.7986 14.5285 10.4413 15.3884 8.9342C15.8163 8.18335 16.5239 7.8614 16.6114 7.82251C18.6868 6.91717 21.5108 8.92339 22.9293 10.5839C23.8379 11.648 24.2938 12.7144 24.5196 13.3453C24.7227 13.2621 24.9798 13.1692 25.2823 13.0914C25.2823 13.0914 25.7836 12.9628 26.3184 12.9272C28.1604 12.8029 31.1292 14.4051 31.1292 14.4051C32.1642 14.9637 32.8848 15.466 33.681 16.0224C34.5874 16.6555 35.4539 17.2605 36.4284 18.1421C38.5718 20.0813 39.0234 21.3507 40.2355 21.3356L40.2344 21.3345Z" fill="#FCB300"/>
<path d="M48.164 15.758C48.6393 17.0684 49.0326 18.4189 49.334 19.779C49.5684 19.4301 49.7737 19.0628 49.9444 18.6825C50.2987 17.8971 50.5127 17.0598 50.584 16.1901C50.584 16.0151 50.5753 15.8282 50.5537 15.6315C50.5094 15.2102 50.4219 14.8483 50.3301 14.5577C50.5818 14.1493 50.9048 13.5519 51.1674 12.787C51.3748 12.1798 51.7119 11.1945 51.6287 10.072C51.6071 9.78575 51.3834 7.2372 49.5079 6.30269C49.0326 6.06609 48.5378 5.97534 48.0419 5.97534C47.1333 5.97534 46.2215 6.28 45.4188 6.55333C44.7349 6.78669 44.1958 7.0611 43.8253 7.27285C44.212 7.91998 44.7511 8.84152 45.3648 9.96509C46.5175 12.0739 47.3991 13.6556 48.164 15.7601V15.758ZM48.7971 9.89163C49.0585 8.6449 49.307 8.37049 49.5155 8.22464C49.6127 8.15658 49.8007 8.02585 50.0384 8.04314C50.6142 8.08419 50.948 8.95388 51.0075 9.11053C51.3316 9.95321 51.1371 10.7408 50.8476 11.8157C50.6985 12.3656 50.4576 13.11 50.0524 13.9559C49.7845 13.365 49.5436 12.9199 49.3686 12.6174C49.2594 12.4283 49.0952 12.1528 48.8802 11.739C48.7549 11.497 48.6577 11.295 48.5939 11.16C48.6512 10.6414 48.729 10.2103 48.796 9.89055L48.7971 9.89163Z" fill="#FCB300"/>
<path d="M44.2512 33.0933C44.1691 33.0933 44.0892 33.0933 44.0103 33.0933C43.1925 33.0889 41.021 33.0781 39.2492 31.4252C38.4325 30.6625 37.9539 29.7895 37.6719 29.0311L37.6546 29.0333C37.6795 29.3109 37.7129 29.6858 37.7378 29.9743C37.8739 31.5149 37.9495 32.3964 37.9679 32.6103C38.0435 33.4627 38.2077 34.7473 38.5977 36.6001C38.9694 38.1817 38.7825 38.5609 39.2233 38.9909C39.5215 39.2815 40.04 39.3561 40.9238 39.3561C41.3084 39.3561 41.7632 39.342 42.299 39.3248C44.4608 39.2567 44.9286 38.9337 45.1652 38.6117C45.2722 38.4659 45.3781 38.2131 45.5898 37.7075C45.8653 37.0517 46.0165 36.5504 46.0641 36.397C46.4098 35.2669 46.8614 34.7808 47.3886 33.7199C47.6533 33.1873 47.959 32.4645 48.2064 31.5408C48.106 31.6683 47.9947 31.7936 47.8715 31.9146C46.7393 33.0241 45.3381 33.0954 44.2502 33.0954L44.2512 33.0933Z" fill="#1E1E1E"/>
<path d="M43.2691 39.9179C40.8437 40.229 39.6315 40.3835 38.8234 39.7547C38.4777 39.4857 38.5166 39.328 38.2238 38.2995C38.0164 37.5724 37.9256 37.6761 37.6102 36.4283C37.4676 35.8622 37.4978 35.2983 37.5897 34.0505C37.7193 32.2917 37.7776 32.122 37.8208 32.1004C37.823 32.0994 37.8262 32.0994 37.8306 32.0972C38.1514 32.0043 38.4755 32.2409 38.5522 32.296C38.8148 32.4861 38.9185 32.767 39.0546 33.1959C39.4079 34.3119 39.5462 35.0368 39.5462 35.0368C39.6704 35.6915 39.6672 35.7823 39.7752 36.4067C39.8422 36.7924 39.9481 37.3153 40.1209 37.9333C40.31 37.8641 40.5909 37.7334 40.8534 37.4795C40.8966 37.4374 41.0479 37.2872 41.2834 36.8864C41.4238 36.6476 41.601 36.3095 41.7598 35.8752C42.0396 36.2857 42.1023 36.6455 42.1185 36.8335C42.1401 37.0744 42.1099 37.2991 42.0872 37.472C42.0548 37.7194 42.004 37.9235 41.9618 38.0683C42.0926 38.0705 42.26 38.0715 42.4534 38.0651C42.7613 38.0543 43.0573 38.0456 43.4041 37.9851C43.6288 37.9462 43.9367 37.8738 44.2943 37.7345C44.4866 37.5271 44.7427 37.2019 44.9425 36.7514C45.1035 36.3884 45.1781 36.0588 45.2148 35.8104C45.3153 35.9443 45.4525 36.1626 45.5389 36.4586C45.6459 36.8237 45.7701 37.136 45.7452 37.3164C45.8997 37.1684 45.8533 37.15 45.9149 37.1695C46.1904 37.257 46.2843 38.239 45.8446 38.9445C45.6577 39.2437 45.3498 39.6489 43.268 39.9157L43.2691 39.9179Z" fill="white"/>
<path d="M39.9763 36.2631C39.9482 35.631 39.8726 35.0012 39.7526 34.3897C39.6381 33.8085 39.5096 33.3753 39.4156 33.0576C39.2654 32.551 39.1714 32.3295 39.1314 32.2344C39.0288 31.9903 38.91 31.7515 38.7771 31.5246L38.4411 30.951L39.0709 30.7392C39.3475 30.6463 40.0314 30.4183 40.4041 30.3125C40.4387 30.3027 40.5305 30.2768 40.6537 30.2574C40.7682 30.239 40.9108 30.2163 41.0588 30.2163C41.2381 30.2163 41.3905 30.2487 41.5244 30.3168C42.1629 30.6376 42.1294 31.5668 42.1089 32.121C42.1046 32.2279 42.1013 32.3079 42.1003 32.3241L42.0981 32.3565C42.0138 33.56 41.9587 34.3551 41.6379 35.2313C41.4715 35.6861 41.2446 36.1269 40.9637 36.5418L40.0497 37.8901L39.9763 36.2631Z" fill="white"/>
<path d="M41.0588 30.7576C41.1409 30.7576 41.2187 30.7684 41.2824 30.8008C41.5935 30.9575 41.5871 31.623 41.5698 32.1026C41.5665 32.201 41.5633 32.2733 41.5622 32.2874C41.479 33.4801 41.4282 34.2353 41.1312 35.0466C41.0188 35.3534 40.8341 35.7726 40.5164 36.2393C40.4819 35.4604 40.3835 34.7992 40.2831 34.286C40.1664 33.6918 40.0368 33.2511 39.933 32.9043C39.784 32.4041 39.6867 32.1621 39.6295 32.0259C39.4912 31.6964 39.3496 31.435 39.2427 31.2524C39.4026 31.1984 40.161 30.9434 40.5499 30.8343C40.5823 30.8257 40.6482 30.8073 40.7379 30.7922C40.8395 30.776 40.9529 30.7576 41.0588 30.7576ZM41.0588 29.6772C40.8686 29.6772 40.6958 29.7043 40.5694 29.7248C40.4095 29.7507 40.2928 29.7842 40.2539 29.795C39.8887 29.8976 39.247 30.1105 38.8981 30.2282L37.6384 30.6517L38.3114 31.798C38.4324 32.0043 38.5405 32.2215 38.6345 32.443C38.6712 32.5294 38.7565 32.7336 38.8981 33.2111C38.9888 33.5168 39.1141 33.936 39.2232 34.4935C39.3378 35.079 39.4102 35.6819 39.4372 36.2869L39.583 39.5409L41.4099 36.8443C41.7156 36.3938 41.963 35.9131 42.1445 35.4172C42.4913 34.4697 42.5518 33.6 42.6361 32.3954L42.6382 32.3619C42.6415 32.3112 42.6469 32.1696 42.648 32.1415C42.6717 31.502 42.715 30.3114 41.7664 29.835C41.5579 29.7302 41.3202 29.6772 41.0577 29.6772H41.0588Z" fill="#1E1E1E"/>
<path d="M33.3041 27.1502C33.6519 26.6921 34.1024 26.18 34.6761 25.6744C34.9743 25.4119 35.2671 25.1861 35.5447 24.9916C34.9138 24.4169 34.1003 23.7168 33.1161 22.9671C32.6796 22.6343 31.2805 21.5853 29.2041 20.3731C27.1298 19.162 25.9598 18.4793 24.3695 18.0687C23.8909 17.9445 23.0461 17.7608 22.1127 17.6128C21.3197 17.4864 20.8378 17.4097 20.1669 17.3827C19.3469 17.3492 18.7074 17.4238 17.4261 17.5707C16.3144 17.6982 15.9428 17.7954 15.6446 17.8926C15.0601 18.0828 14.602 18.3237 14.2876 18.5128C14.2109 18.3291 14.0003 17.7533 14.225 17.1115C14.2844 16.943 14.4227 16.5551 14.7619 16.3315C14.7111 16.2678 14.6442 16.1867 14.5502 16.0798C14.3773 15.8842 14.2725 15.8205 14.1007 15.7136C13.8047 15.5299 13.0409 15.061 12.6768 14.6559C7.72017 19.6839 6.52638 21.4167 6.27574 22.0196C6.24009 22.1049 6.22712 23.1388 5.73232 24.0906C5.59728 24.351 5.50436 24.5152 5.43954 24.634C5.1284 25.2012 4.8864 25.7328 4.07938 27.7303C3.70557 28.6573 3.45817 29.2828 3.2421 30.1773C3.2421 30.1773 2.9396 31.4327 3.17944 31.5159C3.33501 31.5699 3.99403 31.0254 4.09018 31.0049C4.09018 31.0049 4.09342 31.0049 4.09666 31.0038C4.12799 30.9973 4.1939 30.9692 4.22523 30.9692C4.23279 30.9692 4.23819 30.9714 4.24143 30.9746C4.25656 30.9995 4.15068 31.087 4.13556 31.1C3.97998 31.2339 3.71314 31.7579 3.61482 32.5455C3.49599 33.4994 3.68181 34.3832 3.78876 34.8013C3.98323 34.5571 4.25439 34.2611 4.61739 33.9726C4.97607 33.6863 5.32179 33.4897 5.60052 33.3557C5.34015 34.2071 5.18134 34.9557 5.07979 35.5532C4.82914 37.0333 4.57526 38.6268 5.07979 40.4493C5.2991 41.2412 5.60592 41.8765 5.87061 42.3389C6.06291 42.1585 6.25629 41.9791 6.4486 41.7987C6.47668 42.1131 6.53718 42.5496 6.67979 43.0519C6.83104 43.5824 7.059 44.1377 7.25778 44.4596C8.05076 45.7388 10.0105 45.9494 10.3616 45.9829C10.6868 43.6137 11.3707 41.816 11.9033 40.6622C13.5022 37.2007 15.7991 35.0908 17.4552 33.5686C18.393 32.7075 19.2605 31.9189 20.6164 31.101C21.7929 30.3923 23.6435 29.2774 26.245 29.0192C26.4838 28.9954 26.6944 28.9825 26.904 28.9825C26.9526 28.9825 27.0013 28.9825 27.051 28.9846C27.4528 28.9965 27.8256 29.016 28.2285 29.0592C30.9359 29.3509 34.2126 30.5252 34.2126 30.5252C35.3005 30.9023 35.5091 31.0243 35.6668 31.128C35.7122 31.1583 35.7554 31.1896 35.7997 31.221C35.495 30.5112 35.1115 29.7031 34.5032 28.7675C34.043 28.0598 33.6076 27.5132 33.303 27.1534L33.3041 27.1502Z" fill="#FCB300"/>
<path d="M52.5416 19.9744C52.2304 19.5585 52.0014 19.2225 51.6719 18.7288C51.5952 18.9373 51.5141 19.1447 51.4223 19.3478C51.2257 19.7853 50.9912 20.2078 50.7266 20.6107C50.9696 20.8214 51.1393 21.0126 51.2462 21.1336C51.6946 21.6436 51.9657 22.1373 52.1137 22.4614C52.4011 23.0901 52.5588 23.7643 52.5859 24.4665C52.6258 24.4957 52.6647 24.527 52.6993 24.5627C52.8354 24.5929 52.9985 24.6167 53.1811 24.6167C53.2978 24.6167 53.421 24.607 53.5517 24.5843C53.6716 24.5627 53.7807 24.5324 53.8769 24.4989C53.798 24.312 53.7083 24.1165 53.6079 23.9145C53.4988 23.6973 53.3875 23.4953 53.2784 23.3084C53.4836 23.2155 53.6921 23.1172 53.9039 23.0145C54.1059 22.9162 54.3036 22.8179 54.4948 22.7185C54.3836 22.5219 54.2129 22.2313 53.9914 21.892C53.5301 21.1866 53.2989 20.9878 52.5405 19.9744H52.5416Z" fill="#FCB300"/>
<path d="M46.5209 36.129C46.5209 36.129 46.5651 36.0739 46.5835 35.9778L45.5226 35.7736C45.6447 35.1383 45.6976 34.4987 45.6782 33.8732C45.6685 33.5578 45.6404 33.2542 45.595 32.9722C45.5734 32.8404 45.5518 32.7075 45.5204 32.6081C45.5161 32.593 45.5096 32.5779 45.5042 32.5628C45.4578 32.4385 45.3703 32.2062 45.4513 31.9243C45.6296 31.3052 46.2832 31.249 46.9768 31.1896L47.0513 31.1821C47.1388 31.1734 47.2371 31.1637 47.343 31.1637C47.477 31.1637 47.5958 31.1799 47.706 31.2123C48.459 31.4327 48.2095 32.4774 48.1036 32.9236C48.0917 32.9722 48.0679 33.0705 48.0679 33.0705C47.8367 34.0029 47.3776 34.9493 46.6656 35.9637C46.6289 36.0156 46.59 36.0566 46.5565 36.0923C46.5446 36.1042 46.5327 36.116 46.5219 36.129H46.5209Z" fill="white"/>
<path d="M47.343 31.7038C47.4154 31.7038 47.4867 31.7103 47.5548 31.7308C47.7936 31.8011 47.6607 32.4557 47.5786 32.7982C47.5645 32.8555 47.5526 32.9052 47.544 32.9408C47.289 33.9661 46.7629 34.8865 46.2238 35.6536C46.1838 35.7109 46.0682 35.8016 46.0542 35.8762C46.1817 35.2117 46.24 34.5257 46.2195 33.857C46.2098 33.5275 46.1806 33.2012 46.1287 32.8846C46.105 32.7366 46.079 32.5832 46.0369 32.4471C46.0023 32.3347 45.9299 32.2137 45.971 32.0722C46.0445 31.8151 46.4075 31.7794 47.0233 31.7254C47.1259 31.7168 47.2361 31.7017 47.3441 31.7017" fill="#1E1E1E"/>
<path d="M50.6404 23.1355C50.5561 22.9508 50.3649 22.5856 50.03 22.2043C49.9046 22.0617 49.7156 21.8467 49.4142 21.6403C49.1257 21.4426 48.8016 21.3 48.4526 21.2147L47.9535 21.0926L47.8498 20.5891C47.5527 19.1415 47.1465 17.7013 46.6409 16.3099C46.2444 15.2176 45.5054 13.1833 44.0005 10.8368C42.9277 9.16439 41.5578 7.51901 40.0388 6.07889C38.6095 4.72413 37.0247 3.53142 35.3253 2.52453C34.5841 2.34195 33.0079 2.01892 30.9271 2.01892C29.4503 2.01892 27.7206 2.18206 25.8559 2.67362C25.7976 2.68874 25.7393 2.70495 25.682 2.72115C29.0019 4.01109 33.8074 6.4689 37.9894 11.1663C39.5797 12.9532 40.7897 14.7379 41.7134 16.3541C42.3411 17.28 42.7073 18.1259 42.9266 18.7385C43.1211 19.2819 43.348 19.9355 43.3869 20.8301C43.4052 21.2492 43.3771 21.6014 43.3447 21.8553C42.7883 21.9817 41.6464 22.3209 40.6039 23.2987C40.2495 23.6314 39.557 24.2958 39.1908 25.401C38.6722 26.9675 39.1638 28.3482 39.3485 28.8009C39.3431 28.8009 39.3366 28.802 39.3312 28.8031C39.5494 29.2784 39.8725 29.7862 40.3554 30.2367C41.6626 31.4575 43.254 31.4651 44.0178 31.4694C44.9447 31.4748 45.9959 31.4791 46.7381 30.7531C47.1757 30.3242 47.3744 29.784 47.463 29.3368C47.4447 29.3065 47.4285 29.2763 47.409 29.246C47.1811 28.8863 46.911 28.5946 46.589 28.3202C46.3535 28.1192 46.0953 27.9053 45.7842 27.8372C45.5303 27.7821 45.2516 27.821 44.9923 27.7983C44.4283 27.7486 43.9076 27.5002 43.7628 26.9135C43.6278 26.3669 43.7801 25.9196 44.0804 25.5652C44.5644 24.9959 45.3401 24.7085 46.051 24.554C47.6445 24.2072 49.3212 24.2731 50.9461 24.231C50.9018 23.8475 50.7992 23.4791 50.6404 23.1323V23.1355Z" fill="white"/>
<path d="M48.9087 30.4259C48.8785 30.4378 48.8482 30.4497 48.818 30.4616C48.7834 30.5491 48.7456 30.6377 48.7045 30.7263C48.859 30.7781 49.0438 30.8181 49.2501 30.8181C49.3203 30.8181 49.3927 30.8138 49.4673 30.803C49.8594 30.7479 50.2105 30.548 50.6243 30.1191C51.2347 29.4893 51.6247 28.7352 51.8862 28.0178C51.1418 29.0852 50.0928 29.97 48.9098 30.4259H48.9087Z" fill="white"/>
<path d="M55.9071 21.9202C55.7321 21.6113 55.5441 21.3034 55.3496 21.0052C55.0374 20.5277 54.804 20.236 54.5339 19.8978C54.3492 19.6655 54.1396 19.403 53.8404 19.0033C53.5022 18.5506 53.2678 18.1995 52.8421 17.5599L52.7956 17.4897C52.5936 17.1861 52.3938 16.8793 52.1971 16.5714C52.2025 16.472 52.2047 16.3726 52.2058 16.2732C52.2177 16.1187 52.2263 15.9621 52.2306 15.8054H52.195C52.1885 15.6898 52.1798 15.5742 52.168 15.4597C52.1442 15.235 52.1096 15.0114 52.0653 14.7888C52.316 14.3124 52.5299 13.8165 52.7038 13.3087C52.9318 12.6432 53.3553 11.403 53.2483 9.94992C53.2019 9.32547 52.841 6.14707 50.233 4.84848C49.5708 4.5179 48.834 4.35044 48.0443 4.35044C46.8483 4.35044 45.7215 4.73505 44.8983 5.01486C44.6282 5.10669 44.3613 5.2104 44.0988 5.32384C43.3706 4.6994 42.3032 3.87833 40.9506 3.09615C38.791 1.84834 36.815 1.24226 36.0653 1.03916C36.0264 1.02835 35.9875 1.01863 35.9486 1.00891C35.8071 0.973254 35.6645 0.938683 35.5229 0.903032C34.1109 0.574604 32.5023 0.395264 30.9303 0.395264C29.0732 0.395264 27.228 0.634022 25.4454 1.10398C23.8681 1.51991 22.335 2.11951 20.8895 2.8844L18.9622 3.90426C18.1541 3.92802 17.7943 3.93883 17.5847 3.95827C17.1429 3.99717 16.2246 4.07927 15.3084 4.41094C13.3346 5.12614 12.3569 6.35774 11.8848 7.26416C11.8038 7.42081 11.1048 8.83715 11.2744 10.906C11.3057 11.2928 11.3759 11.6266 11.39 11.6893C11.5704 12.5179 11.8902 13.1013 12.0263 13.3509C12.0717 13.4341 12.2402 13.5356 12.1678 13.5972C6.7801 18.1639 3.47638 23.5397 2.22532 29.9095C2.17779 30.1482 2.04707 30.3686 1.96064 30.5987L0.745239 33.8258L1.96388 33.4066C1.98657 34.1099 2.10433 34.7354 2.22208 35.1946L3.02803 38.36L3.17172 38.1796C3.1674 39.0136 3.25706 39.9136 3.52283 40.8751C3.73998 41.6594 4.05761 42.4211 4.46922 43.1384L5.48692 44.9134L5.61224 44.7957C5.70191 44.9847 5.79374 45.1576 5.88557 45.3067C7.00049 47.1055 9.28544 47.502 10.2156 47.5895L11.7616 47.7342L11.9723 46.1958C12.2078 44.4834 12.681 42.8478 13.38 41.3353C14.8439 38.1688 16.9895 36.196 18.557 34.7549C19.4094 33.9716 20.2143 33.2316 21.4578 32.4829C22.5382 31.8314 24.1716 30.8472 26.4101 30.6257C26.6078 30.6063 26.7667 30.5966 26.9093 30.5966C26.9428 30.5966 26.9752 30.5966 27.0087 30.5977C27.4322 30.6106 27.7465 30.6301 28.0609 30.6636C30.5403 30.9315 33.642 32.0334 33.6734 32.0442L33.9381 32.1393H33.9435C34.583 32.3673 34.7418 32.4483 34.7807 32.4742C35.416 32.8934 35.752 33.5567 36.2284 34.5982C36.4466 35.0746 36.7578 35.8568 37.0052 36.8778C37.1478 37.4644 37.2029 37.8652 37.2483 38.1871C37.3336 38.7997 37.4308 39.4944 38.0963 40.1447C38.8774 40.9075 39.9686 40.9723 40.929 40.9723C41.3396 40.9723 41.8106 40.9572 42.3551 40.941C44.3235 40.8794 45.6988 40.6277 46.4777 39.5657C46.6981 39.2653 46.8288 38.9531 47.0903 38.3298C47.3928 37.6081 47.5624 37.0539 47.6175 36.8724L47.6197 36.8659C47.7893 36.3116 47.9902 35.9659 48.27 35.4873C48.4418 35.1913 48.6374 34.8564 48.8459 34.4362C49.1635 33.7977 49.4314 33.1203 49.6475 32.4127C49.6648 32.4105 49.6821 32.4083 49.6993 32.4062C50.7084 32.2636 51.3782 31.6748 51.7952 31.2448C53.3801 29.608 53.7766 27.4571 53.9678 26.4232C53.9851 26.3292 54.0013 26.2352 54.0175 26.1412C54.1537 26.1099 54.2887 26.071 54.4205 26.0256L56.0508 25.4552L55.4566 24.0496L56.7454 23.3863L55.9136 21.9181L55.9071 21.9202ZM45.419 6.55112C46.3168 6.22378 47.1065 5.97313 48.0421 5.97313C48.538 5.97313 49.0328 6.06388 49.5081 6.30048C51.3836 7.23499 51.6083 9.78354 51.6289 10.0698C51.711 11.1934 51.375 12.1776 51.1676 12.7848C50.9061 13.5497 50.5831 14.1482 50.3303 14.5555C50.4221 14.8461 50.5096 15.208 50.5539 15.6293C50.5744 15.826 50.5831 16.0129 50.5842 16.1879C50.5129 17.0576 50.2989 17.8948 49.9446 18.6803C49.7728 19.0605 49.5676 19.4279 49.3342 19.7768C48.9107 18.153 48.4969 16.7896 48.1642 15.7557C47.7007 14.3124 47.0611 12.3407 45.9851 9.88078C45.4406 8.63513 44.9371 7.61527 44.5666 6.89468C44.7621 6.80609 45.056 6.68077 45.419 6.54788V6.55112ZM35.6677 31.1238C35.5111 31.0201 35.3015 30.898 34.2135 30.5209C34.2135 30.5209 30.9368 29.3477 28.2295 29.0549C27.8265 29.0117 27.4527 28.9922 27.0519 28.9804C27.0033 28.9793 26.9536 28.9782 26.9049 28.9782C26.6954 28.9782 26.4847 28.9912 26.2459 29.0149C23.6444 29.2731 21.7938 30.3881 20.6173 31.0968C19.2604 31.9146 18.3928 32.7022 17.4562 33.5643C15.8 35.0865 13.5042 37.1965 11.9042 40.6579C11.3716 41.8106 10.6877 43.6084 10.3626 45.9787C10.0114 45.9462 8.05168 45.7356 7.2587 44.4554C7.05883 44.1334 6.83088 43.5792 6.68071 43.0477C6.5381 42.5453 6.4776 42.1088 6.44951 41.7944C6.25721 41.9749 6.06383 42.1542 5.87152 42.3346C5.60683 41.8722 5.30001 41.237 5.0807 40.4451C4.57618 38.6214 4.83006 37.0279 5.0807 35.5489C5.18226 34.9515 5.34107 34.2028 5.60143 33.3515C5.3227 33.4854 4.97699 33.6821 4.61831 33.9684C4.25531 34.2579 3.98414 34.5528 3.78968 34.797C3.68272 34.3789 3.49798 33.4962 3.61574 32.5412C3.71405 31.7536 3.97982 31.2297 4.13647 31.0957C4.1516 31.0827 4.25747 30.9952 4.24235 30.9704C4.24019 30.9661 4.23479 30.965 4.22614 30.965C4.19481 30.965 4.12891 30.9931 4.09758 30.9995C3.87395 31.0471 3.66652 31.1065 3.47422 31.1735C3.54012 31.0233 3.60602 30.8731 3.67192 30.723C3.69137 30.6506 3.71946 30.5793 3.73134 30.5058C4.51892 25.426 7.40563 19.4419 13.1628 14.9293C12.7339 15.2653 13.8046 15.5278 14.1006 15.7104C14.2734 15.8173 14.3772 15.8811 14.55 16.0766C14.644 16.1836 14.7121 16.2635 14.7618 16.3283C14.4236 16.552 14.2842 16.9398 14.2248 17.1083C14.0001 17.7501 14.2108 18.3259 14.2875 18.5096C14.6008 18.3205 15.0589 18.0807 15.6444 17.8894C15.9426 17.7922 16.3142 17.6961 17.4259 17.5675C18.7061 17.4195 19.3468 17.346 20.1668 17.3795C20.8366 17.4065 21.3195 17.4832 22.1125 17.6096C23.047 17.7587 23.8908 17.9424 24.3694 18.0655C25.9596 18.4761 27.1286 19.1599 29.2039 20.3699C31.2804 21.5821 32.6794 22.6311 33.1159 22.9639C34.1012 23.7136 34.9136 24.4137 35.5445 24.9885C35.2669 25.1829 34.9741 25.4098 34.6759 25.6712C34.1012 26.1768 33.6507 26.6889 33.3039 27.147C33.6085 27.5068 34.0439 28.0523 34.5042 28.761C35.1124 29.6966 35.4959 30.5047 35.8006 31.2145C35.7574 31.1832 35.7142 31.1519 35.6677 31.1216V31.1238ZM36.4272 18.1412C35.4527 17.2596 34.5863 16.6546 33.6799 16.0215C32.8825 15.4651 32.163 14.9617 31.1281 14.4042C31.1281 14.4042 28.1592 12.8021 26.3172 12.9263C25.7825 12.9619 25.2812 13.0905 25.2812 13.0905C24.9787 13.1683 24.7216 13.2612 24.5184 13.3444C24.2937 12.7135 23.8367 11.6472 22.9282 10.583C21.5107 8.9225 18.6867 6.91628 16.6102 7.82162C16.5227 7.85943 15.8162 8.18246 15.3873 8.9333C14.5273 10.4404 15.2933 12.7967 16.6081 13.3595C16.7928 13.4384 16.9549 13.4676 17.0489 13.4805C17.1321 13.5842 17.5869 14.1665 17.4464 14.8925C17.3373 15.4532 16.9149 15.8811 16.459 16.0982C16.351 15.6974 16.069 15.3495 15.7622 15.0038C15.4305 14.63 15.1647 14.4658 14.9508 14.3329C14.7175 14.1882 14.7412 14.1946 14.7196 14.1773C14.5813 14.0726 14.4679 13.9429 14.2475 13.6879C14.1892 13.621 14.1103 13.5291 14.0077 13.4027C13.8942 13.2623 13.8013 13.138 13.7289 13.0376C13.6306 12.896 13.5345 12.7426 13.4437 12.5763C13.3184 12.3472 13.0969 11.9367 12.9695 11.349C12.9673 11.3371 12.91 11.0702 12.8863 10.7775C12.7501 9.10832 13.3184 8.01608 13.3184 8.01608C14.0617 6.58786 15.4867 6.07145 15.8562 5.93856C16.5746 5.6782 17.3233 5.61122 17.7252 5.57556C17.9088 5.55936 18.3647 5.54639 19.2766 5.51939C19.8275 5.50318 20.2802 5.4967 20.3882 5.49454C21.4481 5.47617 21.5658 5.48698 21.9861 5.46753C22.3188 5.45132 22.8093 5.41675 23.4111 5.33248C24.0031 5.58745 24.7226 5.91372 25.6042 6.31453C29.366 8.02473 32.7432 10.4804 32.9398 10.6241C34.4826 11.7552 36.344 13.2828 38.2811 15.2815C38.5868 15.6153 39.2556 16.3456 39.6477 16.7734C39.6477 16.7734 40.4159 17.6118 41.4325 19.0919C41.5297 19.2345 41.722 19.5219 41.7533 19.9248C41.7631 20.0577 41.7717 20.4423 41.5578 20.7621C41.1829 21.3217 40.3586 21.3325 40.2333 21.3336C39.0211 21.3487 38.5695 20.0793 36.4261 18.1401L36.4272 18.1412ZM47.3885 33.7177C46.8613 34.7786 46.4097 35.2648 46.064 36.3948C46.0175 36.5482 45.8652 37.0495 45.5897 37.7053C45.3779 38.2109 45.271 38.4637 45.1651 38.6096C44.9285 38.9326 44.4607 39.2556 42.2989 39.3226C41.7631 39.3399 41.3093 39.3539 40.9236 39.3539C40.0399 39.3539 39.5213 39.2794 39.2232 38.9888C38.7834 38.5588 38.9693 38.1796 38.5976 36.5979C38.2076 34.7441 38.0434 33.4606 37.9678 32.6082C37.9483 32.3954 37.8738 31.5127 37.7377 29.9721C37.7117 29.6837 37.6793 29.3088 37.6545 29.0311L37.6718 29.029C37.9537 29.7874 38.4323 30.6603 39.2491 31.423C41.0198 33.076 43.1913 33.0868 44.0102 33.0911C44.0891 33.0911 44.169 33.0911 44.2511 33.0911C45.339 33.0911 46.7403 33.0198 47.8725 31.9103C47.9956 31.7893 48.1058 31.664 48.2074 31.5365C47.9589 32.4613 47.6542 33.1829 47.3896 33.7156L47.3885 33.7177ZM46.051 24.5574C45.3401 24.7119 44.5644 24.9993 44.0804 25.5686C43.7801 25.923 43.6278 26.3691 43.7628 26.9169C43.9076 27.5035 44.4283 27.752 44.9922 27.8017C45.2515 27.8244 45.5303 27.7844 45.7841 27.8406C46.0942 27.9087 46.3524 28.1226 46.589 28.3235C46.911 28.5979 47.181 28.8896 47.409 29.2494C47.4274 29.2785 47.4447 29.3099 47.463 29.3401C47.3744 29.7874 47.1756 30.3276 46.7381 30.7565C45.997 31.4835 44.9458 31.4781 44.0178 31.4727C43.2529 31.4684 41.6626 31.4609 40.3554 30.2401C39.8724 29.7895 39.5494 29.2818 39.3312 28.8064C39.3366 28.8064 39.3431 28.8053 39.3485 28.8043C39.1637 28.3516 38.6722 26.9709 39.1907 25.4044C39.557 24.3003 40.2495 23.6348 40.6038 23.302C41.6464 22.3243 42.7872 21.9851 43.3447 21.8587C43.376 21.6048 43.4052 21.2526 43.3868 20.8334C43.3479 19.9378 43.1211 19.2853 42.9266 18.7418C42.7073 18.1282 42.3411 17.2834 41.7134 16.3575C40.7907 14.7413 39.5807 12.9565 37.9894 11.1696C33.8073 6.47226 29.5248 3.87725 26.2049 2.58838C26.2049 2.58838 26.2092 2.5873 26.2103 2.5873C26.8207 2.41013 27.4548 2.28372 28.4466 2.17677C29.1013 2.10655 29.8856 2.0212 30.9282 2.02228C32.015 2.02336 33.5297 2.11843 35.3263 2.52788C36.0123 2.9341 36.801 3.44186 37.6437 4.06955C38.1147 4.41959 39.0254 5.12182 40.0399 6.08333C42.2644 8.19002 43.618 10.2438 44.0016 10.8412C45.5054 13.1877 46.2444 15.222 46.6419 16.3143C47.1476 17.7058 47.5538 19.1459 47.8509 20.5936L47.9546 21.097L48.4537 21.2191C48.8027 21.3044 49.1268 21.4471 49.4152 21.6448C49.7166 21.8511 49.9057 22.0661 50.031 22.2087C50.3659 22.5901 50.5572 22.9552 50.6414 23.14C50.8002 23.4868 50.9018 23.8552 50.9472 24.2387C49.3234 24.2808 47.6467 24.2149 46.0521 24.5617L46.051 24.5574ZM50.6241 30.1201C50.2093 30.548 49.8592 30.7478 49.4671 30.804C49.3925 30.8148 49.3201 30.8191 49.2499 30.8191C49.0436 30.8191 48.8588 30.7781 48.7043 30.7273C48.7454 30.6387 48.7843 30.5501 48.8178 30.4626C48.848 30.4507 48.8783 30.4388 48.9085 30.427C50.0915 29.9721 51.1405 29.0873 51.8849 28.0188C51.6245 28.7373 51.2335 29.4903 50.6231 30.1201H50.6241ZM53.9052 23.0146C53.6934 23.1173 53.4849 23.2156 53.2796 23.3085C53.3898 23.4943 53.5011 23.6964 53.6091 23.9146C53.7107 24.1166 53.7993 24.3122 53.8782 24.4991C53.782 24.5325 53.6729 24.5628 53.553 24.5844C53.4233 24.6071 53.2991 24.6168 53.1824 24.6168C52.9998 24.6168 52.8367 24.593 52.7006 24.5628C52.666 24.5271 52.6271 24.4958 52.5871 24.4666C52.5601 23.7644 52.4024 23.0903 52.115 22.4615C51.967 22.1374 51.6958 21.6437 51.2475 21.1337C51.1416 21.0127 50.972 20.8215 50.7278 20.6109C50.9925 20.2079 51.2259 19.7855 51.4236 19.3479C51.5154 19.1448 51.5965 18.9374 51.6732 18.7289C52.0027 19.2226 52.2317 19.5575 52.5428 19.9745C53.3013 20.9879 53.5324 21.1867 53.9938 21.8922C54.2163 22.2325 54.3859 22.522 54.4972 22.7186C54.3049 22.8169 54.1083 22.9163 53.9062 23.0146H53.9052Z" fill="#1E1E1E"/>
<path d="M49.3686 12.6184C49.5426 12.9209 49.7835 13.366 50.0525 13.9569C50.4576 13.1099 50.6985 12.3667 50.8476 11.8168C51.1382 10.7418 51.3316 9.95423 51.0075 9.11155C50.9481 8.95598 50.6132 8.0863 50.0384 8.04416C49.8008 8.02688 49.6128 8.1576 49.5156 8.22566C49.307 8.37043 49.0596 8.64592 48.7971 9.89265C48.7301 10.2124 48.6524 10.6435 48.5951 11.1621C48.6588 11.2971 48.755 11.4991 48.8814 11.7411C49.0964 12.1549 49.2606 12.4315 49.3697 12.6195L49.3686 12.6184Z" fill="#1E1E1E"/>
<path d="M11.6749 22.1795C11.3616 22.4215 11.0169 22.7196 10.6658 23.0815C10.2542 23.5072 9.92792 23.9231 9.67404 24.2926C10.1548 24.1446 10.6356 23.9955 11.1174 23.8475C10.8106 24.2051 10.467 24.6589 10.144 25.2152C9.8523 25.7165 9.64163 26.1876 9.48822 26.5959C9.95709 26.3604 10.4649 26.1249 11.0137 25.9002C11.4426 25.7241 11.8574 25.5685 12.255 25.4324C12.0422 25.8775 11.811 26.4631 11.6533 27.1729C11.4739 27.9788 11.4458 28.6853 11.4642 29.2201C11.9882 29.2169 12.5337 29.2018 13.0988 29.1737C13.6692 29.1445 14.2191 29.1034 14.7452 29.0538C14.2828 29.6793 13.8096 30.4161 13.3797 31.2696C13.2306 31.5645 13.0977 31.8529 12.9767 32.1349C13.6303 31.6066 14.4935 31.0232 15.576 30.5414C16.0222 30.3426 16.45 30.186 16.8498 30.0617C17.0496 29.9775 17.2819 29.8943 17.5444 29.824C17.7551 29.7679 17.9517 29.7301 18.13 29.7041C17.7573 30.0498 17.1965 30.671 16.8584 31.6001C16.7255 31.9664 16.6531 32.3078 16.6153 32.6006C17.0377 32.1166 17.7086 31.4629 18.6734 30.9055C19.5096 30.4215 19.918 30.4042 20.6537 30.0866C21.2371 29.8348 23.2627 28.9587 24.0914 27.0324C24.7029 25.6096 24.5343 23.9113 23.8256 22.6289C22.4168 20.0825 19.2417 19.8383 18.3331 19.7681C14.7928 19.4959 12.2572 21.6587 11.6759 22.1827L11.6749 22.1795Z" fill="#1E1E1E"/>
<path d="M14.215 19.8568C13.9007 20.0977 13.5539 20.3937 13.2017 20.7534C12.7879 21.1769 12.4595 21.5907 12.2034 21.9591C12.6853 21.8133 13.1671 21.6674 13.6489 21.5205C13.34 21.8759 12.9953 22.3286 12.668 22.8839C12.3741 23.383 12.1613 23.8541 12.0046 24.2614C12.4746 24.028 12.9834 23.7957 13.5333 23.5732C13.9633 23.3992 14.3782 23.2458 14.7768 23.1119C14.5618 23.5559 14.3274 24.1404 14.1653 24.8491C13.9817 25.6539 13.9504 26.3605 13.9666 26.8953C14.4905 26.8953 15.0361 26.8823 15.6011 26.8564C16.1716 26.8304 16.7215 26.7916 17.2487 26.744C16.783 27.3674 16.3066 28.1009 15.8712 28.9533C15.7211 29.2472 15.586 29.5357 15.4639 29.8165C16.1208 29.2915 16.9862 28.7135 18.0719 28.236C18.5192 28.0394 18.9481 27.8849 19.3489 27.7628C19.5488 27.6796 19.781 27.5975 20.0446 27.5284C20.2553 27.4733 20.4519 27.4365 20.6313 27.4106C20.2575 27.7541 19.6924 28.3721 19.35 29.3001C19.2149 29.6664 19.1415 30.0067 19.1026 30.2995C19.5282 29.8176 20.2013 29.1673 21.1693 28.6141C22.0087 28.1344 22.4171 28.1193 23.1528 27.8049C23.7373 27.5554 25.7673 26.69 26.6056 24.768C27.2247 23.3485 27.0648 21.6491 26.3615 20.3634C24.9657 17.8095 21.7916 17.5491 20.883 17.4746C17.3438 17.185 14.7974 19.3349 14.214 19.8557L14.215 19.8568Z" fill="#FCB300"/>
<path d="M34.6488 18.9243C35.5984 19.673 36.1958 20.4595 36.5102 20.9262C36.8559 21.4383 37.0936 21.9072 37.2546 22.2659C37.0936 22.1762 36.8732 22.1373 36.629 22.0628C36.4692 22.0131 36.265 22.0077 36.1332 21.9871C35.8728 22.2864 35.8058 22.3718 35.4126 22.4776C34.9523 22.6019 34.5731 22.5522 34.3873 22.4982C33.5371 22.2508 33.0347 21.5885 32.7797 21.2439C32.098 20.3212 31.9295 19.364 31.8139 18.7115C31.7178 18.1638 31.6961 17.7035 31.6951 17.3892C32.434 17.6128 33.5371 18.0482 34.6488 18.9243Z" fill="white"/>
<path d="M46.2301 25.9068C46.1577 25.7253 46.2571 25.4735 46.4116 25.3428C46.6071 25.1775 46.8913 25.2153 47.4585 25.2899C47.7426 25.3277 47.7318 25.3482 47.9695 25.3709C48.2785 25.4001 48.5129 25.386 48.7992 25.3666C49.187 25.3407 49.3826 25.3331 49.5846 25.278C50.0902 25.1397 50.2123 24.9355 50.6077 24.9528C50.666 24.955 50.9696 24.9733 51.2289 25.1862C51.3121 25.2542 51.4309 25.3525 51.4493 25.506C51.4677 25.6572 51.3791 25.7728 51.2581 25.9295C51.0042 26.259 50.7287 26.3281 50.6704 26.3259C50.5893 26.3227 50.5202 26.2957 50.5191 26.2957C50.6606 25.964 50.6153 25.816 50.5602 25.7436C50.4121 25.5492 50.0686 25.7285 48.9321 25.896C48.2828 25.9921 47.9576 26.0008 47.8398 26.233C47.748 26.4135 47.7955 26.6879 47.6011 26.7905C47.5838 26.7991 47.5546 26.8153 47.5136 26.8197C47.3115 26.8424 47.2121 26.5539 46.9539 26.3281C46.605 26.0224 46.3209 26.1412 46.2269 25.9078L46.2301 25.9068Z" fill="white"/>
<path d="M29.4201 37.8262C27.2961 37.3476 25.9381 37.6458 25.4887 37.7592C25.1397 37.8478 24.8178 37.958 24.5239 38.079C24.7432 38.226 25.0641 38.4453 25.4444 38.7229C26.2104 39.2804 26.7527 39.7341 26.9817 39.9254C27.2788 40.1728 27.4625 40.3218 27.6127 40.4418C27.6127 40.4418 27.8557 40.6373 28.1334 40.8501C28.4186 41.0695 28.6444 41.2445 28.9112 41.4303C29.5724 41.8916 30.5167 42.4242 30.5545 42.4458C31.1789 42.7905 32.2398 43.9248 34.1369 47.5257C35.3977 44.465 35.2648 41.305 33.5741 39.6002C32.5023 38.5198 30.9488 38.1698 29.4201 37.8262Z" fill="white" stroke="#1E1E1E" stroke-width="1.1712" stroke-linecap="round" stroke-linejoin="round"/>
<path d="M27.4603 39.3572C26.5777 39.1184 24.7659 38.7533 22.6009 39.2135C22.1525 39.3086 21.7895 39.4177 21.5475 39.4977C21.7733 39.6683 22.1039 39.9233 22.495 40.2431C23.3377 40.9324 23.9222 41.4877 24.0691 41.6249C24.0691 41.6249 24.5758 42.0937 25.0997 42.5507C25.3666 42.783 25.5827 42.971 25.8376 43.1784C26.6695 43.8569 27.7153 44.5872 27.7682 44.6229C28.4715 45.1069 29.5724 46.453 31.3366 50.1791C31.5419 49.8075 33.5146 46.1105 31.6942 42.6545C30.9844 41.3072 29.9581 40.4883 29.2699 40.0421C28.6422 39.677 28.1269 39.5387 27.4603 39.3583V39.3572Z" fill="white" stroke="#1E1E1E" stroke-width="1.1712" stroke-linecap="round" stroke-linejoin="round"/>
<path d="M23.0231 41.6248C21.6262 41.2975 20.0511 40.8804 18.625 41.6929C18.087 41.9997 17.7272 42.3886 17.5112 42.6652C17.8266 42.8002 18.3268 43.0228 18.9232 43.3328C19.7248 43.7499 20.1969 44.0513 23.0836 46.0046C23.9274 46.5761 24.4665 46.9423 25.1828 47.5127C25.6614 47.8941 26.046 48.2042 26.4868 48.6536C26.9794 49.1549 27.5423 49.8312 28.0619 50.7203C28.2542 50.2849 28.4919 49.6464 28.6356 48.848C28.7749 48.0691 28.9986 46.9628 28.5805 45.795C28.0781 44.3948 27.0107 43.5997 26.2977 43.0682C24.9883 42.0915 23.7254 41.789 23.021 41.6248H23.0231Z" fill="white" stroke="#1E1E1E" stroke-width="1.1712" stroke-linecap="round" stroke-linejoin="round"/>
<path d="M22.8308 45.9645C22.646 45.6404 22.3814 45.0733 22.3468 44.3354C22.3273 43.913 22.2679 42.5204 23.278 41.8938C23.9641 41.4681 24.9115 41.5427 25.7034 42.0331C25.6937 41.9197 25.6041 40.5973 26.5677 39.8865C27.1219 39.4781 27.7302 39.4878 27.9895 39.4965C29.5041 39.5429 30.4322 40.9182 30.5564 41.1094C30.215 40.4137 30.3598 39.5937 30.8891 39.1065C31.318 38.711 31.9457 38.5846 32.527 38.7651C32.2396 38.2281 31.5341 37.0938 30.1588 36.3699C28.9283 35.7228 27.8037 35.7466 26.7481 35.7595C24.6566 35.7833 23.1646 36.506 22.8286 36.6757C22.2604 36.962 21.0968 37.5637 20.131 38.8137C19.8555 39.1702 17.4949 42.2179 18.8907 44.3743C20.0089 46.1039 22.632 45.9775 22.8286 45.9645H22.8308Z" fill="#FCB300" stroke="#1E1E1E" stroke-width="1.1712" stroke-linecap="round" stroke-linejoin="round"/>
<path d="M54.9714 39.1519C53.863 38.5145 52.5698 38.4896 51.8017 38.4745C51.4927 38.468 51.2366 38.4799 51.0638 38.4907C51.1848 38.643 51.3609 38.8688 51.5651 39.1486C51.9778 39.7115 52.2565 40.1523 52.3753 40.3381C52.5287 40.579 52.6238 40.7249 52.7027 40.8426C52.7027 40.8426 52.8302 41.0339 52.9771 41.2467C53.1283 41.4649 53.2483 41.6389 53.3941 41.829C53.6404 42.152 53.7571 42.3184 54.3178 42.9072C54.7013 43.3102 55.2394 44.3397 55.9653 46.9531C56.1144 46.7587 57.9521 44.2846 56.9647 41.6172C56.8415 41.2845 56.3208 39.9276 54.9725 39.1519H54.9714Z" fill="white" stroke="#1E1E1E" stroke-width="1.1712" stroke-linecap="round" stroke-linejoin="round"/>
<path d="M52.5461 39.9037C51.093 38.8212 49.5459 38.6548 49.0576 38.6084C48.7216 38.5759 48.4385 38.5738 48.2333 38.5792C48.3575 38.7607 48.5379 39.0254 48.754 39.3462C50.1369 41.4 50.9925 42.6694 51.5975 43.7865C52.1215 44.7534 52.7783 46.1946 53.2483 48.1522C53.4427 47.9545 55.423 45.8824 54.8731 43.2236C54.4842 41.3449 53.0625 40.2883 52.5471 39.9048L52.5461 39.9037Z" fill="white" stroke="#1E1E1E" stroke-width="1.1712" stroke-linecap="round" stroke-linejoin="round"/>
<path d="M48.7228 40.3804C48.0551 39.9861 46.911 39.3108 46.1116 39.8489C45.9474 39.9591 45.8372 40.0941 45.7702 40.1892C45.593 40.3761 45.4169 40.617 45.4612 40.8277C45.4969 40.9994 45.6773 41.0643 45.7162 41.1096C46.0684 41.5148 46.4757 42.0614 47.7191 43.7695C48.1707 44.3885 48.4581 44.785 48.8211 45.377C49.0977 45.8286 49.2965 46.2111 49.4023 46.4228C49.4304 46.4779 49.4466 46.5114 49.4563 46.5319C49.6065 46.8377 49.8885 47.3195 50.4622 48.0952C50.6718 47.8845 50.9526 47.5561 51.186 47.098C51.6819 46.1225 51.6279 45.2117 51.5965 44.7731C51.5047 43.4897 50.9321 42.6027 50.6588 42.1878C49.9555 41.1194 49.1214 40.6159 48.7228 40.3804Z" fill="white" stroke="#1E1E1E" stroke-width="1.1712" stroke-linecap="round" stroke-linejoin="round"/>
<path d="M47.611 43.684C47.5505 43.4744 47.4381 42.9796 47.6218 42.4222C47.6737 42.2655 47.9826 41.2845 48.8858 41.0966C49.6118 40.9453 50.1952 41.4142 50.286 41.4898C50.2989 41.4131 50.4945 40.3414 51.416 39.9676C51.927 39.7602 52.4067 39.8714 52.545 39.9049C53.1143 40.0443 53.4525 40.3997 53.5692 40.5348C53.5962 39.8628 54.0694 39.3313 54.6365 39.2567C55.2631 39.1735 55.7072 39.6889 55.7374 39.7245C55.3874 39.1184 55.006 38.7144 54.737 38.4681C52.975 36.8497 50.5701 36.9296 49.6593 37.0755C49.6291 37.0809 49.6053 37.0841 49.5891 37.0874C48.2398 37.3186 47.2631 38.0176 47.2631 38.0176C47.2534 38.0251 47.2199 38.0489 47.1864 38.0737C46.5447 38.5534 44.9468 40.1016 45.3541 41.6821C45.7193 43.0995 47.4641 43.6408 47.6132 43.6851L47.611 43.684Z" fill="#FCB300" stroke="#1E1E1E" stroke-width="1.1712" stroke-linecap="round" stroke-linejoin="round"/>
</svg>
