<svg width="16" height="16" viewBox="0 0 16 16" fill="none" xmlns="http://www.w3.org/2000/svg">
<path d="M3.5 7.5H13.5C13.6326 7.5 13.7598 7.55268 13.8536 7.64645C13.9473 7.74021 14 7.86739 14 8C14 8.13261 13.9473 8.25979 13.8536 8.35355C13.7598 8.44732 13.6326 8.5 13.5 8.5H3.5C3.36739 8.5 3.24021 8.44732 3.14645 8.35355C3.05268 8.25979 3 8.13261 3 8C3 7.86739 3.05268 7.74021 3.14645 7.64645C3.24021 7.55268 3.36739 7.5 3.5 7.5Z" fill="white"/>
<path d="M3.70701 8.00002L7.85401 12.146C7.9479 12.2399 8.00064 12.3672 8.00064 12.5C8.00064 12.6328 7.9479 12.7601 7.85401 12.854C7.76012 12.9479 7.63278 13.0007 7.50001 13.0007C7.36723 13.0007 7.2399 12.9479 7.14601 12.854L2.64601 8.35402C2.59945 8.30758 2.5625 8.2524 2.5373 8.19165C2.51209 8.13091 2.49911 8.06579 2.49911 8.00002C2.49911 7.93425 2.51209 7.86913 2.5373 7.80839C2.5625 7.74764 2.59945 7.69247 2.64601 7.64602L7.14601 3.14602C7.2399 3.05213 7.36723 2.99939 7.50001 2.99939C7.63278 2.99939 7.76012 3.05213 7.85401 3.14602C7.9479 3.23991 8.00064 3.36725 8.00064 3.50002C8.00064 3.6328 7.9479 3.76013 7.85401 3.85402L3.70701 8.00002Z" fill="white"/>
</svg>
