<svg width="29" height="29" viewBox="0 0 29 29" fill="none" xmlns="http://www.w3.org/2000/svg">
<g clip-path="url(#clip0_6643_57792)">
<path d="M18.2921 13.862C18.8634 13.5142 19.3454 13.0377 19.6999 12.4705C20.0544 11.9034 20.2714 11.2613 20.3338 10.5954C20.3446 9.99324 20.2367 9.39487 20.0162 8.83445C19.7958 8.27402 19.467 7.76252 19.0488 7.32916C18.6306 6.8958 18.1312 6.54908 17.579 6.30878C17.0267 6.06849 16.4326 5.93934 15.8305 5.92871H8.25879V22.262H16.4255C16.9985 22.2559 17.5647 22.137 18.0917 21.9121C18.6188 21.6872 19.0964 21.3606 19.4972 20.9511C19.898 20.5416 20.2143 20.0572 20.4279 19.5254C20.6415 18.9937 20.7483 18.4251 20.7421 17.852V17.712C20.7425 16.9037 20.5122 16.112 20.0782 15.43C19.6442 14.748 19.0246 14.204 18.2921 13.862ZM10.5921 8.26204H15.4921C15.9893 8.24666 16.4793 8.38371 16.8964 8.65481C17.3135 8.9259 17.6377 9.31808 17.8255 9.77871C18.0155 10.3945 17.954 11.0604 17.6545 11.631C17.355 12.2015 16.8418 12.6304 16.2271 12.8237C15.9884 12.8937 15.7409 12.929 15.4921 12.9287H10.5921V8.26204ZM15.9588 19.9287H10.5921V15.262H15.9588C16.456 15.2467 16.946 15.3837 17.3631 15.6548C17.7802 15.9259 18.1043 16.3181 18.2921 16.7787C18.4821 17.3945 18.4207 18.0604 18.1212 18.631C17.8217 19.2015 17.3085 19.6304 16.6938 19.8237C16.4551 19.8937 16.2075 19.929 15.9588 19.9287Z" fill="#D4D4D4"/>
</g>
<defs>
<clipPath id="clip0_6643_57792">
<rect width="28" height="28" fill="white" transform="translate(0.5 0.0952148)"/>
</clipPath>
</defs>
</svg>
