<svg width="20" height="21" viewBox="0 0 20 21" fill="#9BA0A6" xmlns="http://www.w3.org/2000/svg"> <path clip-rule="evenodd" fill-rule="evenodd" d="M5.83334 6.62871C5.83334 5.50861 5.83334 4.94855 6.05133 4.52073C6.24308 4.14441 6.54904 3.83844 6.92536 3.6467C7.35319 3.42871 7.91324 3.42871 9.03334 3.42871H10.9667C12.0868 3.42871 12.6468 3.42871 13.0747 3.6467C13.451 3.83844 13.7569 4.14441 13.9487 4.52073C14.1667 4.94855 14.1667 5.50861 14.1667 6.62871V16.762L12.126 14.9481C11.3737 14.2794 10.9976 13.9451 10.5732 13.8181C10.1993 13.7063 9.80077 13.7063 9.42685 13.8181C9.0024 13.9451 8.62628 14.2794 7.87405 14.9481L5.83334 16.762V6.62871Z" stroke="none"/> </svg> 