<svg width="20" height="21" viewBox="0 0 20 21" fill="none" xmlns="http://www.w3.org/2000/svg">
<path d="M5.83334 7.03325C5.83334 5.91315 5.83334 5.35309 6.05133 4.92527C6.24308 4.54895 6.54904 4.24299 6.92536 4.05124C7.35319 3.83325 7.91324 3.83325 9.03334 3.83325H10.9667C12.0868 3.83325 12.6468 3.83325 13.0747 4.05124C13.451 4.24299 13.7569 4.54895 13.9487 4.92527C14.1667 5.35309 14.1667 5.91315 14.1667 7.03325V17.1666L12.126 15.3526C11.3737 14.684 10.9976 14.3496 10.5732 14.2227C10.1993 14.1108 9.80077 14.1108 9.42685 14.2227C9.0024 14.3496 8.62628 14.684 7.87405 15.3526L5.83334 17.1666V7.03325Z" stroke="#737373" stroke-width="1.5" stroke-linecap="round" stroke-linejoin="round"/>
</svg>
