<svg width="29" height="29" viewBox="0 0 29 29" fill="none" xmlns="http://www.w3.org/2000/svg">
<path d="M22.6663 23.4287V25.762H6.33301V23.4287H22.6663ZM19.1663 15.5129C19.1279 16.2829 18.8993 17.0313 18.501 17.6914C18.1027 18.3515 17.5471 18.9026 16.8838 19.2955C16.2205 19.6884 15.4702 19.9108 14.6999 19.943C13.9296 19.9751 13.1634 19.8159 12.4697 19.4795C11.6701 19.1336 10.992 18.5569 10.5222 17.8231C10.0525 17.0894 9.8125 16.2322 9.83301 15.3612V5.93454H7.49967V15.5129C7.53914 16.6112 7.83667 17.6848 8.36816 18.6467C8.89965 19.6087 9.65018 20.432 10.559 21.05C11.4678 21.668 12.5093 22.0633 13.5993 22.2039C14.6893 22.3446 15.7971 22.2266 16.833 21.8595C18.211 21.4002 19.4065 20.5134 20.2458 19.3279C21.0851 18.1424 21.5243 16.7202 21.4997 15.2679V5.93454H19.1663V15.5129ZM19.1663 5.92871H21.4997H19.1663ZM9.83301 5.92871H7.49967H9.83301Z" fill="#D4D4D4"/>
</svg>
