<svg width="21" height="20" viewBox="0 0 21 20" fill="none" xmlns="http://www.w3.org/2000/svg">
<path d="M3.7334 8.75016C3.06673 8.75016 2.4834 9.3335 2.4834 10.0002C2.4834 10.6668 3.06673 11.2502 3.7334 11.2502C4.40007 11.2502 4.9834 10.6668 4.9834 10.0002C4.9834 9.3335 4.40007 8.75016 3.7334 8.75016ZM3.7334 4.5835C3.06673 4.5835 2.4834 5.16683 2.4834 5.8335C2.4834 6.50016 3.06673 7.0835 3.7334 7.0835C4.40007 7.0835 4.9834 6.50016 4.9834 5.8335C4.9834 5.16683 4.40007 4.5835 3.7334 4.5835ZM3.7334 12.9168C3.06673 12.9168 2.4834 13.5002 2.4834 14.1668C2.4834 14.8335 3.06673 15.4168 3.7334 15.4168C4.40007 15.4168 4.9834 14.8335 4.9834 14.1668C4.9834 13.5002 4.40007 12.9168 3.7334 12.9168ZM6.65006 5.00016V6.66683H18.3167V5.00016H6.65006ZM6.65006 15.0002H18.3167V13.3335H6.65006V15.0002ZM6.65006 10.8335H18.3167V9.16683H6.65006V10.8335Z" fill="#D4D4D4"/>
</svg>
