<svg width="25" height="25" viewBox="0 0 25 25" fill="none" xmlns="http://www.w3.org/2000/svg">
<path d="M19.7917 16.6667H17.1615C17.0062 16.6668 16.8529 16.702 16.7131 16.7696C16.5733 16.8373 16.4506 16.9356 16.3542 17.0573L13.3073 20.8594C13.2097 20.9814 13.0859 21.0799 12.9451 21.1476C12.8043 21.2153 12.65 21.2505 12.4937 21.2505C12.3375 21.2505 12.1832 21.2153 12.0424 21.1476C11.9016 21.0799 11.7778 20.9814 11.6802 20.8594L8.63333 17.0573C8.53675 16.9355 8.41388 16.837 8.2739 16.7694C8.13392 16.7018 7.98046 16.6666 7.825 16.6667H5.20833C3.47708 16.6667 2.08333 15.2729 2.08333 13.5417V6.25C2.08333 4.51875 3.47708 3.125 5.20833 3.125H19.7917C21.524 3.125 22.9167 4.51875 22.9167 6.25V13.5417C22.9167 15.2729 21.524 16.6667 19.7917 16.6667Z" fill="#979797"/>
</svg>
