<svg width="14" height="15" viewBox="0 0 14 15" fill="none" xmlns="http://www.w3.org/2000/svg">
<path d="M6.12496 13.3334C3.06438 13.3334 0.583293 10.7217 0.583293 7.50002C0.583293 4.27836 3.06438 1.66669 6.12496 1.66669C9.18554 1.66669 11.6666 4.27836 11.6666 7.50002C11.6666 10.7217 9.18554 13.3334 6.12496 13.3334Z" stroke="#262626" stroke-linecap="round" stroke-linejoin="round"/>
<path d="M7.58331 5.63335C7.21212 5.33217 6.74883 5.16744 6.27081 5.16669C5.06273 5.16669 4.08331 6.21085 4.08331 7.50002C4.08331 8.78919 5.06273 9.83335 6.27081 9.83335C6.76315 9.83335 7.21756 9.65952 7.58331 9.36669" stroke="#262626" stroke-linecap="round" stroke-linejoin="round"/>
<path d="M5.83331 1.66669C8.3609 1.66669 13.4166 2.25002 13.4166 7.50002C13.4166 12.75 8.3609 13.3334 5.83331 13.3334" stroke="#262626"/>
</svg>
