<svg width="20" height="21" viewBox="0 0 20 21" fill="none" xmlns="http://www.w3.org/2000/svg">
<path d="M10 3.83345H5.33334C4.22877 3.83345 3.33334 4.72888 3.33334 5.83345V15.1668C3.33334 16.2714 4.22877 17.1668 5.33334 17.1668H14.6667C15.7712 17.1668 16.6667 16.2714 16.6667 15.1668V10.5001M15.3452 7.51195L16.25 6.60716C16.9008 5.95628 16.9008 4.90101 16.25 4.25014C15.5991 3.59927 14.5438 3.59927 13.8929 4.25015L12.9882 5.15493M15.3452 7.51195L10.315 12.5423C10.0823 12.7749 9.78596 12.9335 9.46331 12.998L7.01186 13.4883L7.50215 11.0369C7.56668 10.7142 7.72527 10.4179 7.95794 10.1852L12.9882 5.15493M15.3452 7.51195L12.9882 5.15493" stroke="#737373" stroke-width="1.5" stroke-linecap="round" stroke-linejoin="round"/>
</svg>
