<svg width="54" height="33" viewBox="0 0 54 33" fill="none" xmlns="http://www.w3.org/2000/svg">
<path d="M13.875 9.54667V12.5625L23.0625 6L13.875 0.09375V2.77708C10.1719 3.11095 6.74038 4.8606 4.2952 7.66157C1.85002 10.4626 0.579711 14.0989 0.748883 17.8132C0.918055 21.5274 2.51366 25.0332 5.20334 27.6003C7.89302 30.1674 11.4694 31.5979 15.1875 31.5937C18.495 31.5937 23.0625 30.43 25.6875 27.6562C28.9688 23.8675 32.88 14.3271 32.88 14.3271L21.1638 21.925C20.3733 22.8139 19.3842 23.5036 18.2768 23.9379C17.1694 24.3722 15.9751 24.5388 14.7911 24.4243C13.6071 24.3097 12.4669 23.9172 11.4634 23.2786C10.4598 22.6401 9.62119 21.7735 9.01584 20.7496C8.41204 19.7236 8.05927 18.5694 7.9863 17.3812C7.91333 16.193 8.12221 15.0043 8.59592 13.9122C9.06964 12.82 9.79477 11.8553 10.7122 11.0966C11.6296 10.338 12.7133 9.80689 13.875 9.54667Z" fill="url(#paint0_linear_5366_2408)"/>
<path d="M40.125 23.4533V20.4375L30.9375 27L40.125 32.9063V30.2229C43.8281 29.8891 47.2596 28.1394 49.7048 25.3384C52.15 22.5375 53.4203 18.9011 53.2511 15.1869C53.0819 11.4726 51.4863 7.96678 48.7967 5.39968C46.107 2.83258 42.5306 1.40212 38.8125 1.40626C35.505 1.40626 30.9375 2.57001 28.3125 5.34376C25.0312 9.13251 21.12 18.6729 21.12 18.6729L32.8333 11.075C33.6234 10.186 34.6125 9.49634 35.7198 9.0623C36.8271 8.62827 38.0214 8.46215 39.2051 8.5775C40.3889 8.69284 41.5286 9.08639 42.5313 9.72603C43.534 10.3657 44.3713 11.2333 44.9749 12.2581C45.5785 13.2829 45.9313 14.4359 46.0045 15.623C46.0777 16.8101 45.8692 17.9977 45.396 19.0889C44.9229 20.1801 44.1985 21.144 43.282 21.902C42.3654 22.66 41.2827 23.1905 40.1221 23.4504" fill="url(#paint1_linear_5366_2408)"/>
<defs>
<linearGradient id="paint0_linear_5366_2408" x1="7.18417" y1="5.5625" x2="22.345" y2="39.5387" gradientUnits="userSpaceOnUse">
<stop stop-color="#FCB300"/>
<stop offset="0.13" stop-color="#FCBB1A"/>
<stop offset="0.258" stop-color="#FDC333"/>
<stop offset="0.376" stop-color="#FDCB4D"/>
<stop offset="0.492" stop-color="#FED366"/>
<stop offset="0.612" stop-color="#FEDC80"/>
<stop offset="0.731" stop-color="#FEE499"/>
<stop offset="0.829" stop-color="#FFECB3"/>
<stop offset="1" stop-color="#FFF4CC"/>
</linearGradient>
<linearGradient id="paint1_linear_5366_2408" x1="49.9425" y1="27.6563" x2="31.5675" y2="1.40626" gradientUnits="userSpaceOnUse">
<stop stop-color="#FCB300"/>
<stop offset="0.13" stop-color="#FCBB1A"/>
<stop offset="0.258" stop-color="#FDC333"/>
<stop offset="0.376" stop-color="#FDCB4D"/>
<stop offset="0.492" stop-color="#FED366"/>
<stop offset="0.612" stop-color="#FEDC80"/>
<stop offset="0.731" stop-color="#FEE499"/>
<stop offset="0.829" stop-color="#FFECB3"/>
<stop offset="1" stop-color="#FFF4CC"/>
</linearGradient>
</defs>
</svg>
