<svg width="32" height="32" viewBox="0 0 32 32" fill="none" xmlns="http://www.w3.org/2000/svg">
<g clip-path="url(#clip0_8055_4656)">
<path d="M16 8.75857C17.3114 9.81054 18.2581 11.2489 18.7056 12.8695C19.1532 14.4901 19.0787 16.2104 18.493 17.7863C17.9072 19.3622 16.8399 20.7135 15.4425 21.6483C14.0451 22.5831 12.3888 23.0539 10.7086 22.9939C9.02846 22.9338 7.40992 22.346 6.08283 21.3139C4.75574 20.2817 3.78755 18.8577 3.31574 17.244C2.84394 15.6304 2.89249 13.9091 3.45452 12.3246C4.01656 10.7401 5.06349 9.37293 6.44666 8.41724M11 22.9999V30.9999" stroke="#737373" stroke-width="2" stroke-linecap="round" stroke-linejoin="round"/>
<path d="M12.8453 18.432C11.6456 17.4207 10.7697 16.0789 10.3267 14.5736C9.88374 13.0682 9.89324 11.4659 10.354 9.96592C10.8148 8.46596 11.7065 7.13462 12.9182 6.13761C14.1299 5.14059 15.608 4.52193 17.1687 4.35861C18.7293 4.19529 20.3035 4.49452 21.6953 5.21907C23.0872 5.94363 24.2352 7.0615 24.9966 8.43356C25.7579 9.80563 26.0989 11.3713 25.9772 12.9357C25.8555 14.5001 25.2764 15.9942 24.312 17.232M23.6573 6.656L29 1M29 1H24M29 1V6M7 27H15" stroke="#737373" stroke-width="2" stroke-linecap="round" stroke-linejoin="round"/>
</g>
<defs>
<clipPath id="clip0_8055_4656">
<rect width="32" height="32" fill="white"/>
</clipPath>
</defs>
</svg>
