<svg width="17" height="11" viewBox="0 0 17 11" fill="none" xmlns="http://www.w3.org/2000/svg">
<path d="M9.2192 0.155214V10.0952H7.3012V5.85321H2.7932V10.0952H0.861195V0.155214H2.7932V4.17321H7.3012V0.155214H9.2192ZM16.8368 8.40121V10.0952H11.1528V8.40121H13.1408V4.15921C13.0568 4.27121 12.9215 4.38788 12.7348 4.50921C12.5575 4.62121 12.3615 4.72855 12.1468 4.83121C11.9322 4.93388 11.7082 5.01788 11.4748 5.08321C11.2508 5.14855 11.0502 5.18121 10.8728 5.18121V3.43121C11.0408 3.43121 11.2462 3.37988 11.4888 3.27721C11.7315 3.16521 11.9695 3.03455 12.2028 2.88521C12.4362 2.73588 12.6368 2.59121 12.8048 2.45121C12.9822 2.30188 13.0942 2.18521 13.1408 2.10121H15.0588V8.40121H16.8368Z" fill="#737373"/>
</svg>
