<svg width="18" height="11" viewBox="0 0 18 11" fill="none" xmlns="http://www.w3.org/2000/svg">
<path d="M8.72701 0.155214V10.0952H6.80901V5.85321H2.30101V10.0952H0.369008V0.155214H2.30101V4.17321H6.80901V0.155214H8.72701ZM10.2966 10.0952C10.2966 9.67521 10.3293 9.29721 10.3946 8.96121C10.46 8.61588 10.572 8.29855 10.7306 8.00921C10.8986 7.71988 11.1226 7.44921 11.4026 7.19721C11.692 6.94521 12.056 6.69788 12.4946 6.45521C12.8773 6.24988 13.2133 6.07255 13.5026 5.92321C13.8013 5.76455 14.0486 5.61988 14.2446 5.48921C14.4406 5.35855 14.59 5.22788 14.6926 5.09721C14.7953 4.95721 14.8466 4.79855 14.8466 4.62121C14.8466 4.34121 14.7346 4.10321 14.5106 3.90721C14.2866 3.70188 13.9646 3.59921 13.5446 3.59921C13.3206 3.59921 13.1153 3.63188 12.9286 3.69721C12.742 3.75321 12.5646 3.83255 12.3966 3.93521C12.238 4.03788 12.0886 4.15455 11.9486 4.28521C11.818 4.40655 11.6966 4.53721 11.5846 4.67721L10.3806 3.29121C10.502 3.16055 10.6746 3.02055 10.8986 2.87121C11.1226 2.71255 11.384 2.56788 11.6826 2.43721C11.9906 2.29721 12.3266 2.18521 12.6906 2.10121C13.064 2.00788 13.4606 1.96121 13.8806 1.96121C14.3566 1.96121 14.7813 2.02188 15.1546 2.14321C15.528 2.25521 15.8406 2.41855 16.0926 2.63321C16.354 2.83855 16.55 3.09055 16.6806 3.38921C16.8206 3.67855 16.8906 3.99588 16.8906 4.34121C16.8906 4.66788 16.83 4.95721 16.7086 5.20921C16.5873 5.46121 16.4333 5.68521 16.2466 5.88121C16.06 6.07721 15.8546 6.24988 15.6306 6.39921C15.416 6.53921 15.206 6.66521 15.0006 6.77721C14.8326 6.87055 14.6413 6.97788 14.4266 7.09921C14.212 7.22055 13.9973 7.35588 13.7826 7.50521C13.5773 7.64521 13.386 7.79455 13.2086 7.95321C13.0313 8.10255 12.896 8.25188 12.8026 8.40121H17.0446V10.0952H10.2966Z" fill="#737373"/>
</svg>
