<svg width="18" height="13" viewBox="0 0 18 13" fill="none" xmlns="http://www.w3.org/2000/svg">
<path d="M8.77486 0.155214V10.0952H6.85686V5.85321H2.34886V10.0952H0.416859V0.155214H2.34886V4.17321H6.85686V0.155214H8.77486ZM15.1465 6.79121C15.7252 6.89388 16.1918 7.17388 16.5465 7.63121C16.9105 8.07921 17.0925 8.62988 17.0925 9.28321C17.0925 9.72188 17.0038 10.1185 16.8265 10.4732C16.6585 10.8279 16.4158 11.1265 16.0985 11.3692C15.7905 11.6212 15.4125 11.8125 14.9645 11.9432C14.5165 12.0832 14.0125 12.1532 13.4525 12.1532C12.7432 12.1532 12.1132 12.0365 11.5625 11.8032C11.0212 11.5792 10.5685 11.2479 10.2045 10.8092L11.2685 9.47921C11.5112 9.78721 11.8005 10.0252 12.1365 10.1932C12.4725 10.3612 12.8925 10.4452 13.3965 10.4452C13.9658 10.4452 14.3998 10.3332 14.6985 10.1092C14.9972 9.88521 15.1465 9.53988 15.1465 9.07321C15.1465 8.58788 14.9738 8.21455 14.6285 7.95321C14.2832 7.69188 13.7605 7.56121 13.0605 7.56121H12.6685V6.16121H13.1025C13.6812 6.16121 14.1292 6.03521 14.4465 5.78321C14.7638 5.52188 14.9225 5.19055 14.9225 4.78921C14.9225 4.40655 14.7918 4.12188 14.5305 3.93521C14.2692 3.74855 13.9285 3.65521 13.5085 3.65521C13.0792 3.65521 12.6918 3.75321 12.3465 3.94921C12.0105 4.14521 11.7352 4.42055 11.5205 4.77521L10.3445 3.45921C10.4845 3.24455 10.6712 3.05321 10.9045 2.88521C11.1378 2.70788 11.3992 2.55855 11.6885 2.43721C11.9872 2.30655 12.3092 2.20855 12.6545 2.14321C12.9998 2.06855 13.3545 2.03121 13.7185 2.03121C14.1945 2.03121 14.6285 2.09188 15.0205 2.21321C15.4125 2.33455 15.7485 2.50255 16.0285 2.71721C16.3178 2.93188 16.5372 3.19321 16.6865 3.50121C16.8452 3.79988 16.9245 4.13588 16.9245 4.50921C16.9245 4.78921 16.8825 5.05521 16.7985 5.30721C16.7145 5.55921 16.5932 5.78788 16.4345 5.99321C16.2758 6.19855 16.0845 6.37121 15.8605 6.51121C15.6458 6.65121 15.4078 6.74455 15.1465 6.79121Z" fill="#737373"/>
</svg>
