<svg width="29" height="29" viewBox="0 0 29 29" fill="none" xmlns="http://www.w3.org/2000/svg">
<path d="M14.22 10.5954H16.5533L13.9867 22.262H11.6533L14.22 10.5954ZM16.18 5.92871C15.9492 5.92871 15.7237 5.99713 15.5318 6.12533C15.34 6.25352 15.1904 6.43573 15.1021 6.64891C15.0138 6.86209 14.9907 7.09667 15.0357 7.32298C15.0808 7.54929 15.1919 7.75717 15.355 7.92034C15.5182 8.0835 15.7261 8.19461 15.9524 8.23963C16.1787 8.28464 16.4133 8.26154 16.6265 8.17324C16.8396 8.08493 17.0218 7.9354 17.15 7.74354C17.2782 7.55169 17.3467 7.32612 17.3467 7.09538C17.3467 6.78596 17.2237 6.48921 17.0049 6.27042C16.7862 6.05163 16.4894 5.92871 16.18 5.92871Z" fill="#D4D4D4"/>
</svg>
