<svg width="29" height="29" viewBox="0 0 29 29" fill="none" xmlns="http://www.w3.org/2000/svg">
<path d="M8.66732 10.5954C8.66732 10.9048 8.5444 11.2015 8.32561 11.4203C8.10682 11.6391 7.81007 11.762 7.50065 11.762C7.19123 11.762 6.89449 11.6391 6.67569 11.4203C6.4569 11.2015 6.33398 10.9048 6.33398 10.5954C6.33398 10.286 6.4569 9.98921 6.67569 9.77042C6.89449 9.55163 7.19123 9.42871 7.50065 9.42871C7.81007 9.42871 8.10682 9.55163 8.32561 9.77042C8.5444 9.98921 8.66732 10.286 8.66732 10.5954ZM8.66732 14.0954C8.66732 14.4048 8.5444 14.7015 8.32561 14.9203C8.10682 15.1391 7.81007 15.262 7.50065 15.262C7.19123 15.262 6.89449 15.1391 6.67569 14.9203C6.4569 14.7015 6.33398 14.4048 6.33398 14.0954C6.33398 13.786 6.4569 13.4892 6.67569 13.2704C6.89449 13.0516 7.19123 12.9287 7.50065 12.9287C7.81007 12.9287 8.10682 13.0516 8.32561 13.2704C8.5444 13.4892 8.66732 13.786 8.66732 14.0954ZM12.1673 14.0954C12.1673 14.4048 12.0444 14.7015 11.8256 14.9203C11.6068 15.1391 11.3101 15.262 11.0007 15.262C10.6912 15.262 10.3945 15.1391 10.1757 14.9203C9.9569 14.7015 9.83398 14.4048 9.83398 14.0954C9.83398 13.786 9.9569 13.4892 10.1757 13.2704C10.3945 13.0516 10.6912 12.9287 11.0007 12.9287C11.3101 12.9287 11.6068 13.0516 11.8256 13.2704C12.0444 13.4892 12.1673 13.786 12.1673 14.0954ZM12.1673 10.5954C12.1673 10.9048 12.0444 11.2015 11.8256 11.4203C11.6068 11.6391 11.3101 11.762 11.0007 11.762C10.6912 11.762 10.3945 11.6391 10.1757 11.4203C9.9569 11.2015 9.83398 10.9048 9.83398 10.5954C9.83398 10.286 9.9569 9.98921 10.1757 9.77042C10.3945 9.55163 10.6912 9.42871 11.0007 9.42871C11.3101 9.42871 11.6068 9.55163 11.8256 9.77042C12.0444 9.98921 12.1673 10.286 12.1673 10.5954ZM15.6673 10.5954C15.6673 10.9048 15.5444 11.2015 15.3256 11.4203C15.1068 11.6391 14.8101 11.762 14.5007 11.762C14.1912 11.762 13.8945 11.6391 13.6757 11.4203C13.4569 11.2015 13.334 10.9048 13.334 10.5954C13.334 10.286 13.4569 9.98921 13.6757 9.77042C13.8945 9.55163 14.1912 9.42871 14.5007 9.42871C14.8101 9.42871 15.1068 9.55163 15.3256 9.77042C15.5444 9.98921 15.6673 10.286 15.6673 10.5954ZM15.6673 14.0954C15.6673 14.4048 15.5444 14.7015 15.3256 14.9203C15.1068 15.1391 14.8101 15.262 14.5007 15.262C14.1912 15.262 13.8945 15.1391 13.6757 14.9203C13.4569 14.7015 13.334 14.4048 13.334 14.0954C13.334 13.786 13.4569 13.4892 13.6757 13.2704C13.8945 13.0516 14.1912 12.9287 14.5007 12.9287C14.8101 12.9287 15.1068 13.0516 15.3256 13.2704C15.5444 13.4892 15.6673 13.786 15.6673 14.0954ZM19.1673 10.5954C19.1673 10.9048 19.0444 11.2015 18.8256 11.4203C18.6068 11.6391 18.3101 11.762 18.0007 11.762C17.6912 11.762 17.3945 11.6391 17.1757 11.4203C16.9569 11.2015 16.834 10.9048 16.834 10.5954C16.834 10.286 16.9569 9.98921 17.1757 9.77042C17.3945 9.55163 17.6912 9.42871 18.0007 9.42871C18.3101 9.42871 18.6068 9.55163 18.8256 9.77042C19.0444 9.98921 19.1673 10.286 19.1673 10.5954ZM19.1673 14.0954C19.1673 14.4048 19.0444 14.7015 18.8256 14.9203C18.6068 15.1391 18.3101 15.262 18.0007 15.262C17.6912 15.262 17.3945 15.1391 17.1757 14.9203C16.9569 14.7015 16.834 14.4048 16.834 14.0954C16.834 13.786 16.9569 13.4892 17.1757 13.2704C17.3945 13.0516 17.6912 12.9287 18.0007 12.9287C18.3101 12.9287 18.6068 13.0516 18.8256 13.2704C19.0444 13.4892 19.1673 13.786 19.1673 14.0954ZM22.6673 10.5954C22.6673 10.9048 22.5444 11.2015 22.3256 11.4203C22.1068 11.6391 21.8101 11.762 21.5007 11.762C21.1912 11.762 20.8945 11.6391 20.6757 11.4203C20.4569 11.2015 20.334 10.9048 20.334 10.5954C20.334 10.286 20.4569 9.98921 20.6757 9.77042C20.8945 9.55163 21.1912 9.42871 21.5007 9.42871C21.8101 9.42871 22.1068 9.55163 22.3256 9.77042C22.5444 9.98921 22.6673 10.286 22.6673 10.5954ZM22.6673 14.0954C22.6673 14.4048 22.5444 14.7015 22.3256 14.9203C22.1068 15.1391 21.8101 15.262 21.5007 15.262C21.1912 15.262 20.8945 15.1391 20.6757 14.9203C20.4569 14.7015 20.334 14.4048 20.334 14.0954C20.334 13.786 20.4569 13.4892 20.6757 13.2704C20.8945 13.0516 21.1912 12.9287 21.5007 12.9287C21.8101 12.9287 22.1068 13.0516 22.3256 13.2704C22.5444 13.4892 22.6673 13.786 22.6673 14.0954Z" fill="#D4D4D4"/>
<path fill-rule="evenodd" clip-rule="evenodd" d="M9.76982 5.05371H19.2315C20.8263 5.05371 22.1132 5.05371 23.1247 5.19021C24.1747 5.33021 25.059 5.63354 25.7613 6.33471C26.4637 7.03704 26.7647 7.92138 26.907 8.97138C27.0423 9.98288 27.0423 11.2697 27.0423 12.8645V15.3262C27.0423 16.921 27.0423 18.2079 26.907 19.2194C26.7647 20.2694 26.4637 21.1537 25.7613 21.856C25.059 22.5584 24.1747 22.8594 23.1247 23.0017C22.1132 23.137 20.8263 23.137 19.2315 23.137H9.76982C8.17498 23.137 6.88815 23.137 5.87665 23.0017C4.82665 22.8594 3.94232 22.5584 3.23998 21.856C2.53765 21.1537 2.23665 20.2694 2.09548 19.2194C1.95898 18.2079 1.95898 16.921 1.95898 15.3262V12.8645C1.95898 11.2697 1.95898 9.98288 2.09548 8.97138C2.23548 7.92138 2.53882 7.03704 3.23998 6.33471C3.94232 5.63238 4.82665 5.33138 5.87665 5.19021C6.88815 5.05371 8.17498 5.05371 9.76982 5.05371ZM6.10998 6.92388C5.25365 7.03938 4.80098 7.25054 4.47782 7.57254C4.15465 7.89571 3.94465 8.34838 3.82915 9.20588C3.71132 10.0855 3.70898 11.2545 3.70898 12.9287V15.262C3.70898 16.9362 3.71132 18.1052 3.82915 18.986C3.94465 19.8424 4.15582 20.295 4.47782 20.6182C4.80098 20.9414 5.25365 21.1514 6.11115 21.2669C6.99082 21.3847 8.15982 21.387 9.83398 21.387H19.1673C20.8415 21.387 22.0093 21.3847 22.8913 21.2669C23.7477 21.1514 24.2003 20.9402 24.5235 20.6182C24.8467 20.295 25.0567 19.8424 25.1722 18.9849C25.29 18.1052 25.2923 16.9362 25.2923 15.262V12.9287C25.2923 11.2545 25.29 10.0855 25.1722 9.20471C25.0567 8.34838 24.8455 7.89571 24.5235 7.57254C24.2003 7.24938 23.7477 7.03938 22.8902 6.92388C22.0093 6.80604 20.8415 6.80371 19.1673 6.80371H9.83398C8.15982 6.80371 6.99082 6.80604 6.10998 6.92388ZM7.79232 18.762C7.79232 18.53 7.88451 18.3074 8.0486 18.1433C8.21269 17.9792 8.43525 17.887 8.66732 17.887H20.334C20.566 17.887 20.7886 17.9792 20.9527 18.1433C21.1168 18.3074 21.209 18.53 21.209 18.762C21.209 18.9941 21.1168 19.2167 20.9527 19.3808C20.7886 19.5449 20.566 19.637 20.334 19.637H8.66732C8.43525 19.637 8.21269 19.5449 8.0486 19.3808C7.88451 19.2167 7.79232 18.9941 7.79232 18.762Z" fill="#D4D4D4"/>
</svg>
