<svg width="26" height="25" viewBox="0 0 26 25" fill="none" xmlns="http://www.w3.org/2000/svg">
<path d="M23.4167 7.84912V17.7085C23.4167 18.5056 23.1122 19.2726 22.5653 19.8525C22.0185 20.4325 21.2707 20.7815 20.475 20.8283L20.2917 20.8335H5.70834C4.91125 20.8335 4.14427 20.529 3.56432 19.9822C2.98438 19.4353 2.63531 18.6876 2.58855 17.8918L2.58334 17.7085V7.84912L12.4219 14.4085L12.5427 14.4772C12.6851 14.5468 12.8415 14.583 13 14.583C13.1585 14.583 13.3149 14.5468 13.4573 14.4772L13.5781 14.4085L23.4167 7.84912Z" fill="#979797"/>
<path d="M20.2917 4.16675C21.4167 4.16675 22.4031 4.7605 22.9531 5.65321L13 12.2886L3.04688 5.65321C3.30812 5.22906 3.66697 4.87352 4.09351 4.61622C4.52006 4.35891 5.00193 4.20731 5.49896 4.17404L5.70833 4.16675H20.2917Z" fill="#979797"/>
</svg>
