<svg width="100" height="38" viewBox="0 0 100 38" fill="none" xmlns="http://www.w3.org/2000/svg">
<g clip-path="url(#clip0_8753_3014)">
<path d="M90.4281 14.5835C86.0272 13.115 81.6782 16.7994 81.2855 21.1787C80.7212 27.4691 88.5813 27.8342 91.8254 24.0961C91.9345 23.8766 91.1331 22.5351 91.1455 22.1494C90.9299 21.9695 90.0507 22.7375 89.7811 22.883C88.0939 23.7957 85.3173 23.9927 85.3947 21.429L92.6756 20.4781C93.2729 18.1905 92.9896 15.4381 90.4277 14.5831L90.4281 14.5835ZM88.3961 19.028C88.1102 19.1001 85.9071 19.3877 85.7972 19.3178C85.5746 19.1758 86.0444 18.1422 86.1675 17.9315C86.4728 17.4112 87.0129 16.9225 87.6255 16.8174C88.6112 16.6485 89.3039 17.014 89.278 18.0801C89.2621 18.7223 88.9626 18.8855 88.3961 19.028Z" fill="#FCB300"/>
<path d="M80.9508 17.603C81.0964 17.5085 81.3898 15.301 81.3761 14.9408H78.8551C78.8106 14.9408 78.6831 14.7798 78.706 14.694L79.1115 11.4424L75.1698 12.9022C74.7489 13.1529 74.854 14.7103 74.5901 14.895C74.2136 15.0569 72.6351 14.7908 72.4679 15.0366C72.3593 15.1963 72.2221 17.2287 72.1147 17.6158H73.9154C74.021 17.6158 74.0759 17.8559 74.0746 17.9707C74.0557 20.3238 71.8904 24.594 74.5531 26.1356C75.7737 26.8424 78.0194 26.8064 79.2716 26.162C79.9903 25.7921 79.7277 24.0368 79.9344 23.2759C79.3226 23.4004 77.92 23.9651 77.5409 23.1483C77.1323 22.2674 78.1351 18.7255 78.3022 17.6294L80.9504 17.6026L80.9508 17.603Z" fill="#FCB300"/>
<path d="M69.5046 15.2885C67.9036 14.2057 65.1477 14.2475 63.3466 14.7643C62.7572 14.9332 60.6901 15.7521 60.6848 16.4303C60.683 16.6727 61.59 18.1179 61.6876 18.1382C62.0293 18.2081 62.7309 17.6157 63.0691 17.4709C64.126 17.0184 66.5463 16.535 66.8423 18.1034C67.0895 19.4141 66.5758 18.9743 65.7912 18.9496C63.523 18.8784 60.4512 19.2522 59.1872 21.4091C57.7709 23.8251 59.1005 26.3761 61.878 26.5665C63.3167 26.6651 64.3089 26.2248 65.4221 25.3786C65.5567 25.2761 65.6209 25.0663 65.6539 25.0483C66.1386 24.776 66.0014 25.2413 66.066 25.4635C66.3766 26.53 67.9621 26.5701 68.8655 26.457C69.0613 26.4324 70.0311 26.1373 70.1336 26.0278C70.2136 25.9424 70.5962 24.5891 70.5791 24.4607C70.536 24.1418 70.1736 24.2698 70.0289 23.9733C69.9233 23.7565 69.9427 23.464 69.9554 23.2265C70.0905 20.7771 72.0701 17.0232 69.505 15.2885H69.5046ZM66.099 22.5589C65.6632 23.8484 62.8298 24.4739 62.7436 22.8144C62.6504 21.0177 65.0074 20.7208 66.3519 21.012C66.4144 21.0722 66.1575 22.3851 66.099 22.5584V22.5589Z" fill="#FCB300"/>
<path d="M98.6406 23.544C98.5895 23.2792 98.0032 23.2005 97.8906 22.9669C97.7569 22.6907 97.8731 22.2007 97.8418 21.8876L100 8.86963C98.652 9.04512 97.2511 8.99234 95.9264 9.16783L95.8037 9.35388L93.5148 23.3218C93.4159 24.5116 93.9182 25.5707 95.1598 25.8003C95.6717 25.8948 97.3303 25.7444 97.8933 25.6428C98.0499 25.6147 98.0587 25.6045 98.1295 25.4673C98.1889 25.3516 98.6603 23.6416 98.6414 23.5435L98.6406 23.544Z" fill="#FCB300"/>
<path d="M50.3059 20.0554L53.2259 25.855L57.8124 26.1567L57.7526 25.65L54.5185 19.4199C56.1305 18.8142 57.5947 17.8167 58.272 16.1722C60.0757 11.7924 56.8048 9.58671 52.8257 9.38C50.5214 9.26036 48.0993 9.4662 45.7871 9.39803C45.7884 9.80663 45.2096 11.7973 45.2664 11.9952C45.3948 12.4447 46.3395 11.6996 46.281 12.7126C45.7062 16.587 44.6146 20.5304 44.0538 24.386C44.0186 24.6279 43.8 25.5568 44.0753 25.6421H48.2427L49.2595 19.9398C49.355 19.7995 50.166 19.8483 50.3063 20.0554H50.3059ZM50.6234 12.691C52.45 12.4531 54.8664 12.8392 54.0783 15.2715C53.8311 16.0337 52.7944 16.8953 51.9979 16.8953H49.8885L50.6234 12.6906V12.691Z" fill="#FCB300"/>
<g clip-path="url(#clip1_8753_3014)">
<path d="M31.2052 11.1491C30.8428 10.514 30.4364 9.90751 29.9904 9.33353C33.0164 5.60425 35.5933 2.14019 36.4562 0.431469C34.8197 1.33487 31.4211 3.9835 27.7921 7.04028C27.2762 6.6031 26.7313 6.19934 26.1599 5.83252C28.1097 3.35499 29.6746 1.18181 30.2714 0C29.0505 0.673812 26.6719 2.49469 24.0219 4.6881C22.1478 3.86958 20.0776 3.41524 17.9018 3.41524C9.44921 3.41524 2.59717 10.2673 2.59717 18.7198C2.59717 21.0351 3.11132 23.2303 4.03144 25.1976C2.12216 27.6056 0.577051 29.7172 0 30.8441C1.02611 30.2855 2.91868 28.8622 5.0923 27.0994C5.51233 27.7407 5.97987 28.3481 6.48874 28.9176C3.78162 32.2695 1.502 35.3189 0.721753 36.842C2.22068 36.0261 5.2845 33.6484 8.6065 30.8806C9.22314 31.3529 9.87716 31.7791 10.5628 32.1543C8.88007 34.2941 7.53553 36.1484 7.01521 37.1648C8.09718 36.5759 10.1855 34.9824 12.5315 33.0564C14.2024 33.6827 16.0118 34.0253 17.9013 34.0253C26.3539 34.0253 33.2059 27.1733 33.2059 18.7207C33.2059 16.7402 32.8299 14.8472 32.1446 13.1099C33.9681 10.7867 35.4271 8.7556 35.9891 7.64284C35.0079 8.18427 33.246 9.49979 31.2047 11.15L31.2052 11.1491Z" fill="#FCB300"/>
<path d="M17.9019 29.5298C23.8718 29.5298 28.7115 24.6902 28.7115 18.7202C28.7115 12.7503 23.8718 7.91064 17.9019 7.91064C11.9319 7.91064 7.09229 12.7503 7.09229 18.7202C7.09229 24.6902 11.9319 29.5298 17.9019 29.5298Z" fill="#1E1E1E"/>
<path d="M22.4909 15.5782C22.5419 15.5778 22.8775 15.5734 23.0301 15.3455C23.1172 15.2154 23.1137 15.0592 23.1097 15.0047C23.0974 14.8406 23.0191 14.7236 22.9791 14.6656C22.5652 14.063 22.2525 13.7217 22.2525 13.7217C22.0928 13.5475 21.8206 13.2502 21.6961 13.1143C20.9075 12.3006 20.1497 11.6787 19.5216 11.2182C19.442 11.1597 18.0667 10.16 16.5352 9.46377C16.1759 9.30059 15.8829 9.16776 15.6423 9.06396C15.3974 9.09827 15.1972 9.11235 15.0622 9.11894C14.8911 9.1273 14.8436 9.12246 14.4117 9.12994C14.3677 9.13082 14.1834 9.13346 13.9591 9.14005C13.5879 9.15061 13.4023 9.15633 13.3275 9.16293C13.1639 9.17744 12.8591 9.20471 12.5666 9.31071C12.4162 9.36525 11.8361 9.57504 11.5335 10.1565C11.5335 10.1565 11.3017 10.6012 11.3576 11.2807C11.3672 11.4003 11.3906 11.5085 11.3914 11.5134C11.4433 11.7526 11.5335 11.9198 11.5845 12.013C11.6215 12.0807 11.6606 12.1427 11.7006 12.2008C11.7301 12.2413 11.7684 12.2923 11.8141 12.3495C11.8554 12.4009 11.8876 12.4383 11.9117 12.4656C12.0015 12.5694 12.0477 12.6222 12.1039 12.6648C12.1127 12.6714 12.1031 12.6692 12.1981 12.7282C12.2852 12.7818 12.3934 12.8491 12.5284 13.0013C12.6533 13.1425 12.7676 13.2836 12.8121 13.4468C12.9977 13.3584 13.1696 13.1842 13.2141 12.956C13.2717 12.6604 13.0861 12.4234 13.0522 12.3811C13.0139 12.3758 12.9475 12.364 12.8728 12.3319C12.3375 12.1032 12.0257 11.1435 12.3758 10.5299C12.5499 10.2242 12.838 10.0932 12.8736 10.0773C13.7185 9.70875 14.8682 10.5255 15.4457 11.2015C15.8156 11.6347 16.0012 12.0689 16.0932 12.3257C16.1758 12.2918 16.2805 12.254 16.4037 12.2224C16.4037 12.2224 16.6078 12.17 16.8255 12.1555C17.5754 12.1049 18.784 12.7572 18.784 12.7572C19.2054 12.9846 19.4987 13.1891 19.8229 13.4156C20.1919 13.6733 20.5446 13.9196 20.9414 14.2785C21.814 15.068 21.9978 15.5848 22.4913 15.5787L22.4909 15.5782Z" fill="#FCB300"/>
<path d="M25.7192 13.3078C25.9127 13.8413 26.0728 14.3911 26.1956 14.9448C26.291 14.8028 26.3746 14.6532 26.4441 14.4984C26.5883 14.1787 26.6754 13.8378 26.7044 13.4837C26.7044 13.4125 26.7009 13.3364 26.6921 13.2564C26.6741 13.0848 26.6385 12.9375 26.6011 12.8192C26.7035 12.6529 26.8351 12.4097 26.9419 12.0983C27.0264 11.8511 27.1636 11.45 27.1297 10.993C27.1209 10.8765 27.0299 9.83891 26.2664 9.45846C26.0728 9.36214 25.8714 9.3252 25.6695 9.3252C25.2996 9.3252 24.9284 9.44923 24.6016 9.5605C24.3232 9.6555 24.1037 9.76722 23.9529 9.85343C24.1103 10.1169 24.3298 10.4921 24.5796 10.9495C25.0489 11.808 25.4078 12.4519 25.7192 13.3087V13.3078ZM25.977 10.9196C26.0834 10.412 26.1846 10.3003 26.2694 10.2409C26.309 10.2132 26.3856 10.16 26.4823 10.167C26.7167 10.1837 26.8527 10.5378 26.8768 10.6016C27.0088 10.9446 26.9296 11.2653 26.8117 11.7029C26.751 11.9268 26.653 12.2298 26.488 12.5742C26.379 12.3336 26.2809 12.1524 26.2096 12.0292C26.1652 11.9523 26.0984 11.8401 26.0108 11.6717C25.9598 11.5731 25.9202 11.4909 25.8943 11.4359C25.9176 11.2248 25.9492 11.0493 25.9765 10.9191L25.977 10.9196Z" fill="#FCB300"/>
<path d="M24.126 20.3657C24.0926 20.3657 24.06 20.3657 24.0279 20.3657C23.695 20.3639 22.8109 20.3595 22.0896 19.6866C21.7571 19.3761 21.5623 19.0207 21.4475 18.7119L21.4404 18.7128C21.4505 18.8258 21.4642 18.9784 21.4743 19.0959C21.5297 19.7231 21.5605 20.082 21.568 20.1691C21.5988 20.5161 21.6656 21.039 21.8244 21.7933C21.9757 22.4372 21.8996 22.5916 22.0791 22.7667C22.2004 22.885 22.4116 22.9153 22.7713 22.9153C22.9279 22.9153 23.1131 22.9096 23.3312 22.9026C24.2113 22.8749 24.4018 22.7434 24.4981 22.6123C24.5416 22.5529 24.5847 22.45 24.6709 22.2442C24.7831 21.9772 24.8447 21.7731 24.864 21.7106C25.0048 21.2506 25.1886 21.0527 25.4033 20.6208C25.511 20.4039 25.6355 20.1097 25.7362 19.7336C25.6953 19.7855 25.65 19.8365 25.5999 19.8858C25.1389 20.3375 24.5685 20.3665 24.1256 20.3665L24.126 20.3657Z" fill="#1E1E1E"/>
<path d="M23.7264 23.1438C22.739 23.2704 22.2455 23.3333 21.9165 23.0774C21.7757 22.9678 21.7916 22.9036 21.6724 22.4849C21.5879 22.1889 21.551 22.2311 21.4226 21.7231C21.3645 21.4927 21.3768 21.2631 21.4142 20.7551C21.467 20.039 21.4907 19.97 21.5083 19.9612C21.5092 19.9608 21.5105 19.9608 21.5123 19.9599C21.6429 19.9221 21.7749 20.0184 21.8061 20.0408C21.913 20.1182 21.9552 20.2326 22.0106 20.4072C22.1544 20.8615 22.2107 21.1566 22.2107 21.1566C22.2613 21.4232 22.26 21.4601 22.304 21.7143C22.3312 21.8714 22.3743 22.0842 22.4447 22.3358C22.5217 22.3077 22.636 22.2544 22.7429 22.1511C22.7605 22.1339 22.8221 22.0728 22.918 21.9096C22.9751 21.8124 23.0473 21.6748 23.1119 21.4979C23.2258 21.6651 23.2513 21.8115 23.2579 21.8881C23.2667 21.9862 23.2544 22.0776 23.2452 22.148C23.232 22.2487 23.2113 22.3319 23.1942 22.3908C23.2474 22.3917 23.3156 22.3921 23.3943 22.3895C23.5196 22.3851 23.6402 22.3816 23.7813 22.3569C23.8728 22.3411 23.9982 22.3116 24.1438 22.2549C24.222 22.1704 24.3263 22.0381 24.4076 21.8546C24.4732 21.7069 24.5035 21.5727 24.5185 21.4716C24.5594 21.5261 24.6152 21.6149 24.6504 21.7355C24.694 21.8841 24.7446 22.0112 24.7344 22.0847C24.7973 22.0244 24.7784 22.0169 24.8035 22.0249C24.9156 22.0605 24.9539 22.4603 24.7749 22.7475C24.6988 22.8693 24.5735 23.0343 23.7259 23.1429L23.7264 23.1438Z" fill="white"/>
<path d="M22.3857 21.6556C22.3743 21.3983 22.3435 21.1418 22.2947 20.8929C22.2481 20.6563 22.1957 20.4799 22.1575 20.3506C22.0963 20.1443 22.0581 20.0541 22.0418 20.0154C22 19.916 21.9516 19.8188 21.8975 19.7265L21.7607 19.4929L22.0172 19.4067C22.1298 19.3689 22.4082 19.2761 22.5599 19.233C22.574 19.229 22.6114 19.2185 22.6615 19.2106C22.7081 19.2031 22.7662 19.1938 22.8264 19.1938C22.8994 19.1938 22.9615 19.207 23.016 19.2348C23.2759 19.3654 23.2623 19.7436 23.2539 19.9693C23.2522 20.0128 23.2509 20.0453 23.2504 20.0519L23.2495 20.0651C23.2152 20.5551 23.1928 20.8788 23.0622 21.2355C22.9945 21.4207 22.9021 21.6001 22.7877 21.769L22.4156 22.3179L22.3857 21.6556Z" fill="white"/>
<path d="M22.8263 19.4144C22.8598 19.4144 22.8914 19.4188 22.9174 19.432C23.044 19.4958 23.0414 19.7667 23.0344 19.962C23.033 20.002 23.0317 20.0315 23.0313 20.0372C22.9974 20.5228 22.9767 20.8302 22.8558 21.1605C22.8101 21.2855 22.7348 21.4561 22.6055 21.6461C22.5915 21.329 22.5514 21.0598 22.5105 20.8509C22.463 20.609 22.4103 20.4296 22.368 20.2884C22.3073 20.0847 22.2677 19.9862 22.2444 19.9308C22.1881 19.7966 22.1305 19.6902 22.087 19.6159C22.1521 19.5939 22.4608 19.4901 22.6192 19.4457C22.6324 19.4421 22.6592 19.4347 22.6957 19.4285C22.737 19.4219 22.7832 19.4144 22.8263 19.4144ZM22.8263 18.9746C22.7489 18.9746 22.6785 18.9856 22.6271 18.994C22.562 19.0045 22.5145 19.0182 22.4987 19.0226C22.35 19.0643 22.0887 19.151 21.9467 19.1989L21.4338 19.3713L21.7078 19.838C21.7571 19.922 21.8011 20.0104 21.8394 20.1006C21.8543 20.1357 21.8891 20.2189 21.9467 20.4133C21.9836 20.5377 22.0346 20.7084 22.0791 20.9354C22.1257 21.1737 22.1552 21.4192 22.1661 21.6655L22.2255 22.9902L22.9693 21.8924C23.0937 21.709 23.1945 21.5133 23.2683 21.3114C23.4095 20.9257 23.4342 20.5716 23.4685 20.0812L23.4693 20.0676C23.4707 20.0469 23.4729 19.9893 23.4733 19.9779C23.483 19.7175 23.5006 19.2328 23.1144 19.0388C23.0295 18.9962 22.9328 18.9746 22.8259 18.9746H22.8263Z" fill="#1E1E1E"/>
<path d="M19.6694 17.946C19.811 17.7595 19.9944 17.551 20.228 17.3452C20.3494 17.2383 20.4686 17.1464 20.5816 17.0672C20.3248 16.8332 19.9936 16.5482 19.5929 16.243C19.4152 16.1075 18.8456 15.6804 18.0003 15.1869C17.1558 14.6939 16.6795 14.4159 16.0321 14.2488C15.8372 14.1982 15.4933 14.1234 15.1133 14.0632C14.7904 14.0117 14.5943 13.9805 14.3211 13.9695C13.9873 13.9559 13.7269 13.9862 13.2053 14.046C12.7527 14.0979 12.6014 14.1375 12.48 14.1771C12.2421 14.2545 12.0556 14.3526 11.9276 14.4296C11.8964 14.3548 11.8106 14.1204 11.9021 13.8591C11.9263 13.7905 11.9826 13.6326 12.1207 13.5415C12.1 13.5156 12.0727 13.4826 12.0345 13.4391C11.9641 13.3595 11.9214 13.3335 11.8515 13.29C11.731 13.2152 11.42 13.0243 11.2718 12.8594C9.25391 14.9063 8.7679 15.6118 8.66586 15.8572C8.65135 15.892 8.64607 16.3129 8.44463 16.7004C8.38965 16.8064 8.35182 16.8732 8.32543 16.9216C8.19876 17.1525 8.10024 17.3689 7.77169 18.1821C7.61951 18.5595 7.51879 18.8142 7.43083 19.1783C7.43083 19.1783 7.30768 19.6894 7.40532 19.7233C7.46865 19.7453 7.73695 19.5236 7.77609 19.5153C7.77609 19.5153 7.77741 19.5153 7.77873 19.5148C7.79149 19.5122 7.81832 19.5007 7.83107 19.5007C7.83415 19.5007 7.83635 19.5016 7.83767 19.5029C7.84383 19.5131 7.80072 19.5487 7.79457 19.554C7.73123 19.6085 7.62259 19.8218 7.58257 20.1424C7.53419 20.5308 7.60984 20.8906 7.65338 21.0608C7.73255 20.9614 7.84295 20.8409 7.99073 20.7235C8.13675 20.6069 8.27749 20.5268 8.39097 20.4723C8.28497 20.8189 8.22032 21.1237 8.17897 21.3669C8.07693 21.9695 7.97357 22.6182 8.17897 23.3602C8.26826 23.6826 8.39317 23.9412 8.50093 24.1295C8.57921 24.056 8.65794 23.983 8.73623 23.9095C8.74767 24.0375 8.7723 24.2152 8.83035 24.4197C8.89193 24.6357 8.98473 24.8618 9.06566 24.9928C9.38849 25.5136 10.1863 25.5994 10.3293 25.613C10.4617 24.6485 10.7401 23.9166 10.9569 23.4469C11.6079 22.0377 12.5429 21.1787 13.2172 20.559C13.5989 20.2084 13.9521 19.8873 14.5041 19.5544C14.9831 19.2659 15.7365 18.812 16.7956 18.7069C16.8928 18.6972 16.9786 18.6919 17.0639 18.6919C17.0837 18.6919 17.1035 18.6919 17.1237 18.6928C17.2873 18.6976 17.4391 18.7055 17.6031 18.7231C18.7053 18.8419 20.0393 19.32 20.0393 19.32C20.4822 19.4735 20.5671 19.5232 20.6313 19.5654C20.6498 19.5777 20.6674 19.5905 20.6854 19.6032C20.5614 19.3143 20.4052 18.9853 20.1576 18.6044C19.9703 18.3163 19.793 18.0937 19.669 17.9473L19.6694 17.946Z" fill="#FCB300"/>
<path d="M27.5014 15.0247C27.3747 14.8554 27.2814 14.7186 27.1473 14.5176C27.1161 14.6025 27.0831 14.6869 27.0457 14.7696C26.9657 14.9477 26.8702 15.1197 26.7625 15.2838C26.8614 15.3695 26.9305 15.4474 26.974 15.4966C27.1565 15.7042 27.2669 15.9052 27.3272 16.0372C27.4442 16.2932 27.5084 16.5676 27.5194 16.8535C27.5357 16.8654 27.5515 16.8781 27.5656 16.8926C27.621 16.9049 27.6874 16.9146 27.7617 16.9146C27.8092 16.9146 27.8594 16.9107 27.9126 16.9014C27.9614 16.8926 28.0058 16.8803 28.045 16.8667C28.0129 16.7906 27.9764 16.711 27.9355 16.6287C27.891 16.5403 27.8457 16.4581 27.8013 16.382C27.8849 16.3442 27.9698 16.3041 28.056 16.2624C28.1382 16.2223 28.2187 16.1823 28.2966 16.1419C28.2513 16.0618 28.1818 15.9435 28.0916 15.8054C27.9038 15.5182 27.8097 15.4373 27.5009 15.0247H27.5014Z" fill="#FCB300"/>
<path d="M25.0502 21.6015C25.0502 21.6015 25.0682 21.5791 25.0757 21.5399L24.6438 21.4568C24.6935 21.1982 24.7151 20.9378 24.7072 20.6832C24.7032 20.5547 24.6918 20.4311 24.6733 20.3163C24.6645 20.2627 24.6557 20.2086 24.6429 20.1681C24.6412 20.162 24.6385 20.1558 24.6363 20.1497C24.6174 20.0991 24.5818 20.0045 24.6148 19.8897C24.6874 19.6377 24.9535 19.6148 25.2358 19.5906L25.2662 19.5876C25.3018 19.584 25.3418 19.5801 25.3849 19.5801C25.4395 19.5801 25.4878 19.5867 25.5327 19.5999C25.8393 19.6896 25.7377 20.1149 25.6946 20.2966C25.6897 20.3163 25.68 20.3564 25.68 20.3564C25.5859 20.7359 25.399 21.1212 25.1092 21.5342C25.0942 21.5553 25.0784 21.572 25.0647 21.5866C25.0599 21.5914 25.0551 21.5962 25.0507 21.6015H25.0502Z" fill="white"/>
<path d="M25.3849 19.8002C25.4143 19.8002 25.4434 19.8028 25.4711 19.8112C25.5683 19.8398 25.5142 20.1063 25.4807 20.2457C25.475 20.269 25.4702 20.2893 25.4667 20.3038C25.3629 20.7212 25.1487 21.0959 24.9292 21.4082C24.9129 21.4315 24.8659 21.4685 24.8601 21.4988C24.912 21.2283 24.9358 20.949 24.9274 20.6768C24.9235 20.5426 24.9116 20.4098 24.8905 20.2809C24.8808 20.2207 24.8703 20.1582 24.8531 20.1028C24.839 20.0571 24.8096 20.0078 24.8263 19.9502C24.8562 19.8455 25.004 19.831 25.2547 19.809C25.2965 19.8055 25.3413 19.7993 25.3853 19.7993" fill="#1E1E1E"/>
<path d="M26.7273 16.3117C26.6929 16.2365 26.6151 16.0878 26.4788 15.9325C26.4277 15.8745 26.3508 15.787 26.228 15.703C26.1106 15.6225 25.9787 15.5644 25.8366 15.5297L25.6334 15.48L25.5912 15.275C25.4702 14.6856 25.3049 14.0993 25.099 13.5329C24.9376 13.0882 24.6368 12.26 24.0241 11.3047C23.5873 10.6238 23.0296 9.95399 22.4112 9.36771C21.8294 8.81617 21.1841 8.3306 20.4923 7.92068C20.1906 7.84635 19.5489 7.71484 18.7018 7.71484C18.1005 7.71484 17.3964 7.78126 16.6372 7.98138C16.6135 7.98754 16.5897 7.99413 16.5664 8.00073C17.918 8.52588 19.8743 9.52648 21.5769 11.4388C22.2243 12.1663 22.7169 12.8929 23.093 13.5509C23.3485 13.9278 23.4976 14.2722 23.5869 14.5216C23.6661 14.7428 23.7584 15.0089 23.7743 15.3731C23.7817 15.5437 23.7703 15.6871 23.7571 15.7905C23.5306 15.8419 23.0657 15.98 22.6413 16.3781C22.497 16.5135 22.2151 16.784 22.066 17.234C21.8549 17.8717 22.055 18.4338 22.1302 18.6181C22.128 18.6181 22.1254 18.6186 22.1232 18.619C22.212 18.8125 22.3435 19.0192 22.5401 19.2026C23.0723 19.6996 23.7202 19.7027 24.0311 19.7045C24.4085 19.7067 24.8364 19.7084 25.1386 19.4129C25.3167 19.2383 25.3977 19.0184 25.4337 18.8363C25.4262 18.824 25.4197 18.8116 25.4117 18.7993C25.3189 18.6529 25.209 18.5341 25.0779 18.4224C24.982 18.3406 24.8769 18.2535 24.7502 18.2258C24.6469 18.2034 24.5334 18.2192 24.4278 18.21C24.1983 18.1897 23.9863 18.0886 23.9273 17.8497C23.8723 17.6272 23.9344 17.4451 24.0566 17.3008C24.2537 17.069 24.5695 16.9521 24.8589 16.8892C25.5076 16.748 26.1902 16.7748 26.8517 16.7577C26.8337 16.6015 26.7919 16.4515 26.7273 16.3104V16.3117Z" fill="white"/>
<path d="M26.0221 19.2797C26.0098 19.2845 25.9975 19.2894 25.9851 19.2942C25.9711 19.3298 25.9557 19.3659 25.939 19.402C26.0019 19.4231 26.0771 19.4393 26.1611 19.4393C26.1897 19.4393 26.2191 19.4376 26.2495 19.4332C26.4091 19.4108 26.5521 19.3294 26.7205 19.1548C26.969 18.8984 27.1278 18.5914 27.2343 18.2993C26.9312 18.7339 26.5041 19.0941 26.0225 19.2797H26.0221Z" fill="white"/>
<path d="M28.8713 15.8168C28.8001 15.691 28.7236 15.5657 28.6444 15.4443C28.5173 15.2499 28.4223 15.1311 28.3123 14.9934C28.2371 14.8989 28.1518 14.792 28.03 14.6293C27.8923 14.445 27.7969 14.302 27.6236 14.0417L27.6047 14.0131C27.5224 13.8895 27.441 13.7646 27.361 13.6392C27.3632 13.5988 27.3641 13.5583 27.3645 13.5178C27.3693 13.4549 27.3729 13.3912 27.3746 13.3274H27.3601C27.3575 13.2803 27.354 13.2333 27.3491 13.1866C27.3394 13.0952 27.3254 13.0041 27.3073 12.9135C27.4094 12.7195 27.4965 12.5177 27.5673 12.3109C27.6601 12.04 27.8325 11.5351 27.7889 10.9435C27.77 10.6893 27.6231 9.39534 26.5614 8.86667C26.2918 8.73208 25.9918 8.66391 25.6703 8.66391C25.1834 8.66391 24.7247 8.82049 24.3895 8.9344C24.2796 8.97179 24.1709 9.01401 24.0641 9.06019C23.7676 8.80598 23.3331 8.47171 22.7824 8.15327C21.9032 7.64528 21.0988 7.39853 20.7935 7.31585C20.7777 7.31145 20.7618 7.30749 20.746 7.30353C20.6884 7.28902 20.6303 7.27494 20.5727 7.26043C19.9979 7.12672 19.343 7.05371 18.703 7.05371C17.947 7.05371 17.1957 7.15091 16.47 7.34224C15.8279 7.51157 15.2038 7.75567 14.6153 8.06707L13.8306 8.48226C13.5017 8.49194 13.3552 8.49634 13.2699 8.50426C13.09 8.52009 12.7161 8.55352 12.3432 8.68854C11.5396 8.97971 11.1415 9.48111 10.9493 9.85012C10.9164 9.9139 10.6318 10.4905 10.7008 11.3328C10.7136 11.4902 10.7422 11.6261 10.7479 11.6516C10.8214 11.989 10.9515 12.2265 11.007 12.3281C11.0254 12.362 11.094 12.4033 11.0646 12.4284C8.87117 14.2875 7.52619 16.4761 7.01687 19.0693C6.99751 19.1665 6.9443 19.2562 6.90911 19.3499L6.41431 20.6637L6.91043 20.493C6.91967 20.7793 6.96761 21.034 7.01555 21.2209L7.34366 22.5096L7.40215 22.4362C7.4004 22.7757 7.4369 23.1421 7.5451 23.5335C7.6335 23.8528 7.76281 24.1629 7.93038 24.455L8.3447 25.1776L8.39572 25.1297C8.43223 25.2066 8.46961 25.277 8.507 25.3377C8.9609 26.07 9.89113 26.2314 10.2698 26.267L10.8992 26.326L10.985 25.6997C11.0809 25.0025 11.2735 24.3366 11.5581 23.7209C12.154 22.4318 13.0275 21.6286 13.6657 21.0419C14.0127 20.723 14.3404 20.4218 14.8466 20.117C15.2865 19.8517 15.9515 19.4511 16.8628 19.3609C16.9433 19.353 17.0079 19.349 17.066 19.349C17.0796 19.349 17.0928 19.349 17.1065 19.3495C17.2789 19.3547 17.4069 19.3627 17.5349 19.3763C18.5442 19.4854 19.807 19.934 19.8197 19.9384L19.9275 19.9771H19.9297C20.1901 20.0699 20.2547 20.1029 20.2706 20.1134C20.5292 20.2841 20.666 20.5541 20.8599 20.9781C20.9488 21.1721 21.0754 21.4905 21.1762 21.9062C21.2342 22.145 21.2567 22.3082 21.2751 22.4392C21.3099 22.6886 21.3495 22.9714 21.6204 23.2362C21.9384 23.5467 22.3826 23.5731 22.7736 23.5731C22.9407 23.5731 23.1325 23.567 23.3542 23.5604C24.1555 23.5353 24.7154 23.4328 25.0326 23.0005C25.1223 22.8782 25.1755 22.7511 25.2819 22.4973C25.4051 22.2035 25.4741 21.9779 25.4966 21.904L25.4974 21.9013C25.5665 21.6757 25.6483 21.535 25.7622 21.3401C25.8322 21.2196 25.9118 21.0833 25.9967 20.9122C26.126 20.6522 26.235 20.3765 26.323 20.0884C26.33 20.0875 26.3371 20.0866 26.3441 20.0857C26.7549 20.0277 27.0276 19.788 27.1974 19.6129C27.8426 18.9466 28.004 18.0709 28.0819 17.65C28.0889 17.6117 28.0955 17.5735 28.1021 17.5352C28.1575 17.5224 28.2125 17.5066 28.2661 17.4881L28.9298 17.2559L28.6879 16.6837L29.2127 16.4136L28.874 15.8159L28.8713 15.8168ZM24.6015 9.55984C24.967 9.42657 25.2885 9.32453 25.6694 9.32453C25.8713 9.32453 26.0727 9.36147 26.2663 9.4578C27.0298 9.83825 27.1213 10.8758 27.1296 10.9923C27.1631 11.4498 27.0263 11.8504 26.9418 12.0976C26.8354 12.409 26.7039 12.6527 26.601 12.8185C26.6384 12.9368 26.674 13.0842 26.692 13.2557C26.7004 13.3357 26.7039 13.4118 26.7043 13.4831C26.6753 13.8371 26.5882 14.178 26.444 14.4978C26.374 14.6526 26.2905 14.8021 26.1955 14.9442C26.023 14.2831 25.8546 13.7281 25.7191 13.3071C25.5304 12.7195 25.2701 11.9169 24.832 10.9154C24.6103 10.4083 24.4054 9.99306 24.2545 9.6997C24.3341 9.66363 24.4537 9.61262 24.6015 9.55852V9.55984ZM20.6317 19.5637C20.5679 19.5214 20.4826 19.4717 20.0397 19.3182C20.0397 19.3182 18.7057 18.8406 17.6035 18.7214C17.4394 18.7038 17.2872 18.6959 17.1241 18.691C17.1043 18.6906 17.084 18.6902 17.0642 18.6902C16.9789 18.6902 16.8931 18.6954 16.7959 18.7051C15.7368 18.8102 14.9834 19.2641 14.5045 19.5527C13.952 19.8856 13.5989 20.2062 13.2175 20.5572C12.5433 21.1769 11.6086 22.0359 10.9573 23.4451C10.7404 23.9144 10.462 24.6463 10.3296 25.6113C10.1867 25.5981 9.38885 25.5123 9.06601 24.9911C8.98465 24.86 8.89184 24.6344 8.83071 24.418C8.77265 24.2135 8.74802 24.0358 8.73658 23.9078C8.6583 23.9813 8.57957 24.0543 8.50128 24.1277C8.39352 23.9395 8.26861 23.6809 8.17933 23.3585C7.97393 22.6161 8.07729 21.9673 8.17933 21.3652C8.22067 21.122 8.28532 20.8172 8.39132 20.4706C8.27785 20.5251 8.1371 20.6052 7.99108 20.7217C7.8433 20.8396 7.7329 20.9597 7.65373 21.0591C7.61019 20.8889 7.53498 20.5295 7.58292 20.1407C7.62295 19.8201 7.73114 19.6068 7.79492 19.5522C7.80108 19.547 7.84418 19.5113 7.83802 19.5012C7.83714 19.4994 7.83494 19.499 7.83142 19.499C7.81867 19.499 7.79184 19.5104 7.77908 19.5131C7.68804 19.5324 7.60359 19.5566 7.52531 19.5839C7.55214 19.5228 7.57896 19.4616 7.60579 19.4005C7.61371 19.371 7.62515 19.342 7.62998 19.3121C7.95062 17.244 9.12583 14.8078 11.4697 12.9707C11.295 13.1075 11.7309 13.2143 11.8514 13.2887C11.9218 13.3322 11.964 13.3582 12.0344 13.4378C12.0727 13.4813 12.1004 13.5139 12.1206 13.5403C11.9829 13.6313 11.9262 13.7892 11.902 13.8578C11.8105 14.1191 11.8963 14.3535 11.9275 14.4283C12.0551 14.3513 12.2416 14.2537 12.4799 14.1758C12.6013 14.1362 12.7526 14.0971 13.2052 14.0447C13.7264 13.9845 13.9872 13.9546 14.321 13.9682C14.5937 13.9792 14.7903 14.0104 15.1132 14.0619C15.4936 14.1226 15.8371 14.1974 16.032 14.2475C16.6794 14.4146 17.1553 14.693 18.0002 15.1856C18.8455 15.6791 19.4151 16.1062 19.5928 16.2417C19.9939 16.5469 20.3247 16.8319 20.5815 17.0659C20.4685 17.1451 20.3493 17.2374 20.2279 17.3439C19.9939 17.5497 19.8105 17.7582 19.6693 17.9447C19.7934 18.0911 19.9706 18.3132 20.158 18.6018C20.4056 18.9827 20.5617 19.3116 20.6858 19.6006C20.6682 19.5879 20.6506 19.5751 20.6317 19.5628V19.5637ZM20.9409 14.2783C20.5441 13.9194 20.1914 13.6731 19.8224 13.4153C19.4978 13.1888 19.2049 12.9839 18.7835 12.7569C18.7835 12.7569 17.5749 12.1047 16.825 12.1552C16.6073 12.1698 16.4032 12.2221 16.4032 12.2221C16.28 12.2538 16.1754 12.2916 16.0927 12.3255C16.0012 12.0686 15.8151 11.6345 15.4452 11.2013C14.8682 10.5253 13.7185 9.7085 12.8731 10.0771C12.8375 10.0925 12.5499 10.224 12.3753 10.5297C12.0252 11.1432 12.337 12.1025 12.8723 12.3316C12.9475 12.3637 13.0134 12.3756 13.0517 12.3809C13.0856 12.4231 13.2707 12.6602 13.2136 12.9557C13.1691 13.184 12.9972 13.3582 12.8116 13.4466C12.7676 13.2834 12.6528 13.1418 12.5279 13.001C12.3929 12.8488 12.2847 12.782 12.1976 12.7279C12.1026 12.669 12.1122 12.6716 12.1034 12.6646C12.0472 12.6219 12.001 12.5691 11.9112 12.4653C11.8875 12.4381 11.8554 12.4007 11.8136 12.3492C11.7674 12.292 11.7296 12.2415 11.7001 12.2005C11.6601 12.1429 11.621 12.0805 11.584 12.0127C11.533 11.9195 11.4428 11.7524 11.3909 11.5131C11.3901 11.5083 11.3667 11.3996 11.3571 11.2804C11.3016 10.6009 11.533 10.1562 11.533 10.1562C11.8356 9.57479 12.4157 9.36455 12.5661 9.31045C12.8586 9.20446 13.1634 9.17719 13.327 9.16267C13.4018 9.15608 13.5874 9.1508 13.9586 9.1398C14.1829 9.13321 14.3672 9.13057 14.4112 9.12969C14.8427 9.12221 14.8906 9.12661 15.0617 9.11869C15.1972 9.11209 15.3969 9.09802 15.6418 9.06371C15.8829 9.16751 16.1758 9.30034 16.5347 9.46351C18.0662 10.1598 19.4411 11.1595 19.5211 11.218C20.1492 11.6785 20.907 12.3004 21.6956 13.1141C21.8201 13.25 22.0923 13.5473 22.252 13.7215C22.252 13.7215 22.5647 14.0628 22.9786 14.6653C23.0182 14.7234 23.0964 14.8404 23.1092 15.0044C23.1132 15.0585 23.1167 15.2151 23.0296 15.3453C22.877 15.5731 22.5414 15.5775 22.4904 15.578C21.9969 15.5841 21.813 15.0673 20.9404 14.2778L20.9409 14.2783ZM25.4033 20.6197C25.1887 21.0516 25.0048 21.2495 24.8641 21.7096C24.8452 21.772 24.7832 21.9761 24.671 22.2431C24.5848 22.4489 24.5413 22.5518 24.4982 22.6112C24.4018 22.7427 24.2114 22.8742 23.3313 22.9015C23.1132 22.9085 22.9284 22.9143 22.7714 22.9143C22.4116 22.9143 22.2005 22.8839 22.0791 22.7656C21.9001 22.5905 21.9758 22.4362 21.8245 21.7923C21.6657 21.0375 21.5988 20.515 21.568 20.168C21.5601 20.0813 21.5298 19.722 21.4744 19.0948C21.4638 18.9774 21.4506 18.8248 21.4405 18.7117L21.4475 18.7108C21.5623 19.0196 21.7572 19.375 22.0897 19.6855C22.8106 20.3584 23.6946 20.3628 24.028 20.3646C24.0601 20.3646 24.0926 20.3646 24.1261 20.3646C24.569 20.3646 25.1394 20.3356 25.6004 19.8839C25.6505 19.8346 25.6954 19.7836 25.7367 19.7317C25.6356 20.1082 25.5115 20.402 25.4038 20.6188L25.4033 20.6197ZM24.8588 16.8904C24.5694 16.9533 24.2536 17.0703 24.0566 17.3021C23.9343 17.4463 23.8723 17.628 23.9273 17.851C23.9862 18.0898 24.1982 18.191 24.4278 18.2112C24.5334 18.2204 24.6468 18.2042 24.7502 18.227C24.8764 18.2547 24.9815 18.3418 25.0779 18.4236C25.2089 18.5354 25.3189 18.6541 25.4117 18.8006C25.4192 18.8124 25.4262 18.8252 25.4337 18.8375C25.3976 19.0196 25.3167 19.2395 25.1386 19.4141C24.8368 19.7101 24.4089 19.7079 24.0311 19.7057C23.7197 19.704 23.0723 19.7009 22.5401 19.2039C22.3435 19.0205 22.212 18.8138 22.1231 18.6202C22.1253 18.6202 22.1279 18.6198 22.1301 18.6194C22.0549 18.4351 21.8548 17.873 22.0659 17.2352C22.215 16.7857 22.497 16.5148 22.6412 16.3793C23.0657 15.9813 23.5301 15.8432 23.7571 15.7917C23.7698 15.6884 23.7817 15.545 23.7742 15.3743C23.7584 15.0097 23.666 14.7441 23.5868 14.5228C23.4976 14.273 23.3485 13.9291 23.0929 13.5521C22.7173 12.8942 22.2247 12.1676 21.5768 11.4401C19.8743 9.52773 18.1308 8.47127 16.7792 7.94656C16.7792 7.94656 16.781 7.94612 16.7814 7.94612C17.0299 7.87399 17.2881 7.82253 17.6919 7.77898C17.9584 7.75039 18.2777 7.71565 18.7021 7.71609C19.1446 7.71653 19.7612 7.75523 20.4927 7.92193C20.772 8.0873 21.093 8.29402 21.4361 8.54956C21.6279 8.69206 21.9986 8.97795 22.4116 9.36939C23.3172 10.2271 23.8683 11.0632 24.0245 11.3064C24.6367 12.2617 24.9376 13.0899 25.0994 13.5345C25.3052 14.101 25.4706 14.6873 25.5916 15.2767L25.6338 15.4816L25.837 15.5313C25.9791 15.5661 26.111 15.6241 26.2284 15.7046C26.3512 15.7886 26.4281 15.8762 26.4791 15.9342C26.6155 16.0895 26.6933 16.2381 26.7276 16.3134C26.7923 16.4545 26.8336 16.6045 26.8521 16.7607C26.1911 16.7778 25.5084 16.751 24.8593 16.8922L24.8588 16.8904ZM26.7206 19.1551C26.5517 19.3292 26.4092 19.4106 26.2496 19.4335C26.2192 19.4379 26.1897 19.4396 26.1611 19.4396C26.0771 19.4396 26.0019 19.4229 25.939 19.4022C25.9557 19.3662 25.9716 19.3301 25.9852 19.2945C25.9975 19.2897 26.0098 19.2848 26.0222 19.28C26.5038 19.0948 26.9308 18.7346 27.2339 18.2996C27.1279 18.5921 26.9687 18.8986 26.7202 19.1551H26.7206ZM28.0564 16.2623C27.9701 16.3041 27.8853 16.3441 27.8017 16.382C27.8466 16.4576 27.8919 16.5399 27.9358 16.6287C27.9772 16.711 28.0133 16.7906 28.0454 16.8667C28.0062 16.8803 27.9618 16.8926 27.913 16.9014C27.8602 16.9106 27.8096 16.9146 27.7621 16.9146C27.6878 16.9146 27.6214 16.9049 27.5659 16.8926C27.5519 16.8781 27.536 16.8653 27.5198 16.8535C27.5088 16.5676 27.4446 16.2931 27.3276 16.0371C27.2673 15.9052 27.1569 15.7042 26.9744 15.4966C26.9313 15.4473 26.8622 15.3695 26.7628 15.2837C26.8706 15.1197 26.9656 14.9477 27.0461 14.7696C27.0835 14.6869 27.1164 14.6024 27.1477 14.5175C27.2818 14.7185 27.3751 14.8549 27.5017 15.0247C27.8105 15.4372 27.9046 15.5182 28.0924 15.8054C28.183 15.9439 28.2521 16.0618 28.2974 16.1418C28.2191 16.1818 28.139 16.2223 28.0568 16.2623H28.0564Z" fill="#1E1E1E"/>
<path d="M26.2094 12.0298C26.2803 12.153 26.3783 12.3342 26.4879 12.5748C26.6528 12.23 26.7509 11.9274 26.8116 11.7035C26.9299 11.2659 27.0086 10.9452 26.8767 10.6022C26.8525 10.5388 26.7161 10.1848 26.4821 10.1676C26.3854 10.1606 26.3088 10.2138 26.2693 10.2415C26.1844 10.3005 26.0837 10.4126 25.9768 10.9202C25.9495 11.0504 25.9178 11.2258 25.8945 11.437C25.9205 11.4919 25.9596 11.5742 26.0111 11.6727C26.0986 11.8412 26.1655 11.9538 26.2099 12.0303L26.2094 12.0298Z" fill="#1E1E1E"/>
<path d="M10.8641 15.9224C10.7365 16.021 10.5962 16.1424 10.4533 16.2897C10.2857 16.463 10.1529 16.6323 10.0495 16.7827C10.2452 16.7225 10.441 16.6618 10.6371 16.6015C10.5122 16.7471 10.3724 16.9318 10.2409 17.1584C10.1221 17.3624 10.0363 17.5542 9.97388 17.7205C10.1648 17.6246 10.3715 17.5287 10.5949 17.4372C10.7695 17.3655 10.9384 17.3022 11.1003 17.2468C11.0136 17.428 10.9195 17.6664 10.8553 17.9553C10.7823 18.2834 10.7708 18.5711 10.7783 18.7888C10.9916 18.7875 11.2137 18.7813 11.4438 18.7699C11.676 18.758 11.8999 18.7413 12.1141 18.7211C11.9258 18.9757 11.7332 19.2757 11.5581 19.6231C11.4974 19.7432 11.4433 19.8606 11.3941 19.9754C11.6602 19.7604 12.0116 19.5229 12.4523 19.3267C12.6339 19.2458 12.8081 19.182 12.9708 19.1314C13.0522 19.0971 13.1468 19.0632 13.2537 19.0347C13.3394 19.0118 13.4195 18.9964 13.492 18.9858C13.3403 19.1266 13.112 19.3795 12.9744 19.7577C12.9203 19.9068 12.8908 20.0458 12.8754 20.165C13.0474 19.968 13.3205 19.7019 13.7133 19.4749C14.0537 19.2779 14.22 19.2708 14.5195 19.1415C14.757 19.0391 15.5816 18.6824 15.919 17.8981C16.1679 17.3189 16.0993 16.6275 15.8108 16.1054C15.2373 15.0687 13.9446 14.9693 13.5747 14.9408C12.1334 14.8299 11.1011 15.7105 10.8645 15.9238L10.8641 15.9224Z" fill="#1E1E1E"/>
<path d="M11.8979 14.9768C11.7699 15.0749 11.6288 15.1954 11.4854 15.3418C11.3169 15.5142 11.1832 15.6827 11.079 15.8327C11.2751 15.7733 11.4713 15.7139 11.6675 15.6541C11.5417 15.7988 11.4014 15.9831 11.2681 16.2092C11.1485 16.4124 11.0618 16.6041 10.998 16.7699C11.1894 16.6749 11.3965 16.5804 11.6204 16.4898C11.7954 16.419 11.9643 16.3565 12.1266 16.302C12.0391 16.4827 11.9437 16.7207 11.8777 17.0092C11.8029 17.3369 11.7902 17.6245 11.7968 17.8422C12.0101 17.8422 12.2322 17.837 12.4622 17.8264C12.6945 17.8158 12.9183 17.8 13.133 17.7807C12.9434 18.0344 12.7494 18.3331 12.5722 18.6801C12.511 18.7997 12.4561 18.9172 12.4064 19.0315C12.6738 18.8178 13.0261 18.5825 13.4681 18.3881C13.6502 18.308 13.8248 18.2451 13.988 18.1954C14.0693 18.1616 14.1639 18.1281 14.2712 18.1C14.357 18.0775 14.437 18.0626 14.5101 18.052C14.3579 18.1919 14.1278 18.4435 13.9884 18.8213C13.9334 18.9704 13.9035 19.1089 13.8877 19.2281C14.061 19.032 14.335 18.7672 14.7291 18.542C15.0708 18.3467 15.2371 18.3406 15.5366 18.2126C15.7746 18.111 16.601 17.7587 16.9423 16.9762C17.1943 16.3983 17.1292 15.7064 16.8429 15.1831C16.2746 14.1433 14.9824 14.0373 14.6125 14.007C13.1717 13.8891 12.135 14.7643 11.8975 14.9763L11.8979 14.9768Z" fill="#FCB300"/>
<path d="M20.2169 14.5972C20.6035 14.902 20.8467 15.2222 20.9747 15.4122C21.1155 15.6206 21.2122 15.8115 21.2777 15.9575C21.2122 15.921 21.1225 15.9052 21.0231 15.8749C20.958 15.8546 20.8749 15.8524 20.8212 15.8441C20.7152 15.9659 20.6879 16.0006 20.5278 16.0437C20.3405 16.0943 20.1861 16.0741 20.1104 16.0521C19.7643 15.9514 19.5598 15.6818 19.456 15.5415C19.1785 15.1659 19.1098 14.7762 19.0628 14.5105C19.0236 14.2875 19.0148 14.1002 19.0144 13.9722C19.3152 14.0632 19.7643 14.2405 20.2169 14.5972Z" fill="white"/>
<path d="M18.0883 22.2922C17.2236 22.0974 16.6707 22.2188 16.4877 22.265C16.3457 22.301 16.2146 22.3459 16.095 22.3951C16.1843 22.455 16.3149 22.5442 16.4697 22.6573C16.7815 22.8842 17.0023 23.069 17.0956 23.1468C17.2165 23.2475 17.2913 23.3082 17.3524 23.357C17.3524 23.357 17.4514 23.4367 17.5644 23.5233C17.6805 23.6126 17.7725 23.6838 17.8811 23.7595C18.1503 23.9473 18.5347 24.1641 18.5501 24.1729C18.8043 24.3132 19.2362 24.775 20.0085 26.241C20.5218 24.995 20.4677 23.7085 19.7794 23.0144C19.3431 22.5746 18.7106 22.4321 18.0883 22.2922Z" fill="white" stroke="#1E1E1E" stroke-width="0.725712" stroke-linecap="round" stroke-linejoin="round"/>
<path d="M17.2902 22.9154C16.9309 22.8182 16.1933 22.6696 15.3119 22.8569C15.1294 22.8957 14.9816 22.9401 14.8831 22.9726C14.975 23.0421 15.1096 23.1459 15.2688 23.2761C15.6118 23.5567 15.8498 23.7828 15.9096 23.8386C15.9096 23.8386 16.1159 24.0295 16.3292 24.2156C16.4378 24.3101 16.5258 24.3867 16.6296 24.4711C16.9683 24.7473 17.394 25.0446 17.4156 25.0592C17.7019 25.2562 18.1501 25.8042 18.8683 27.3212C18.9519 27.1699 19.755 25.6648 19.0139 24.2578C18.7249 23.7093 18.3071 23.3759 18.0269 23.1943C17.7714 23.0456 17.5616 22.9893 17.2902 22.9159V22.9154Z" fill="white" stroke="#1E1E1E" stroke-width="0.725712" stroke-linecap="round" stroke-linejoin="round"/>
<path d="M15.484 23.8388C14.9153 23.7056 14.274 23.5358 13.6935 23.8665C13.4744 23.9914 13.328 24.1498 13.24 24.2624C13.3684 24.3174 13.5721 24.408 13.8148 24.5342C14.1412 24.704 14.3334 24.8267 15.5086 25.6219C15.8521 25.8545 16.0716 26.0036 16.3632 26.2359C16.558 26.3911 16.7146 26.5174 16.8941 26.7003C17.0946 26.9044 17.3238 27.1797 17.5353 27.5417C17.6136 27.3645 17.7104 27.1045 17.7689 26.7795C17.8256 26.4624 17.9167 26.012 17.7464 25.5365C17.5419 24.9665 17.1074 24.6428 16.8171 24.4264C16.284 24.0288 15.7699 23.9057 15.4831 23.8388H15.484Z" fill="white" stroke="#1E1E1E" stroke-width="0.725712" stroke-linecap="round" stroke-linejoin="round"/>
<path d="M15.4057 25.6055C15.3305 25.4736 15.2228 25.2427 15.2087 24.9423C15.2008 24.7703 15.1766 24.2034 15.5878 23.9483C15.8671 23.775 16.2528 23.8053 16.5752 24.005C16.5713 23.9588 16.5348 23.4205 16.9271 23.1311C17.1527 22.9648 17.4003 22.9688 17.5059 22.9723C18.1225 22.9912 18.5003 23.5511 18.5509 23.629C18.4119 23.3457 18.4709 23.0119 18.6864 22.8135C18.861 22.6526 19.1165 22.6011 19.3532 22.6746C19.2362 22.456 18.949 21.9941 18.3891 21.6995C17.8881 21.436 17.4303 21.4457 17.0005 21.451C16.149 21.4606 15.5416 21.7549 15.4049 21.8239C15.1735 21.9405 14.6998 22.1855 14.3066 22.6943C14.1945 22.8395 13.2334 24.0802 13.8017 24.9581C14.2569 25.6623 15.3248 25.6108 15.4049 25.6055H15.4057Z" fill="#FCB300" stroke="#1E1E1E" stroke-width="0.725712" stroke-linecap="round" stroke-linejoin="round"/>
<path d="M28.9597 24.0254C28.6989 23.575 28.2481 23.3028 27.9803 23.1413C27.8725 23.0762 27.7801 23.0283 27.7168 22.9971C27.7282 23.0754 27.7445 23.191 27.7599 23.3313C27.7907 23.6137 27.7995 23.8261 27.8034 23.9159C27.8087 24.032 27.8127 24.1028 27.8162 24.1604C27.8162 24.1604 27.8219 24.2537 27.8307 24.3583C27.8395 24.4661 27.8465 24.5519 27.8593 24.6486C27.8804 24.8127 27.8875 24.8949 27.9653 25.2169C28.0185 25.4372 27.9987 25.9096 27.7225 26.9788C27.8144 26.9405 28.9659 26.4422 29.1607 25.3009C29.1849 25.1584 29.2777 24.5743 28.9602 24.0258L28.9597 24.0254Z" fill="white" stroke="#1E1E1E" stroke-width="0.725712" stroke-linecap="round" stroke-linejoin="round"/>
<path d="M27.9512 23.7971C27.6591 23.1198 27.1476 22.746 26.9849 22.6303C26.8731 22.5507 26.7733 22.4922 26.7003 22.4521C26.7069 22.541 26.7166 22.6712 26.7276 22.8286C26.7971 23.8341 26.8402 24.456 26.8261 24.9732C26.8142 25.4205 26.7522 26.0627 26.5195 26.8486C26.6286 26.8187 27.7484 26.4911 28.0954 25.4416C28.3408 24.7001 28.0545 24.0382 27.9507 23.798L27.9512 23.7971Z" fill="white" stroke="#1E1E1E" stroke-width="0.725712" stroke-linecap="round" stroke-linejoin="round"/>
<path d="M26.5067 23.187C26.3515 22.9121 26.0854 22.4411 25.6944 22.4679C25.6143 22.4736 25.5475 22.4987 25.5048 22.5185C25.4041 22.5484 25.2933 22.5976 25.266 22.6808C25.2436 22.7485 25.2937 22.8083 25.2985 22.8321C25.3399 23.0467 25.3724 23.3225 25.4635 24.1775C25.4965 24.4876 25.5171 24.6859 25.5246 24.9683C25.5303 25.1838 25.5224 25.3593 25.5167 25.4556C25.5154 25.4807 25.5141 25.4957 25.5136 25.5053C25.5044 25.6439 25.5057 25.8708 25.5501 26.2609C25.6667 26.2293 25.8329 26.1708 26.0084 26.0569C26.3818 25.8141 26.5481 25.4816 26.6264 25.3206C26.8551 24.8496 26.834 24.4203 26.8221 24.2184C26.7913 23.6985 26.6 23.3511 26.5076 23.187H26.5067Z" fill="white" stroke="#1E1E1E" stroke-width="0.725712" stroke-linecap="round" stroke-linejoin="round"/>
<path d="M25.4419 24.1258C25.463 24.0396 25.5246 23.8421 25.7027 23.6829C25.7529 23.638 26.0616 23.3552 26.4183 23.4727C26.7051 23.5668 26.8155 23.8514 26.8322 23.8962C26.8524 23.8716 27.1396 23.5338 27.5403 23.5897C27.7624 23.6205 27.9093 23.7572 27.9511 23.7973C28.1235 23.9622 28.1702 24.1566 28.1838 24.2279C28.3303 23.9965 28.6051 23.9055 28.8202 23.9943C29.0577 24.0928 29.1096 24.3642 29.1131 24.3831C29.1131 24.0981 29.0608 23.8782 29.0164 23.7366C28.7243 22.8077 27.8605 22.3458 27.5095 22.2121C27.4977 22.2077 27.4884 22.2042 27.4823 22.202C26.9598 22.0089 26.4729 22.0564 26.4729 22.0564C26.468 22.0569 26.4513 22.0586 26.4342 22.0608C26.1105 22.0995 25.2317 22.3199 25.0536 22.9598C24.8939 23.5338 25.3988 24.0801 25.4424 24.1258H25.4419Z" fill="#FCB300" stroke="#1E1E1E" stroke-width="0.725712" stroke-linecap="round" stroke-linejoin="round"/>
<path d="M25.489 17.4993C25.814 17.4677 26.1553 17.4439 26.5116 17.4303C26.7245 17.4224 26.6937 17.4184 26.896 17.418" fill="#1E1E1E"/>
<path d="M25.489 17.4993C25.814 17.4677 26.1553 17.4439 26.5116 17.4303C26.7245 17.4224 26.6937 17.4184 26.896 17.418" stroke="white" stroke-width="0.387046" stroke-linecap="round" stroke-linejoin="round"/>
<path d="M31.2052 11.1491C30.8428 10.514 30.4364 9.90751 29.9904 9.33353C33.0164 5.60425 35.5933 2.14019 36.4562 0.431469C34.8197 1.33487 31.4211 3.9835 27.7921 7.04028C27.2762 6.6031 26.7313 6.19934 26.1599 5.83252C28.1097 3.35499 29.6746 1.18181 30.2714 0C29.0505 0.673812 26.6719 2.49469 24.0219 4.6881C22.1478 3.86958 20.0776 3.41524 17.9018 3.41524C9.44921 3.41524 2.59717 10.2673 2.59717 18.7198C2.59717 21.0351 3.11132 23.2303 4.03144 25.1976C2.12216 27.6056 0.577051 29.7172 0 30.8441C1.02611 30.2855 2.91868 28.8622 5.0923 27.0994C5.51233 27.7407 5.97987 28.3481 6.48874 28.9176C3.78162 32.2695 1.502 35.3189 0.721753 36.842C2.22068 36.0261 5.2845 33.6484 8.6065 30.8806C9.22314 31.3529 9.87716 31.7791 10.5628 32.1543C8.88007 34.2941 7.53553 36.1484 7.01521 37.1648C8.09718 36.5759 10.1855 34.9824 12.5315 33.0564C14.2024 33.6827 16.0118 34.0253 17.9013 34.0253C26.3539 34.0253 33.2059 27.1733 33.2059 18.7207C33.2059 16.7402 32.8299 14.8472 32.1446 13.1099C33.9681 10.7867 35.4271 8.7556 35.9891 7.64284C35.0079 8.18427 33.246 9.49979 31.2047 11.15L31.2052 11.1491Z" fill="#FCB300"/>
<path d="M17.9019 29.5298C23.8718 29.5298 28.7115 24.6902 28.7115 18.7202C28.7115 12.7503 23.8718 7.91064 17.9019 7.91064C11.9319 7.91064 7.09229 12.7503 7.09229 18.7202C7.09229 24.6902 11.9319 29.5298 17.9019 29.5298Z" fill="#1E1E1E"/>
<path d="M22.4909 15.5782C22.5419 15.5778 22.8775 15.5734 23.0301 15.3455C23.1172 15.2154 23.1137 15.0592 23.1097 15.0047C23.0974 14.8406 23.0191 14.7236 22.9791 14.6656C22.5652 14.063 22.2525 13.7217 22.2525 13.7217C22.0928 13.5475 21.8206 13.2502 21.6961 13.1143C20.9075 12.3006 20.1497 11.6787 19.5216 11.2182C19.442 11.1597 18.0667 10.16 16.5352 9.46377C16.1759 9.30059 15.8829 9.16776 15.6423 9.06396C15.3974 9.09827 15.1972 9.11235 15.0622 9.11894C14.8911 9.1273 14.8436 9.12246 14.4117 9.12994C14.3677 9.13082 14.1834 9.13346 13.9591 9.14005C13.5879 9.15061 13.4023 9.15633 13.3275 9.16293C13.1639 9.17744 12.8591 9.20471 12.5666 9.31071C12.4162 9.36525 11.8361 9.57504 11.5335 10.1565C11.5335 10.1565 11.3017 10.6012 11.3576 11.2807C11.3672 11.4003 11.3906 11.5085 11.3914 11.5134C11.4433 11.7526 11.5335 11.9198 11.5845 12.013C11.6215 12.0807 11.6606 12.1427 11.7006 12.2008C11.7301 12.2413 11.7684 12.2923 11.8141 12.3495C11.8554 12.4009 11.8876 12.4383 11.9117 12.4656C12.0015 12.5694 12.0477 12.6222 12.1039 12.6648C12.1127 12.6714 12.1031 12.6692 12.1981 12.7282C12.2852 12.7818 12.3934 12.8491 12.5284 13.0013C12.6533 13.1425 12.7676 13.2836 12.8121 13.4468C12.9977 13.3584 13.1696 13.1842 13.2141 12.956C13.2717 12.6604 13.0861 12.4234 13.0522 12.3811C13.0139 12.3758 12.9475 12.364 12.8728 12.3319C12.3375 12.1032 12.0257 11.1435 12.3758 10.5299C12.5499 10.2242 12.838 10.0932 12.8736 10.0773C13.7185 9.70875 14.8682 10.5255 15.4457 11.2015C15.8156 11.6347 16.0012 12.0689 16.0932 12.3257C16.1758 12.2918 16.2805 12.254 16.4037 12.2224C16.4037 12.2224 16.6078 12.17 16.8255 12.1555C17.5754 12.1049 18.784 12.7572 18.784 12.7572C19.2054 12.9846 19.4987 13.1891 19.8229 13.4156C20.1919 13.6733 20.5446 13.9196 20.9414 14.2785C21.814 15.068 21.9978 15.5848 22.4913 15.5787L22.4909 15.5782Z" fill="#FCB300"/>
<path d="M25.7192 13.3078C25.9127 13.8413 26.0728 14.3911 26.1956 14.9448C26.291 14.8028 26.3746 14.6532 26.4441 14.4984C26.5883 14.1787 26.6754 13.8378 26.7044 13.4837C26.7044 13.4125 26.7009 13.3364 26.6921 13.2564C26.6741 13.0848 26.6385 12.9375 26.6011 12.8192C26.7035 12.6529 26.8351 12.4097 26.9419 12.0983C27.0264 11.8511 27.1636 11.45 27.1297 10.993C27.1209 10.8765 27.0299 9.83891 26.2664 9.45846C26.0728 9.36214 25.8714 9.3252 25.6695 9.3252C25.2996 9.3252 24.9284 9.44923 24.6016 9.5605C24.3232 9.6555 24.1037 9.76722 23.9529 9.85343C24.1103 10.1169 24.3298 10.4921 24.5796 10.9495C25.0489 11.808 25.4078 12.4519 25.7192 13.3087V13.3078ZM25.977 10.9196C26.0834 10.412 26.1846 10.3003 26.2694 10.2409C26.309 10.2132 26.3856 10.16 26.4823 10.167C26.7167 10.1837 26.8527 10.5378 26.8768 10.6016C27.0088 10.9446 26.9296 11.2653 26.8117 11.7029C26.751 11.9268 26.653 12.2298 26.488 12.5742C26.379 12.3336 26.2809 12.1524 26.2096 12.0292C26.1652 11.9523 26.0984 11.8401 26.0108 11.6717C25.9598 11.5731 25.9202 11.4909 25.8943 11.4359C25.9176 11.2248 25.9492 11.0493 25.9765 10.9191L25.977 10.9196Z" fill="#FCB300"/>
<path d="M24.126 20.3657C24.0926 20.3657 24.06 20.3657 24.0279 20.3657C23.695 20.3639 22.8109 20.3595 22.0896 19.6866C21.7571 19.3761 21.5623 19.0207 21.4475 18.7119L21.4404 18.7128C21.4505 18.8258 21.4642 18.9784 21.4743 19.0959C21.5297 19.7231 21.5605 20.082 21.568 20.1691C21.5988 20.5161 21.6656 21.039 21.8244 21.7933C21.9757 22.4372 21.8996 22.5916 22.0791 22.7667C22.2004 22.885 22.4116 22.9153 22.7713 22.9153C22.9279 22.9153 23.1131 22.9096 23.3312 22.9026C24.2113 22.8749 24.4018 22.7434 24.4981 22.6123C24.5416 22.5529 24.5847 22.45 24.6709 22.2442C24.7831 21.9772 24.8447 21.7731 24.864 21.7106C25.0048 21.2506 25.1886 21.0527 25.4033 20.6208C25.511 20.4039 25.6355 20.1097 25.7362 19.7336C25.6953 19.7855 25.65 19.8365 25.5999 19.8858C25.1389 20.3375 24.5685 20.3665 24.1256 20.3665L24.126 20.3657Z" fill="#1E1E1E"/>
<path d="M23.7264 23.1438C22.739 23.2704 22.2455 23.3333 21.9165 23.0774C21.7757 22.9678 21.7916 22.9036 21.6724 22.4849C21.5879 22.1889 21.551 22.2311 21.4226 21.7231C21.3645 21.4927 21.3768 21.2631 21.4142 20.7551C21.467 20.039 21.4907 19.97 21.5083 19.9612C21.5092 19.9608 21.5105 19.9608 21.5123 19.9599C21.6429 19.9221 21.7749 20.0184 21.8061 20.0408C21.913 20.1182 21.9552 20.2326 22.0106 20.4072C22.1544 20.8615 22.2107 21.1566 22.2107 21.1566C22.2613 21.4232 22.26 21.4601 22.304 21.7143C22.3312 21.8714 22.3743 22.0842 22.4447 22.3358C22.5217 22.3077 22.636 22.2544 22.7429 22.1511C22.7605 22.1339 22.8221 22.0728 22.918 21.9096C22.9751 21.8124 23.0473 21.6748 23.1119 21.4979C23.2258 21.6651 23.2513 21.8115 23.2579 21.8881C23.2667 21.9862 23.2544 22.0776 23.2452 22.148C23.232 22.2487 23.2113 22.3319 23.1942 22.3908C23.2474 22.3917 23.3156 22.3921 23.3943 22.3895C23.5196 22.3851 23.6402 22.3816 23.7813 22.3569C23.8728 22.3411 23.9982 22.3116 24.1438 22.2549C24.222 22.1704 24.3263 22.0381 24.4076 21.8546C24.4732 21.7069 24.5035 21.5727 24.5185 21.4716C24.5594 21.5261 24.6152 21.6149 24.6504 21.7355C24.694 21.8841 24.7446 22.0112 24.7344 22.0847C24.7973 22.0244 24.7784 22.0169 24.8035 22.0249C24.9156 22.0605 24.9539 22.4603 24.7749 22.7475C24.6988 22.8693 24.5735 23.0343 23.7259 23.1429L23.7264 23.1438Z" fill="white"/>
<path d="M22.3857 21.6556C22.3743 21.3983 22.3435 21.1418 22.2947 20.8929C22.2481 20.6563 22.1957 20.4799 22.1575 20.3506C22.0963 20.1443 22.0581 20.0541 22.0418 20.0154C22 19.916 21.9516 19.8188 21.8975 19.7265L21.7607 19.4929L22.0172 19.4067C22.1298 19.3689 22.4082 19.2761 22.5599 19.233C22.574 19.229 22.6114 19.2185 22.6615 19.2106C22.7081 19.2031 22.7662 19.1938 22.8264 19.1938C22.8994 19.1938 22.9615 19.207 23.016 19.2348C23.2759 19.3654 23.2623 19.7436 23.2539 19.9693C23.2522 20.0128 23.2509 20.0453 23.2504 20.0519L23.2495 20.0651C23.2152 20.5551 23.1928 20.8788 23.0622 21.2355C22.9945 21.4207 22.9021 21.6001 22.7877 21.769L22.4156 22.3179L22.3857 21.6556Z" fill="white"/>
<path d="M22.8263 19.4144C22.8598 19.4144 22.8914 19.4188 22.9174 19.432C23.044 19.4958 23.0414 19.7667 23.0344 19.962C23.033 20.002 23.0317 20.0315 23.0313 20.0372C22.9974 20.5228 22.9767 20.8302 22.8558 21.1605C22.8101 21.2855 22.7348 21.4561 22.6055 21.6461C22.5915 21.329 22.5514 21.0598 22.5105 20.8509C22.463 20.609 22.4103 20.4296 22.368 20.2884C22.3073 20.0847 22.2677 19.9862 22.2444 19.9308C22.1881 19.7966 22.1305 19.6902 22.087 19.6159C22.1521 19.5939 22.4608 19.4901 22.6192 19.4457C22.6324 19.4421 22.6592 19.4347 22.6957 19.4285C22.737 19.4219 22.7832 19.4144 22.8263 19.4144ZM22.8263 18.9746C22.7489 18.9746 22.6785 18.9856 22.6271 18.994C22.562 19.0045 22.5145 19.0182 22.4987 19.0226C22.35 19.0643 22.0887 19.151 21.9467 19.1989L21.4338 19.3713L21.7078 19.838C21.7571 19.922 21.8011 20.0104 21.8394 20.1006C21.8543 20.1357 21.8891 20.2189 21.9467 20.4133C21.9836 20.5377 22.0346 20.7084 22.0791 20.9354C22.1257 21.1737 22.1552 21.4192 22.1661 21.6655L22.2255 22.9902L22.9693 21.8924C23.0937 21.709 23.1945 21.5133 23.2683 21.3114C23.4095 20.9257 23.4342 20.5716 23.4685 20.0812L23.4693 20.0676C23.4707 20.0469 23.4729 19.9893 23.4733 19.9779C23.483 19.7175 23.5006 19.2328 23.1144 19.0388C23.0295 18.9962 22.9328 18.9746 22.8259 18.9746H22.8263Z" fill="#1E1E1E"/>
<path d="M19.6694 17.946C19.811 17.7595 19.9944 17.551 20.228 17.3452C20.3494 17.2383 20.4686 17.1464 20.5816 17.0672C20.3248 16.8332 19.9936 16.5482 19.5929 16.243C19.4152 16.1075 18.8456 15.6804 18.0003 15.1869C17.1558 14.6939 16.6795 14.4159 16.0321 14.2488C15.8372 14.1982 15.4933 14.1234 15.1133 14.0632C14.7904 14.0117 14.5943 13.9805 14.3211 13.9695C13.9873 13.9559 13.7269 13.9862 13.2053 14.046C12.7527 14.0979 12.6014 14.1375 12.48 14.1771C12.2421 14.2545 12.0556 14.3526 11.9276 14.4296C11.8964 14.3548 11.8106 14.1204 11.9021 13.8591C11.9263 13.7905 11.9826 13.6326 12.1207 13.5415C12.1 13.5156 12.0727 13.4826 12.0345 13.4391C11.9641 13.3595 11.9214 13.3335 11.8515 13.29C11.731 13.2152 11.42 13.0243 11.2718 12.8594C9.25391 14.9063 8.7679 15.6118 8.66586 15.8572C8.65135 15.892 8.64607 16.3129 8.44463 16.7004C8.38965 16.8064 8.35182 16.8732 8.32543 16.9216C8.19876 17.1525 8.10024 17.3689 7.77169 18.1821C7.61951 18.5595 7.51879 18.8142 7.43083 19.1783C7.43083 19.1783 7.30768 19.6894 7.40532 19.7233C7.46865 19.7453 7.73695 19.5236 7.77609 19.5153C7.77609 19.5153 7.77741 19.5153 7.77873 19.5148C7.79149 19.5122 7.81832 19.5007 7.83107 19.5007C7.83415 19.5007 7.83635 19.5016 7.83767 19.5029C7.84383 19.5131 7.80072 19.5487 7.79457 19.554C7.73123 19.6085 7.62259 19.8218 7.58257 20.1424C7.53419 20.5308 7.60984 20.8906 7.65338 21.0608C7.73255 20.9614 7.84295 20.8409 7.99073 20.7235C8.13675 20.6069 8.27749 20.5268 8.39097 20.4723C8.28497 20.8189 8.22032 21.1237 8.17897 21.3669C8.07693 21.9695 7.97357 22.6182 8.17897 23.3602C8.26826 23.6826 8.39317 23.9412 8.50093 24.1295C8.57921 24.056 8.65794 23.983 8.73623 23.9095C8.74767 24.0375 8.7723 24.2152 8.83035 24.4197C8.89193 24.6357 8.98473 24.8618 9.06566 24.9928C9.38849 25.5136 10.1863 25.5994 10.3293 25.613C10.4617 24.6485 10.7401 23.9166 10.9569 23.4469C11.6079 22.0377 12.5429 21.1787 13.2172 20.559C13.5989 20.2084 13.9521 19.8873 14.5041 19.5544C14.9831 19.2659 15.7365 18.812 16.7956 18.7069C16.8928 18.6972 16.9786 18.6919 17.0639 18.6919C17.0837 18.6919 17.1035 18.6919 17.1237 18.6928C17.2873 18.6976 17.4391 18.7055 17.6031 18.7231C18.7053 18.8419 20.0393 19.32 20.0393 19.32C20.4822 19.4735 20.5671 19.5232 20.6313 19.5654C20.6498 19.5777 20.6674 19.5905 20.6854 19.6032C20.5614 19.3143 20.4052 18.9853 20.1576 18.6044C19.9703 18.3163 19.793 18.0937 19.669 17.9473L19.6694 17.946Z" fill="#FCB300"/>
<path d="M27.5014 15.0247C27.3747 14.8554 27.2814 14.7186 27.1473 14.5176C27.1161 14.6025 27.0831 14.6869 27.0457 14.7696C26.9657 14.9477 26.8702 15.1197 26.7625 15.2838C26.8614 15.3695 26.9305 15.4474 26.974 15.4966C27.1565 15.7042 27.2669 15.9052 27.3272 16.0372C27.4442 16.2932 27.5084 16.5676 27.5194 16.8535C27.5357 16.8654 27.5515 16.8781 27.5656 16.8926C27.621 16.9049 27.6874 16.9146 27.7617 16.9146C27.8092 16.9146 27.8594 16.9107 27.9126 16.9014C27.9614 16.8926 28.0058 16.8803 28.045 16.8667C28.0129 16.7906 27.9764 16.711 27.9355 16.6287C27.891 16.5403 27.8457 16.4581 27.8013 16.382C27.8849 16.3442 27.9698 16.3041 28.056 16.2624C28.1382 16.2223 28.2187 16.1823 28.2966 16.1419C28.2513 16.0618 28.1818 15.9435 28.0916 15.8054C27.9038 15.5182 27.8097 15.4373 27.5009 15.0247H27.5014Z" fill="#FCB300"/>
<path d="M25.0502 21.6015C25.0502 21.6015 25.0682 21.5791 25.0757 21.5399L24.6438 21.4568C24.6935 21.1982 24.7151 20.9378 24.7072 20.6832C24.7032 20.5547 24.6918 20.4311 24.6733 20.3163C24.6645 20.2627 24.6557 20.2086 24.6429 20.1681C24.6412 20.162 24.6385 20.1558 24.6363 20.1497C24.6174 20.0991 24.5818 20.0045 24.6148 19.8897C24.6874 19.6377 24.9535 19.6148 25.2358 19.5906L25.2662 19.5876C25.3018 19.584 25.3418 19.5801 25.3849 19.5801C25.4395 19.5801 25.4878 19.5867 25.5327 19.5999C25.8393 19.6896 25.7377 20.1149 25.6946 20.2966C25.6897 20.3163 25.68 20.3564 25.68 20.3564C25.5859 20.7359 25.399 21.1212 25.1092 21.5342C25.0942 21.5553 25.0784 21.572 25.0647 21.5866C25.0599 21.5914 25.0551 21.5962 25.0507 21.6015H25.0502Z" fill="white"/>
<path d="M25.3849 19.8002C25.4143 19.8002 25.4434 19.8028 25.4711 19.8112C25.5683 19.8398 25.5142 20.1063 25.4807 20.2457C25.475 20.269 25.4702 20.2893 25.4667 20.3038C25.3629 20.7212 25.1487 21.0959 24.9292 21.4082C24.9129 21.4315 24.8659 21.4685 24.8601 21.4988C24.912 21.2283 24.9358 20.949 24.9274 20.6768C24.9235 20.5426 24.9116 20.4098 24.8905 20.2809C24.8808 20.2207 24.8703 20.1582 24.8531 20.1028C24.839 20.0571 24.8096 20.0078 24.8263 19.9502C24.8562 19.8455 25.004 19.831 25.2547 19.809C25.2965 19.8055 25.3413 19.7993 25.3853 19.7993" fill="#1E1E1E"/>
<path d="M26.7273 16.3117C26.6929 16.2365 26.6151 16.0878 26.4788 15.9325C26.4277 15.8745 26.3508 15.787 26.228 15.703C26.1106 15.6225 25.9787 15.5644 25.8366 15.5297L25.6334 15.48L25.5912 15.275C25.4702 14.6856 25.3049 14.0993 25.099 13.5329C24.9376 13.0882 24.6368 12.26 24.0241 11.3047C23.5873 10.6238 23.0296 9.95399 22.4112 9.36771C21.8294 8.81617 21.1841 8.3306 20.4923 7.92068C20.1906 7.84635 19.5489 7.71484 18.7018 7.71484C18.1005 7.71484 17.3964 7.78126 16.6372 7.98138C16.6135 7.98754 16.5897 7.99413 16.5664 8.00073C17.918 8.52588 19.8743 9.52648 21.5769 11.4388C22.2243 12.1663 22.7169 12.8929 23.093 13.5509C23.3485 13.9278 23.4976 14.2722 23.5869 14.5216C23.6661 14.7428 23.7584 15.0089 23.7743 15.3731C23.7817 15.5437 23.7703 15.6871 23.7571 15.7905C23.5306 15.8419 23.0657 15.98 22.6413 16.3781C22.497 16.5135 22.2151 16.784 22.066 17.234C21.8549 17.8717 22.055 18.4338 22.1302 18.6181C22.128 18.6181 22.1254 18.6186 22.1232 18.619C22.212 18.8125 22.3435 19.0192 22.5401 19.2026C23.0723 19.6996 23.7202 19.7027 24.0311 19.7045C24.4085 19.7067 24.8364 19.7084 25.1386 19.4129C25.3167 19.2383 25.3977 19.0184 25.4337 18.8363C25.4262 18.824 25.4197 18.8116 25.4117 18.7993C25.3189 18.6529 25.209 18.5341 25.0779 18.4224C24.982 18.3406 24.8769 18.2535 24.7502 18.2258C24.6469 18.2034 24.5334 18.2192 24.4278 18.21C24.1983 18.1897 23.9863 18.0886 23.9273 17.8497C23.8723 17.6272 23.9344 17.4451 24.0566 17.3008C24.2537 17.069 24.5695 16.9521 24.8589 16.8892C25.5076 16.748 26.1902 16.7748 26.8517 16.7577C26.8337 16.6015 26.7919 16.4515 26.7273 16.3104V16.3117Z" fill="white"/>
<path d="M26.0221 19.2797C26.0098 19.2845 25.9975 19.2894 25.9851 19.2942C25.9711 19.3298 25.9557 19.3659 25.939 19.402C26.0019 19.4231 26.0771 19.4393 26.1611 19.4393C26.1897 19.4393 26.2191 19.4376 26.2495 19.4332C26.4091 19.4108 26.5521 19.3294 26.7205 19.1548C26.969 18.8984 27.1278 18.5914 27.2343 18.2993C26.9312 18.7339 26.5041 19.0941 26.0225 19.2797H26.0221Z" fill="white"/>
<path d="M28.8713 15.8168C28.8001 15.691 28.7236 15.5657 28.6444 15.4443C28.5173 15.2499 28.4223 15.1311 28.3123 14.9934C28.2371 14.8989 28.1518 14.792 28.03 14.6293C27.8923 14.445 27.7969 14.302 27.6236 14.0417L27.6047 14.0131C27.5224 13.8895 27.441 13.7646 27.361 13.6392C27.3632 13.5988 27.3641 13.5583 27.3645 13.5178C27.3693 13.4549 27.3729 13.3912 27.3746 13.3274H27.3601C27.3575 13.2803 27.354 13.2333 27.3491 13.1866C27.3394 13.0952 27.3254 13.0041 27.3073 12.9135C27.4094 12.7195 27.4965 12.5177 27.5673 12.3109C27.6601 12.04 27.8325 11.5351 27.7889 10.9435C27.77 10.6893 27.6231 9.39534 26.5614 8.86667C26.2918 8.73208 25.9918 8.66391 25.6703 8.66391C25.1834 8.66391 24.7247 8.82049 24.3895 8.9344C24.2796 8.97179 24.1709 9.01401 24.0641 9.06019C23.7676 8.80598 23.3331 8.47171 22.7824 8.15327C21.9032 7.64528 21.0988 7.39853 20.7935 7.31585C20.7777 7.31145 20.7618 7.30749 20.746 7.30353C20.6884 7.28902 20.6303 7.27494 20.5727 7.26043C19.9979 7.12672 19.343 7.05371 18.703 7.05371C17.947 7.05371 17.1957 7.15091 16.47 7.34224C15.8279 7.51157 15.2038 7.75567 14.6153 8.06707L13.8306 8.48226C13.5017 8.49194 13.3552 8.49634 13.2699 8.50426C13.09 8.52009 12.7161 8.55352 12.3432 8.68854C11.5396 8.97971 11.1415 9.48111 10.9493 9.85012C10.9164 9.9139 10.6318 10.4905 10.7008 11.3328C10.7136 11.4902 10.7422 11.6261 10.7479 11.6516C10.8214 11.989 10.9515 12.2265 11.007 12.3281C11.0254 12.362 11.094 12.4033 11.0646 12.4284C8.87117 14.2875 7.52619 16.4761 7.01687 19.0693C6.99751 19.1665 6.9443 19.2562 6.90911 19.3499L6.41431 20.6637L6.91043 20.493C6.91967 20.7793 6.96761 21.034 7.01555 21.2209L7.34366 22.5096L7.40215 22.4362C7.4004 22.7757 7.4369 23.1421 7.5451 23.5335C7.6335 23.8528 7.76281 24.1629 7.93038 24.455L8.3447 25.1776L8.39572 25.1297C8.43223 25.2066 8.46961 25.277 8.507 25.3377C8.9609 26.07 9.89113 26.2314 10.2698 26.267L10.8992 26.326L10.985 25.6997C11.0809 25.0025 11.2735 24.3366 11.5581 23.7209C12.154 22.4318 13.0275 21.6286 13.6657 21.0419C14.0127 20.723 14.3404 20.4218 14.8466 20.117C15.2865 19.8517 15.9515 19.4511 16.8628 19.3609C16.9433 19.353 17.0079 19.349 17.066 19.349C17.0796 19.349 17.0928 19.349 17.1065 19.3495C17.2789 19.3547 17.4069 19.3627 17.5349 19.3763C18.5442 19.4854 19.807 19.934 19.8197 19.9384L19.9275 19.9771H19.9297C20.1901 20.0699 20.2547 20.1029 20.2706 20.1134C20.5292 20.2841 20.666 20.5541 20.8599 20.9781C20.9488 21.1721 21.0754 21.4905 21.1762 21.9062C21.2342 22.145 21.2567 22.3082 21.2751 22.4392C21.3099 22.6886 21.3495 22.9714 21.6204 23.2362C21.9384 23.5467 22.3826 23.5731 22.7736 23.5731C22.9407 23.5731 23.1325 23.567 23.3542 23.5604C24.1555 23.5353 24.7154 23.4328 25.0326 23.0005C25.1223 22.8782 25.1755 22.7511 25.2819 22.4973C25.4051 22.2035 25.4741 21.9779 25.4966 21.904L25.4974 21.9013C25.5665 21.6757 25.6483 21.535 25.7622 21.3401C25.8322 21.2196 25.9118 21.0833 25.9967 20.9122C26.126 20.6522 26.235 20.3765 26.323 20.0884C26.33 20.0875 26.3371 20.0866 26.3441 20.0857C26.7549 20.0277 27.0276 19.788 27.1974 19.6129C27.8426 18.9466 28.004 18.0709 28.0819 17.65C28.0889 17.6117 28.0955 17.5735 28.1021 17.5352C28.1575 17.5224 28.2125 17.5066 28.2661 17.4881L28.9298 17.2559L28.6879 16.6837L29.2127 16.4136L28.874 15.8159L28.8713 15.8168ZM24.6015 9.55984C24.967 9.42657 25.2885 9.32453 25.6694 9.32453C25.8713 9.32453 26.0727 9.36147 26.2663 9.4578C27.0298 9.83825 27.1213 10.8758 27.1296 10.9923C27.1631 11.4498 27.0263 11.8504 26.9418 12.0976C26.8354 12.409 26.7039 12.6527 26.601 12.8185C26.6384 12.9368 26.674 13.0842 26.692 13.2557C26.7004 13.3357 26.7039 13.4118 26.7043 13.4831C26.6753 13.8371 26.5882 14.178 26.444 14.4978C26.374 14.6526 26.2905 14.8021 26.1955 14.9442C26.023 14.2831 25.8546 13.7281 25.7191 13.3071C25.5304 12.7195 25.2701 11.9169 24.832 10.9154C24.6103 10.4083 24.4054 9.99306 24.2545 9.6997C24.3341 9.66363 24.4537 9.61262 24.6015 9.55852V9.55984ZM20.6317 19.5637C20.5679 19.5214 20.4826 19.4717 20.0397 19.3182C20.0397 19.3182 18.7057 18.8406 17.6035 18.7214C17.4394 18.7038 17.2872 18.6959 17.1241 18.691C17.1043 18.6906 17.084 18.6902 17.0642 18.6902C16.9789 18.6902 16.8931 18.6954 16.7959 18.7051C15.7368 18.8102 14.9834 19.2641 14.5045 19.5527C13.952 19.8856 13.5989 20.2062 13.2175 20.5572C12.5433 21.1769 11.6086 22.0359 10.9573 23.4451C10.7404 23.9144 10.462 24.6463 10.3296 25.6113C10.1867 25.5981 9.38885 25.5123 9.06601 24.9911C8.98465 24.86 8.89184 24.6344 8.83071 24.418C8.77265 24.2135 8.74802 24.0358 8.73658 23.9078C8.6583 23.9813 8.57957 24.0543 8.50128 24.1277C8.39352 23.9395 8.26861 23.6809 8.17933 23.3585C7.97393 22.6161 8.07729 21.9673 8.17933 21.3652C8.22067 21.122 8.28532 20.8172 8.39132 20.4706C8.27785 20.5251 8.1371 20.6052 7.99108 20.7217C7.8433 20.8396 7.7329 20.9597 7.65373 21.0591C7.61019 20.8889 7.53498 20.5295 7.58292 20.1407C7.62295 19.8201 7.73114 19.6068 7.79492 19.5522C7.80108 19.547 7.84418 19.5113 7.83802 19.5012C7.83714 19.4994 7.83494 19.499 7.83142 19.499C7.81867 19.499 7.79184 19.5104 7.77908 19.5131C7.68804 19.5324 7.60359 19.5566 7.52531 19.5839C7.55214 19.5228 7.57896 19.4616 7.60579 19.4005C7.61371 19.371 7.62515 19.342 7.62998 19.3121C7.95062 17.244 9.12583 14.8078 11.4697 12.9707C11.295 13.1075 11.7309 13.2143 11.8514 13.2887C11.9218 13.3322 11.964 13.3582 12.0344 13.4378C12.0727 13.4813 12.1004 13.5139 12.1206 13.5403C11.9829 13.6313 11.9262 13.7892 11.902 13.8578C11.8105 14.1191 11.8963 14.3535 11.9275 14.4283C12.0551 14.3513 12.2416 14.2537 12.4799 14.1758C12.6013 14.1362 12.7526 14.0971 13.2052 14.0447C13.7264 13.9845 13.9872 13.9546 14.321 13.9682C14.5937 13.9792 14.7903 14.0104 15.1132 14.0619C15.4936 14.1226 15.8371 14.1974 16.032 14.2475C16.6794 14.4146 17.1553 14.693 18.0002 15.1856C18.8455 15.6791 19.4151 16.1062 19.5928 16.2417C19.9939 16.5469 20.3247 16.8319 20.5815 17.0659C20.4685 17.1451 20.3493 17.2374 20.2279 17.3439C19.9939 17.5497 19.8105 17.7582 19.6693 17.9447C19.7934 18.0911 19.9706 18.3132 20.158 18.6018C20.4056 18.9827 20.5617 19.3116 20.6858 19.6006C20.6682 19.5879 20.6506 19.5751 20.6317 19.5628V19.5637ZM20.9409 14.2783C20.5441 13.9194 20.1914 13.6731 19.8224 13.4153C19.4978 13.1888 19.2049 12.9839 18.7835 12.7569C18.7835 12.7569 17.5749 12.1047 16.825 12.1552C16.6073 12.1698 16.4032 12.2221 16.4032 12.2221C16.28 12.2538 16.1754 12.2916 16.0927 12.3255C16.0012 12.0686 15.8151 11.6345 15.4452 11.2013C14.8682 10.5253 13.7185 9.7085 12.8731 10.0771C12.8375 10.0925 12.5499 10.224 12.3753 10.5297C12.0252 11.1432 12.337 12.1025 12.8723 12.3316C12.9475 12.3637 13.0134 12.3756 13.0517 12.3809C13.0856 12.4231 13.2707 12.6602 13.2136 12.9557C13.1691 13.184 12.9972 13.3582 12.8116 13.4466C12.7676 13.2834 12.6528 13.1418 12.5279 13.001C12.3929 12.8488 12.2847 12.782 12.1976 12.7279C12.1026 12.669 12.1122 12.6716 12.1034 12.6646C12.0472 12.6219 12.001 12.5691 11.9112 12.4653C11.8875 12.4381 11.8554 12.4007 11.8136 12.3492C11.7674 12.292 11.7296 12.2415 11.7001 12.2005C11.6601 12.1429 11.621 12.0805 11.584 12.0127C11.533 11.9195 11.4428 11.7524 11.3909 11.5131C11.3901 11.5083 11.3667 11.3996 11.3571 11.2804C11.3016 10.6009 11.533 10.1562 11.533 10.1562C11.8356 9.57479 12.4157 9.36455 12.5661 9.31045C12.8586 9.20446 13.1634 9.17719 13.327 9.16267C13.4018 9.15608 13.5874 9.1508 13.9586 9.1398C14.1829 9.13321 14.3672 9.13057 14.4112 9.12969C14.8427 9.12221 14.8906 9.12661 15.0617 9.11869C15.1972 9.11209 15.3969 9.09802 15.6418 9.06371C15.8829 9.16751 16.1758 9.30034 16.5347 9.46351C18.0662 10.1598 19.4411 11.1595 19.5211 11.218C20.1492 11.6785 20.907 12.3004 21.6956 13.1141C21.8201 13.25 22.0923 13.5473 22.252 13.7215C22.252 13.7215 22.5647 14.0628 22.9786 14.6653C23.0182 14.7234 23.0964 14.8404 23.1092 15.0044C23.1132 15.0585 23.1167 15.2151 23.0296 15.3453C22.877 15.5731 22.5414 15.5775 22.4904 15.578C21.9969 15.5841 21.813 15.0673 20.9404 14.2778L20.9409 14.2783ZM25.4033 20.6197C25.1887 21.0516 25.0048 21.2495 24.8641 21.7096C24.8452 21.772 24.7832 21.9761 24.671 22.2431C24.5848 22.4489 24.5413 22.5518 24.4982 22.6112C24.4018 22.7427 24.2114 22.8742 23.3313 22.9015C23.1132 22.9085 22.9284 22.9143 22.7714 22.9143C22.4116 22.9143 22.2005 22.8839 22.0791 22.7656C21.9001 22.5905 21.9758 22.4362 21.8245 21.7923C21.6657 21.0375 21.5988 20.515 21.568 20.168C21.5601 20.0813 21.5298 19.722 21.4744 19.0948C21.4638 18.9774 21.4506 18.8248 21.4405 18.7117L21.4475 18.7108C21.5623 19.0196 21.7572 19.375 22.0897 19.6855C22.8106 20.3584 23.6946 20.3628 24.028 20.3646C24.0601 20.3646 24.0926 20.3646 24.1261 20.3646C24.569 20.3646 25.1394 20.3356 25.6004 19.8839C25.6505 19.8346 25.6954 19.7836 25.7367 19.7317C25.6356 20.1082 25.5115 20.402 25.4038 20.6188L25.4033 20.6197ZM24.8588 16.8904C24.5694 16.9533 24.2536 17.0703 24.0566 17.3021C23.9343 17.4463 23.8723 17.628 23.9273 17.851C23.9862 18.0898 24.1982 18.191 24.4278 18.2112C24.5334 18.2204 24.6468 18.2042 24.7502 18.227C24.8764 18.2547 24.9815 18.3418 25.0779 18.4236C25.2089 18.5354 25.3189 18.6541 25.4117 18.8006C25.4192 18.8124 25.4262 18.8252 25.4337 18.8375C25.3976 19.0196 25.3167 19.2395 25.1386 19.4141C24.8368 19.7101 24.4089 19.7079 24.0311 19.7057C23.7197 19.704 23.0723 19.7009 22.5401 19.2039C22.3435 19.0205 22.212 18.8138 22.1231 18.6202C22.1253 18.6202 22.1279 18.6198 22.1301 18.6194C22.0549 18.4351 21.8548 17.873 22.0659 17.2352C22.215 16.7857 22.497 16.5148 22.6412 16.3793C23.0657 15.9813 23.5301 15.8432 23.7571 15.7917C23.7698 15.6884 23.7817 15.545 23.7742 15.3743C23.7584 15.0097 23.666 14.7441 23.5868 14.5228C23.4976 14.273 23.3485 13.9291 23.0929 13.5521C22.7173 12.8942 22.2247 12.1676 21.5768 11.4401C19.8743 9.52773 18.1308 8.47127 16.7792 7.94656C16.7792 7.94656 16.781 7.94612 16.7814 7.94612C17.0299 7.87399 17.2881 7.82253 17.6919 7.77898C17.9584 7.75039 18.2777 7.71565 18.7021 7.71609C19.1446 7.71653 19.7612 7.75523 20.4927 7.92193C20.772 8.0873 21.093 8.29402 21.4361 8.54956C21.6279 8.69206 21.9986 8.97795 22.4116 9.36939C23.3172 10.2271 23.8683 11.0632 24.0245 11.3064C24.6367 12.2617 24.9376 13.0899 25.0994 13.5345C25.3052 14.101 25.4706 14.6873 25.5916 15.2767L25.6338 15.4816L25.837 15.5313C25.9791 15.5661 26.111 15.6241 26.2284 15.7046C26.3512 15.7886 26.4281 15.8762 26.4791 15.9342C26.6155 16.0895 26.6933 16.2381 26.7276 16.3134C26.7923 16.4545 26.8336 16.6045 26.8521 16.7607C26.1911 16.7778 25.5084 16.751 24.8593 16.8922L24.8588 16.8904ZM26.7206 19.1551C26.5517 19.3292 26.4092 19.4106 26.2496 19.4335C26.2192 19.4379 26.1897 19.4396 26.1611 19.4396C26.0771 19.4396 26.0019 19.4229 25.939 19.4022C25.9557 19.3662 25.9716 19.3301 25.9852 19.2945C25.9975 19.2897 26.0098 19.2848 26.0222 19.28C26.5038 19.0948 26.9308 18.7346 27.2339 18.2996C27.1279 18.5921 26.9687 18.8986 26.7202 19.1551H26.7206ZM28.0564 16.2623C27.9701 16.3041 27.8853 16.3441 27.8017 16.382C27.8466 16.4576 27.8919 16.5399 27.9358 16.6287C27.9772 16.711 28.0133 16.7906 28.0454 16.8667C28.0062 16.8803 27.9618 16.8926 27.913 16.9014C27.8602 16.9106 27.8096 16.9146 27.7621 16.9146C27.6878 16.9146 27.6214 16.9049 27.5659 16.8926C27.5519 16.8781 27.536 16.8653 27.5198 16.8535C27.5088 16.5676 27.4446 16.2931 27.3276 16.0371C27.2673 15.9052 27.1569 15.7042 26.9744 15.4966C26.9313 15.4473 26.8622 15.3695 26.7628 15.2837C26.8706 15.1197 26.9656 14.9477 27.0461 14.7696C27.0835 14.6869 27.1164 14.6024 27.1477 14.5175C27.2818 14.7185 27.3751 14.8549 27.5017 15.0247C27.8105 15.4372 27.9046 15.5182 28.0924 15.8054C28.183 15.9439 28.2521 16.0618 28.2974 16.1418C28.2191 16.1818 28.139 16.2223 28.0568 16.2623H28.0564Z" fill="#1E1E1E"/>
<path d="M26.2094 12.0298C26.2803 12.153 26.3783 12.3342 26.4879 12.5748C26.6528 12.23 26.7509 11.9274 26.8116 11.7035C26.9299 11.2659 27.0086 10.9452 26.8767 10.6022C26.8525 10.5388 26.7161 10.1848 26.4821 10.1676C26.3854 10.1606 26.3088 10.2138 26.2693 10.2415C26.1844 10.3005 26.0837 10.4126 25.9768 10.9202C25.9495 11.0504 25.9178 11.2258 25.8945 11.437C25.9205 11.4919 25.9596 11.5742 26.0111 11.6727C26.0986 11.8412 26.1655 11.9538 26.2099 12.0303L26.2094 12.0298Z" fill="#1E1E1E"/>
<path d="M10.8641 15.9224C10.7365 16.021 10.5962 16.1424 10.4533 16.2897C10.2857 16.463 10.1529 16.6323 10.0495 16.7827C10.2452 16.7225 10.441 16.6618 10.6371 16.6015C10.5122 16.7471 10.3724 16.9318 10.2409 17.1584C10.1221 17.3624 10.0363 17.5542 9.97388 17.7205C10.1648 17.6246 10.3715 17.5287 10.5949 17.4372C10.7695 17.3655 10.9384 17.3022 11.1003 17.2468C11.0136 17.428 10.9195 17.6664 10.8553 17.9553C10.7823 18.2834 10.7708 18.5711 10.7783 18.7888C10.9916 18.7875 11.2137 18.7813 11.4438 18.7699C11.676 18.758 11.8999 18.7413 12.1141 18.7211C11.9258 18.9757 11.7332 19.2757 11.5581 19.6231C11.4974 19.7432 11.4433 19.8606 11.3941 19.9754C11.6602 19.7604 12.0116 19.5229 12.4523 19.3267C12.6339 19.2458 12.8081 19.182 12.9708 19.1314C13.0522 19.0971 13.1468 19.0632 13.2537 19.0347C13.3394 19.0118 13.4195 18.9964 13.492 18.9858C13.3403 19.1266 13.112 19.3795 12.9744 19.7577C12.9203 19.9068 12.8908 20.0458 12.8754 20.165C13.0474 19.968 13.3205 19.7019 13.7133 19.4749C14.0537 19.2779 14.22 19.2708 14.5195 19.1415C14.757 19.0391 15.5816 18.6824 15.919 17.8981C16.1679 17.3189 16.0993 16.6275 15.8108 16.1054C15.2373 15.0687 13.9446 14.9693 13.5747 14.9408C12.1334 14.8299 11.1011 15.7105 10.8645 15.9238L10.8641 15.9224Z" fill="#1E1E1E"/>
<path d="M11.8979 14.9768C11.7699 15.0749 11.6288 15.1954 11.4854 15.3418C11.3169 15.5142 11.1832 15.6827 11.079 15.8327C11.2751 15.7733 11.4713 15.7139 11.6675 15.6541C11.5417 15.7988 11.4014 15.9831 11.2681 16.2092C11.1485 16.4124 11.0618 16.6041 10.998 16.7699C11.1894 16.6749 11.3965 16.5804 11.6204 16.4898C11.7954 16.419 11.9643 16.3565 12.1266 16.302C12.0391 16.4827 11.9437 16.7207 11.8777 17.0092C11.8029 17.3369 11.7902 17.6245 11.7968 17.8422C12.0101 17.8422 12.2322 17.837 12.4622 17.8264C12.6945 17.8158 12.9183 17.8 13.133 17.7807C12.9434 18.0344 12.7494 18.3331 12.5722 18.6801C12.511 18.7997 12.4561 18.9172 12.4064 19.0315C12.6738 18.8178 13.0261 18.5825 13.4681 18.3881C13.6502 18.308 13.8248 18.2451 13.988 18.1954C14.0693 18.1616 14.1639 18.1281 14.2712 18.1C14.357 18.0775 14.437 18.0626 14.5101 18.052C14.3579 18.1919 14.1278 18.4435 13.9884 18.8213C13.9334 18.9704 13.9035 19.1089 13.8877 19.2281C14.061 19.032 14.335 18.7672 14.7291 18.542C15.0708 18.3467 15.2371 18.3406 15.5366 18.2126C15.7746 18.111 16.601 17.7587 16.9423 16.9762C17.1943 16.3983 17.1292 15.7064 16.8429 15.1831C16.2746 14.1433 14.9824 14.0373 14.6125 14.007C13.1717 13.8891 12.135 14.7643 11.8975 14.9763L11.8979 14.9768Z" fill="#FCB300"/>
<path d="M20.2169 14.5972C20.6035 14.902 20.8467 15.2222 20.9747 15.4122C21.1155 15.6206 21.2122 15.8115 21.2777 15.9575C21.2122 15.921 21.1225 15.9052 21.0231 15.8749C20.958 15.8546 20.8749 15.8524 20.8212 15.8441C20.7152 15.9659 20.6879 16.0006 20.5278 16.0437C20.3405 16.0943 20.1861 16.0741 20.1104 16.0521C19.7643 15.9514 19.5598 15.6818 19.456 15.5415C19.1785 15.1659 19.1098 14.7762 19.0628 14.5105C19.0236 14.2875 19.0148 14.1002 19.0144 13.9722C19.3152 14.0632 19.7643 14.2405 20.2169 14.5972Z" fill="white"/>
<path d="M18.0883 22.2922C17.2236 22.0974 16.6707 22.2188 16.4877 22.265C16.3457 22.301 16.2146 22.3459 16.095 22.3951C16.1843 22.455 16.3149 22.5442 16.4697 22.6573C16.7815 22.8842 17.0023 23.069 17.0956 23.1468C17.2165 23.2475 17.2913 23.3082 17.3524 23.357C17.3524 23.357 17.4514 23.4367 17.5644 23.5233C17.6805 23.6126 17.7725 23.6838 17.8811 23.7595C18.1503 23.9473 18.5347 24.1641 18.5501 24.1729C18.8043 24.3132 19.2362 24.775 20.0085 26.241C20.5218 24.995 20.4677 23.7085 19.7794 23.0144C19.3431 22.5746 18.7106 22.4321 18.0883 22.2922Z" fill="white" stroke="#1E1E1E" stroke-width="0.725712" stroke-linecap="round" stroke-linejoin="round"/>
<path d="M17.2902 22.9154C16.9309 22.8182 16.1933 22.6696 15.3119 22.8569C15.1294 22.8957 14.9816 22.9401 14.8831 22.9726C14.975 23.0421 15.1096 23.1459 15.2688 23.2761C15.6118 23.5567 15.8498 23.7828 15.9096 23.8386C15.9096 23.8386 16.1159 24.0295 16.3292 24.2156C16.4378 24.3101 16.5258 24.3867 16.6296 24.4711C16.9683 24.7473 17.394 25.0446 17.4156 25.0592C17.7019 25.2562 18.1501 25.8042 18.8683 27.3212C18.9519 27.1699 19.755 25.6648 19.0139 24.2578C18.7249 23.7093 18.3071 23.3759 18.0269 23.1943C17.7714 23.0456 17.5616 22.9893 17.2902 22.9159V22.9154Z" fill="white" stroke="#1E1E1E" stroke-width="0.725712" stroke-linecap="round" stroke-linejoin="round"/>
<path d="M15.484 23.8388C14.9153 23.7056 14.274 23.5358 13.6935 23.8665C13.4744 23.9914 13.328 24.1498 13.24 24.2624C13.3684 24.3174 13.5721 24.408 13.8148 24.5342C14.1412 24.704 14.3334 24.8267 15.5086 25.6219C15.8521 25.8545 16.0716 26.0036 16.3632 26.2359C16.558 26.3911 16.7146 26.5174 16.8941 26.7003C17.0946 26.9044 17.3238 27.1797 17.5353 27.5417C17.6136 27.3645 17.7104 27.1045 17.7689 26.7795C17.8256 26.4624 17.9167 26.012 17.7464 25.5365C17.5419 24.9665 17.1074 24.6428 16.8171 24.4264C16.284 24.0288 15.7699 23.9057 15.4831 23.8388H15.484Z" fill="white" stroke="#1E1E1E" stroke-width="0.725712" stroke-linecap="round" stroke-linejoin="round"/>
<path d="M15.4057 25.6055C15.3305 25.4736 15.2228 25.2427 15.2087 24.9423C15.2008 24.7703 15.1766 24.2034 15.5878 23.9483C15.8671 23.775 16.2528 23.8053 16.5752 24.005C16.5713 23.9588 16.5348 23.4205 16.9271 23.1311C17.1527 22.9648 17.4003 22.9688 17.5059 22.9723C18.1225 22.9912 18.5003 23.5511 18.5509 23.629C18.4119 23.3457 18.4709 23.0119 18.6864 22.8135C18.861 22.6526 19.1165 22.6011 19.3532 22.6746C19.2362 22.456 18.949 21.9941 18.3891 21.6995C17.8881 21.436 17.4303 21.4457 17.0005 21.451C16.149 21.4606 15.5416 21.7549 15.4049 21.8239C15.1735 21.9405 14.6998 22.1855 14.3066 22.6943C14.1945 22.8395 13.2334 24.0802 13.8017 24.9581C14.2569 25.6623 15.3248 25.6108 15.4049 25.6055H15.4057Z" fill="#FCB300" stroke="#1E1E1E" stroke-width="0.725712" stroke-linecap="round" stroke-linejoin="round"/>
<path d="M28.9597 24.0254C28.6989 23.575 28.2481 23.3028 27.9803 23.1413C27.8725 23.0762 27.7801 23.0283 27.7168 22.9971C27.7282 23.0754 27.7445 23.191 27.7599 23.3313C27.7907 23.6137 27.7995 23.8261 27.8034 23.9159C27.8087 24.032 27.8127 24.1028 27.8162 24.1604C27.8162 24.1604 27.8219 24.2537 27.8307 24.3583C27.8395 24.4661 27.8465 24.5519 27.8593 24.6486C27.8804 24.8127 27.8875 24.8949 27.9653 25.2169C28.0185 25.4372 27.9987 25.9096 27.7225 26.9788C27.8144 26.9405 28.9659 26.4422 29.1607 25.3009C29.1849 25.1584 29.2777 24.5743 28.9602 24.0258L28.9597 24.0254Z" fill="white" stroke="#1E1E1E" stroke-width="0.725712" stroke-linecap="round" stroke-linejoin="round"/>
<path d="M27.9512 23.7971C27.6591 23.1198 27.1476 22.746 26.9849 22.6303C26.8731 22.5507 26.7733 22.4922 26.7003 22.4521C26.7069 22.541 26.7166 22.6712 26.7276 22.8286C26.7971 23.8341 26.8402 24.456 26.8261 24.9732C26.8142 25.4205 26.7522 26.0627 26.5195 26.8486C26.6286 26.8187 27.7484 26.4911 28.0954 25.4416C28.3408 24.7001 28.0545 24.0382 27.9507 23.798L27.9512 23.7971Z" fill="white" stroke="#1E1E1E" stroke-width="0.725712" stroke-linecap="round" stroke-linejoin="round"/>
<path d="M26.5067 23.187C26.3515 22.9121 26.0854 22.4411 25.6944 22.4679C25.6143 22.4736 25.5475 22.4987 25.5048 22.5185C25.4041 22.5484 25.2933 22.5976 25.266 22.6808C25.2436 22.7485 25.2937 22.8083 25.2985 22.8321C25.3399 23.0467 25.3724 23.3225 25.4635 24.1775C25.4965 24.4876 25.5171 24.6859 25.5246 24.9683C25.5303 25.1838 25.5224 25.3593 25.5167 25.4556C25.5154 25.4807 25.5141 25.4957 25.5136 25.5053C25.5044 25.6439 25.5057 25.8708 25.5501 26.2609C25.6667 26.2293 25.8329 26.1708 26.0084 26.0569C26.3818 25.8141 26.5481 25.4816 26.6264 25.3206C26.8551 24.8496 26.834 24.4203 26.8221 24.2184C26.7913 23.6985 26.6 23.3511 26.5076 23.187H26.5067Z" fill="white" stroke="#1E1E1E" stroke-width="0.725712" stroke-linecap="round" stroke-linejoin="round"/>
<path d="M25.4419 24.1258C25.463 24.0396 25.5246 23.8421 25.7027 23.6829C25.7529 23.638 26.0616 23.3552 26.4183 23.4727C26.7051 23.5668 26.8155 23.8514 26.8322 23.8962C26.8524 23.8716 27.1396 23.5338 27.5403 23.5897C27.7624 23.6205 27.9093 23.7572 27.9511 23.7973C28.1235 23.9622 28.1702 24.1566 28.1838 24.2279C28.3303 23.9965 28.6051 23.9055 28.8202 23.9943C29.0577 24.0928 29.1096 24.3642 29.1131 24.3831C29.1131 24.0981 29.0608 23.8782 29.0164 23.7366C28.7243 22.8077 27.8605 22.3458 27.5095 22.2121C27.4977 22.2077 27.4884 22.2042 27.4823 22.202C26.9598 22.0089 26.4729 22.0564 26.4729 22.0564C26.468 22.0569 26.4513 22.0586 26.4342 22.0608C26.1105 22.0995 25.2317 22.3199 25.0536 22.9598C24.8939 23.5338 25.3988 24.0801 25.4424 24.1258H25.4419Z" fill="#FCB300" stroke="#1E1E1E" stroke-width="0.725712" stroke-linecap="round" stroke-linejoin="round"/>
<path d="M25.489 17.4993C25.814 17.4677 26.1553 17.4439 26.5116 17.4303C26.7245 17.4224 26.6937 17.4184 26.896 17.418" fill="#1E1E1E"/>
<path d="M25.489 17.4993C25.814 17.4677 26.1553 17.4439 26.5116 17.4303C26.7245 17.4224 26.6937 17.4184 26.896 17.418" stroke="white" stroke-width="0.387046" stroke-linecap="round" stroke-linejoin="round"/>
</g>
</g>
<defs>
<clipPath id="clip0_8753_3014">
<rect width="100" height="37.1644" fill="white"/>
</clipPath>
<clipPath id="clip1_8753_3014">
<rect width="36.4558" height="37.1644" fill="white"/>
</clipPath>
</defs>
</svg>
