<svg width="133" height="133" viewBox="0 0 133 133" fill="none" xmlns="http://www.w3.org/2000/svg">
<path fill-rule="evenodd" clip-rule="evenodd" d="M29.1416 105.97C24.9259 105.97 20.8828 104.296 17.9018 101.315C14.9208 98.3335 13.2461 94.2904 13.2461 90.0747V37.0896C13.2461 32.8739 14.9208 28.8308 17.9018 25.8498C20.8828 22.8688 24.9259 21.1941 29.1416 21.1941H103.321C107.536 21.1941 111.58 22.8688 114.561 25.8498C117.542 28.8308 119.216 32.8739 119.216 37.0896V90.0747C119.216 94.2904 117.542 98.3335 114.561 101.315C111.58 104.296 107.536 105.97 103.321 105.97H29.1416ZM43.0502 43.5538C42.5105 43.0929 41.8836 42.7452 41.2069 42.5312C40.5302 42.3172 39.8174 42.2414 39.1108 42.3082C38.4042 42.375 37.7183 42.5831 37.0936 42.9201C36.469 43.2571 35.9185 43.7161 35.4747 44.27C35.0309 44.8239 34.7029 45.4612 34.5101 46.1443C34.3174 46.8274 34.2638 47.5422 34.3527 48.2463C34.4415 48.9505 34.6709 49.6296 35.0272 50.2434C35.3836 50.8572 35.8596 51.3932 36.4271 51.8195L56.2965 67.7203C59.1157 69.9775 62.6196 71.2074 66.2312 71.2074C69.8427 71.2074 73.3466 69.9775 76.1659 67.7203L96.0353 51.8248C96.5787 51.3899 97.0312 50.8522 97.3668 50.2425C97.7024 49.6327 97.9147 48.9629 97.9914 48.2711C98.0682 47.5793 98.0079 46.8792 97.8141 46.2107C97.6203 45.5423 97.2967 44.9185 96.8618 44.3751C96.427 43.8316 95.8893 43.3792 95.2796 43.0435C94.6698 42.7079 94 42.4956 93.3082 42.4189C92.6164 42.3421 91.9163 42.4024 91.2478 42.5962C90.5793 42.79 89.9556 43.1136 89.4121 43.5485L69.5427 59.444C68.603 60.1964 67.435 60.6064 66.2312 60.6064C65.0273 60.6064 63.8594 60.1964 62.9196 59.444L43.0502 43.5538Z" fill="#737373"/>
</svg>
