<svg width="26" height="25" viewBox="0 0 26 25" fill="none" xmlns="http://www.w3.org/2000/svg">
<path d="M13.25 2.08325C11.3161 2.08325 9.46147 2.85148 8.09402 4.21893C6.72657 5.58638 5.95834 7.44105 5.95834 9.37492V13.0499C5.95849 13.2115 5.92105 13.3709 5.84897 13.5155L4.06043 17.0916C3.97306 17.2663 3.9318 17.4604 3.94058 17.6556C3.94936 17.8507 4.00788 18.0404 4.11058 18.2065C4.21328 18.3727 4.35675 18.5098 4.52737 18.6049C4.69799 18.7 4.89009 18.7499 5.08543 18.7499H21.4146C21.6099 18.7499 21.802 18.7 21.9726 18.6049C22.1433 18.5098 22.2867 18.3727 22.3894 18.2065C22.4921 18.0404 22.5507 17.8507 22.5594 17.6556C22.5682 17.4604 22.527 17.2663 22.4396 17.0916L20.6521 13.5155C20.5797 13.371 20.5418 13.2116 20.5417 13.0499V9.37492C20.5417 7.44105 19.7734 5.58638 18.406 4.21893C17.0385 2.85148 15.1839 2.08325 13.25 2.08325ZM13.25 21.8749C12.6035 21.8753 11.9728 21.6751 11.4448 21.3019C10.9168 20.9288 10.5176 20.4011 10.3021 19.7916H16.1979C15.9824 20.4011 15.5832 20.9288 15.0552 21.3019C14.5272 21.6751 13.8965 21.8753 13.25 21.8749Z" fill="#979797"/>
</svg>
