<svg width="133" height="133" viewBox="0 0 133 133" fill="none" xmlns="http://www.w3.org/2000/svg">
<path d="M34.4403 58.2835C34.4403 32.8506 55.6343 26.4924 66.2313 26.4924C91.6642 26.4924 98.0224 47.6865 98.0224 58.2835V79.4775L108.619 90.0745H23.8433L34.4403 79.4775V58.2835Z" fill="#737373"/>
<path d="M66.2313 26.4925C55.6343 26.4925 34.4403 32.8507 34.4403 58.2836V79.4776L23.8433 90.0746H108.619L98.0224 79.4776V58.2836C98.0224 47.6866 91.6642 26.4925 66.2313 26.4925ZM66.2313 26.4925V15.8955M50.3358 95.3731C50.3358 100.672 53.5149 111.269 66.2313 111.269C78.9477 111.269 82.1268 100.672 82.1268 95.3731" stroke="#737373" stroke-width="10.597" stroke-linecap="round" stroke-linejoin="round"/>
</svg>
