<svg width="50" height="50" viewBox="0 0 50 50" fill="none" xmlns="http://www.w3.org/2000/svg">
<path d="M8.33342 8.33325C7.22835 8.33325 6.16854 8.77224 5.38714 9.55364C4.60573 10.335 4.16675 11.3948 4.16675 12.4999V22.9166H16.9376C17.8959 19.2499 21.2084 16.6666 25.0001 16.6666C26.8456 16.6715 28.6375 17.2874 30.0961 18.4181C31.5546 19.5488 32.5978 21.1306 33.0626 22.9166H45.8334V12.4999C45.8334 11.3948 45.3944 10.335 44.613 9.55364C43.8316 8.77224 42.7718 8.33325 41.6668 8.33325H8.33342ZM25.0001 20.8333C23.895 20.8333 22.8352 21.2722 22.0538 22.0536C21.2724 22.835 20.8334 23.8948 20.8334 24.9999C20.8334 26.105 21.2724 27.1648 22.0538 27.9462C22.8352 28.7276 23.895 29.1666 25.0001 29.1666C26.1052 29.1666 27.165 28.7276 27.9464 27.9462C28.7278 27.1648 29.1667 26.105 29.1667 24.9999C29.1667 23.8948 28.7278 22.835 27.9464 22.0536C27.165 21.2722 26.1052 20.8333 25.0001 20.8333ZM4.16675 27.0833V37.4999C4.16675 38.605 4.60573 39.6648 5.38714 40.4462C6.16854 41.2276 7.22835 41.6666 8.33342 41.6666H41.6668C42.7718 41.6666 43.8316 41.2276 44.613 40.4462C45.3944 39.6648 45.8334 38.605 45.8334 37.4999V27.0833H33.0626C32.5978 28.8693 31.5546 30.4511 30.0961 31.5818C28.6375 32.7124 26.8456 33.3283 25.0001 33.3333C23.1546 33.3283 21.3627 32.7124 19.9041 31.5818C18.4455 30.4511 17.4024 28.8693 16.9376 27.0833H4.16675Z" fill="#979797"/>
</svg>
