<svg width="26" height="25" viewBox="0 0 26 25" fill="none" xmlns="http://www.w3.org/2000/svg">
<path d="M17.1562 12.5C16.1523 12.5 15.1816 12.0518 14.4219 11.2383C13.6831 10.4448 13.2319 9.38672 13.1523 8.25977C13.0674 7.05762 13.4341 5.95215 14.1846 5.14648C14.9351 4.34082 15.9844 3.90625 17.1562 3.90625C18.3198 3.90625 19.3721 4.34863 20.1201 5.15234C20.8755 5.96387 21.2432 7.06738 21.1582 8.25928C21.0767 9.38769 20.626 10.4453 19.8887 11.2378C19.1309 12.0518 18.1606 12.5 17.1562 12.5ZM23.5933 21.0938H10.7197C10.5127 21.0949 10.3083 21.0485 10.122 20.9581C9.93581 20.8678 9.77278 20.736 9.6455 20.5728C9.5105 20.3958 9.41726 20.1906 9.37279 19.9725C9.32831 19.7545 9.33374 19.5292 9.38867 19.3135C9.7998 17.6626 10.8184 16.2935 12.334 15.3545C13.6792 14.5215 15.3916 14.0625 17.1562 14.0625C18.9556 14.0625 20.623 14.502 21.9761 15.3345C23.4951 16.2686 24.5151 17.6455 24.9243 19.3164C24.9786 19.5322 24.9834 19.7576 24.9384 19.9755C24.8934 20.1935 24.7998 20.3985 24.6645 20.5752C24.5374 20.7377 24.3748 20.8689 24.1891 20.9587C24.0034 21.0486 23.7996 21.0948 23.5933 21.0938ZM7.92773 12.6953C6.20947 12.6953 4.69873 11.0977 4.55859 9.13428C4.48926 8.12842 4.80273 7.19824 5.4375 6.51611C6.06543 5.84082 6.95117 5.46875 7.92773 5.46875C8.90429 5.46875 9.7832 5.84277 10.4145 6.52197C11.0542 7.20947 11.3667 8.1377 11.2935 9.13525C11.1533 11.0981 9.64306 12.6953 7.92773 12.6953ZM11.1338 14.231C10.2749 13.811 9.16015 13.6011 7.92822 13.6011C6.48974 13.6011 5.09277 13.9761 3.99414 14.6567C2.74853 15.4297 1.91064 16.5552 1.57226 17.9141C1.52274 18.1095 1.51806 18.3136 1.55856 18.5112C1.59907 18.7087 1.6837 18.8945 1.80615 19.0547C1.92234 19.2038 2.07118 19.3244 2.24124 19.407C2.4113 19.4896 2.59804 19.5321 2.78711 19.5312H8.20703C8.29851 19.5312 8.38708 19.4991 8.45731 19.4405C8.52753 19.3819 8.57495 19.3005 8.59131 19.2104C8.59668 19.1797 8.60351 19.1489 8.61133 19.1187C9.02539 17.4556 9.9956 16.0503 11.4292 15.0259C11.4819 14.9879 11.5243 14.9373 11.5526 14.8788C11.5808 14.8202 11.594 14.7556 11.591 14.6906C11.5879 14.6257 11.5687 14.5626 11.5351 14.5069C11.5015 14.4513 11.4545 14.405 11.3984 14.3721C11.3218 14.3271 11.2339 14.2798 11.1338 14.231Z" fill="#979797"/>
</svg>
