<svg width="20" height="17" viewBox="0 0 20 17" fill="none" xmlns="http://www.w3.org/2000/svg">
<g clip-path="url(#clip0_5613_697)">
<path d="M11.3142 8.48646L13.264 10.6496L15.886 12.2758L16.3421 8.50011L15.886 4.80957L13.2137 6.23812L11.3142 8.48646Z" fill="#00832D"/>
<path d="M0 11.9241V15.1415C0 15.8761 0.614375 16.4726 1.37141 16.4726H4.68625L5.37266 14.0416L4.68625 11.9241L2.41203 11.2578L0 11.9241Z" fill="#0066DA"/>
<path d="M4.68625 0.5L0 5.04855L2.41219 5.71319L4.68625 5.04855L5.36016 2.95983L4.68625 0.5Z" fill="#E94235"/>
<path d="M0 11.9262H4.68617V5.04883H0V11.9262Z" fill="#2684FC"/>
<path d="M18.8797 2.42608L15.886 4.80985V12.276L18.892 14.669C19.342 15.0112 20.0003 14.6994 20.0003 14.1441V2.94035C20.0003 2.37899 19.3263 2.06869 18.8796 2.42615" fill="#00AC47"/>
<path d="M11.3142 8.48633V11.9243H4.68628V16.4728H14.5147C15.2717 16.4728 15.886 15.8764 15.886 15.1417V12.2757L11.3142 8.48633Z" fill="#00AC47"/>
<path d="M14.5147 0.5H4.68628V5.04855H11.3142V8.4865L15.8861 4.80954V1.83118C15.8861 1.0964 15.2717 0.500076 14.5147 0.500076" fill="#FFBA00"/>
</g>
<defs>
<clipPath id="clip0_5613_697">
<rect width="20" height="16" fill="white" transform="translate(0 0.5)"/>
</clipPath>
</defs>
</svg>
