<svg width="14" height="16" viewBox="0 0 14 16" fill="none" xmlns="http://www.w3.org/2000/svg">
<g clip-path="url(#clip0_5613_2096)">
<path d="M6.53795 7.62793L0.0578613 14.6467C0.130632 14.9133 0.261403 15.1592 0.440179 15.3656C0.618954 15.5719 0.841 15.7333 1.08934 15.8373C1.33769 15.9414 1.60575 15.9853 1.87305 15.9659C2.14034 15.9464 2.39979 15.864 2.63156 15.7249L9.92289 11.4319L6.53795 7.62793Z" fill="#EA4335"/>
<path d="M13.0905 6.43446L9.93754 4.56738L6.38843 7.78717L9.95198 11.4214L13.081 9.57431C13.3582 9.42426 13.5903 9.19863 13.7523 8.92188C13.9143 8.64514 14 8.32783 14 8.00436C14 7.68088 13.9143 7.36358 13.7523 7.08683C13.5903 6.81009 13.3582 6.58446 13.081 6.43441L13.0905 6.43446Z" fill="#FBBC04"/>
<path d="M0.0579857 1.32812C0.01884 1.47783 -0.000657598 1.6323 1.69184e-05 1.78738V14.1875C0.000403454 14.3425 0.019883 14.4969 0.0579857 14.6468L6.76021 7.80773L0.0579857 1.32812Z" fill="#4285F4"/>
<path d="M6.58624 7.98723L9.93738 4.56769L2.65574 0.25459C2.38177 0.0887218 2.07017 0.000877776 1.75268 3.46744e-06C0.964799 -0.00157957 0.272127 0.539028 0.0578613 1.32292L6.58624 7.98723Z" fill="#34A853"/>
</g>
<defs>
<clipPath id="clip0_5613_2096">
<rect width="14" height="16" fill="white"/>
</clipPath>
</defs>
</svg>
