<svg width="26" height="25" viewBox="0 0 26 25" fill="none" xmlns="http://www.w3.org/2000/svg">
<path d="M13 2.34375C7.4 2.34375 2.84375 6.9 2.84375 12.5C2.84375 18.1 7.4 22.6562 13 22.6562C18.6 22.6562 23.1562 18.1 23.1562 12.5C23.1562 6.9 18.6 2.34375 13 2.34375ZM13 3.90625C17.7555 3.90625 21.5938 7.74453 21.5938 12.5C21.5938 17.2555 17.7555 21.0938 13 21.0938C8.24453 21.0938 4.40625 17.2555 4.40625 12.5C4.40625 7.74453 8.24453 3.90625 13 3.90625ZM12.2188 7.8125V11.7188H8.3125V13.2812H12.2188V17.1875H13.7812V13.2812H17.6875V11.7188H13.7812V7.8125H12.2188Z" fill="white"/>
</svg>
