<svg width="20" height="21" viewBox="0 0 20 21" fill="none" xmlns="http://www.w3.org/2000/svg">
<path d="M10.667 2.59521L10.6672 1.84521H10.667V2.59521ZM11.667 3.59521H12.417V3.59521L11.667 3.59521ZM11.667 4.50439H10.917C10.917 4.83618 11.135 5.12854 11.453 5.22321L11.667 4.50439ZM12.7744 4.96338L12.4171 5.62282C12.7088 5.78083 13.0696 5.72848 13.3043 5.49411L12.7744 4.96338ZM13.4179 4.3208L13.9479 4.85153L13.9483 4.85113L13.4179 4.3208ZM14.832 4.3208L14.3017 4.85113L14.832 4.3208ZM15.7744 5.26318L16.3047 4.73285L15.7744 5.26318ZM15.7744 6.67725L16.3043 7.20798L16.3047 7.20758L15.7744 6.67725ZM15.1308 7.31982L14.6009 6.78909C14.3658 7.02381 14.3132 7.3852 14.4715 7.67724L15.1308 7.31982ZM15.5908 8.42822L14.872 8.64223C14.9666 8.96022 15.259 9.17822 15.5908 9.17822V8.42822ZM16.5 8.42822V7.67822V8.42822ZM17.5 9.42822H18.25V9.42798L17.5 9.42822ZM17.5 10.7622L18.25 10.7624V10.7622H17.5ZM16.5 11.7622V11.0122V11.7622ZM15.5908 11.7622V11.0122C15.259 11.0122 14.9666 11.2302 14.872 11.5482L15.5908 11.7622ZM15.1308 12.8696L14.4714 12.5123C14.3133 12.8042 14.3658 13.1652 14.6005 13.4L15.1308 12.8696ZM15.7744 13.5132L15.2441 14.0435L15.7744 13.5132ZM15.7744 14.9272L15.2441 14.3969L15.7744 14.9272ZM14.832 15.8696L15.3623 16.4L14.832 15.8696ZM13.4179 15.8696L12.8876 16.4L13.4179 15.8696ZM12.7744 15.2261L13.3047 14.6957C13.07 14.461 12.7089 14.4085 12.4171 14.5667L12.7744 15.2261ZM11.667 15.6851L11.4529 14.9663C11.1349 15.0609 10.917 15.3533 10.917 15.6851H11.667ZM10.667 17.5952V18.3452H10.6672L10.667 17.5952ZM9.33298 17.5952L9.33273 18.3452H9.33298V17.5952ZM8.33298 16.5952H7.58298H8.33298ZM8.33298 15.6851H9.08298C9.08298 15.3533 8.865 15.0609 8.54702 14.9663L8.33298 15.6851ZM7.22458 15.2261L7.582 14.5667C7.28995 14.4084 6.92856 14.4611 6.69385 14.6961L7.22458 15.2261ZM6.582 15.8696L7.11232 16.4L7.11273 16.3996L6.582 15.8696ZM5.16794 15.8696L5.69827 15.3393L5.16794 15.8696ZM4.22556 14.9272L3.69523 15.4576L4.22556 14.9272ZM4.22556 13.5132L4.75589 14.0435L4.75629 14.0431L4.22556 13.5132ZM4.86813 12.8696L5.39887 13.3996C5.63324 13.1648 5.68558 12.804 5.52757 12.5124L4.86813 12.8696ZM4.40915 11.7622L5.12797 11.5482C5.03329 11.2302 4.74094 11.0122 4.40915 11.0122V11.7622ZM3.49997 11.7622L3.49997 12.5122H3.49997V11.7622ZM2.49997 10.7622H1.74997L1.74997 10.7624L2.49997 10.7622ZM2.49997 9.42822L1.74997 9.42798V9.42822H2.49997ZM3.49997 8.42822V7.67822H3.49997L3.49997 8.42822ZM4.40915 8.42822V9.17822C4.74094 9.17822 5.03329 8.96022 5.12797 8.64223L4.40915 8.42822ZM4.86813 7.31982L5.52752 7.67719C5.68569 7.38533 5.63319 7.02422 5.39846 6.78949L4.86813 7.31982ZM4.22556 6.67725L3.69522 7.20757L3.69523 7.20758L4.22556 6.67725ZM4.22556 5.26318L4.75589 5.79351L4.22556 5.26318ZM5.16794 4.3208L4.63761 3.79047L5.16794 4.3208ZM6.582 4.3208L7.11233 3.79047L7.11232 3.79046L6.582 4.3208ZM7.22458 4.96338L6.69425 5.49371C6.92898 5.72844 7.29009 5.78094 7.58194 5.62277L7.22458 4.96338ZM8.33298 4.50439L8.54699 5.22321C8.86498 5.12854 9.08298 4.83618 9.08298 4.50439H8.33298ZM9.33298 2.59521V1.84521L9.33273 1.84521L9.33298 2.59521ZM10.667 2.59521L10.6667 3.34521C10.8051 3.34526 10.917 3.45747 10.917 3.59521H11.667L12.417 3.59521C12.417 2.62859 11.6331 1.84551 10.6672 1.84521L10.667 2.59521ZM11.667 3.59521H10.917V4.50439H11.667H12.417V3.59521H11.667ZM11.667 4.50439L11.453 5.22321C11.7904 5.32369 12.1131 5.45811 12.4171 5.62282L12.7744 4.96338L13.1316 4.30394C12.7372 4.09026 12.3187 3.91588 11.881 3.78558L11.667 4.50439ZM12.7744 4.96338L13.3043 5.49411L13.9479 4.85153L13.4179 4.3208L12.888 3.79007L12.2445 4.43265L12.7744 4.96338ZM13.4179 4.3208L13.9483 4.85113C14.0459 4.7535 14.204 4.7535 14.3017 4.85113L14.832 4.3208L15.3623 3.79047C14.6789 3.10705 13.571 3.10705 12.8876 3.79047L13.4179 4.3208ZM14.832 4.3208L14.3017 4.85113L15.2441 5.79351L15.7744 5.26318L16.3047 4.73285L15.3623 3.79047L14.832 4.3208ZM15.7744 5.26318L15.2441 5.79351C15.3417 5.89114 15.3417 6.04928 15.2441 6.14692L15.7744 6.67725L16.3047 7.20758C16.9881 6.52416 16.9881 5.41627 16.3047 4.73285L15.7744 5.26318ZM15.7744 6.67725L15.2445 6.14651L14.6009 6.78909L15.1308 7.31982L15.6608 7.85056L16.3043 7.20798L15.7744 6.67725ZM15.1308 7.31982L14.4715 7.67724C14.6367 7.982 14.7715 8.30483 14.872 8.64223L15.5908 8.42822L16.3096 8.21421C16.179 7.77558 16.004 7.35677 15.7902 6.96241L15.1308 7.31982ZM15.5908 8.42822V9.17822H16.5V8.42822V7.67822H15.5908V8.42822ZM16.5 8.42822V9.17822C16.6377 9.17822 16.7499 9.29012 16.75 9.42846L17.5 9.42822L18.25 9.42798C18.2497 8.46206 17.4666 7.67822 16.5 7.67822V8.42822ZM17.5 9.42822H16.75V10.7622H17.5H18.25V9.42822H17.5ZM17.5 10.7622L16.75 10.762C16.7499 10.9003 16.6377 11.0122 16.5 11.0122V11.7622V12.5122C17.4666 12.5122 18.2497 11.7284 18.25 10.7624L17.5 10.7622ZM16.5 11.7622V11.0122H15.5908V11.7622V12.5122H16.5V11.7622ZM15.5908 11.7622L14.872 11.5482C14.7718 11.8848 14.6367 12.2072 14.4714 12.5123L15.1308 12.8696L15.7902 13.2269C16.0035 12.8334 16.1789 12.4151 16.3096 11.9762L15.5908 11.7622ZM15.1308 12.8696L14.6005 13.4L15.2441 14.0435L15.7744 13.5132L16.3047 12.9829L15.6612 12.3393L15.1308 12.8696ZM15.7744 13.5132L15.2441 14.0435C15.3417 14.1411 15.3417 14.2993 15.2441 14.3969L15.7744 14.9272L16.3047 15.4576C16.9881 14.7742 16.9881 13.6663 16.3047 12.9829L15.7744 13.5132ZM15.7744 14.9272L15.2441 14.3969L14.3017 15.3393L14.832 15.8696L15.3623 16.4L16.3047 15.4576L15.7744 14.9272ZM14.832 15.8696L14.3017 15.3393C14.204 15.4369 14.0459 15.4369 13.9483 15.3393L13.4179 15.8696L12.8876 16.4C13.571 17.0834 14.6789 17.0834 15.3623 16.4L14.832 15.8696ZM13.4179 15.8696L13.9483 15.3393L13.3047 14.6957L12.7744 15.2261L12.2441 15.7564L12.8876 16.4L13.4179 15.8696ZM12.7744 15.2261L12.4171 14.5667C12.1131 14.7314 11.7906 14.8657 11.4529 14.9663L11.667 15.6851L11.881 16.4039C12.3187 16.2735 12.7372 16.0993 13.1317 15.8855L12.7744 15.2261ZM11.667 15.6851H10.917V16.5952H11.667H12.417V15.6851H11.667ZM11.667 16.5952H10.917C10.917 16.733 10.8051 16.8452 10.6667 16.8452L10.667 17.5952L10.6672 18.3452C11.6331 18.3449 12.417 17.5618 12.417 16.5952H11.667ZM10.667 17.5952V16.8452H9.33298V17.5952V18.3452H10.667V17.5952ZM9.33298 17.5952L9.33323 16.8452C9.19487 16.8452 9.08298 16.7329 9.08298 16.5952H8.33298H7.58298C7.58298 17.5618 8.36683 18.3449 9.33273 18.3452L9.33298 17.5952ZM8.33298 16.5952H9.08298V15.6851H8.33298H7.58298V16.5952H8.33298ZM8.33298 15.6851L8.54702 14.9663C8.20858 14.8655 7.88565 14.7313 7.582 14.5667L7.22458 15.2261L6.86716 15.8854C7.26246 16.0997 7.68153 16.2736 8.11893 16.4039L8.33298 15.6851ZM7.22458 15.2261L6.69385 14.6961L6.05127 15.3397L6.582 15.8696L7.11273 16.3996L7.75531 15.756L7.22458 15.2261ZM6.582 15.8696L6.05168 15.3393C5.95404 15.4369 5.79589 15.4369 5.69827 15.3393L5.16794 15.8696L4.63761 16.4C5.32103 17.0834 6.42891 17.0834 7.11232 16.4L6.582 15.8696ZM5.16794 15.8696L5.69827 15.3393L4.75589 14.3969L4.22556 14.9272L3.69523 15.4576L4.63761 16.4L5.16794 15.8696ZM4.22556 14.9272L4.75589 14.3969C4.65827 14.2993 4.65825 14.1411 4.75589 14.0435L4.22556 13.5132L3.69522 12.9829C3.01183 13.6663 3.0118 14.7742 3.69523 15.4576L4.22556 14.9272ZM4.22556 13.5132L4.75629 14.0431L5.39887 13.3996L4.86813 12.8696L4.3374 12.3397L3.69482 12.9833L4.22556 13.5132ZM4.86813 12.8696L5.52757 12.5124C5.36286 12.2083 5.22845 11.8857 5.12797 11.5482L4.40915 11.7622L3.69033 11.9762C3.82064 12.4139 3.99502 12.8325 4.20869 13.2269L4.86813 12.8696ZM4.40915 11.7622V11.0122H3.49997V11.7622V12.5122H4.40915V11.7622ZM3.49997 11.7622L3.49997 11.0122C3.36224 11.0122 3.25001 10.9003 3.24997 10.762L2.49997 10.7622L1.74997 10.7624C1.75028 11.7284 2.53334 12.5122 3.49997 12.5122L3.49997 11.7622ZM2.49997 10.7622H3.24997V9.42822H2.49997H1.74997V10.7622H2.49997ZM2.49997 9.42822L3.24997 9.42846C3.25001 9.29012 3.36224 9.17822 3.49997 9.17822L3.49997 8.42822L3.49997 7.67822C2.53334 7.67822 1.75028 8.46206 1.74997 9.42798L2.49997 9.42822ZM3.49997 8.42822V9.17822H4.40915V8.42822V7.67822H3.49997V8.42822ZM4.40915 8.42822L5.12797 8.64223C5.22869 8.30394 5.36292 7.9809 5.52752 7.67719L4.86813 7.31982L4.20875 6.96246C3.99458 7.35763 3.82057 7.77678 3.69033 8.21421L4.40915 8.42822ZM4.86813 7.31982L5.39846 6.78949L4.75589 6.14692L4.22556 6.67725L3.69523 7.20758L4.3378 7.85015L4.86813 7.31982ZM4.22556 6.67725L4.75589 6.14692C4.65825 6.04928 4.65827 5.89113 4.75589 5.79351L4.22556 5.26318L3.69523 4.73285C3.0118 5.41628 3.01183 6.52416 3.69522 7.20757L4.22556 6.67725ZM4.22556 5.26318L4.75589 5.79351L5.69827 4.85113L5.16794 4.3208L4.63761 3.79047L3.69523 4.73285L4.22556 5.26318ZM5.16794 4.3208L5.69827 4.85113C5.79589 4.75351 5.95404 4.7535 6.05168 4.85114L6.582 4.3208L7.11232 3.79046C6.42891 3.10707 5.32103 3.10705 4.63761 3.79047L5.16794 4.3208ZM6.582 4.3208L6.05167 4.85113L6.69425 5.49371L7.22458 4.96338L7.75491 4.43305L7.11233 3.79047L6.582 4.3208ZM7.22458 4.96338L7.58194 5.62277C7.88565 5.45817 8.20869 5.32393 8.54699 5.22321L8.33298 4.50439L8.11897 3.78558C7.68153 3.91581 7.26238 4.08982 6.86722 4.30399L7.22458 4.96338ZM8.33298 4.50439H9.08298V3.59521H8.33298H7.58298V4.50439H8.33298ZM8.33298 3.59521H9.08298C9.08298 3.45751 9.19487 3.34526 9.33323 3.34521L9.33298 2.59521L9.33273 1.84521C8.36683 1.84554 7.58298 2.62858 7.58298 3.59521H8.33298ZM9.33298 2.59521V3.34521H10.667V2.59521V1.84521H9.33298V2.59521Z" fill="#737373"/>
<circle cx="10" cy="10.0952" r="2.5" stroke="#737373" stroke-width="1.5" stroke-linecap="round" stroke-linejoin="round"/>
</svg>
