<svg width="100" height="100" viewBox="0 0 100 100" fill="none" xmlns="http://www.w3.org/2000/svg">
<g clip-path="url(#clip0_8872_35528)">
<path d="M85.5973 29.9995C84.6031 28.2906 83.4884 26.6586 82.265 25.1142C90.5655 15.0797 97.6341 5.75872 100.001 1.16097C95.512 3.5918 86.1896 10.7186 76.2351 18.9436C74.8199 17.7673 73.3251 16.6809 71.7579 15.6939C77.1062 9.02743 81.3988 3.17996 83.0359 0C79.6868 1.81306 73.1623 6.71259 65.8933 12.6145C60.7526 10.4121 55.0738 9.18957 49.1054 9.18957C25.9196 9.18957 7.12416 27.6267 7.12416 50.3704C7.12416 56.6002 8.53451 62.5068 11.0584 67.8004C5.82118 74.2799 1.58288 79.9617 0 82.9937C2.81468 81.4907 8.00608 77.661 13.9684 72.9177C15.1206 74.6432 16.4031 76.2776 17.7989 77.8101C10.3732 86.8293 4.12007 95.0342 1.9798 99.1325C6.09143 96.9372 14.4956 90.5394 23.608 83.0919C25.2995 84.363 27.0935 85.5097 28.9744 86.5192C24.3585 92.2768 20.6703 97.2662 19.2431 100.001C22.211 98.4165 27.9392 94.1289 34.3745 88.9465C38.9579 90.6318 43.9212 91.5537 49.1042 91.5537C72.29 91.5537 91.0854 73.1165 91.0854 50.3728C91.0854 45.0437 90.0539 39.9501 88.1743 35.2754C93.1762 29.0244 97.1781 23.5591 98.7199 20.565C96.0283 22.0218 91.1952 25.5616 85.596 30.0019L85.5973 29.9995Z" fill="#1E1E1E"/>
<path d="M49.1053 79.4579C65.4812 79.4579 78.7565 66.4357 78.7565 50.372C78.7565 34.3083 65.4812 21.2861 49.1053 21.2861C32.7294 21.2861 19.4541 34.3083 19.4541 50.372C19.4541 66.4357 32.7294 79.4579 49.1053 79.4579Z" fill="#1E1E1E"/>
<path d="M61.6936 41.9169C61.8336 41.9157 62.7541 41.9039 63.1727 41.2908C63.4116 40.9405 63.402 40.5204 63.3911 40.3737C63.3573 39.9322 63.1426 39.6174 63.0328 39.4612C61.8975 37.8399 61.0397 36.9215 61.0397 36.9215C60.6018 36.4529 59.855 35.6528 59.5135 35.2872C57.3503 33.0978 55.2716 31.4243 53.5488 30.1853C53.3304 30.0279 49.5578 27.3379 45.3569 25.4644C44.3712 25.0254 43.5677 24.668 42.9078 24.3887C42.2358 24.481 41.6869 24.5189 41.3165 24.5366C40.8472 24.5591 40.7169 24.5461 39.5321 24.5662C39.4115 24.5686 38.906 24.5757 38.2907 24.5934C37.2724 24.6218 36.7633 24.6372 36.5582 24.655C36.1094 24.694 35.2733 24.7674 34.471 25.0526C34.0584 25.1993 32.4671 25.7639 31.637 27.3284C31.637 27.3284 31.0012 28.5249 31.1544 30.3533C31.181 30.6752 31.2449 30.9663 31.2473 30.9794C31.3897 31.6232 31.637 32.0729 31.777 32.3238C31.8783 32.506 31.9857 32.6729 32.0955 32.8291C32.1763 32.938 32.2813 33.0753 32.4067 33.2291C32.5202 33.3676 32.6082 33.4682 32.6746 33.5416C32.9207 33.8208 33.0474 33.9629 33.2018 34.0777C33.2259 34.0954 33.1994 34.0895 33.46 34.2481C33.6989 34.3925 33.9957 34.5735 34.366 34.983C34.7087 35.3629 35.0224 35.7428 35.1442 36.1819C35.6533 35.944 36.1251 35.4753 36.2469 34.8611C36.405 34.0658 35.8958 33.4279 35.8029 33.3143C35.698 33.3001 35.5158 33.2682 35.3107 33.1818C33.8424 32.5664 32.9871 29.9841 33.9474 28.3331C34.4252 27.5106 35.2154 27.158 35.3131 27.1154C37.6307 26.1236 40.7844 28.3213 42.3685 30.1403C43.3831 31.306 43.8923 32.4741 44.1444 33.1652C44.3712 33.0741 44.6584 32.9723 44.9962 32.8871C44.9962 32.8871 45.556 32.7463 46.1532 32.7072C48.2102 32.5711 51.5255 34.3262 51.5255 34.3262C52.6813 34.938 53.4861 35.4883 54.3752 36.0978C55.3874 36.7913 56.355 37.4541 57.4432 38.4198C59.8369 40.5441 60.3412 41.9347 61.6948 41.9181L61.6936 41.9169Z" fill="#FCB300"/>
<path d="M70.549 35.808C71.0799 37.2436 71.519 38.7229 71.8556 40.2129C72.1174 39.8306 72.3466 39.4282 72.5373 39.0117C72.933 38.1513 73.1719 37.2341 73.2515 36.2814C73.2515 36.0897 73.2418 35.885 73.2177 35.6696C73.1682 35.208 73.0705 34.8116 72.968 34.4932C73.2491 34.0459 73.6098 33.3914 73.903 32.5535C74.1346 31.8884 74.511 30.8091 74.4181 29.5795C74.394 29.2659 74.1443 26.4741 72.0499 25.4504C71.519 25.1912 70.9664 25.0918 70.4127 25.0918C69.398 25.0918 68.3798 25.4255 67.4834 25.7249C66.7197 25.9806 66.1177 26.2812 65.7039 26.5131C66.1358 27.222 66.7378 28.2315 67.4231 29.4623C68.7104 31.7724 69.6948 33.505 70.549 35.8104V35.808ZM71.256 29.3818C71.548 28.0161 71.8255 27.7155 72.0583 27.5558C72.1669 27.4812 72.3768 27.338 72.6422 27.3569C73.2853 27.4019 73.6581 28.3546 73.7244 28.5262C74.0864 29.4493 73.8692 30.312 73.5459 31.4896C73.3794 32.092 73.1103 32.9074 72.6579 33.834C72.3587 33.1867 72.0897 32.6991 71.8942 32.3677C71.7724 32.1606 71.589 31.8588 71.3489 31.4056C71.2089 31.1405 71.1004 30.9192 71.0292 30.7712C71.0931 30.2032 71.18 29.731 71.2548 29.3807L71.256 29.3818Z" fill="#FCB300"/>
<path d="M66.1792 54.7984C66.0875 54.7984 65.9982 54.7984 65.9101 54.7984C64.9968 54.7937 62.5718 54.7819 60.5932 52.9712C59.6811 52.1357 59.1467 51.1794 58.8318 50.3486L58.8125 50.351C58.8402 50.6552 58.8776 51.0658 58.9054 51.3818C59.0574 53.0694 59.1419 54.0351 59.1624 54.2694C59.2468 55.2032 59.4302 56.6103 59.8657 58.64C60.2808 60.3725 60.072 60.7879 60.5643 61.259C60.8973 61.5773 61.4764 61.659 62.4632 61.659C62.8928 61.659 63.4007 61.6436 63.9991 61.6246C66.4132 61.5501 66.9356 61.1962 67.1998 60.8436C67.3193 60.6838 67.4375 60.4069 67.674 59.853C67.9816 59.1346 68.1505 58.5855 68.2036 58.4175C68.5897 57.1796 69.094 56.647 69.6827 55.4848C69.9783 54.9014 70.3197 54.1097 70.596 53.0978C70.4838 53.2375 70.3595 53.3747 70.222 53.5073C68.9576 54.7227 67.3929 54.8008 66.1779 54.8008L66.1792 54.7984Z" fill="#1E1E1E"/>
<path d="M65.0824 62.2741C62.3739 62.6149 61.0203 62.7842 60.1179 62.0954C59.7318 61.8007 59.7752 61.6279 59.4483 60.5013C59.2166 59.7048 59.1153 59.8184 58.763 58.4515C58.6037 57.8314 58.6375 57.2136 58.7401 55.8467C58.8849 53.92 58.95 53.7342 58.9983 53.7106C59.0007 53.7094 59.0043 53.7094 59.0091 53.707C59.3674 53.6052 59.7294 53.8644 59.815 53.9248C60.1082 54.1331 60.224 54.4408 60.376 54.9106C60.7706 56.1331 60.925 56.9272 60.925 56.9272C61.0637 57.6444 61.0601 57.7438 61.1807 58.4278C61.2555 58.8503 61.3738 59.4231 61.5668 60.1001C61.7779 60.0243 62.0916 59.8811 62.3848 59.603C62.4331 59.5569 62.602 59.3924 62.865 58.9533C63.0218 58.6918 63.2197 58.3213 63.397 57.8456C63.7095 58.2953 63.7795 58.6894 63.7976 58.8953C63.8217 59.1592 63.7879 59.4054 63.7626 59.5947C63.7264 59.8657 63.6697 60.0894 63.6226 60.248C63.7686 60.2504 63.9556 60.2516 64.1716 60.2444C64.5154 60.2326 64.846 60.2231 65.2333 60.1569C65.4842 60.1143 65.828 60.035 66.2274 59.8823C66.4421 59.6551 66.7281 59.2989 66.9513 58.8054C67.131 58.4077 67.2143 58.0468 67.2553 57.7746C67.3675 57.9213 67.5207 58.1604 67.6172 58.4846C67.7367 58.8847 67.8754 59.2267 67.8477 59.4243C68.0202 59.2622 67.9683 59.2421 68.0371 59.2634C68.3447 59.3592 68.4497 60.435 67.9586 61.2078C67.7499 61.5356 67.4061 61.9794 65.0812 62.2717L65.0824 62.2741Z" fill="white"/>
<path d="M61.4052 58.2703C61.3738 57.578 61.2894 56.888 61.1554 56.2182C61.0276 55.5815 60.884 55.1069 60.779 54.759C60.6113 54.2039 60.5064 53.9613 60.4617 53.8572C60.3471 53.5897 60.2144 53.3282 60.066 53.0797L59.6908 52.4512L60.3942 52.2193C60.703 52.1175 61.4667 51.8678 61.8829 51.7518C61.9215 51.7412 62.0241 51.7128 62.1616 51.6915C62.2895 51.6713 62.4488 51.6465 62.614 51.6465C62.8143 51.6465 62.9844 51.682 63.134 51.7565C63.8471 52.108 63.8097 53.1258 63.7867 53.7329C63.7819 53.8501 63.7783 53.9377 63.7771 53.9554L63.7747 53.9909C63.6806 55.3093 63.619 56.1803 63.2607 57.1401C63.0749 57.6383 62.8216 58.1212 62.5079 58.5756L61.4872 60.0526L61.4052 58.2703Z" fill="white"/>
<path d="M62.6141 52.2391C62.7058 52.2391 62.7926 52.251 62.8638 52.2865C63.2113 52.4581 63.204 53.1871 63.1847 53.7125C63.1811 53.8202 63.1775 53.8995 63.1763 53.9149C63.0834 55.2214 63.0267 56.0487 62.6949 56.9375C62.5695 57.2736 62.3631 57.7327 62.0084 58.244C61.9698 57.3907 61.8601 56.6664 61.7479 56.1043C61.6176 55.4534 61.4728 54.9705 61.357 54.5907C61.1905 54.0427 61.0819 53.7776 61.0179 53.6285C60.8635 53.2675 60.7055 52.9812 60.586 52.7811C60.7646 52.722 61.6115 52.4427 62.0459 52.3231C62.082 52.3137 62.1556 52.2936 62.2558 52.277C62.3692 52.2592 62.4959 52.2391 62.6141 52.2391ZM62.6141 51.0557C62.4018 51.0557 62.2087 51.0853 62.0676 51.1077C61.889 51.1361 61.7587 51.1728 61.7153 51.1847C61.3075 51.2971 60.5909 51.5302 60.2012 51.6592L58.7944 52.1231L59.5461 53.3788C59.6812 53.6048 59.8018 53.8427 59.9068 54.0853C59.9478 54.18 60.0431 54.4037 60.2012 54.9268C60.3025 55.2617 60.4425 55.7209 60.5643 56.3315C60.6922 56.973 60.773 57.6333 60.8032 58.2961L60.9661 61.8607L63.0062 58.9067C63.3476 58.4132 63.6239 57.8866 63.8266 57.3434C64.2139 56.3055 64.2814 55.3528 64.3755 54.0332L64.3779 53.9966C64.3816 53.9409 64.3876 53.7859 64.3888 53.7551C64.4153 53.0545 64.4636 51.7504 63.4043 51.2284C63.1715 51.1137 62.9061 51.0557 62.6129 51.0557H62.6141Z" fill="#1E1E1E"/>
<path d="M53.9542 48.2883C54.3427 47.7865 54.8458 47.2255 55.4864 46.6717C55.8194 46.3841 56.1463 46.1367 56.4564 45.9237C55.7518 45.2941 54.8434 44.5272 53.7443 43.7059C53.2569 43.3414 51.6945 42.1923 49.3757 40.8644C47.0593 39.5378 45.7527 38.7898 43.9768 38.3401C43.4423 38.204 42.4988 38.0028 41.4565 37.8407C40.5709 37.7022 40.0328 37.6182 39.2836 37.5886C38.3679 37.5519 37.6537 37.6336 36.2228 37.7945C34.9814 37.9342 34.5664 38.0407 34.2334 38.1472C33.5807 38.3555 33.0691 38.6194 32.7181 38.8265C32.6324 38.6253 32.3971 37.9945 32.6481 37.2916C32.7144 37.1069 32.8689 36.6821 33.2477 36.4371C33.191 36.3673 33.1162 36.2785 33.0112 36.1614C32.8182 35.9472 32.7012 35.8773 32.5093 35.7602C32.1788 35.559 31.3258 35.0454 30.9192 34.6016C25.384 40.1094 24.0508 42.0077 23.7709 42.668C23.7311 42.7615 23.7166 43.8941 23.1641 44.9367C23.0133 45.2219 22.9095 45.4018 22.8371 45.532C22.4897 46.1533 22.2194 46.7356 21.3182 48.9238C20.9008 49.9392 20.6245 50.6244 20.3832 51.6043C20.3832 51.6043 20.0454 52.9795 20.3132 53.0706C20.487 53.1298 21.2229 52.5334 21.3303 52.5109C21.3303 52.5109 21.3339 52.5109 21.3375 52.5097C21.3725 52.5026 21.4461 52.4718 21.4811 52.4718C21.4895 52.4718 21.4956 52.4742 21.4992 52.4777C21.5161 52.5049 21.3978 52.6008 21.3809 52.615C21.2072 52.7618 20.9092 53.3357 20.7994 54.1985C20.6667 55.2435 20.8742 56.2115 20.9937 56.6695C21.2108 56.4021 21.5136 56.0778 21.919 55.7618C22.3196 55.4482 22.7056 55.2328 23.0169 55.0861C22.7261 56.0186 22.5488 56.8388 22.4354 57.4932C22.1555 59.1146 21.872 60.8602 22.4354 62.8567C22.6803 63.7241 23.0229 64.42 23.3185 64.9265C23.5333 64.7289 23.7492 64.5324 23.964 64.3348C23.9953 64.6792 24.0629 65.1573 24.2222 65.7076C24.3911 66.2887 24.6456 66.897 24.8676 67.2497C25.7532 68.6509 27.9417 68.8817 28.3338 68.9184C28.6969 66.323 29.4606 64.3538 30.0554 63.0898C31.841 59.298 34.4059 56.9867 36.2554 55.3192C37.3026 54.376 38.2714 53.5121 39.7855 52.6162C41.0993 51.8398 43.166 50.6185 46.0712 50.3357C46.3378 50.3096 46.5731 50.2954 46.8071 50.2954C46.8614 50.2954 46.9157 50.2954 46.9712 50.2978C47.42 50.3108 47.8362 50.3321 48.2862 50.3795C51.3096 50.699 54.9688 51.9854 54.9688 51.9854C56.1837 52.3984 56.4166 52.5322 56.5927 52.6458C56.6434 52.6789 56.6917 52.7132 56.7411 52.7476C56.4009 51.97 55.9726 51.0848 55.2934 50.0599C54.7794 49.2848 54.2932 48.6859 53.953 48.2918L53.9542 48.2883Z" fill="#FCB300"/>
<path d="M75.4376 40.427C75.0902 39.9714 74.8344 39.6033 74.4664 39.0625C74.3808 39.2909 74.2903 39.5181 74.1877 39.7406C73.9682 40.2199 73.7063 40.6827 73.4108 41.1241C73.6822 41.3549 73.8716 41.5643 73.9911 41.6969C74.4918 42.2555 74.7946 42.7963 74.9599 43.1514C75.2808 43.8401 75.4569 44.5786 75.4871 45.3479C75.5317 45.3798 75.5752 45.4141 75.6138 45.4532C75.7658 45.4863 75.948 45.5124 76.1518 45.5124C76.2821 45.5124 76.4197 45.5017 76.5657 45.4768C76.6996 45.4532 76.8214 45.42 76.9288 45.3834C76.8407 45.1786 76.7406 44.9644 76.6284 44.7431C76.5065 44.5052 76.3823 44.2839 76.2604 44.0792C76.4897 43.9774 76.7225 43.8697 76.959 43.7573C77.1846 43.6496 77.4054 43.5419 77.6189 43.433C77.4946 43.2176 77.304 42.8993 77.0567 42.5277C76.5415 41.7549 76.2834 41.5371 75.4364 40.427H75.4376Z" fill="#FCB300"/>
<path d="M68.714 58.1238C68.714 58.1238 68.7635 58.0634 68.784 57.9581L67.5992 57.7344C67.7356 57.0385 67.7947 56.3379 67.773 55.6527C67.7621 55.3071 67.7307 54.9746 67.6801 54.6657C67.6559 54.5213 67.6318 54.3757 67.5968 54.2669C67.592 54.2503 67.5848 54.2337 67.5787 54.2171C67.5269 54.0811 67.4291 53.8266 67.5196 53.5177C67.7187 52.8396 68.4486 52.7781 69.2231 52.713L69.3064 52.7047C69.4041 52.6952 69.5139 52.6846 69.6321 52.6846C69.7817 52.6846 69.9144 52.7023 70.0375 52.7378C70.8784 52.9792 70.5997 54.1237 70.4815 54.6124C70.4682 54.6657 70.4417 54.7734 70.4417 54.7734C70.1835 55.7947 69.6707 56.8314 68.8757 57.9427C68.8347 57.9995 68.7912 58.0445 68.7538 58.0835C68.7406 58.0965 68.7273 58.1096 68.7152 58.1238H68.714Z" fill="white"/>
<path d="M69.6322 53.2758C69.713 53.2758 69.7927 53.2829 69.8687 53.3054C70.1353 53.3823 69.9869 54.0995 69.8952 54.4746C69.8795 54.5374 69.8663 54.5918 69.8566 54.6309C69.5719 55.754 68.9843 56.7623 68.3823 57.6025C68.3377 57.6653 68.2086 57.7647 68.1929 57.8463C68.3352 57.1185 68.4004 56.367 68.3775 55.6344C68.3666 55.2735 68.334 54.9161 68.2761 54.5693C68.2496 54.4072 68.2206 54.2391 68.1736 54.09C68.135 53.9669 68.0541 53.8344 68.1 53.6794C68.182 53.3977 68.5874 53.3586 69.2751 53.2995C69.3897 53.29 69.5128 53.2734 69.6334 53.2734" fill="#1E1E1E"/>
<path d="M73.3143 43.8897C73.2202 43.6873 73.0067 43.2873 72.6327 42.8696C72.4927 42.7134 72.2816 42.4779 71.945 42.2518C71.6228 42.0352 71.2609 41.879 70.8712 41.7855L70.3138 41.6518L70.198 41.1003C69.8662 39.5145 69.4126 37.9369 68.848 36.4126C68.4052 35.2161 67.58 32.9877 65.8994 30.4172C64.7014 28.5852 63.1716 26.7828 61.4753 25.2053C59.8791 23.7212 58.1093 22.4147 56.2115 21.3117C55.3839 21.1117 53.6236 20.7578 51.3 20.7578C49.6508 20.7578 47.7192 20.9365 45.6369 21.475C45.5717 21.4916 45.5066 21.5093 45.4426 21.5271C49.1501 22.9401 54.5164 25.6325 59.1866 30.7782C60.9625 32.7356 62.3138 34.6907 63.3453 36.4611C64.0463 37.4754 64.4553 38.402 64.7002 39.073C64.9173 39.6683 65.1707 40.3843 65.2141 41.3642C65.2346 41.8234 65.2033 42.2092 65.1671 42.4873C64.5457 42.6258 63.2705 42.9974 62.1063 44.0684C61.7106 44.4329 60.9372 45.1608 60.5282 46.3714C59.9491 48.0875 60.4981 49.5999 60.7044 50.0958C60.6983 50.0958 60.6911 50.097 60.6851 50.0982C60.9288 50.6189 61.2895 51.1751 61.8288 51.6686C63.2886 53.0059 65.0657 53.0142 65.9187 53.0189C66.9538 53.0248 68.1277 53.0296 68.9566 52.2343C69.4452 51.7645 69.6672 51.1727 69.7661 50.6828C69.7456 50.6496 69.7275 50.6165 69.7058 50.5834C69.4512 50.1893 69.1496 49.8697 68.7901 49.5691C68.5271 49.349 68.2387 49.1147 67.8913 49.0401C67.6077 48.9798 67.2965 49.0224 67.0069 48.9975C66.3772 48.9431 65.7956 48.6709 65.634 48.0283C65.4832 47.4294 65.6533 46.9395 65.9887 46.5513C66.5292 45.9276 67.3954 45.6128 68.1893 45.4436C69.9688 45.0637 71.8412 45.1359 73.6557 45.0897C73.6063 44.6696 73.4917 44.2661 73.3143 43.8862V43.8897Z" fill="white"/>
<path d="M71.3804 51.8762C71.3466 51.8892 71.3128 51.9023 71.279 51.9153C71.2404 52.0111 71.1982 52.1082 71.1523 52.2052C71.3249 52.262 71.5312 52.3058 71.7616 52.3058C71.84 52.3058 71.9209 52.3011 72.0041 52.2892C72.4421 52.2289 72.8342 52.0099 73.2962 51.5401C73.9779 50.8502 74.4134 50.0241 74.7054 49.2383C73.8741 50.4075 72.7026 51.3768 71.3816 51.8762H71.3804Z" fill="white"/>
<path d="M79.1957 42.5587C79.0002 42.2203 78.7903 41.883 78.5732 41.5564C78.2245 41.0333 77.9639 40.7137 77.6623 40.3433C77.456 40.0889 77.2219 39.8013 76.8877 39.3634C76.5101 38.8675 76.2483 38.4829 75.773 37.7823L75.7211 37.7054C75.4955 37.3728 75.2723 37.0367 75.0527 36.6994C75.0587 36.5906 75.0611 36.4817 75.0624 36.3728C75.0756 36.2036 75.0853 36.032 75.0901 35.8604H75.0503C75.0431 35.7337 75.0334 35.6071 75.0201 35.4817C74.9936 35.2355 74.955 34.9905 74.9055 34.7467C75.1854 34.2248 75.4243 33.6816 75.6185 33.1254C75.8731 32.3964 76.346 31.0378 76.2266 29.446C76.1747 28.762 75.7718 25.2802 72.8594 23.8577C72.1198 23.4956 71.297 23.3121 70.4151 23.3121C69.0795 23.3121 67.8212 23.7335 66.9019 24.04C66.6002 24.1406 66.3022 24.2542 66.0091 24.3784C65.1959 23.6944 64.0039 22.795 62.4934 21.9381C60.0817 20.5712 57.8751 19.9073 57.0378 19.6848C56.9944 19.673 56.951 19.6623 56.9075 19.6517C56.7495 19.6126 56.5902 19.5748 56.4322 19.5357C54.8553 19.1759 53.0589 18.9795 51.3035 18.9795C49.2296 18.9795 47.169 19.241 45.1783 19.7558C43.4169 20.2115 41.7049 20.8683 40.0907 21.7062L37.9383 22.8234C37.0359 22.8494 36.6341 22.8612 36.4001 22.8825C35.9066 22.9251 34.8812 23.0151 33.8581 23.3784C31.6539 24.1619 30.562 25.511 30.0348 26.5039C29.9443 26.6755 29.1637 28.227 29.3531 30.4934C29.3881 30.9171 29.4666 31.2827 29.4822 31.3514C29.6837 32.2591 30.0408 32.8982 30.1928 33.1715C30.2435 33.2627 30.4317 33.3739 30.3509 33.4414C24.3343 38.4439 20.6449 44.3328 19.2478 51.3104C19.1947 51.572 19.0488 51.8134 18.9522 52.0655L17.595 55.6005L18.9559 55.1413C18.9812 55.9117 19.1127 56.597 19.2442 57.0999L20.1442 60.5675L20.3047 60.3698C20.2999 61.2835 20.4 62.2693 20.6968 63.3226C20.9393 64.1817 21.294 65.0161 21.7536 65.8019L22.8901 67.7463L23.0301 67.6173C23.1302 67.8244 23.2328 68.0138 23.3353 68.1771C24.5804 70.1476 27.1321 70.5819 28.1708 70.6778L29.8973 70.8363L30.1325 69.1511C30.3955 67.2753 30.924 65.4836 31.7045 63.8267C33.3393 60.358 35.7353 58.197 37.4859 56.6183C38.4378 55.7602 39.3366 54.9496 40.7253 54.1294C41.9317 53.4158 43.7559 52.3377 46.2557 52.0951C46.4765 52.0738 46.6538 52.0631 46.8131 52.0631C46.8505 52.0631 46.8867 52.0631 46.9241 52.0643C47.397 52.0785 47.7481 52.0998 48.0991 52.1365C50.868 52.43 54.3317 53.6371 54.3667 53.649L54.6623 53.7531H54.6683C55.3826 54.0028 55.5599 54.0916 55.6033 54.12C56.3127 54.5792 56.6879 55.3058 57.22 56.4467C57.4637 56.9686 57.8112 57.8254 58.0874 58.9438C58.2467 59.5864 58.3082 60.0254 58.3589 60.3781C58.4542 61.0491 58.5628 61.8101 59.306 62.5225C60.1782 63.3581 61.3968 63.4291 62.4693 63.4291C62.9278 63.4291 63.4538 63.4125 64.0618 63.3947C66.26 63.3273 67.7958 63.0515 68.6657 61.8882C68.9118 61.5592 69.0578 61.2172 69.3498 60.5343C69.6876 59.7438 69.877 59.1367 69.9385 58.9378L69.9409 58.9307C70.1303 58.3236 70.3547 57.9449 70.6672 57.4206C70.859 57.0964 71.0774 56.7295 71.3103 56.2691C71.665 55.5697 71.9642 54.8277 72.2055 54.0525C72.2248 54.0501 72.2441 54.0478 72.2634 54.0454C73.3902 53.8892 74.1382 53.2442 74.6039 52.7732C76.3738 50.9803 76.8166 48.624 77.0301 47.4914C77.0494 47.3885 77.0675 47.2855 77.0856 47.1825C77.2376 47.1482 77.3884 47.1056 77.5356 47.0559L79.3562 46.431L78.6926 44.8913L80.1319 44.1647L79.2029 42.5564L79.1957 42.5587ZM67.4834 25.7228C68.4859 25.3643 69.3679 25.0897 70.4127 25.0897C70.9664 25.0897 71.519 25.1891 72.0498 25.4483C74.1442 26.472 74.3952 29.2638 74.4181 29.5774C74.5098 30.8082 74.1346 31.8863 73.903 32.5514C73.611 33.3893 73.2503 34.0449 72.9679 34.4911C73.0705 34.8095 73.1682 35.2059 73.2177 35.6675C73.2406 35.8829 73.2502 36.0876 73.2515 36.2793C73.1718 37.232 72.933 38.1492 72.5372 39.0096C72.3454 39.4261 72.1162 39.8285 71.8556 40.2108C71.3827 38.432 70.9206 36.9385 70.549 35.8059C70.0314 34.2248 69.3172 32.065 68.1156 29.3703C67.5075 28.0057 66.9453 26.8886 66.5315 26.0992C66.7498 26.0021 67.078 25.8649 67.4834 25.7193V25.7228ZM56.5938 52.6406C56.4189 52.527 56.1849 52.3933 54.9699 51.9803C54.9699 51.9803 51.3107 50.695 48.2874 50.3743C47.8373 50.327 47.4199 50.3057 46.9723 50.2927C46.918 50.2915 46.8625 50.2903 46.8082 50.2903C46.5742 50.2903 46.3389 50.3045 46.0723 50.3305C43.1671 50.6134 41.1005 51.8347 39.7866 52.6111C38.2713 53.5069 37.3025 54.3697 36.2565 55.3141C34.407 56.9816 31.8433 59.2929 30.0565 63.0847C29.4617 64.3474 28.698 66.3167 28.3349 68.9132C27.9428 68.8777 25.7543 68.6469 24.8687 67.2445C24.6455 66.8919 24.391 66.2848 24.2233 65.7025C24.064 65.1522 23.9965 64.6741 23.9651 64.3297C23.7503 64.5273 23.5344 64.7238 23.3196 64.9214C23.024 64.4149 22.6814 63.719 22.4365 62.8515C21.8731 60.8539 22.1566 59.1083 22.4365 57.4881C22.5499 56.8336 22.7273 56.0135 23.018 55.0809C22.7067 55.2277 22.3207 55.4431 21.9201 55.7567C21.5148 56.0739 21.2119 56.3969 20.9948 56.6644C20.8753 56.2064 20.669 55.2395 20.8005 54.1933C20.9103 53.3306 21.2071 52.7566 21.3821 52.6099C21.3989 52.5957 21.5172 52.4998 21.5003 52.4726C21.4979 52.4679 21.4918 52.4667 21.4822 52.4667C21.4472 52.4667 21.3736 52.4974 21.3386 52.5045C21.0889 52.5566 20.8572 52.6217 20.6425 52.6951C20.7161 52.5306 20.7897 52.3661 20.8633 52.2016C20.885 52.1223 20.9164 52.0442 20.9296 51.9637C21.8091 46.3991 25.0328 39.8439 31.462 34.9006C30.9831 35.2686 32.1787 35.5562 32.5092 35.7562C32.7023 35.8734 32.8181 35.9432 33.0111 36.1574C33.1161 36.2746 33.1921 36.3622 33.2476 36.4332C32.87 36.6781 32.7143 37.103 32.648 37.2876C32.397 37.9906 32.6323 38.6214 32.718 38.8226C33.0678 38.6155 33.5794 38.3527 34.2333 38.1433C34.5663 38.0367 34.9813 37.9314 36.2227 37.7906C37.6524 37.6285 38.3678 37.548 39.2835 37.5847C40.0315 37.6143 40.5708 37.6983 41.4564 37.8367C42.5 38.0001 43.4422 38.2012 43.9767 38.3362C45.7526 38.7859 47.058 39.535 49.3756 40.8605C51.6944 42.1883 53.2568 43.3375 53.7442 43.702C54.8445 44.5233 55.7517 45.2902 56.4563 45.9198C56.1462 46.1328 55.8193 46.3813 55.4863 46.6677C54.8445 47.2216 54.3414 47.7825 53.9541 48.2843C54.2943 48.6784 54.7805 49.2761 55.2945 50.0524C55.9737 51.0773 56.402 51.9625 56.7422 52.7401C56.694 52.7057 56.6457 52.6714 56.5938 52.6383V52.6406ZM57.442 38.419C56.3538 37.4533 55.3862 36.7906 54.374 36.0971C53.4836 35.4876 52.6801 34.9361 51.5243 34.3254C51.5243 34.3254 48.2089 32.5703 46.1519 32.7064C45.5547 32.7455 44.9949 32.8863 44.9949 32.8863C44.6571 32.9715 44.37 33.0733 44.1432 33.1644C43.8922 32.4733 43.3819 31.3052 42.3673 30.1395C40.7844 28.3205 37.6307 26.1229 35.3119 27.1146C35.2141 27.156 34.4251 27.5099 33.9461 28.3324C32.9858 29.9833 33.8412 32.5644 35.3094 33.181C35.5158 33.2674 35.6967 33.2994 35.8017 33.3136C35.8946 33.4272 36.4025 34.0651 36.2457 34.8603C36.1238 35.4746 35.6521 35.9432 35.143 36.1811C35.0223 35.742 34.7074 35.3609 34.3648 34.9822C33.9944 34.5728 33.6976 34.3929 33.4587 34.2473C33.1981 34.0887 33.2247 34.0958 33.2006 34.0769C33.0461 33.9621 32.9194 33.8201 32.6733 33.5408C32.6082 33.4674 32.5201 33.3668 32.4055 33.2283C32.2788 33.0745 32.1751 32.9384 32.0942 32.8283C31.9844 32.6733 31.8771 32.5053 31.7757 32.323C31.6358 32.0721 31.3884 31.6224 31.2461 30.9786C31.2437 30.9656 31.1797 30.6733 31.1532 30.3525C31.0012 28.5241 31.6358 27.3276 31.6358 27.3276C32.4658 25.7631 34.0571 25.1974 34.4697 25.0518C35.272 24.7666 36.1081 24.6932 36.5569 24.6542C36.762 24.6364 37.2712 24.6222 38.2894 24.5926C38.9047 24.5749 39.4102 24.5678 39.5309 24.5654C40.7144 24.5453 40.8459 24.5571 41.3152 24.5358C41.6868 24.5181 42.2345 24.4802 42.9065 24.3879C43.5677 24.6672 44.3712 25.0246 45.3557 25.4637C49.5566 27.3371 53.328 30.0271 53.5475 30.1845C55.2704 31.4236 57.3491 33.097 59.5123 35.2864C59.8537 35.6521 60.6005 36.4521 61.0384 36.9207C61.0384 36.9207 61.8962 37.8391 63.0315 39.4605C63.1401 39.6167 63.3549 39.9315 63.3898 40.3729C63.4007 40.5185 63.4104 40.9398 63.1715 41.2901C62.7528 41.9031 61.8323 41.9149 61.6924 41.9161C60.3387 41.9327 59.8344 40.5421 57.4408 38.4178L57.442 38.419ZM69.6827 55.4821C69.094 56.6443 68.5897 57.1768 68.2036 58.4147C68.1517 58.5828 67.9816 59.1319 67.674 59.8503C67.4375 60.4041 67.3181 60.6811 67.1998 60.8408C66.9356 61.1947 66.4132 61.5485 63.9991 61.6219C63.4007 61.6409 62.894 61.6562 62.4633 61.6562C61.4764 61.6562 60.8973 61.5746 60.5643 61.2562C60.0733 60.7852 60.2808 60.3698 59.8658 58.6372C59.4302 56.6064 59.2469 55.2005 59.1624 54.2667C59.1407 54.0336 59.0574 53.0667 58.9054 51.3791C58.8765 51.0631 58.8403 50.6524 58.8125 50.3483L58.8318 50.3459C59.1467 51.1767 59.6812 52.1329 60.5933 52.9685C62.5707 54.7792 64.9956 54.791 65.9101 54.7957C65.9982 54.7957 66.0875 54.7957 66.1792 54.7957C67.3941 54.7957 68.9589 54.7176 70.2232 53.5022C70.3608 53.3697 70.4838 53.2324 70.5972 53.0927C70.3198 54.1058 69.9795 54.8963 69.684 55.4798L69.6827 55.4821ZM68.1891 45.4476C67.3953 45.6168 66.5291 45.9316 65.9886 46.5553C65.6532 46.9435 65.4831 47.4322 65.6339 48.0322C65.7955 48.6749 66.377 48.9471 67.0068 49.0015C67.2964 49.0264 67.6076 48.9826 67.8911 49.0441C68.2374 49.1187 68.5257 49.353 68.79 49.5731C69.1495 49.8737 69.4511 50.1933 69.7057 50.5873C69.7262 50.6193 69.7455 50.6536 69.766 50.6868C69.6671 51.1767 69.4451 51.7684 68.9565 52.2383C68.1288 53.0347 66.9549 53.0288 65.9186 53.0229C65.0644 53.0182 63.2885 53.0099 61.8287 51.6726C61.2894 51.1791 60.9287 50.6228 60.685 50.1021C60.691 50.1021 60.6982 50.1009 60.7043 50.0998C60.498 49.6039 59.949 48.0914 60.5281 46.3754C60.9371 45.1659 61.7104 44.4369 62.1062 44.0724C63.2704 43.0014 64.5444 42.6298 65.167 42.4913C65.202 42.2132 65.2345 41.8274 65.214 41.3682C65.1706 40.3871 64.9172 39.6723 64.7001 39.077C64.4552 38.4048 64.0462 37.4793 63.3452 36.4651C62.3149 34.6947 60.9636 32.7396 59.1865 30.7821C54.5163 25.6365 49.7339 22.7938 46.0264 21.3819C46.0264 21.3819 46.0313 21.3807 46.0325 21.3807C46.7141 21.1866 47.4223 21.0482 48.5299 20.931C49.261 20.8541 50.1369 20.7606 51.3011 20.7618C52.5148 20.763 54.2063 20.8671 56.2126 21.3156C56.9787 21.7606 57.8594 22.3169 58.8005 23.0044C59.3265 23.3879 60.3435 24.1571 61.4764 25.2104C63.9605 27.5182 65.4722 29.7679 65.9005 30.4224C67.5799 32.9928 68.4051 35.2213 68.8491 36.4178C69.4137 37.9421 69.8673 39.5196 70.1991 41.1055L70.3149 41.657L70.8723 41.7907C71.262 41.8842 71.6239 42.0404 71.9461 42.257C72.2827 42.483 72.4938 42.7185 72.6337 42.8747C73.0078 43.2925 73.2213 43.6925 73.3154 43.8949C73.4928 44.2748 73.6062 44.6783 73.6568 45.0985C71.8435 45.1446 69.9711 45.0724 68.1904 45.4523L68.1891 45.4476ZM73.2961 51.5412C72.8328 52.0099 72.4419 52.2288 72.004 52.2903C71.9207 52.3022 71.8399 52.3069 71.7615 52.3069C71.531 52.3069 71.3247 52.2619 71.1522 52.2063C71.1981 52.1093 71.2415 52.0122 71.2789 51.9164C71.3127 51.9033 71.3465 51.8903 71.3802 51.8773C72.7013 51.3791 73.8728 50.4098 74.704 49.2394C74.4133 50.0264 73.9765 50.8513 73.2949 51.5412H73.2961ZM76.9601 43.7576C76.7237 43.87 76.4908 43.9777 76.2616 44.0795C76.3846 44.2831 76.5089 44.5044 76.6295 44.7434C76.743 44.9647 76.8419 45.1789 76.93 45.3837C76.8226 45.4204 76.7007 45.4535 76.5668 45.4772C76.422 45.502 76.2833 45.5127 76.153 45.5127C75.9491 45.5127 75.7669 45.4866 75.6149 45.4535C75.5763 45.4144 75.5329 45.3801 75.4882 45.3482C75.4581 44.5789 75.2819 43.8404 74.961 43.1517C74.7957 42.7966 74.4929 42.2558 73.9922 41.6972C73.874 41.5646 73.6846 41.3552 73.4119 41.1244C73.7075 40.683 73.9681 40.2202 74.1889 39.7409C74.2914 39.5184 74.3819 39.2912 74.4676 39.0628C74.8355 39.6037 75.0913 39.9705 75.4388 40.4273C76.2857 41.5374 76.5439 41.7552 77.059 42.528C77.3076 42.9008 77.497 43.2179 77.6213 43.4333C77.4065 43.541 77.1869 43.6499 76.9613 43.7576H76.9601Z" fill="#1E1E1E"/>
<path d="M71.8942 32.3689C72.0885 32.7003 72.3575 33.1879 72.6579 33.8352C73.1103 32.9074 73.3794 32.0932 73.5459 31.4908C73.8704 30.3133 74.0864 29.4505 73.7244 28.5274C73.6581 28.357 73.2841 27.4043 72.6422 27.3582C72.3768 27.3392 72.1669 27.4824 72.0583 27.557C71.8255 27.7156 71.5492 28.0173 71.256 29.3831C71.1812 29.7334 71.0943 30.2056 71.0304 30.7736C71.1016 30.9216 71.209 31.1429 71.3501 31.408C71.5902 31.8612 71.7736 32.1642 71.8954 32.3701L71.8942 32.3689Z" fill="#1E1E1E"/>
<path d="M51.6509 80.9708C51.7221 81.0312 51.786 81.0939 51.8439 81.1578C51.8765 79.7684 52.1986 78.3353 52.487 77.0512C52.5738 76.6654 52.6583 76.2879 52.7307 75.9316H52.6426C52.5183 76.8796 52.3 77.8145 52.0997 78.6785C51.903 79.5199 51.7172 80.3199 51.6509 80.972V80.9708Z" fill="#1E1E1E"/>
<path d="M32.322 77.1619L33.2908 78.9915C33.4464 78.582 33.6419 78.1761 33.8796 77.7785C34.5431 76.6684 35.4986 75.7737 36.7232 75.105C36.6327 74.9654 36.5398 74.8163 36.4433 74.6589C36.2056 74.2742 36.0283 73.9606 35.898 73.6943C35.1126 75.0967 33.917 76.2577 32.3232 77.1607L32.322 77.1619Z" fill="#1E1E1E"/>
<path d="M25.9519 71.0466H26.2366C26.4864 70.9767 26.9677 70.5708 27.0667 70.3424C27.1499 70.088 27.1668 69.9235 27.1656 69.843C27.0582 69.7767 26.759 69.6525 26.2089 69.6016L25.9519 71.0466Z" fill="#1E1E1E"/>
<path d="M62.0867 76.0242C61.9094 76.8065 61.5619 78.3414 61.4196 79.4018C61.4714 79.3888 61.5209 79.3758 61.5667 79.3628C61.7779 79.3071 61.9757 79.2551 62.1724 79.216L62.2713 79.1959C62.2737 78.9107 62.2882 78.616 62.316 78.3095C62.3896 77.4976 62.5548 76.7 62.7998 75.9248L62.106 75.9319C62.0988 75.9627 62.0928 75.9934 62.0855 76.0242H62.0867Z" fill="#1E1E1E"/>
<path d="M34.4359 72.1086C36.7789 66.5274 32.5297 63.7167 27.3612 63.4528C26.6603 63.4173 25.9509 63.4043 25.2354 63.4043C23.3534 63.4043 21.4399 63.4942 19.5639 63.4942C19.1127 63.4942 18.6639 63.4895 18.2175 63.4765C18.2199 63.9972 17.467 66.5334 17.5406 66.7854C17.5901 66.9559 17.7337 66.9914 17.9086 66.9914C18.0353 66.9914 18.1776 66.9724 18.3128 66.9724C18.6216 66.9724 18.8955 67.0683 18.8581 67.6991C18.1113 72.6365 16.6937 77.6614 15.965 82.574C15.9191 82.8817 15.6356 84.0663 15.9927 84.1752H21.4061L22.7272 76.9088C22.7743 76.8401 22.9589 76.807 23.1772 76.807C23.5307 76.807 23.9747 76.8934 24.0869 77.0567L27.88 84.4462L33.8375 84.8308L33.7965 84.4876C33.7096 84.3539 33.6264 84.2166 33.5504 84.0746C33.3429 83.6888 33.1836 83.2876 33.069 82.8769L29.5594 76.2448C31.6538 75.4732 33.5552 74.2022 34.4347 72.1063L34.4359 72.1086ZM28.9887 70.9607C28.6678 71.9323 27.3214 73.0306 26.2863 73.0306H23.5464L24.5007 67.673C24.8832 67.6245 25.2849 67.5961 25.6855 67.5961C27.7763 67.5961 29.8465 68.3618 28.9887 70.9619V70.9607Z" fill="white"/>
<path d="M25.6853 68.5879C25.5792 68.5879 25.4706 68.5903 25.362 68.595L24.7479 72.04H26.285C26.8363 72.04 27.8292 71.2519 28.0259 70.6566C28.2322 70.0329 28.2262 69.5678 28.009 69.2743C27.6905 68.8447 26.8218 68.5879 25.6853 68.5879ZM27.0667 70.343C26.9678 70.5714 26.4864 70.9773 26.2367 71.0471H25.952L26.209 69.6021C26.7579 69.653 27.0583 69.7773 27.1657 69.8435C27.1669 69.9228 27.15 70.0885 27.0667 70.343Z" fill="#1E1E1E"/>
<path d="M34.9847 85.8984L27.238 85.399L23.5269 78.168L22.2541 85.167H15.8405L15.6946 85.1221C14.5339 84.7682 14.797 83.3469 14.9381 82.5835C14.9502 82.5208 14.9598 82.4676 14.9646 82.4309C15.3374 79.9196 15.8936 77.3515 16.4317 74.8674C16.9227 72.5999 17.4307 70.259 17.7926 67.9785C16.8938 67.9252 16.6296 67.2648 16.5692 67.0565C16.4631 66.692 16.5391 66.3524 16.8757 64.9736C16.9939 64.4884 17.1918 63.6789 17.2063 63.4683L17.2026 62.4529L18.2474 62.4836C18.6588 62.4955 19.0895 62.5014 19.5649 62.5014C20.4902 62.5014 21.447 62.4789 22.3723 62.4564C23.3122 62.4339 24.2834 62.4115 25.2365 62.4115C26.0412 62.4115 26.753 62.428 27.4129 62.4612C31.0154 62.6446 33.8578 63.9535 35.2115 66.0518C35.9233 67.1548 36.535 68.9773 35.7001 71.5916C35.9655 70.8756 36.535 70.3406 37.0767 69.9607C37.2757 67.9844 36.7027 66.5098 36.0657 65.5228C34.5347 63.1488 31.4003 61.673 27.4648 61.4718C26.7868 61.4375 26.0569 61.4209 25.2341 61.4209C24.2677 61.4209 23.2904 61.4446 22.3446 61.4671C21.4253 61.4884 20.4746 61.5108 19.5613 61.5108C19.0968 61.5108 18.6757 61.5049 18.2752 61.4931L16.1856 61.4327L16.1928 63.4103C16.1566 63.6541 15.9901 64.331 15.89 64.7441C15.5317 66.2092 15.411 66.7027 15.5944 67.3311C15.7332 67.8092 16.0782 68.337 16.6525 68.6625C16.3086 70.6531 15.8683 72.6851 15.44 74.6626C14.8983 77.1621 14.3385 79.7456 13.9609 82.2889C13.956 82.3173 13.9488 82.3587 13.9392 82.4072C13.8885 82.6806 13.8125 83.0936 13.7932 83.5149C13.7099 85.4084 14.9936 85.9493 15.3893 86.07L15.6825 86.1588H23.0962L23.393 84.5232L23.9842 81.2734L26.0701 85.3386L26.5901 86.3517L27.7435 86.4262L33.701 86.8109L36.126 86.9671L36.0753 86.5469C35.676 86.3386 35.3068 86.0913 34.969 85.8108L34.9798 85.8996L34.9847 85.8984Z" fill="#1E1E1E"/>
<path d="M30.9612 76.7418L32.9181 80.4389C32.9868 79.9561 33.1099 79.472 33.2921 78.9915L32.3233 77.1619C33.917 76.2589 35.1126 75.098 35.898 73.6956C35.6109 73.1157 35.5457 72.7677 35.5481 72.4221C35.5506 72.1855 35.5855 71.9641 35.6471 71.7559C35.5662 71.9937 35.4758 72.2363 35.3708 72.4861C34.6059 74.3086 33.1244 75.7358 30.9612 76.7418Z" fill="#1E1E1E"/>
<path d="M33.7976 84.4872L33.8386 84.8304L27.8811 84.4458L24.088 77.0562C23.9758 76.8929 23.5318 76.8065 23.1783 76.8065C22.96 76.8065 22.7754 76.8397 22.7283 76.9083L21.4072 84.1748H15.9938C15.6355 84.0659 15.9202 82.8824 15.9661 82.5735C16.6948 77.661 18.1124 72.636 18.8592 67.6986C18.8966 67.0678 18.6227 66.972 18.3139 66.972C18.1787 66.972 18.0352 66.9909 17.9097 66.9909C17.7348 66.9909 17.5912 66.9554 17.5417 66.785C17.4681 66.5329 18.2198 63.9956 18.2186 63.476C18.665 63.4891 19.1138 63.4938 19.565 63.4938C21.441 63.4938 23.3545 63.4038 25.2365 63.4038C25.9508 63.4038 26.6602 63.4169 27.3623 63.4524C32.5308 63.7163 36.78 66.527 34.437 72.1082C33.5575 74.2041 31.6549 75.474 29.5617 76.2468L33.0713 82.8789C32.8517 82.0919 32.8023 81.2682 32.9193 80.4386L30.9624 76.7414C33.1256 75.7367 34.6071 74.3082 35.372 72.4857C35.477 72.236 35.5675 71.9922 35.6483 71.7555C35.664 71.6999 35.6821 71.6455 35.7026 71.5922C36.5375 68.9779 35.9258 67.1566 35.214 66.0524C33.8603 63.9542 31.0179 62.6452 27.4154 62.4618C26.7555 62.4287 26.0425 62.4121 25.239 62.4121C24.2846 62.4121 23.3134 62.4346 22.3748 62.4571C21.4495 62.4796 20.4927 62.5021 19.5674 62.5021C19.092 62.5021 18.6613 62.4961 18.2499 62.4843L17.2051 62.4535L17.2088 63.4689C17.1943 63.6808 16.9964 64.4903 16.8782 64.9743C16.5416 66.3542 16.4656 66.6927 16.5717 67.0572C16.6321 67.2655 16.8963 67.9258 17.7951 67.9791C17.4332 70.2596 16.9252 72.6005 16.4342 74.868C15.8961 77.3509 15.3399 79.919 14.9671 82.4315C14.9611 82.4682 14.9515 82.5215 14.9406 82.5842C14.7994 83.3475 14.5364 84.7689 15.6971 85.1227L15.843 85.1677H22.2566L23.5294 78.1687L27.2405 85.3996L34.9872 85.8991L34.9763 85.8103C34.5203 85.4316 34.1246 84.989 33.8 84.4884L33.7976 84.4872Z" fill="#1E1E1E"/>
<path d="M25.6853 67.5949C25.2836 67.5949 24.8818 67.6233 24.5006 67.6719L23.5463 73.0294H26.2861C27.3213 73.0294 28.6677 71.9311 28.9886 70.9595C29.8476 68.3594 27.7761 67.5938 25.6853 67.5938V67.5949ZM28.0271 70.6554C27.8304 71.2495 26.8387 72.0388 26.2861 72.0388H24.7491L25.3632 68.5938C25.4718 68.589 25.5792 68.5867 25.6865 68.5867C26.823 68.5867 27.6917 68.8435 28.0102 69.2731C28.2273 69.5666 28.2334 70.0317 28.0271 70.6554Z" fill="#1E1E1E"/>
<path d="M59.4675 80.9974C58.9367 79.8743 60.2396 75.3617 60.4568 73.9653L63.6395 73.9333C63.7903 73.6516 63.9531 73.3759 64.1269 73.1049C64.2946 72.2019 64.4611 70.8445 64.449 70.538H61.1747C61.1167 70.538 60.9515 70.3332 60.9816 70.2243L61.5088 66.0811L56.3886 67.9415C55.8421 68.261 55.9784 70.2456 55.6358 70.4812C55.5043 70.5368 55.2618 70.5522 54.971 70.5522C54.5657 70.5522 54.0686 70.5202 53.6596 70.5202C53.2506 70.5202 52.9562 70.5486 52.879 70.661C52.7873 70.7924 52.68 71.9309 52.5786 72.8481C52.6558 73.1984 52.7065 73.5653 52.7306 73.9487H54.7599C54.8962 73.9487 54.9686 74.254 54.9674 74.4008C54.9433 77.3997 52.1298 82.84 55.5887 84.8058C56.379 85.2543 57.4986 85.4685 58.6254 85.4685C59.7522 85.4685 60.902 85.2519 61.7176 84.8389C62.5741 84.4057 62.3582 82.4862 62.5235 81.4246C62.5042 81.3465 62.4861 81.266 62.468 81.1856C61.9806 81.298 61.2096 81.5512 60.5545 81.5512C60.0792 81.5512 59.6666 81.4175 59.4675 80.9986V80.9974Z" fill="white"/>
<path d="M62.1737 79.2162C61.9782 79.2552 61.7791 79.3073 61.568 79.3629C61.5222 79.3748 61.4727 79.3878 61.4208 79.402C61.5632 78.3416 61.9106 76.8067 62.088 76.0244C62.0952 75.9936 62.1025 75.9628 62.1085 75.9321L62.8022 75.925C62.9084 75.5877 63.0302 75.2563 63.1678 74.9297L61.2941 74.9486C61.2374 75.2113 61.1711 75.5001 61.1011 75.809C60.826 77.0209 60.1914 79.8197 60.376 80.544C60.4098 80.5511 60.4677 80.5582 60.5546 80.5582C60.925 80.5582 61.4268 80.4269 61.8298 80.3215C62.0035 80.2766 62.1652 80.2351 62.316 80.202C62.2846 79.8825 62.2702 79.5475 62.2726 79.1972L62.1737 79.2174V79.2162Z" fill="#1E1E1E"/>
<path d="M51.7812 70.9413C51.8524 70.4668 51.9176 70.2821 52.0418 70.1034C52.4412 69.5295 53.2024 69.5295 53.6585 69.5295C53.8817 69.5295 54.1218 69.5377 54.3534 69.546C54.5368 69.5519 54.7129 69.559 54.8722 69.5602C54.8842 69.4762 54.8951 69.391 54.9048 69.3188C55.0206 68.4324 55.1412 67.5152 55.8699 67.0892L55.9496 67.043L62.7166 64.585L62.0856 69.5472H65.4215L65.4589 70.5011C65.4673 70.707 65.4323 71.0881 65.3889 71.4632C65.5687 71.2668 65.752 71.0739 65.9451 70.8881C66.1152 70.7248 66.2901 70.5685 66.4675 70.4159L66.3951 68.5555H63.2305L63.5141 66.327L63.9255 63.0879L60.8044 64.2216L55.6841 66.082L55.5104 66.1448L55.3512 66.2383C54.4439 66.7685 54.1435 67.701 53.9963 68.5425C53.8829 68.5401 53.7695 68.5377 53.6573 68.5377C53.1325 68.5377 51.9043 68.5377 51.2057 69.5448C51.108 69.6857 51.0332 69.8241 50.9729 69.9815C51.283 70.2739 51.552 70.5946 51.7812 70.9413Z" fill="#1E1E1E"/>
<path d="M62.1784 85.7206C61.2482 86.1904 59.9525 86.459 58.6242 86.459C57.2959 86.459 55.9844 86.1762 55.0796 85.6626C51.9838 83.904 52.8102 80.2222 53.4738 77.2647C53.6632 76.4221 53.8442 75.6162 53.9178 74.9404H52.733C52.7161 75.2706 52.6848 75.602 52.6413 75.9322H52.7294C52.657 76.2884 52.5726 76.6659 52.4857 77.0517C52.1974 78.3358 51.8752 79.7701 51.8427 81.1583C52.2444 81.5927 52.3807 82.0814 52.4254 82.4033C52.4724 82.7406 52.4507 83.0365 52.2444 83.8057C52.774 85.2176 53.7356 86.046 54.5729 86.5218C55.6285 87.1206 57.0666 87.4508 58.623 87.4508C60.1793 87.4508 61.5571 87.149 62.6405 86.6022C63.5224 86.1573 63.964 85.3998 64.1932 84.5939C63.9193 84.2921 63.6382 83.93 63.3776 83.5016C63.2715 84.4128 63.006 85.3028 62.1784 85.7218V85.7206Z" fill="#1E1E1E"/>
<path d="M52.8766 70.6608C52.9538 70.5484 53.2663 70.52 53.6572 70.52C54.0481 70.52 54.5632 70.552 54.9686 70.552C55.2581 70.552 55.5018 70.5354 55.6333 70.481C55.976 70.2455 55.8396 68.2608 56.3862 67.9413L61.5064 66.0809L60.9792 70.2242C60.949 70.333 61.1143 70.5378 61.1722 70.5378H64.4465C64.4586 70.8443 64.2921 72.2005 64.1244 73.1047C64.4948 72.5272 64.9171 71.978 65.3876 71.4632C65.431 71.0881 65.466 70.707 65.4576 70.5011L65.4202 69.5472H62.0843L62.7153 64.585L55.9482 67.043L55.8686 67.0892C55.1399 67.5152 55.0193 68.4312 54.9034 69.3188C54.8938 69.391 54.8829 69.4762 54.8709 69.5602C54.7116 69.5579 54.5355 69.5519 54.3521 69.546C54.1204 69.5377 53.8804 69.5295 53.6572 69.5295C53.2023 69.5295 52.4398 69.5295 52.0405 70.1034C51.9162 70.2821 51.8511 70.4668 51.7799 70.9413C52.1539 71.5058 52.4193 72.1425 52.575 72.8479C52.6775 71.9307 52.7837 70.7934 52.8754 70.6608H52.8766Z" fill="#1E1E1E"/>
<path d="M60.5546 80.5586C60.4665 80.5586 60.4098 80.5503 60.376 80.5444C60.1914 79.8213 60.826 77.0212 61.1011 75.8094C61.1711 75.5005 61.2362 75.2105 61.2941 74.949L63.1678 74.9301C63.3101 74.5916 63.467 74.259 63.6407 73.9336L60.4581 73.9655C60.2409 75.362 58.9379 79.8757 59.4688 80.9977C59.6666 81.4166 60.0804 81.5504 60.5558 81.5504C61.2097 81.5504 61.9806 81.2971 62.4692 81.1847C62.4029 80.8758 62.351 80.548 62.3172 80.2024C62.1664 80.2343 62.0035 80.2758 61.831 80.3219C61.4281 80.4272 60.9262 80.5586 60.5558 80.5586H60.5546Z" fill="#1E1E1E"/>
<path d="M61.7152 84.8375C60.8984 85.2493 59.7583 85.4671 58.623 85.4671C57.4878 85.4671 56.3754 85.2529 55.5864 84.8043C52.1275 82.8398 54.9409 77.3982 54.9651 74.3993C54.9651 74.2526 54.8951 73.9473 54.7575 73.9473H52.7283C52.7319 74.0053 52.7367 74.0621 52.7391 74.1212C52.75 74.3922 52.7464 74.6656 52.7331 74.939H53.9178C53.843 75.6159 53.6621 76.4219 53.4739 77.2633C52.8091 80.222 51.9827 83.9025 55.0797 85.6611C55.9833 86.1748 57.2416 86.4576 58.6243 86.4576C60.0069 86.4576 61.2495 86.1878 62.1785 85.7191C63.0073 85.3014 63.2728 84.4102 63.3777 83.499C63.0327 82.9285 62.7238 82.2409 62.5211 81.422C62.3546 82.4847 62.5718 84.4031 61.7152 84.8363V84.8375Z" fill="#1E1E1E"/>
<path d="M82.3541 84.3772C82.5024 84.4044 82.7244 84.4151 82.9887 84.4151C83.9092 84.4151 85.3376 84.2766 85.9059 84.176C86.1098 84.1405 86.1206 84.1275 86.2123 83.9524C86.2895 83.8044 86.9024 81.6257 86.8771 81.5014C86.8107 81.1641 86.0494 81.0635 85.9023 80.7665C85.7285 80.415 85.8793 79.7901 85.8383 79.3913L88.6421 62.8027C86.8903 63.0264 85.071 62.959 83.3494 63.1826L83.1901 63.4193L81.4275 73.971C81.6157 75.5415 81.3684 77.0267 81.0837 78.0954L80.7398 79.3877L80.5178 79.4161L80.2162 81.2186C80.0871 82.7346 80.7398 84.0849 82.3528 84.3772H82.3541Z" fill="white"/>
<path d="M79.39 79.5614L79.1859 79.5875C79.2403 79.72 79.32 79.8952 79.3888 80.0467L79.4721 79.5508L79.39 79.5614Z" fill="#1E1E1E"/>
<path d="M85.8999 61.011C84.983 61.0512 84.0335 61.0926 83.084 61.2169L82.1683 61.3352L81.6604 62.0915L81.5012 62.3281L81.2647 62.6808L81.1947 63.0974L79.9834 70.3449C80.2995 70.7426 80.5686 71.1816 80.7893 71.6562L82.2274 63.0489L82.7595 62.2571L83.2167 62.198C84.1228 62.0808 85.0494 62.0394 85.9446 62.0003C86.7975 61.9625 87.6794 61.9234 88.5107 61.8181L89.8607 61.6453L86.853 79.4398C86.8603 79.6138 86.8494 79.7854 86.8385 79.9522C86.8337 80.0244 86.8277 80.1215 86.8265 80.209C87.1522 80.3653 87.7386 80.654 87.8677 81.312C87.9111 81.5333 87.9292 81.6245 87.5564 82.976C87.221 84.1902 87.1474 84.3299 87.1088 84.4056C86.8711 84.8589 86.5924 85.0612 86.0833 85.1512C85.4197 85.2695 83.9213 85.4056 82.9863 85.4056C82.634 85.4056 82.3746 85.3879 82.1683 85.3512C80.9727 85.1346 80.0763 84.447 79.5925 83.4541L79.5491 83.5038C79.3331 83.7476 79.1027 83.9819 78.859 84.2068C79.5093 85.3062 80.5963 86.0755 81.9849 86.3275C82.2528 86.3761 82.5713 86.3985 82.9863 86.3985C83.9889 86.3985 85.5428 86.2553 86.2631 86.1275C87.0859 85.982 87.6239 85.5902 88.0076 84.86C88.0872 84.7086 88.1693 84.5512 88.5324 83.2363C88.8895 81.9416 88.9571 81.6174 88.8606 81.1262C88.7182 80.4019 88.2718 79.9428 87.8652 79.6576C87.8652 79.6102 87.8664 79.5617 87.8652 79.512L90.6353 63.1258L91.0805 60.4902L88.3792 60.8346C87.5902 60.9352 86.7686 60.9719 85.8975 61.0098L85.8999 61.011Z" fill="#1E1E1E"/>
<path d="M81.4276 73.9722L83.1902 63.4205L83.3495 63.1838C85.0699 62.9601 86.8904 63.0276 88.6422 62.8039L85.8384 79.3925C85.8794 79.7913 85.7286 80.4161 85.9024 80.7676C86.0483 81.0647 86.8108 81.1653 86.8772 81.5026C86.9013 81.6268 86.2896 83.8068 86.2124 83.9535C86.1207 84.1287 86.1087 84.1417 85.906 84.1772C85.3377 84.2778 83.9093 84.4162 82.9887 84.4162C82.7245 84.4162 82.5025 84.4044 82.3541 84.3784C80.7411 84.0861 80.0896 82.7369 80.2175 81.2197L80.5191 79.4173L79.4719 79.551L79.3887 80.0469C79.4116 80.0966 79.4333 80.144 79.4526 80.1854C79.9255 81.215 80.3345 82.1038 79.8338 83.0884L79.7192 83.3144L79.595 83.4553C80.0788 84.4482 80.9752 85.1358 82.1708 85.3524C82.3771 85.3902 82.6365 85.4068 82.9887 85.4068C83.9238 85.4068 85.421 85.2695 86.0857 85.1524C86.5961 85.0624 86.8736 84.86 87.1112 84.4068C87.151 84.331 87.2246 84.1914 87.5588 82.9772C87.9316 81.6257 87.9135 81.5345 87.8701 81.3132C87.741 80.6552 87.1547 80.3664 86.8289 80.2102C86.8313 80.1227 86.8374 80.0256 86.841 79.9534C86.8506 79.7866 86.8615 79.6138 86.8555 79.441L89.8632 61.6465L88.5131 61.8193C87.6819 61.9258 86.8 61.9637 85.947 62.0015C85.0506 62.0406 84.1252 62.082 83.2192 62.1992L82.7619 62.2583L82.2299 63.0501L80.7918 71.6574C80.9305 71.9568 81.0512 72.2692 81.1489 72.597C81.2864 73.0574 81.3745 73.5178 81.4288 73.971L81.4276 73.9722Z" fill="#1E1E1E"/>
<path d="M35.7268 83.5922L35.7461 83.7531C36.4772 84.6455 37.6402 85.2526 39.1206 85.352C39.2931 85.3638 39.462 85.3697 39.6249 85.3697C41.2295 85.3697 42.4118 84.8171 43.7244 83.8383C43.8994 83.7082 43.9826 83.4407 44.0248 83.417C44.16 83.3425 44.2589 83.3117 44.3301 83.3117C44.5895 83.3117 44.4941 83.7247 44.5605 83.9472C44.873 85.0005 46.1808 85.268 47.2992 85.268C47.6237 85.268 47.9326 85.2455 48.1968 85.2135C48.4513 85.1828 49.7109 84.8064 49.8436 84.6668C49.9474 84.5579 50.4444 82.8336 50.4227 82.6703C50.366 82.2632 49.8955 82.4265 49.7085 82.049C49.5709 81.7732 49.5963 81.3992 49.6132 81.0975C49.6976 79.6016 50.331 77.7246 50.6025 75.9317H49.7579L50.4613 73.4488C50.4782 73.36 50.5023 73.1848 50.5265 72.9789C50.2936 72.2026 49.8339 71.5162 49.028 70.9812C47.8264 70.1836 46.1229 69.8652 44.4483 69.8652C43.225 69.8652 42.0161 70.0357 41.0292 70.3138C40.2631 70.5292 37.5787 71.573 37.5715 72.4369C37.5691 72.7458 38.7466 74.5872 38.8744 74.6133C38.8986 74.618 38.9251 74.6204 38.9529 74.6204C39.4186 74.6204 40.2546 73.9375 40.6697 73.7624C41.3308 73.4854 42.4009 73.1979 43.377 73.1979C44.429 73.1979 45.3712 73.5316 45.5703 74.5683C45.7597 75.5518 45.6053 75.7612 45.2397 75.7612C44.984 75.7612 44.6244 75.6583 44.2046 75.6464C43.9923 75.6393 43.7751 75.6358 43.5531 75.6358C40.6962 75.6358 37.1504 76.2299 35.6267 78.7802C34.9305 79.9459 34.7459 81.1353 34.98 82.178L35.5579 83.2703L35.728 83.5922H35.7268ZM43.6822 78.1506C44.1298 78.1506 44.5605 78.1956 44.9321 78.2749C45.0129 78.3518 44.6799 80.0252 44.6039 80.2454C44.2806 81.185 42.9378 81.8478 41.8267 81.8478C40.9954 81.8478 40.2932 81.4762 40.245 80.5708C40.1497 78.7684 42.0269 78.1506 43.6834 78.1506H43.6822Z" fill="white"/>
<path d="M35.7268 83.5929L35.5567 83.271L34.9788 82.1787C35.1091 82.7598 35.3709 83.2947 35.7461 83.7539L35.7268 83.5929Z" fill="white"/>
<path d="M49.7579 75.9312H50.6025C50.7605 74.8874 50.7943 73.8732 50.5265 72.9785C50.5023 73.1844 50.4782 73.3596 50.4613 73.4483L49.7579 75.9312Z" fill="white"/>
<path d="M35.8981 73.6956C36.0296 73.9607 36.2057 74.2743 36.4434 74.6601C36.5411 74.8175 36.634 74.9666 36.7233 75.1062C35.4987 75.7749 34.5432 76.6696 33.8796 77.7797C33.642 78.1773 33.4465 78.5832 33.2909 78.9927L33.9701 80.2768C34.1028 79.6058 34.3634 78.9324 34.7519 78.2815C35.582 76.8909 36.8813 76.0092 38.3363 75.4636C38.0769 75.3062 37.8139 74.9678 37.3084 74.1476C36.5556 72.9287 36.558 72.6411 36.5592 72.4316C36.5676 71.3949 37.6957 70.6931 38.5438 70.2564C39.3992 69.815 40.3318 69.4801 40.7492 69.3629C41.864 69.0493 43.1779 68.8765 44.4483 68.8765V67.8848C43.0862 67.8848 41.6734 68.0718 40.4706 68.4102C39.9228 68.5641 38.9395 68.9333 38.0745 69.3795C37.838 69.5014 37.4653 69.6943 37.078 69.9653C36.9899 70.8351 36.7534 71.8008 36.3058 72.8671C36.1852 73.1535 36.0489 73.4305 35.8981 73.6979V73.6956Z" fill="#1E1E1E"/>
<path d="M44.2348 74.6565C44.3482 74.6601 44.4567 74.6683 44.5593 74.679C44.5074 74.4908 44.3277 74.1914 43.3758 74.1914C42.5759 74.1914 41.6397 74.434 41.0654 74.6754C41.0135 74.6979 40.8892 74.7725 40.7722 74.8447C41.7277 74.6979 42.6796 74.6458 43.5519 74.6458C43.7763 74.6458 44.0067 74.6494 44.236 74.6565H44.2348Z" fill="#1E1E1E"/>
<path d="M51.8439 81.158C51.7848 81.0941 51.7208 81.0314 51.6508 80.971C51.7172 80.3189 51.903 79.5189 52.0996 78.6775C52.3011 77.8136 52.5183 76.8786 52.6426 75.9307H51.6219C51.5012 76.7946 51.301 77.6538 51.114 78.4562C50.8835 79.4444 50.6664 80.3769 50.6229 81.1509V81.1758C50.6169 81.255 50.6109 81.3769 50.6109 81.4775C50.8872 81.6042 51.3348 81.887 51.4252 82.5356C51.4482 82.6977 51.4711 82.8646 51.1538 83.9581C50.828 85.0871 50.7195 85.2007 50.5819 85.3439C50.1126 85.8339 48.3391 86.1948 48.3234 86.196C47.9892 86.2374 47.6357 86.2587 47.3003 86.2587C45.3338 86.2587 44.3843 85.583 43.9259 84.9226C42.454 85.9392 41.1776 86.3605 39.6248 86.3605C39.439 86.3605 39.246 86.3534 39.0506 86.3404C37.8501 86.2599 36.7824 85.8883 35.9294 85.2812L36.0815 86.5439C36.9332 86.9866 37.9141 87.2576 38.983 87.3297C39.2002 87.3439 39.4161 87.3522 39.626 87.3522C41.3525 87.3522 42.6832 86.8469 43.7714 86.2078C44.476 86.7818 45.5787 87.2505 47.3003 87.2505C47.6828 87.2505 48.0689 87.2268 48.4489 87.1806C48.7879 87.1392 49.3115 86.9865 49.6891 86.867C50.4733 86.6185 50.9402 86.4197 51.3191 86.0232C51.6521 85.6753 51.8101 85.3226 52.1262 84.2291C52.172 84.0729 52.2106 83.9332 52.2444 83.8054C52.0249 83.222 51.8801 82.5391 51.8475 81.7391C51.8403 81.5474 51.8391 81.3533 51.8439 81.158Z" fill="#1E1E1E"/>
<path d="M41.8266 80.8572C42.6289 80.8572 43.4903 80.3531 43.6423 79.9377C43.6785 79.8146 43.7485 79.4797 43.8112 79.1447C43.769 79.1447 43.7256 79.1436 43.6833 79.1436C42.7182 79.1436 41.8833 79.3873 41.5045 79.7791C41.3874 79.8998 41.233 80.1093 41.2559 80.5211C41.2632 80.6631 41.274 80.8572 41.8278 80.8572H41.8266Z" fill="#1E1E1E"/>
<path d="M50.7267 71.1872C50.7954 70.6263 50.8606 70.2701 50.9728 69.9813C50.7267 69.7493 50.4564 69.5351 50.1596 69.3387C48.3451 68.1351 46.0516 67.8818 44.447 67.8818V68.8736C45.9105 68.8736 47.9904 69.0972 49.5926 70.16C50.0571 70.4689 50.4299 70.8133 50.7254 71.1872H50.7267Z" fill="#1E1E1E"/>
<path d="M33.7976 84.4876L33.7614 84.1847L33.0701 82.877C33.1847 83.2876 33.3439 83.6888 33.5514 84.0746C33.6275 84.2166 33.7119 84.3527 33.7976 84.4876Z" fill="#1E1E1E"/>
<path d="M34.7737 84.1357L34.9752 85.8103C35.313 86.0908 35.6821 86.3382 36.0815 86.5464L35.9295 85.2837C35.4807 84.9642 35.091 84.5795 34.7737 84.1357Z" fill="#1E1E1E"/>
<path d="M35.7002 71.5925C35.6833 71.647 35.664 71.7014 35.6459 71.7558C35.5855 71.9641 35.5494 72.1854 35.5469 72.4221C35.5445 72.7677 35.6097 73.1156 35.8968 73.6955C36.0476 73.4269 36.184 73.15 36.3046 72.8647C36.7522 71.7984 36.9887 70.8327 37.0767 69.9629C36.535 70.3428 35.9656 70.8789 35.7002 71.5937V71.5925Z" fill="#1E1E1E"/>
<path d="M34.0221 82.5262C33.8363 81.8031 33.8182 81.041 33.9702 80.2753L33.291 78.9912C33.1088 79.4705 32.9858 79.9545 32.917 80.4386L34.0221 82.5262Z" fill="#1E1E1E"/>
<path d="M35.7005 71.5928C35.6811 71.6463 35.6629 71.7011 35.6459 71.757C35.6641 71.7023 35.6835 71.6475 35.7005 71.5928Z" fill="#1E1E1E"/>
<path d="M34.022 82.5261L32.9169 80.4385C32.7999 81.2681 32.8493 82.0918 33.0689 82.8788L33.7602 84.1865L33.7964 84.4895C34.1209 84.9901 34.5179 85.4327 34.9727 85.8114L34.7712 84.1368C34.6518 83.9699 34.5408 83.796 34.4431 83.6137C34.2561 83.2658 34.1173 82.9013 34.0208 82.5273L34.022 82.5261Z" fill="#1E1E1E"/>
<path d="M52.4181 73.9473H52.7284C52.7043 73.5639 52.6536 73.197 52.5763 72.8467C52.5207 73.3425 52.4676 73.7733 52.4181 73.9473Z" fill="#1E1E1E"/>
<path d="M52.4266 82.4032C52.3819 82.0801 52.2456 81.5925 51.8438 81.1582C51.839 81.3523 51.8402 81.5464 51.8475 81.7393C51.8788 82.5393 52.0248 83.2222 52.2444 83.8056C52.4507 83.0364 52.4724 82.7405 52.4254 82.4032H52.4266Z" fill="#1E1E1E"/>
<path d="M51.6207 75.9312H52.6414C52.6848 75.601 52.7174 75.2696 52.7331 74.9395H51.7185C51.7004 75.2685 51.6666 75.5998 51.6207 75.9312Z" fill="#1E1E1E"/>
<path d="M51.5543 72.8892C51.5784 72.675 51.6026 72.4525 51.6231 72.2667C51.6882 71.6584 51.7365 71.2418 51.7811 70.9412C51.5519 70.5945 51.2829 70.2738 50.9728 69.9814C50.8618 70.2702 50.7967 70.6264 50.7267 71.1874C51.1381 71.7069 51.4011 72.2821 51.5543 72.8904V72.8892Z" fill="#1E1E1E"/>
<path d="M52.7391 74.1216C52.7367 74.0624 52.7318 74.0056 52.7282 73.9476H52.4181C52.4676 73.7748 52.5207 73.3429 52.5762 72.847C52.4194 72.1416 52.1539 71.5049 51.7811 70.9404C51.7365 71.241 51.6894 71.6576 51.6231 72.2659C51.6026 72.4529 51.5785 72.6754 51.5543 72.8884C51.7196 73.5429 51.757 74.2352 51.7196 74.9382H52.7342C52.7475 74.6648 52.7511 74.3914 52.7403 74.1204L52.7391 74.1216Z" fill="#1E1E1E"/>
<path d="M40.7492 69.3604C40.3318 69.4776 39.4004 69.8125 38.5438 70.2539C37.6956 70.6906 36.5664 71.3924 36.5592 72.4291C36.558 72.6386 36.5555 72.925 37.3084 74.1452C37.8151 74.9653 38.0781 75.3038 38.3363 75.4612C36.8813 76.0079 35.5819 76.8896 34.7519 78.279C34.3634 78.9299 34.1028 79.6033 33.9701 80.2743L34.9775 82.1785C34.7434 81.1359 34.928 79.9465 35.6242 78.7808C37.1479 76.2304 40.6937 75.6363 43.5506 75.6363C43.7726 75.6363 43.9898 75.6399 44.2021 75.647C44.6207 75.66 44.9803 75.7618 45.2372 75.7618C45.604 75.7618 45.7572 75.5523 45.5678 74.5688C45.3687 73.5321 44.4265 73.1984 43.3745 73.1984C42.3984 73.1984 41.3271 73.4848 40.6672 73.7629C40.2521 73.9369 39.4161 74.6209 38.9504 74.6209C38.9226 74.6209 38.8973 74.6185 38.8719 74.6138C38.7453 74.5878 37.5666 72.7463 37.569 72.4374C37.5762 71.5735 40.2606 70.5297 41.0267 70.3143C42.0148 70.0362 43.2224 69.8658 44.4458 69.8658C46.1216 69.8658 47.8239 70.1841 49.0255 70.9818C49.8314 71.5167 50.2923 72.2031 50.524 72.9794C50.5553 72.7179 50.5891 72.4067 50.6156 72.1629C50.6567 71.7782 50.6917 71.4599 50.7254 71.1877C50.4299 70.8137 50.0571 70.4693 49.5926 70.1605C47.9904 69.0977 45.9092 68.874 44.447 68.874C43.1766 68.874 41.8628 69.0468 40.748 69.3604H40.7492ZM41.0653 74.6742C41.6396 74.4327 42.5758 74.1901 43.3757 74.1901C44.3288 74.1901 44.5073 74.4895 44.5592 74.6777C44.4579 74.6671 44.3493 74.6588 44.2347 74.6552C44.0054 74.6481 43.7762 74.6446 43.5506 74.6446C42.6783 74.6446 41.7276 74.6966 40.7709 74.8434C40.8879 74.7712 41.0122 74.6955 41.0641 74.6742H41.0653Z" fill="#1E1E1E"/>
<path d="M41.8267 81.8495C42.9379 81.8495 44.2807 81.1867 44.604 80.2471C44.68 80.0258 45.0142 78.3535 44.9321 78.2766C44.5606 78.1973 44.1299 78.1523 43.6823 78.1523C42.027 78.1523 40.1485 78.7701 40.2438 80.5725C40.2921 81.4779 40.9943 81.8495 41.8255 81.8495H41.8267ZM41.5034 79.7784C41.8822 79.3867 42.7183 79.1429 43.6823 79.1429C43.7257 79.1429 43.7679 79.1429 43.8101 79.1441C43.7474 79.479 43.6774 79.8127 43.6412 79.937C43.4892 80.3536 42.6266 80.8565 41.8255 80.8565C41.2717 80.8565 41.2609 80.6625 41.2536 80.5204C41.2319 80.1086 41.3852 79.8991 41.5022 79.7784H41.5034Z" fill="#1E1E1E"/>
<path d="M49.6132 81.0965C49.5963 81.3983 49.5709 81.7722 49.7085 82.048C49.8967 82.4255 50.3672 82.2622 50.4227 82.6693C50.4456 82.8326 49.9486 84.5581 49.8436 84.6658C49.7097 84.8054 48.4501 85.1818 48.1968 85.2125C47.9326 85.2445 47.6237 85.267 47.2992 85.267C46.1808 85.267 44.873 84.9995 44.5605 83.9462C44.4941 83.7238 44.5907 83.3107 44.3301 83.3107C44.2589 83.3107 44.1612 83.3415 44.0248 83.416C43.9826 83.4397 43.8982 83.7072 43.7244 83.8374C42.4118 84.8161 41.2295 85.3688 39.6249 85.3688C39.4608 85.3688 39.2931 85.3628 39.1206 85.351C37.6402 85.2516 36.4772 84.6445 35.7461 83.7522L35.7702 83.951L35.8474 84.5971L35.9295 85.2812C36.7836 85.8895 37.8514 86.2599 39.0506 86.3404C39.2448 86.3534 39.4379 86.3605 39.6249 86.3605C41.1776 86.3605 42.4528 85.9392 43.9259 84.9226C44.3844 85.583 45.3338 86.2587 47.3004 86.2587C47.6358 86.2587 47.9893 86.2374 48.3235 86.196C48.3403 86.1936 50.1138 85.8339 50.582 85.3439C50.7195 85.2007 50.8281 85.0871 51.1538 83.9581C51.4699 82.8634 51.447 82.6965 51.4253 82.5356C51.336 81.887 50.8884 81.6042 50.6109 81.4775C50.6109 81.3769 50.6169 81.2551 50.6218 81.1758V81.1509C50.6664 80.3781 50.8836 79.4444 51.114 78.4562C51.301 77.6538 51.5013 76.7946 51.6219 75.9307H50.6025C50.331 77.7236 49.6976 79.6006 49.6132 81.0965Z" fill="#1E1E1E"/>
<path d="M35.769 83.9536L35.7448 83.7548C35.3696 83.2956 35.1078 82.7607 34.9775 82.1796L33.9701 80.2754C33.8181 81.0411 33.8362 81.8032 34.022 82.5263L34.7435 83.8897L34.7736 84.1358C35.0909 84.5796 35.4806 84.9643 35.9294 85.2838L35.8474 84.5997L35.7702 83.9536H35.769Z" fill="#1E1E1E"/>
<path d="M34.022 82.5264C34.1185 82.9003 34.2572 83.2648 34.4442 83.6128C34.5432 83.7962 34.6529 83.9702 34.7724 84.1359L34.7422 83.8897L34.0208 82.5264H34.022Z" fill="#1E1E1E"/>
<path d="M51.0886 74.9393L51.4445 73.6824C51.4722 73.5759 51.5144 73.2446 51.5543 72.8895C51.401 72.2824 51.1392 71.7072 50.7266 71.1865C50.6928 71.4587 50.6591 71.7771 50.6168 72.1617C50.5903 72.4055 50.5565 72.7156 50.5251 72.9783C50.793 73.873 50.758 74.8872 50.6012 75.931H51.6206C51.6665 75.5996 51.7014 75.2683 51.7183 74.9393H51.0874H51.0886Z" fill="#1E1E1E"/>
<path d="M51.0886 74.9394H51.7196C51.7582 74.2364 51.7196 73.5441 51.5543 72.8896C51.5133 73.2447 51.4723 73.576 51.4445 73.6826L51.0886 74.9394Z" fill="#1E1E1E"/>
<path d="M65.1102 75.5159C64.6964 76.452 64.4249 77.4544 64.3308 78.4875C64.3212 78.5893 64.3163 78.6875 64.3103 78.7869L65.3877 78.5704L64.6107 81.3811C65.4854 84.0403 68.0624 85.2688 70.8529 85.2688C73.4661 85.2688 76.2663 84.1918 78.0229 82.206C78.1653 81.9267 77.1241 80.2166 77.1398 79.7254C77.1109 79.7018 77.0723 79.6911 77.0264 79.6911C76.6307 79.6911 75.6812 80.4947 75.3675 80.6604C74.482 81.1302 73.3648 81.4521 72.355 81.4521C70.8662 81.4521 69.6103 80.7539 69.6706 78.8082L78.7673 77.6425L79.385 73.943C79.1136 72.2247 78.1822 70.7299 76.2096 70.0838C75.3374 69.7986 74.4663 69.666 73.6157 69.666C70.5598 69.666 67.7584 71.3773 66.0416 73.8649C65.8715 74.6306 65.6326 75.1407 65.1126 75.517L65.1102 75.5159ZM70.6732 74.3502C71.0701 73.6874 71.7711 73.0637 72.5673 72.9312C72.7652 72.898 72.9534 72.8815 73.1307 72.8815C74.1031 72.8815 74.7426 73.3915 74.7136 74.5407C74.6931 75.3596 74.3034 75.5668 73.5675 75.749C73.2357 75.8307 70.9205 76.1324 70.3245 76.1324C70.2533 76.1324 70.2063 76.1277 70.1906 76.1182C69.901 75.9372 70.5115 74.62 70.672 74.3513L70.6732 74.3502Z" fill="white"/>
<path d="M66.0391 73.8633C65.6796 74.3828 65.3671 74.9367 65.1101 75.5154C65.6301 75.1391 65.869 74.629 66.0391 73.8633Z" fill="white"/>
<path d="M64.3102 78.7869C64.2523 79.768 64.3633 80.6307 64.6106 81.381L65.3876 78.5703L64.3102 78.7869Z" fill="white"/>
<path d="M79.1281 77.5945C79.4441 76.4075 79.5696 75.1223 79.3838 73.9424L78.7661 77.6419L79.1281 77.5957V77.5945Z" fill="white"/>
<path d="M73.688 74.6713C73.694 74.6406 73.7001 74.5908 73.7025 74.5139C73.7085 74.2607 73.6651 74.063 73.5855 73.9825C73.5155 73.9127 73.3454 73.8701 73.1294 73.8701C73.0112 73.8701 72.8785 73.882 72.7361 73.9056C72.3187 73.9754 71.8397 74.3553 71.5441 74.8488C71.5188 74.8926 71.4838 74.9589 71.4464 75.0382C72.2306 74.9494 73.1306 74.8252 73.3237 74.7814C73.536 74.7293 73.6386 74.6914 73.688 74.669V74.6713Z" fill="#1E1E1E"/>
<path d="M66.3575 71.8732C68.2577 69.9099 70.8552 68.6744 73.6132 68.6744V67.6826C71.0362 67.6826 68.5243 68.6507 66.4673 70.4176L66.4697 70.4649C66.483 70.7892 66.4215 71.375 66.3588 71.8744L66.3575 71.8732Z" fill="#1E1E1E"/>
<path d="M63.8639 75.9141L62.8022 75.9247C62.5573 76.6999 62.392 77.4987 62.3184 78.3094C62.2907 78.6159 62.2762 78.9106 62.2738 79.1958L63.2921 78.9911C63.2981 78.7958 63.3077 78.5981 63.3258 78.3981C63.4043 77.5401 63.5901 76.707 63.8651 75.9141H63.8639Z" fill="#1E1E1E"/>
<path d="M79.7385 71.8212L79.9846 70.3478C79.2016 69.3619 78.1363 68.6246 76.8478 68.2033C75.7934 67.8578 74.7051 67.6826 73.6145 67.6826V68.6744C74.5966 68.6744 75.5774 68.8318 76.5281 69.1442C77.9879 69.6223 79.0762 70.5596 79.7385 71.8224V71.8212Z" fill="#1E1E1E"/>
<path d="M71.029 80.0497C71.3632 80.3882 71.9339 80.4592 72.3537 80.4592C73.1464 80.4592 74.0934 80.2083 74.8861 79.787C74.9343 79.7597 75.096 79.645 75.213 79.5609C75.54 79.3278 75.8259 79.1313 76.0901 78.9834L70.7889 79.6627C70.8469 79.8177 70.9265 79.9467 71.0278 80.0497H71.029Z" fill="#1E1E1E"/>
<path d="M77.7875 78.9625L78.1664 79.2726L78.1531 79.6939C78.1796 79.7957 78.2581 79.9838 78.3425 80.1767L78.5959 78.6631L77.5245 78.8004C77.6186 78.8418 77.7067 78.8962 77.7888 78.9625H77.7875Z" fill="#1E1E1E"/>
<path d="M70.8528 86.2599C68.4435 86.2599 66.366 85.4539 65.0015 83.99C64.7867 83.7604 64.5937 83.5142 64.4187 83.2562C64.3825 83.687 64.321 84.1474 64.1943 84.5935C64.2148 84.616 64.2341 84.6373 64.2547 84.6598C65.8134 86.332 68.1564 87.2528 70.854 87.2528C72.4381 87.2528 74.062 86.9261 75.5483 86.3084C76.7982 85.7888 77.9263 85.0717 78.8613 84.2089C78.6839 83.9083 78.538 83.5829 78.4282 83.2373C76.5521 85.1131 73.7012 86.261 70.854 86.261L70.8528 86.2599Z" fill="#1E1E1E"/>
<path d="M63.8967 73.9306C63.9595 73.8903 64.0441 73.553 64.1274 73.1045C63.9535 73.3755 63.7905 73.6513 63.6395 73.9329L63.8967 73.9306Z" fill="#1E1E1E"/>
<path d="M62.5774 81.1604C62.5421 81.1675 62.5057 81.1758 62.4668 81.1842C62.4838 81.2652 62.5032 81.3461 62.5227 81.4247C62.5373 81.3295 62.5555 81.2402 62.5774 81.1592V81.1604Z" fill="#1E1E1E"/>
<path d="M65.3888 71.4636C65.3297 71.9725 65.2561 72.4707 65.2501 72.5062C65.1934 72.8825 65.1427 73.1903 65.092 73.4447C65.4672 72.8814 65.8907 72.3547 66.3576 71.8719C66.4204 71.3725 66.4819 70.7866 66.4686 70.4624L66.4662 70.415C66.2888 70.5677 66.1139 70.7227 65.9438 70.8872C65.7508 71.073 65.5674 71.266 65.3876 71.4624L65.3888 71.4636Z" fill="#1E1E1E"/>
<path d="M62.3148 80.2017C62.3341 80.197 62.3558 80.1922 62.3739 80.1887L63.3125 80.0017C63.2848 79.675 63.2776 79.3378 63.2884 78.9922L62.2702 79.1969C62.2665 79.5484 62.2822 79.8833 62.3136 80.2017H62.3148Z" fill="#1E1E1E"/>
<path d="M63.561 81.3887L63.5525 81.4206C63.4934 81.636 63.4729 82.0621 63.4524 82.4739C63.4367 82.8029 63.4186 83.1532 63.3788 83.5012C63.6394 83.9308 63.9205 84.2917 64.1944 84.5935C64.321 84.1473 64.3826 83.687 64.4188 83.2562C64.0387 82.6952 63.7516 82.0692 63.5622 81.3887H63.561Z" fill="#1E1E1E"/>
<path d="M63.8639 75.9141C63.9894 75.5531 64.1342 75.2016 64.2958 74.8584L64.2005 74.9188L63.1666 74.9294C63.029 75.256 62.9084 75.5886 62.801 75.9247L63.8627 75.9141H63.8639Z" fill="#1E1E1E"/>
<path d="M63.8965 73.9304L63.6396 73.9328C63.4658 74.2582 63.309 74.5908 63.1666 74.9293L64.2006 74.9186L64.2959 74.8582C64.5275 74.3659 64.7941 73.8937 65.0933 73.444C65.1428 73.1896 65.1947 72.8819 65.2514 72.5055C65.2562 72.47 65.331 71.9718 65.3901 71.4629C64.9196 71.9777 64.4974 72.528 64.127 73.1043C64.0437 73.5529 63.9593 73.8902 63.8965 73.9304Z" fill="#1E1E1E"/>
<path d="M62.375 80.1882C62.3557 80.1917 62.3352 80.1976 62.3159 80.2012C62.3497 80.5468 62.4004 80.8746 62.4679 81.1835C62.5065 81.1752 62.5427 81.1669 62.5777 81.1598C62.556 81.2391 62.5379 81.3278 62.5234 81.4237C62.7261 82.2427 63.0338 82.9302 63.38 83.5007C63.4198 83.1527 63.4379 82.8012 63.4536 82.4734C63.4729 82.0616 63.4934 81.6355 63.5538 81.4201L63.5622 81.3882C63.4391 80.948 63.3559 80.484 63.3149 80L62.3762 80.187L62.375 80.1882Z" fill="#1E1E1E"/>
<path d="M81.0837 78.0951C81.3684 77.0276 81.6157 75.5412 81.4275 73.9707L80.5178 79.4158L80.7398 79.3874L81.0837 78.0951Z" fill="#1E1E1E"/>
<path d="M79.5503 83.5048L79.5937 83.4551C79.2752 82.7994 79.1353 82.0112 79.2089 81.1367L79.2125 81.0976L79.3886 80.0467C79.3199 79.8952 79.2402 79.7201 79.186 79.5875L79.3898 79.5615L79.4719 79.5508L79.642 78.5283L78.5948 78.6621L78.3414 80.1757C78.4066 80.3236 78.4753 80.4739 78.5296 80.5923C78.9567 81.5213 79.2137 82.0811 78.9278 82.6456L78.8711 82.758L78.7866 82.8527C78.6708 82.9829 78.5514 83.1107 78.4271 83.2338C78.5369 83.5793 78.6817 83.9048 78.8602 84.2054C79.1039 83.9805 79.3344 83.7462 79.5503 83.5024V83.5048Z" fill="#1E1E1E"/>
<path d="M80.4057 73.9541L80.7893 71.657C80.5698 71.1824 80.2995 70.7433 79.9834 70.3457L79.7373 71.8191C80.0703 72.4534 80.2947 73.1706 80.4057 73.9529V73.9541Z" fill="#1E1E1E"/>
<path d="M79.8326 83.0884C80.3333 82.1025 79.9243 81.2138 79.4514 80.1853C79.432 80.1439 79.4103 80.0966 79.3874 80.0469L79.2113 81.0978L79.2077 81.1368C79.1341 82.0114 79.2728 82.7996 79.5925 83.4552L79.7168 83.3144L79.8314 83.0884H79.8326Z" fill="#1E1E1E"/>
<path d="M80.1065 77.8461L79.934 78.4923L79.642 78.5301L79.4719 79.5527L80.5191 79.4189L81.4288 73.9738C81.3745 73.5194 81.2852 73.059 81.1489 72.5998C81.0512 72.272 80.9305 71.9596 80.7918 71.6602L80.4081 73.9572C80.5734 75.1277 80.4817 76.4437 80.1077 77.8473L80.1065 77.8461Z" fill="#1E1E1E"/>
<path d="M66.3576 71.8729C66.3153 72.2067 66.2731 72.5013 66.2502 72.6516C66.1802 73.1167 66.1163 73.5156 66.0391 73.8647C67.7559 71.3782 70.5585 69.6658 73.6132 69.6658C74.465 69.6658 75.3348 69.7983 76.2071 70.0835C78.1797 70.7297 79.1123 72.2244 79.3825 73.9428L79.7372 71.8209C79.0749 70.5593 77.9866 69.6208 76.5268 69.1427C75.5761 68.8314 74.5953 68.6729 73.6132 68.6729C70.8553 68.6729 68.2577 69.9084 66.3576 71.8717V71.8729Z" fill="#1E1E1E"/>
<path d="M69.6693 78.8065C69.609 80.7533 70.8649 81.4504 72.3537 81.4504C73.3635 81.4504 74.4807 81.1297 75.3662 80.6587C75.6799 80.4918 76.6294 79.6894 77.0251 79.6894C77.071 79.6894 77.1096 79.7001 77.1385 79.7237C77.1228 80.2149 78.164 81.925 78.0217 82.2043C76.265 84.1901 73.4648 85.267 70.8517 85.267C68.0611 85.267 65.4841 84.0386 64.6094 81.3794L64.5286 81.6741C64.496 81.8113 64.4755 82.2374 64.461 82.5191C64.4502 82.7475 64.4381 82.996 64.4164 83.2552C64.5913 83.5132 64.7844 83.7593 64.9991 83.9889C66.3636 85.4528 68.4423 86.2588 70.8504 86.2588C73.6977 86.2588 76.5498 85.1108 78.4246 83.235C78.2147 82.5747 78.1326 81.8397 78.199 81.0539L78.2062 80.9758L78.2195 80.8977L78.3402 80.1758C78.2545 79.9829 78.1773 79.7947 78.1507 79.693L78.164 79.2716L77.7852 78.9616C77.7044 78.8953 77.6163 78.8409 77.521 78.7994L78.5923 78.6622L78.7636 77.6396L69.6669 78.8054L69.6693 78.8065ZM75.213 79.5604C75.096 79.6444 74.9343 79.758 74.8861 79.7864C74.0934 80.2078 73.1463 80.4586 72.3537 80.4586C71.9338 80.4586 71.3632 80.3876 71.029 80.0492C70.9277 79.9462 70.848 79.8172 70.7901 79.6622L76.0913 78.9829C75.8259 79.1296 75.5412 79.3273 75.2142 79.5604H75.213Z" fill="#1E1E1E"/>
<path d="M65.1102 75.5158C65.074 75.5419 65.0378 75.5691 64.998 75.5939L64.5046 75.9087L63.9158 75.9147H63.8627C63.5877 76.7088 63.4019 77.5407 63.3235 78.3987C63.3054 78.5999 63.2957 78.7964 63.2897 78.9917L64.3103 78.7857C64.3164 78.6863 64.3212 78.5881 64.3308 78.4863C64.4249 77.4532 64.6964 76.4508 65.1102 75.5146V75.5158Z" fill="#1E1E1E"/>
<path d="M70.3256 76.1299C70.9204 76.1299 73.2368 75.8293 73.5686 75.7464C74.3046 75.5642 74.6942 75.3571 74.7148 74.5381C74.7437 73.389 74.1043 72.8789 73.1319 72.8789C72.9545 72.8789 72.7663 72.8955 72.5685 72.9286C71.7722 73.0623 71.0712 73.6848 70.6743 74.3476C70.5139 74.6162 69.9034 75.9334 70.1929 76.1145C70.2086 76.124 70.2557 76.1287 70.3269 76.1287L70.3256 76.1299ZM71.5454 74.8517C71.841 74.357 72.3199 73.9783 72.7374 73.9085C72.8797 73.8848 73.0112 73.873 73.1307 73.873C73.3466 73.873 73.5167 73.9144 73.5867 73.9854C73.6663 74.0647 73.7098 74.2636 73.7037 74.5168C73.7013 74.5926 73.6953 74.6434 73.6893 74.6742C73.641 74.6967 73.5373 74.7346 73.3249 74.7866C73.1319 74.8304 72.2319 74.9547 71.4477 75.0435C71.4851 74.9642 71.52 74.8967 71.5454 74.8541V74.8517Z" fill="#1E1E1E"/>
<path d="M64.5299 81.674L64.6107 81.3793C64.3646 80.6302 64.2536 79.7674 64.3103 78.7852L63.2896 78.9911C63.2788 79.3355 63.286 79.6728 63.3137 80.0006L63.9809 79.8668L63.5599 81.3876C63.7493 82.0681 64.0364 82.6929 64.4164 83.2551C64.4382 82.9959 64.4502 82.7474 64.4611 82.519C64.4744 82.2373 64.4949 81.8101 64.5286 81.674H64.5299Z" fill="#1E1E1E"/>
<path d="M64.4466 74.7631L64.2946 74.8601C64.1329 75.2033 63.9881 75.5548 63.8627 75.9157H63.9158L64.5045 75.9098L64.9979 75.595C65.0378 75.5702 65.074 75.543 65.1102 75.5169C65.3671 74.937 65.6796 74.3844 66.0391 73.8648C66.1163 73.5169 66.1803 73.1169 66.2503 72.6518C66.2732 72.5015 66.3154 72.2068 66.3576 71.873C65.8907 72.3559 65.4673 72.8825 65.0921 73.4459C64.9183 74.3311 64.7603 74.5631 64.4466 74.7631Z" fill="#1E1E1E"/>
<path d="M63.3137 80.0007C63.3547 80.4847 63.438 80.9475 63.5611 81.3889L63.9821 79.8682L63.3149 80.0019L63.3137 80.0007Z" fill="#1E1E1E"/>
<path d="M64.4466 74.7625C64.7602 74.5625 64.9183 74.3305 65.092 73.4453C64.7928 73.895 64.5262 74.3672 64.2946 74.8595L64.4466 74.7625Z" fill="#1E1E1E"/>
<path d="M79.7386 71.8203L79.3839 73.9423C79.5697 75.1222 79.4442 76.4074 79.1281 77.5944L78.7662 77.6406L78.5948 78.6631L79.6421 78.5293L80.4057 73.9553C80.296 73.173 80.0703 72.4558 79.7374 71.8215L79.7386 71.8203Z" fill="#1E1E1E"/>
<path d="M78.2087 80.9756L78.2014 81.0537C78.1351 81.8395 78.2171 82.5745 78.4271 83.2348C78.5513 83.1106 78.6708 82.9839 78.7866 82.8537L78.871 82.7591L78.9277 82.6466C79.2137 82.0821 78.9567 81.5212 78.5296 80.5933C78.4753 80.475 78.4065 80.3247 78.3414 80.1768L78.2207 80.8987L78.2075 80.9768L78.2087 80.9756Z" fill="#1E1E1E"/>
<path d="M80.1065 77.8461C80.4805 76.4413 80.5709 75.1265 80.4069 73.9561L79.6432 78.5301L79.9351 78.4923L80.1077 77.8461H80.1065Z" fill="#1E1E1E"/>
<path d="M29.8008 42.8431C29.4509 43.1082 29.066 43.4348 28.6739 43.8313C28.2143 44.2976 27.8499 44.7532 27.5664 45.158C28.1033 44.9958 28.6401 44.8325 29.1782 44.6704C28.8356 45.0621 28.4519 45.5592 28.0912 46.1686C27.7655 46.7178 27.5302 47.2337 27.3589 47.6811C27.8825 47.4231 28.4495 47.1651 29.0624 46.9189C29.5414 46.726 30.0047 46.5556 30.4486 46.4065C30.211 46.8941 29.9528 47.5355 29.7766 48.3131C29.5764 49.1959 29.545 49.9699 29.5655 50.5557C30.1506 50.5522 30.7599 50.5356 31.3909 50.5048C32.0279 50.4729 32.642 50.4279 33.2295 50.3735C32.7132 51.0587 32.1847 51.8658 31.7046 52.8007C31.5381 53.1238 31.3897 53.4398 31.2546 53.7487C31.9845 53.17 32.9484 52.5309 34.1573 52.0031C34.6556 51.7853 35.1333 51.6137 35.5797 51.4776C35.8029 51.3853 36.0623 51.2942 36.3555 51.2173C36.5907 51.1557 36.8103 51.1143 37.0094 51.0859C36.5931 51.4646 35.967 52.1451 35.5894 53.1629C35.441 53.5641 35.3601 53.938 35.3179 54.2588C35.7896 53.7286 36.5389 53.0126 37.6162 52.4019C38.55 51.8717 39.0061 51.8528 39.8277 51.5049C40.4792 51.2291 42.7413 50.2693 43.6666 48.1592C44.3495 46.6006 44.1613 44.7402 43.3698 43.3354C41.7966 40.546 38.2508 40.2786 37.2362 40.2016C33.2826 39.9034 30.451 42.2727 29.802 42.8467L29.8008 42.8431Z" fill="#1E1E1E"/>
<path d="M32.6371 40.298C32.286 40.5619 31.8988 40.8861 31.5055 41.2802C31.0434 41.7441 30.6766 42.1974 30.3907 42.601C30.9288 42.4412 31.4669 42.2814 32.0049 42.1205C31.6599 42.5098 31.275 43.0057 30.9095 43.614C30.5813 44.1608 30.3436 44.6768 30.1687 45.1229C30.6935 44.8673 31.2618 44.6128 31.8758 44.3691C32.356 44.1785 32.8193 44.0105 33.2645 43.8637C33.0244 44.3501 32.7626 44.9904 32.5816 45.7667C32.3765 46.6484 32.3415 47.4224 32.3596 48.0082C32.9448 48.0082 33.554 47.994 34.185 47.9656C34.822 47.9372 35.4361 47.8946 36.0249 47.8425C35.5049 48.5254 34.9728 49.3289 34.4866 50.2627C34.3189 50.5846 34.1681 50.9006 34.0318 51.2083C34.7653 50.6331 35.7317 50 36.9442 49.4769C37.4437 49.2615 37.9226 49.0922 38.3702 48.9585C38.5934 48.8674 38.8528 48.7774 39.1472 48.7017C39.3825 48.6413 39.602 48.6011 39.8023 48.5727C39.3849 48.949 38.7539 49.626 38.3714 50.6426C38.2206 51.0438 38.1386 51.4166 38.0952 51.7373C38.5705 51.2095 39.3221 50.497 40.4031 49.8911C41.3405 49.3656 41.7966 49.3491 42.6182 49.0047C43.2709 48.7313 45.5378 47.7833 46.474 45.678C47.1653 44.1229 46.9868 42.2613 46.2014 40.853C44.6426 38.0553 41.098 37.7701 40.0834 37.6884C36.131 37.3713 33.2874 39.7263 32.6359 40.2968L32.6371 40.298Z" fill="#FCB300"/>
<path d="M55.4561 39.2774C56.5165 40.0975 57.1837 40.9591 57.5348 41.4703C57.9209 42.0313 58.1863 42.5449 58.366 42.9378C58.1863 42.8396 57.9402 42.797 57.6675 42.7153C57.4889 42.6609 57.2609 42.655 57.1137 42.6325C56.823 42.9603 56.7482 43.0538 56.309 43.1698C55.7951 43.3059 55.3716 43.2515 55.1641 43.1923C54.2146 42.9213 53.6536 42.1958 53.3689 41.8183C52.6076 40.8076 52.4194 39.7591 52.2903 39.0443C52.1829 38.4442 52.1588 37.9401 52.1576 37.5957C52.9828 37.8407 54.2146 38.3176 55.4561 39.2774Z" fill="white"/>
<path d="M68.3895 46.926C68.3086 46.7272 68.4196 46.4514 68.5922 46.3082C68.8105 46.1272 69.1278 46.1686 69.7612 46.2502C70.0785 46.2917 70.0665 46.3142 70.3319 46.339C70.6769 46.371 70.9387 46.3556 71.2584 46.3343C71.6916 46.3059 71.9099 46.2976 72.1355 46.2372C72.7001 46.0858 72.8365 45.8621 73.278 45.881C73.3432 45.8834 73.6822 45.9035 73.9718 46.1366C74.0647 46.2112 74.1974 46.3189 74.2179 46.4869C74.2384 46.6526 74.1395 46.7793 74.0043 46.9509C73.7208 47.3118 73.4132 47.3876 73.348 47.3852C73.2575 47.3816 73.1803 47.352 73.1791 47.352C73.3372 46.9887 73.2865 46.8266 73.225 46.7473C73.0597 46.5343 72.676 46.7307 71.4068 46.9142C70.6817 47.0195 70.3186 47.029 70.1871 47.2834C70.0845 47.481 70.1376 47.7816 69.9205 47.8941C69.9012 47.9035 69.8686 47.9213 69.8227 47.926C69.5971 47.9509 69.4861 47.6349 69.1978 47.3876C68.8081 47.0526 68.4908 47.1828 68.3859 46.9272L68.3895 46.926Z" fill="white"/>
<path d="M49.6169 59.9827C47.245 59.4584 45.7284 59.7851 45.2265 59.9093C44.8369 60.0064 44.4773 60.1271 44.1492 60.2596C44.3941 60.4206 44.7524 60.6608 45.1771 60.965C46.0325 61.5756 46.6381 62.0727 46.8939 62.2822C47.2256 62.5532 47.4307 62.7165 47.5984 62.8479C47.5984 62.8479 47.8699 63.0621 48.18 63.2952C48.4985 63.5354 48.7506 63.7272 49.0486 63.9307C49.787 64.4361 50.8414 65.0195 50.8836 65.0432C51.581 65.4207 52.7657 66.6633 54.8843 70.6078C56.2922 67.2551 56.1438 63.7934 54.2557 61.9259C53.0589 60.7425 51.324 60.359 49.6169 59.9827Z" fill="white" stroke="#1E1E1E" stroke-width="3.10537" stroke-linecap="round" stroke-linejoin="round"/>
<path d="M47.4283 61.6599C46.4426 61.3984 44.4194 60.9984 42.0016 61.5025C41.5009 61.6067 41.0956 61.7262 40.8253 61.8138C41.0775 62.0008 41.4466 62.2801 41.8834 62.6304C42.8244 63.3854 43.4771 63.9937 43.6412 64.144C43.6412 64.144 44.207 64.6576 44.7922 65.1582C45.0902 65.4127 45.3315 65.6186 45.6162 65.8458C46.5452 66.589 47.713 67.3891 47.7721 67.4281C48.5575 67.9583 49.7869 69.4329 51.7571 73.5146C51.9863 73.1075 54.1893 69.0577 52.1564 65.2719C51.3638 63.7961 50.2176 62.899 49.4491 62.4102C48.7481 62.0102 48.1727 61.8588 47.4283 61.6611V61.6599Z" fill="white" stroke="#1E1E1E" stroke-width="3.10537" stroke-linecap="round" stroke-linejoin="round"/>
<path d="M42.4734 64.1435C40.9134 63.7849 39.1544 63.3281 37.5619 64.218C36.961 64.5541 36.5593 64.9802 36.318 65.2831C36.6703 65.4311 37.2289 65.6749 37.8948 66.0145C38.79 66.4713 39.3173 66.8015 42.5409 68.9412C43.4832 69.5673 44.0852 69.9685 44.8851 70.5933C45.4195 71.0111 45.849 71.3507 46.3413 71.8431C46.8914 72.3922 47.52 73.133 48.1003 74.107C48.315 73.6301 48.5805 72.9307 48.7409 72.0561C48.8966 71.2028 49.1463 69.9909 48.6794 68.7116C48.1184 67.1779 46.9264 66.3068 46.1301 65.7246C44.6679 64.6547 43.2576 64.3234 42.4709 64.1435H42.4734Z" fill="white" stroke="#1E1E1E" stroke-width="3.10537" stroke-linecap="round" stroke-linejoin="round"/>
<path d="M42.2586 68.8975C42.0523 68.5425 41.7567 67.9212 41.7181 67.1129C41.6964 66.6501 41.63 65.1246 42.7581 64.4382C43.5242 63.9719 44.5822 64.0536 45.4666 64.5909C45.4557 64.4666 45.3556 63.0181 46.4317 62.2394C47.0507 61.792 47.7299 61.8027 48.0194 61.8121C49.7109 61.863 50.7473 63.3696 50.886 63.579C50.5048 62.8169 50.6664 61.9186 51.2576 61.3849C51.7366 60.9518 52.4375 60.8133 53.0866 61.0109C52.7657 60.4228 51.9778 59.1801 50.442 58.3872C49.0679 57.6783 47.8119 57.7043 46.6332 57.7185C44.2975 57.7446 42.6314 58.5363 42.2562 58.7221C41.6216 59.0357 40.3222 59.6949 39.2436 61.0642C38.936 61.4547 36.2999 64.7933 37.8586 67.1555C39.1073 69.0502 42.0366 68.9117 42.2562 68.8975H42.2586Z" fill="#FCB300" stroke="#1E1E1E" stroke-width="3.10537" stroke-linecap="round" stroke-linejoin="round"/>
<path d="M78.1509 61.4354C76.9131 60.7372 75.4689 60.71 74.6111 60.6934C74.2661 60.6863 73.9801 60.6993 73.7871 60.7112C73.9222 60.878 74.1189 61.1254 74.3469 61.4319C74.8078 62.0485 75.119 62.5313 75.2518 62.7349C75.4231 62.9988 75.5292 63.1586 75.6173 63.2876C75.6173 63.2876 75.7597 63.497 75.9238 63.7302C76.0927 63.9692 76.2266 64.1598 76.3894 64.3681C76.6645 64.7219 76.7948 64.9042 77.421 65.5492C77.8493 65.9906 78.4501 67.1184 79.2608 69.9812C79.4273 69.7682 81.4795 67.0581 80.3768 64.1361C80.2393 63.7716 79.6578 62.2852 78.1521 61.4354H78.1509Z" fill="white" stroke="#1E1E1E" stroke-width="3.10537" stroke-linecap="round" stroke-linejoin="round"/>
<path d="M75.4424 62.2591C73.8197 61.0733 72.0921 60.891 71.5468 60.8401C71.1715 60.8046 70.8554 60.8022 70.6262 60.8082C70.765 61.007 70.9664 61.2969 71.2077 61.6484C72.752 63.8982 73.7075 65.2887 74.3831 66.5124C74.9683 67.5716 75.7018 69.1504 76.2266 71.2948C76.4438 71.0782 78.6552 68.8083 78.0411 65.8959C77.6068 63.8378 76.0191 62.6804 75.4436 62.2603L75.4424 62.2591Z" fill="white" stroke="#1E1E1E" stroke-width="3.10537" stroke-linecap="round" stroke-linejoin="round"/>
<path d="M71.1729 62.7808C70.4273 62.3488 69.1496 61.6091 68.2568 62.1985C68.0735 62.3192 67.9504 62.4672 67.8756 62.5713C67.6777 62.776 67.4811 63.0399 67.5306 63.2707C67.5704 63.4589 67.7718 63.5299 67.8153 63.5796C68.2086 64.0234 68.6634 64.6222 70.0521 66.4933C70.5564 67.1714 70.8773 67.6057 71.2827 68.2543C71.5915 68.7489 71.8135 69.1679 71.9317 69.3999C71.9631 69.4602 71.9812 69.4969 71.992 69.5194C72.1597 69.8543 72.4746 70.3821 73.1153 71.2319C73.3493 71.0011 73.663 70.6413 73.9236 70.1395C74.4774 69.0708 74.417 68.0732 74.382 67.5927C74.2795 66.1868 73.6401 65.2151 73.3348 64.7607C72.5494 63.5903 71.618 63.0388 71.1729 62.7808Z" fill="white" stroke="#1E1E1E" stroke-width="3.10537" stroke-linecap="round" stroke-linejoin="round"/>
<path d="M69.9313 66.3998C69.8637 66.1702 69.7382 65.6282 69.9433 65.0175C70.0013 64.8459 70.3463 63.7713 71.3549 63.5654C72.1657 63.3997 72.8171 63.9134 72.9185 63.9962C72.933 63.9122 73.1513 62.7382 74.1804 62.3287C74.7511 62.1015 75.2868 62.2234 75.4412 62.2601C76.077 62.4127 76.4546 62.8021 76.5849 62.95C76.6151 62.2139 77.1435 61.6316 77.7769 61.55C78.4766 61.4589 78.9725 62.0234 79.0063 62.0624C78.6154 61.3985 78.1895 60.9559 77.8891 60.6861C75.9214 58.9132 73.2358 59.0008 72.2187 59.1606C72.185 59.1665 72.1584 59.17 72.1403 59.1736C70.6334 59.4269 69.5428 60.1926 69.5428 60.1926C69.5319 60.2008 69.4945 60.2269 69.4571 60.2541C68.7405 60.7796 66.9561 62.4755 67.411 64.2069C67.8188 65.7596 69.7672 66.3525 69.9337 66.401L69.9313 66.3998Z" fill="#FCB300" stroke="#1E1E1E" stroke-width="3.10537" stroke-linecap="round" stroke-linejoin="round"/>
</g>
<defs>
<clipPath id="clip0_8872_35528">
<rect width="100" height="100" fill="white"/>
</clipPath>
</defs>
</svg>
