<svg width="22" height="22" viewBox="0 0 22 22" fill="none" xmlns="http://www.w3.org/2000/svg">
<path d="M16.6238 15.1352C15.4381 15.4199 14.2003 15.4061 13.0213 15.0951C11.8422 14.784 10.7587 14.1854 9.86782 13.3528C8.9769 12.5203 8.30636 11.4798 7.91625 10.3245C7.52614 9.16916 7.42865 7.93514 7.63249 6.73291C7.60195 6.76336 7.56919 6.79148 7.53446 6.81705C7.29157 7.00183 6.98796 7.07036 6.38073 7.20742L5.82989 7.33233C3.69591 7.81551 2.62892 8.05667 2.37475 8.87296C2.12145 9.68838 2.84839 10.5394 4.30314 12.2405L4.67962 12.6803C5.09254 13.1635 5.29986 13.4055 5.39268 13.7039C5.4855 14.0032 5.45427 14.3259 5.39181 14.9704L5.33456 15.5577C5.11509 17.8279 5.00492 18.9625 5.6694 19.4665C6.33389 19.9705 7.33321 19.5116 9.33013 18.5912L9.84801 18.3535C10.4153 18.0916 10.699 17.9614 11 17.9614C11.301 17.9614 11.5847 18.0916 12.1529 18.3535L12.669 18.5912C14.6668 19.5107 15.6661 19.9705 16.3297 19.4674C16.9951 18.9625 16.8849 17.8279 16.6655 15.5577L16.6238 15.1352Z" fill="#FCB300"/>
<path d="M8.53031 5.28153L8.24578 5.7916C7.93349 6.35199 7.77735 6.63218 7.53446 6.81695C7.56916 6.79093 7.60183 6.76288 7.63248 6.73281C7.42859 7.93513 7.52608 9.16925 7.91623 10.3246C8.30638 11.48 8.977 12.5206 9.86804 13.3532C10.7591 14.1858 11.8427 14.7844 13.0219 15.0954C14.201 15.4063 15.4389 15.42 16.6247 15.1351L16.6073 14.9703C16.5457 14.3258 16.5145 14.0031 16.6073 13.7038C16.7001 13.4054 16.9066 13.1634 17.3204 12.6802L17.6969 12.2404C19.1516 10.5401 19.8786 9.68915 19.6244 8.87286C19.3711 8.05657 18.3041 7.81454 16.1701 7.33223L15.6184 7.20732C15.012 7.07026 14.7084 7.00173 14.4647 6.81695C14.2218 6.63218 14.0656 6.35199 13.7533 5.7916L13.4697 5.28153C12.3706 3.31064 11.8215 2.3252 11 2.3252C10.1785 2.3252 9.6294 3.31064 8.53031 5.28153Z" fill="#FFD367"/>
</svg>
