<svg width="13" height="14" viewBox="0 0 13 14" fill="none" xmlns="http://www.w3.org/2000/svg">
<path d="M1.625 6.375C1.625 5.82272 2.07272 5.375 2.625 5.375H3.79167V11.875H2.625C2.07271 11.875 1.625 11.4273 1.625 10.875V6.375Z" stroke="#737373" stroke-linecap="round" stroke-linejoin="round"/>
<path d="M3.79167 6.45833V10.7917L4.40897 11.2032C5.06604 11.6412 5.83807 11.875 6.62777 11.875H7.75029C9.2168 11.875 10.4684 10.8148 10.7095 9.3682L10.9869 7.7038C11.19 6.48473 10.25 5.375 9.01408 5.375H7.58333" stroke="#737373" stroke-linecap="round" stroke-linejoin="round"/>
<path d="M7.58333 5.375L7.95555 3.51392C8.05236 3.02989 7.77359 2.54953 7.30531 2.39344V2.39344C6.84323 2.23941 6.3382 2.4486 6.12037 2.88425L4.33333 6.45833H3.79167" stroke="#737373" stroke-linecap="round" stroke-linejoin="round"/>
</svg>
