<svg width="13" height="14" viewBox="0 0 13 14" fill="none" xmlns="http://www.w3.org/2000/svg">
<path d="M6.50001 7.00033C5.90417 7.00033 5.3941 6.78817 4.9698 6.36387C4.54549 5.93956 4.33334 5.42949 4.33334 4.83366C4.33334 4.23783 4.54549 3.72776 4.9698 3.30345C5.3941 2.87915 5.90417 2.66699 6.50001 2.66699C7.09584 2.66699 7.60591 2.87915 8.03021 3.30345C8.45452 3.72776 8.66667 4.23783 8.66667 4.83366C8.66667 5.42949 8.45452 5.93956 8.03021 6.36387C7.60591 6.78817 7.09584 7.00033 6.50001 7.00033ZM2.16667 11.3337V9.81699C2.16667 9.51005 2.24576 9.22802 2.40392 8.97091C2.56209 8.7138 2.77189 8.51735 3.03334 8.38158C3.59306 8.10171 4.16181 7.89191 4.73959 7.75216C5.31737 7.61241 5.90417 7.54235 6.50001 7.54199C7.09584 7.54163 7.68264 7.61169 8.26042 7.75216C8.8382 7.89263 9.40695 8.10244 9.96667 8.38158C10.2285 8.51699 10.4385 8.71344 10.5966 8.97091C10.7548 9.22838 10.8337 9.51041 10.8333 9.81699V11.3337H2.16667Z" fill="#979797"/>
</svg>
