<svg width="15" height="15" viewBox="0 0 15 15" fill="none" xmlns="http://www.w3.org/2000/svg">
<path d="M6.84372 8.39379L5.72122 7.27504C5.66288 7.21671 5.59184 7.18546 5.50809 7.18129C5.42392 7.17712 5.34747 7.20962 5.27872 7.27879C5.21205 7.34546 5.17872 7.41921 5.17872 7.50004C5.17872 7.58087 5.21205 7.65462 5.27872 7.72129L6.48997 8.93254C6.59122 9.03337 6.70913 9.08379 6.84372 9.08379C6.9783 9.08379 7.09622 9.03337 7.19747 8.93254L9.72122 6.40879C9.78205 6.34796 9.81392 6.27629 9.81684 6.19379C9.81976 6.11087 9.78788 6.03504 9.72122 5.96629C9.65247 5.89754 9.57809 5.86254 9.49809 5.86129C9.41809 5.86004 9.34392 5.89379 9.27559 5.96254L6.84372 8.39379ZM5.41872 12.885L4.59622 11.51L3.04559 11.1825C2.92142 11.1596 2.82247 11.093 2.74872 10.9825C2.67497 10.8725 2.64455 10.7555 2.65747 10.6313L2.80559 9.03379L1.75372 7.83379C1.66538 7.74337 1.62122 7.63212 1.62122 7.50004C1.62122 7.36796 1.66538 7.25671 1.75372 7.16629L2.80559 5.96629L2.65747 4.36941C2.64497 4.24483 2.67538 4.12754 2.74872 4.01754C2.82247 3.90754 2.92142 3.84087 3.04559 3.81754L4.59559 3.49066L5.41809 2.11566C5.48559 2.004 5.57622 1.92691 5.68997 1.88441C5.80372 1.8415 5.92142 1.84712 6.04309 1.90129L7.49997 2.51691L8.95622 1.90129C9.0783 1.84712 9.19622 1.8415 9.30997 1.88441C9.42372 1.92691 9.51434 2.004 9.58184 2.11566L10.4037 3.49066L11.9543 3.81754C12.0785 3.84087 12.1775 3.90754 12.2512 4.01754C12.325 4.12754 12.3554 4.24483 12.3425 4.36941L12.195 5.96629L13.2462 7.16629C13.3345 7.25671 13.3787 7.36796 13.3787 7.50004C13.3787 7.63212 13.3345 7.74358 13.2462 7.83441L12.195 9.03379L12.3425 10.6307C12.355 10.7552 12.3245 10.8725 12.2512 10.9825C12.1775 11.093 12.0785 11.1596 11.9543 11.1825L10.4043 11.51L9.58184 12.885C9.51434 12.9963 9.42372 13.0734 9.30997 13.1163C9.19622 13.1592 9.07851 13.1534 8.95684 13.0988L7.49997 12.4832L6.04372 13.0988C5.92163 13.153 5.80372 13.1586 5.68997 13.1157C5.57622 13.0732 5.48559 12.9961 5.41809 12.8844" fill="#14B8A6"/>
</svg>
