<svg width="20" height="20" viewBox="0 0 20 20" fill="none" xmlns="http://www.w3.org/2000/svg">
<path d="M7.73737 2.5C5.63263 2.54737 4.40342 2.74868 3.56342 3.58553C2.82763 4.31816 2.58211 5.34842 2.5 7M12.2626 2.5C14.3674 2.54737 15.5966 2.74868 16.4366 3.58553C17.1724 4.31816 17.4179 5.34842 17.5 7M12.2626 17.5C14.3674 17.4526 15.5966 17.2513 16.4366 16.4145C17.1724 15.6818 17.4179 14.6516 17.5 13M7.73737 17.5C5.63263 17.4526 4.40342 17.2513 3.56342 16.4145C2.82763 15.6818 2.58211 14.6516 2.5 13M6.44737 13.9474C8.28842 12.0195 11.6918 11.9287 13.5526 13.9474M11.9697 8.02632C11.9697 9.11579 11.0855 10 9.99368 10C9.73423 10.0004 9.47724 9.94967 9.23742 9.85067C8.9976 9.75167 8.77964 9.60635 8.59604 9.42304C8.41243 9.23972 8.26677 9.02201 8.16738 8.78234C8.068 8.54268 8.01684 8.28577 8.01684 8.02632C8.01684 6.93684 8.90105 6.05263 9.99368 6.05263C10.2531 6.05232 10.51 6.10314 10.7497 6.20219C10.9894 6.30124 11.2073 6.44657 11.3908 6.62987C11.5743 6.81318 11.7199 7.03086 11.8193 7.27047C11.9186 7.51008 11.9697 7.76693 11.9697 8.02632Z" stroke="#D4D4D4" stroke-linecap="round" stroke-linejoin="round"/>
</svg>
