<svg width="15" height="16" viewBox="0 0 15 16" fill="none" xmlns="http://www.w3.org/2000/svg">
<path d="M6.84378 8.89379L5.72128 7.77504C5.66294 7.71671 5.5919 7.68546 5.50815 7.68129C5.42399 7.67712 5.34753 7.70962 5.27878 7.77879C5.21211 7.84546 5.17878 7.91921 5.17878 8.00004C5.17878 8.08087 5.21211 8.15462 5.27878 8.22129L6.49003 9.43254C6.59128 9.53337 6.70919 9.58379 6.84378 9.58379C6.97836 9.58379 7.09628 9.53337 7.19753 9.43254L9.72128 6.90879C9.78211 6.84796 9.81398 6.77629 9.8169 6.69379C9.81982 6.61087 9.78794 6.53504 9.72128 6.46629C9.65253 6.39754 9.57815 6.36254 9.49815 6.36129C9.41815 6.36004 9.34399 6.39379 9.27565 6.46254L6.84378 8.89379ZM5.41878 13.385L4.59628 12.01L3.04565 11.6825C2.92149 11.6596 2.82253 11.593 2.74878 11.4825C2.67503 11.3725 2.64461 11.2555 2.65753 11.1313L2.80565 9.53379L1.75378 8.33379C1.66544 8.24337 1.62128 8.13212 1.62128 8.00004C1.62128 7.86796 1.66544 7.75671 1.75378 7.66629L2.80565 6.46629L2.65753 4.86941C2.64503 4.74483 2.67544 4.62754 2.74878 4.51754C2.82253 4.40754 2.92149 4.34087 3.04565 4.31754L4.59565 3.99066L5.41815 2.61566C5.48565 2.504 5.57628 2.42691 5.69003 2.38441C5.80378 2.3415 5.92148 2.34712 6.04315 2.40129L7.50003 3.01691L8.95628 2.40129C9.07836 2.34712 9.19628 2.3415 9.31003 2.38441C9.42378 2.42691 9.5144 2.504 9.5819 2.61566L10.4038 3.99066L11.9544 4.31754C12.0786 4.34087 12.1775 4.40754 12.2513 4.51754C12.325 4.62754 12.3554 4.74483 12.3425 4.86941L12.195 6.46629L13.2463 7.66629C13.3346 7.75671 13.3788 7.86796 13.3788 8.00004C13.3788 8.13212 13.3346 8.24358 13.2463 8.33441L12.195 9.53379L12.3425 11.1307C12.355 11.2552 12.3246 11.3725 12.2513 11.4825C12.1775 11.593 12.0786 11.6596 11.9544 11.6825L10.4044 12.01L9.5819 13.385C9.5144 13.4963 9.42378 13.5734 9.31003 13.6163C9.19628 13.6592 9.07857 13.6534 8.9569 13.5988L7.50003 12.9832L6.04378 13.5988C5.92169 13.653 5.80378 13.6586 5.69003 13.6157C5.57628 13.5732 5.48565 13.4961 5.41815 13.3844" fill="#777677"/>
</svg>
