<svg width="16" height="17" viewBox="0 0 16 17" fill="none" xmlns="http://www.w3.org/2000/svg">
<mask id="path-1-inside-1_5971_83056" fill="white">
<ellipse cx="8.00016" cy="11.4284" rx="0.666667" ry="0.666667"/>
</mask>
<ellipse cx="8.00016" cy="11.4284" rx="0.666667" ry="0.666667" fill="#EF4444"/>
<path d="M8.66683 11.4284H7.66683C7.66683 11.2443 7.81607 11.0951 8.00016 11.0951V12.0951V13.0951C8.92064 13.0951 9.66683 12.3489 9.66683 11.4284H8.66683ZM8.00016 12.0951V11.0951C8.18426 11.0951 8.3335 11.2443 8.3335 11.4284H7.3335H6.3335C6.3335 12.3489 7.07969 13.0951 8.00016 13.0951V12.0951ZM7.3335 11.4284H8.3335C8.3335 11.6125 8.18426 11.7617 8.00016 11.7617V10.7617V9.76172C7.07969 9.76172 6.3335 10.5079 6.3335 11.4284H7.3335ZM8.00016 10.7617V11.7617C7.81607 11.7617 7.66683 11.6125 7.66683 11.4284H8.66683H9.66683C9.66683 10.5079 8.92064 9.76172 8.00016 9.76172V10.7617Z" fill="#EF4444" mask="url(#path-1-inside-1_5971_83056)"/>
<path d="M8 6.76172L8 9.42839" stroke="#EF4444" stroke-linecap="round" stroke-linejoin="round"/>
<path d="M2.78071 11.2006L6.21131 4.33943C6.94836 2.86533 9.05197 2.86533 9.78902 4.33943L13.2196 11.2006C13.8845 12.5304 12.9175 14.0951 11.4308 14.0951H4.56956C3.0828 14.0951 2.11581 12.5304 2.78071 11.2006Z" stroke="#EF4444" stroke-linecap="round" stroke-linejoin="round"/>
</svg>
