<svg width="32" height="32" viewBox="0 0 32 32" fill="none" xmlns="http://www.w3.org/2000/svg">
<path d="M4 9.33325C4 8.27239 4.42143 7.25497 5.17157 6.50482C5.92172 5.75468 6.93913 5.33325 8 5.33325H24C25.0609 5.33325 26.0783 5.75468 26.8284 6.50482C27.5786 7.25497 28 8.27239 28 9.33325V22.6666C28 23.7275 27.5786 24.7449 26.8284 25.495C26.0783 26.2452 25.0609 26.6666 24 26.6666H8C6.93913 26.6666 5.92172 26.2452 5.17157 25.495C4.42143 24.7449 4 23.7275 4 22.6666V9.33325Z" stroke="#737373" stroke-width="2" stroke-linecap="round" stroke-linejoin="round"/>
<path d="M20 10.6665H22.6667M20 15.9998H22.6667M9.33337 21.3332H22.6667M9.33337 13.3332C9.33337 14.0404 9.61433 14.7187 10.1144 15.2188C10.6145 15.7189 11.2928 15.9998 12 15.9998C12.7073 15.9998 13.3856 15.7189 13.8857 15.2188C14.3858 14.7187 14.6667 14.0404 14.6667 13.3332C14.6667 12.6259 14.3858 11.9477 13.8857 11.4476C13.3856 10.9475 12.7073 10.6665 12 10.6665C11.2928 10.6665 10.6145 10.9475 10.1144 11.4476C9.61433 11.9477 9.33337 12.6259 9.33337 13.3332Z" stroke="#737373" stroke-width="2" stroke-linecap="round" stroke-linejoin="round"/>
</svg>
