<svg xmlns="http://www.w3.org/2000/svg" viewBox="0 0 64 57" fill="#0a85ff"><path d="M13.873 3.805C21.21 9.332 29.103 20.537 32 26.55v15.882c0-.338-.13.044-.41.867-1.512 4.456-7.418 21.847-20.923 7.944-7.111-7.32-3.819-14.64 9.125-16.85-7.405 1.264-15.73-.825-18.014-9-.657-2.355-1.78-19.984-1.778-22.385 0-.338.169-1.244.97-.633 4.18 3.19 9.49 8.985 12.903 11.43zm36.254 0C42.79 9.332 34.897 20.537 32 26.55v15.882c0-.338.13.044.41.867 1.512 4.456 7.418 21.847 20.923 7.944 7.111-7.32 3.819-14.64-9.125-16.85 7.405 1.264 15.73-.825 18.014-9 .657-2.355 1.78-19.984 1.778-22.385 0-.338-.169-1.244-.97-.633-4.18 3.19-9.49 8.985-12.903 11.43z"/></svg>
