<svg width="24" height="24" viewBox="0 0 24 24" fill="none" xmlns="http://www.w3.org/2000/svg">
<path d="M6 18.9142C4.04379 18.5171 2.57141 16.7876 2.57141 14.7142C2.57141 12.6408 4.04379 10.9113 6 10.5142C5.99999 10.5095 5.99998 10.5047 5.99998 10.5C5.99998 7.46243 8.46242 5 11.5 5C14.5376 5 17 7.46243 17 10.5C17 10.6685 16.9924 10.8353 16.9776 11H17C19.2091 11 21 12.7909 21 15C21 16.8638 19.7252 18.4299 18 18.874" stroke="black" stroke-width="2" stroke-linecap="round" stroke-linejoin="round"/>
<path d="M12 14.75C12.641 14.75 13.2007 15.1019 13.5002 15.6249M12 14.75C11.3589 14.75 10.7992 15.1019 10.4997 15.6249M12 14.75V13M12 20V18.2209M15 14.75L13.5002 15.6249M9 18.25L10.4997 17.3751M15 18.25L13.5003 17.3752M9 14.75L10.4997 15.6249M10.4997 17.3751C10.3523 17.1177 10.2679 16.8188 10.2679 16.5C10.2679 16.1812 10.3523 15.8823 10.4997 15.6249M10.4997 17.3751C10.8408 17.9707 11.4229 18.2326 12 18.2209M12 18.2209C12.5958 18.2088 13.1862 17.9049 13.5003 17.3752M13.5003 17.3752C13.6458 17.1298 13.732 16.8358 13.732 16.5C13.732 16.1812 13.6477 15.8823 13.5002 15.6249" stroke="black" stroke-width="2" stroke-linecap="round"/>
</svg>
