<svg width="24" height="24" viewBox="0 0 24 24" fill="none" xmlns="http://www.w3.org/2000/svg">
<path d="M6 18.9142C4.04379 18.5171 2.57141 16.7876 2.57141 14.7142C2.57141 12.6408 4.04379 10.9113 6 10.5142C5.99999 10.5095 5.99998 10.5047 5.99998 10.5C5.99998 7.46243 8.46242 5 11.5 5C14.5376 5 17 7.46243 17 10.5C17 10.6685 16.9924 10.8353 16.9776 11H17C19.2091 11 21 12.7909 21 15C21 16.8638 19.7252 18.4299 18 18.874" stroke="black" stroke-width="2" stroke-linecap="round" stroke-linejoin="round"/>
<path d="M9 16.4286C9 15.9552 9.38376 15.5714 9.85714 15.5714H14.1429C14.6162 15.5714 15 15.9552 15 16.4286V19.1429C15 19.6162 14.6162 20 14.1429 20H9.85714C9.38376 20 9 19.6162 9 19.1429V16.4286Z" stroke="black" stroke-width="2" stroke-linecap="round" stroke-linejoin="round"/>
<path d="M10.7143 14.2857C10.7143 13.5756 11.2899 13 12 13C12.7101 13 13.2857 13.5756 13.2857 14.2857V15.5714H10.7143V14.2857Z" stroke="black" stroke-width="2" stroke-linecap="round" stroke-linejoin="round"/>
</svg>
