<svg xmlns="http://www.w3.org/2000/svg" viewBox="0 0 24 24" fill="none"><path fill="#4285F4" d="M21.762 12.187c0-.82-.066-1.418-.21-2.038H12.195v3.7h5.492c-.11.92-.708 2.304-2.037 3.234l-.018.124 2.958 2.292.205.02c1.882-1.738 2.967-4.296 2.967-7.332z"/><path fill="#34A853" d="M12.194 21.931c2.69 0 4.95-.886 6.6-2.414l-3.146-2.436c-.84.587-1.97.997-3.454.997-2.635 0-4.872-1.738-5.67-4.141l-.116.01-3.077 2.38-.04.112c1.638 3.255 5.005 5.492 8.903 5.492z"/><path fill="#FBBC05" d="M6.525 13.937a6.087 6.087 0 0 1-.332-1.971c0-.687.122-1.351.32-1.971l-.005-.132-3.115-2.42-.102.049a9.93 9.93 0 0 0-1.063 4.474 9.93 9.93 0 0 0 1.063 4.474l3.234-2.503z"/><path fill="#EB4335" d="M12.194 5.853c1.871 0 3.133.808 3.853 1.484l2.813-2.746C17.132 2.986 14.884 2 12.194 2 8.296 2 4.93 4.237 3.291 7.492l3.222 2.503c.808-2.403 3.045-4.142 5.681-4.142z"/></svg>
