<svg width="24" height="25" viewBox="0 0 24 25" fill="none" xmlns="http://www.w3.org/2000/svg">
<g clip-path="url(#clip0_4162_114791)">
<path d="M3 7.33325C3 5.12411 4.79086 3.33325 7 3.33325H17C19.2091 3.33325 21 5.12411 21 7.33325V15.3333C21 17.5424 19.2091 19.3333 17 19.3333H14.25L12.8 21.2666C12.4 21.7999 11.6 21.7999 11.2 21.2666L9.75 19.3333H7C4.79086 19.3333 3 17.5424 3 15.3333V7.33325Z" stroke="#737373" stroke-width="1.5" stroke-linecap="round" stroke-linejoin="round"/>
<path d="M16.3508 14.7735V11.8013C16.3508 10.6967 15.4554 9.8013 14.3508 9.8013H7.64941M7.64941 9.8013L10.1355 7.31519M7.64941 9.8013L10.1355 12.2874" stroke="#737373" stroke-width="1.5" stroke-linecap="round" stroke-linejoin="round"/>
</g>
<defs>
<clipPath id="clip0_4162_114791">
<rect width="24" height="24" fill="white" transform="translate(0 0.5)"/>
</clipPath>
</defs>
</svg>
