<svg width="24" height="25" viewBox="0 0 24 25" fill="none" xmlns="http://www.w3.org/2000/svg">
<path d="M13.5498 19.5H15.5498L10.5498 5.5H8.5498L3.5498 19.5H5.5498L6.9498 15.5H12.0498L13.5498 19.5ZM7.64981 13.5L9.5498 8.3L11.4498 13.5H7.64981ZM20.4498 18C20.4498 18.2967 20.3618 18.5867 20.197 18.8334C20.0322 19.08 19.7979 19.2723 19.5238 19.3858C19.2497 19.4993 18.9481 19.5291 18.6572 19.4712C18.3662 19.4133 18.0989 19.2704 17.8891 19.0607C17.6794 18.8509 17.5365 18.5836 17.4786 18.2926C17.4207 18.0017 17.4505 17.7001 17.564 17.426C17.6775 17.1519 17.8698 16.9176 18.1164 16.7528C18.3631 16.588 18.6531 16.5 18.9498 16.5C19.3476 16.5 19.7292 16.658 20.0105 16.9393C20.2918 17.2206 20.4498 17.6022 20.4498 18ZM20.4498 14C20.4498 14.2967 20.3618 14.5867 20.197 14.8334C20.0322 15.08 19.7979 15.2723 19.5238 15.3858C19.2497 15.4994 18.9481 15.5291 18.6572 15.4712C18.3662 15.4133 18.0989 15.2704 17.8891 15.0607C17.6794 14.8509 17.5365 14.5836 17.4786 14.2926C17.4207 14.0017 17.4505 13.7001 17.564 13.426C17.6775 13.1519 17.8698 12.9176 18.1164 12.7528C18.3631 12.588 18.6531 12.5 18.9498 12.5C19.3476 12.5 19.7292 12.658 20.0105 12.9393C20.2918 13.2206 20.4498 13.6022 20.4498 14ZM20.4498 10C20.4498 10.2967 20.3618 10.5867 20.197 10.8334C20.0322 11.08 19.7979 11.2723 19.5238 11.3858C19.2497 11.4994 18.9481 11.5291 18.6572 11.4712C18.3662 11.4133 18.0989 11.2704 17.8891 11.0607C17.6794 10.8509 17.5365 10.5836 17.4786 10.2926C17.4207 10.0017 17.4505 9.70006 17.564 9.42597C17.6775 9.15189 17.8698 8.91762 18.1164 8.7528C18.3631 8.58797 18.6531 8.5 18.9498 8.5C19.3476 8.5 19.7292 8.65804 20.0105 8.93934C20.2918 9.22064 20.4498 9.60218 20.4498 10Z" fill="#737373"/>
</svg>
