<svg width="20" height="20" viewBox="0 0 20 20" fill="none" xmlns="http://www.w3.org/2000/svg">
<g clip-path="url(#clip0_8052_21056)">
<rect x="2.20833" y="3.01851" width="15.5833" height="12.75" rx="1.18056" stroke="#737373" stroke-width="1.41667"/>
<line x1="7.09375" y1="2.61218" x2="7.09375" y2="6.97156" stroke="#737373" stroke-width="1.5"/>
<line x1="13.0312" y1="2.61218" x2="13.0312" y2="6.97156" stroke="#737373" stroke-width="1.5"/>
<line x1="1.75" y1="7.08093" x2="17.6875" y2="7.08093" stroke="#737373" stroke-width="1.5"/>
<line x1="1.75" y1="11.7684" x2="17.6875" y2="11.7684" stroke="#737373" stroke-width="1.5"/>
<rect x="2.20833" y="7.07052" width="15.5833" height="4.70833" stroke="#737373" stroke-width="1.41667"/>
<line x1="7.09375" y1="11.9716" x2="7.09375" y2="15.7372" stroke="#737373" stroke-width="1.5"/>
<line x1="13.0312" y1="11.9716" x2="13.0312" y2="15.7372" stroke="#737373" stroke-width="1.5"/>
<g clip-path="url(#clip1_8052_21056)">
<rect width="11" height="11" rx="5.5" transform="matrix(1 1.74846e-07 1.74846e-07 -1 4.29492 10.126)" fill="#1A1A1A"/>
<path fill-rule="evenodd" clip-rule="evenodd" d="M5.21167 4.62596C5.21167 2.09458 7.26363 0.0426239 9.795 0.0426243C12.3264 0.0426248 14.3783 2.09458 14.3783 4.62596C14.3783 7.15733 12.3264 9.20929 9.795 9.20929C7.26363 9.20929 5.21167 7.15733 5.21167 4.62596ZM11.4129 4.41054C11.4773 4.34609 11.5135 4.25872 11.5135 4.16762C11.5135 4.07653 11.4773 3.98916 11.4129 3.92471L10.0379 2.54971C9.97347 2.48533 9.8861 2.44918 9.795 2.44918C9.70391 2.44918 9.61654 2.48533 9.55209 2.54971L8.17709 3.92471C8.14331 3.95618 8.11623 3.99413 8.09744 4.03629C8.07865 4.07846 8.06855 4.12398 8.06773 4.17013C8.06692 4.21629 8.07541 4.26214 8.0927 4.30494C8.10999 4.34774 8.13572 4.38662 8.16836 4.41927C8.201 4.45191 8.23989 4.47764 8.28269 4.49493C8.32549 4.51222 8.37134 4.52071 8.41749 4.5199C8.46365 4.51908 8.50917 4.50898 8.55133 4.49019C8.5935 4.4714 8.63145 4.44431 8.66292 4.41054L9.45125 3.62221L9.45125 6.45929C9.45125 6.55046 9.48747 6.63789 9.55194 6.70236C9.6164 6.76682 9.70384 6.80304 9.795 6.80304C9.88617 6.80304 9.97361 6.76682 10.0381 6.70236C10.1025 6.63789 10.1388 6.55046 10.1388 6.45929L10.1388 3.62221L10.9271 4.41054C10.9915 4.47491 11.0789 4.51107 11.17 4.51107C11.2611 4.51107 11.3485 4.47491 11.4129 4.41054Z" fill="#737373"/>
</g>
<rect x="0.785714" y="-0.785714" width="9.42857" height="9.42857" rx="4.71429" transform="matrix(1 1.74846e-07 1.74846e-07 -1 4.29492 8.55455)" stroke="#101010" stroke-width="1.57143"/>
</g>
<defs>
<clipPath id="clip0_8052_21056">
<rect width="20" height="20" fill="white"/>
</clipPath>
<clipPath id="clip1_8052_21056">
<rect width="11" height="11" rx="5.5" transform="matrix(1 1.74846e-07 1.74846e-07 -1 4.29492 10.126)" fill="white"/>
</clipPath>
</defs>
</svg>
