<svg width="20" height="20" viewBox="0 0 20 20" fill="none" xmlns="http://www.w3.org/2000/svg">
<g clip-path="url(#clip0_8052_21174)">
<rect x="2.20833" y="3.01851" width="15.5833" height="12.75" rx="1.18056" stroke="#737373" stroke-width="1.41667"/>
<line x1="7.04492" y1="3.12598" x2="7.04492" y2="16.126" stroke="#737373" stroke-width="1.5"/>
<line x1="2.11023" y1="7.55066" x2="6.4696" y2="7.55066" stroke="#737373" stroke-width="1.5"/>
<line x1="2.11023" y1="11.5507" x2="6.4696" y2="11.5507" stroke="#737373" stroke-width="1.5"/>
<line x1="13.2949" y1="7.55066" x2="17.6543" y2="7.55066" stroke="#737373" stroke-width="1.5"/>
<line x1="13.2949" y1="11.5507" x2="17.6543" y2="11.5507" stroke="#737373" stroke-width="1.5"/>
<line x1="13.0449" y1="3.12598" x2="13.0449" y2="15.126" stroke="#737373" stroke-width="1.5"/>
<line x1="13.0312" y1="11.9716" x2="13.0312" y2="15.7372" stroke="#737373" stroke-width="1.5"/>
<g clip-path="url(#clip1_8052_21174)">
<rect width="11" height="11" rx="5.5" transform="matrix(-4.37114e-08 -1 -1 4.37114e-08 10.2949 15.126)" fill="#1A1A1A"/>
<path fill-rule="evenodd" clip-rule="evenodd" d="M4.79496 14.2093C2.26359 14.2093 0.21163 12.1573 0.211629 9.62593C0.211629 7.09455 2.26359 5.04259 4.79496 5.04259C7.32634 5.04259 9.3783 7.09455 9.3783 9.62593C9.3783 12.1573 7.32634 14.2093 4.79496 14.2093ZM4.57955 8.00801C4.51509 7.94364 4.42772 7.90748 4.33663 7.90748C4.24554 7.90748 4.15817 7.94364 4.09371 8.00801L2.71871 9.38301C2.65434 9.44746 2.61818 9.53483 2.61818 9.62593C2.61818 9.71702 2.65434 9.80439 2.71871 9.86884L4.09371 11.2438C4.12518 11.2776 4.16313 11.3047 4.2053 11.3235C4.24747 11.3423 4.29298 11.3524 4.33914 11.3532C4.3853 11.354 4.43114 11.3455 4.47394 11.3282C4.51675 11.3109 4.55563 11.2852 4.58827 11.2526C4.62091 11.2199 4.64665 11.181 4.66394 11.1382C4.68122 11.0954 4.68971 11.0496 4.6889 11.0034C4.68809 10.9573 4.67798 10.9118 4.6592 10.8696C4.64041 10.8274 4.61332 10.7895 4.57955 10.758L3.79121 9.96968L6.6283 9.96968C6.71946 9.96968 6.8069 9.93346 6.87136 9.86899C6.93583 9.80453 6.97205 9.71709 6.97205 9.62593C6.97205 9.53476 6.93583 9.44732 6.87136 9.38286C6.8069 9.31839 6.71946 9.28218 6.6283 9.28218L3.79121 9.28218L4.57955 8.49384C4.64392 8.42939 4.68008 8.34202 4.68008 8.25093C4.68008 8.15983 4.64392 8.07246 4.57955 8.00801Z" fill="#737373"/>
</g>
<rect x="-0.785714" y="-0.785714" width="9.42857" height="9.42857" rx="4.71429" transform="matrix(-4.37114e-08 -1 -1 4.37114e-08 8.72349 13.5545)" stroke="#101010" stroke-width="1.57143"/>
</g>
<defs>
<clipPath id="clip0_8052_21174">
<rect width="20" height="20" fill="white"/>
</clipPath>
<clipPath id="clip1_8052_21174">
<rect width="11" height="11" rx="5.5" transform="matrix(-4.37114e-08 -1 -1 4.37114e-08 10.2949 15.126)" fill="white"/>
</clipPath>
</defs>
</svg>
