<svg width="20" height="20" viewBox="0 0 20 20" fill="none" xmlns="http://www.w3.org/2000/svg">
<g clip-path="url(#clip0_8052_21175)">
<rect x="2.20833" y="3.01851" width="15.5833" height="12.75" rx="1.18056" stroke="#737373" stroke-width="1.41667"/>
<line x1="7.04492" y1="3.12598" x2="7.04492" y2="16.126" stroke="#737373" stroke-width="1.5"/>
<line x1="2.11023" y1="7.55066" x2="6.4696" y2="7.55066" stroke="#737373" stroke-width="1.5"/>
<line x1="2.11023" y1="11.5507" x2="6.4696" y2="11.5507" stroke="#737373" stroke-width="1.5"/>
<line x1="13.2949" y1="7.55066" x2="17.6543" y2="7.55066" stroke="#737373" stroke-width="1.5"/>
<line x1="13.0449" y1="3.12598" x2="13.0449" y2="15.126" stroke="#737373" stroke-width="1.5"/>
<g clip-path="url(#clip1_8052_21175)">
<rect width="11" height="11" rx="5.5" transform="matrix(-4.37114e-08 1 1 4.37114e-08 10.2949 4.12598)" fill="#1A1A1A"/>
<path fill-rule="evenodd" clip-rule="evenodd" d="M15.7949 5.04269C18.3263 5.04269 20.3782 7.09465 20.3782 9.62603C20.3782 12.1574 18.3263 14.2094 15.7949 14.2094C13.2635 14.2094 11.2115 12.1574 11.2115 9.62603C11.2115 7.09465 13.2635 5.04269 15.7949 5.04269ZM16.0103 11.2439C16.0748 11.3083 16.1621 11.3445 16.2532 11.3445C16.3443 11.3445 16.4317 11.3083 16.4961 11.2439L17.8711 9.86894C17.9355 9.80449 17.9717 9.71712 17.9717 9.62603C17.9717 9.53493 17.9355 9.44756 17.8711 9.38311L16.4961 8.00811C16.4647 7.97434 16.4267 7.94725 16.3845 7.92846C16.3424 7.90967 16.2969 7.89957 16.2507 7.89876C16.2045 7.89794 16.1587 7.90643 16.1159 7.92372C16.0731 7.94101 16.0342 7.96674 16.0016 7.99939C15.9689 8.03203 15.9432 8.07091 15.9259 8.11371C15.9086 8.15651 15.9001 8.20236 15.9009 8.24852C15.9018 8.29467 15.9119 8.34019 15.9306 8.38236C15.9494 8.42452 15.9765 8.46247 16.0103 8.49394L16.7986 9.28228L13.9615 9.28228C13.8704 9.28228 13.7829 9.31849 13.7185 9.38296C13.654 9.44743 13.6178 9.53486 13.6178 9.62603C13.6178 9.7172 13.654 9.80463 13.7185 9.8691C13.7829 9.93356 13.8704 9.96978 13.9615 9.96978L16.7986 9.96978L16.0103 10.7581C15.9459 10.8226 15.9098 10.9099 15.9098 11.001C15.9098 11.0921 15.9459 11.1795 16.0103 11.2439Z" fill="#737373"/>
</g>
<rect x="0.785714" y="0.785714" width="9.42857" height="9.42857" rx="4.71429" transform="matrix(-4.37114e-08 1 1 4.37114e-08 10.2949 4.12598)" stroke="#101010" stroke-width="1.57143"/>
</g>
<defs>
<clipPath id="clip0_8052_21175">
<rect width="20" height="20" fill="white"/>
</clipPath>
<clipPath id="clip1_8052_21175">
<rect width="11" height="11" rx="5.5" transform="matrix(-4.37114e-08 1 1 4.37114e-08 10.2949 4.12598)" fill="white"/>
</clipPath>
</defs>
</svg>
