<svg width="20" height="20" viewBox="0 0 20 20" fill="none" xmlns="http://www.w3.org/2000/svg">
<rect x="2.20833" y="3.01851" width="15.5833" height="12.75" rx="1.18056" stroke="#737373" stroke-width="1.41667"/>
<line x1="7.09375" y1="2.61218" x2="7.09375" y2="6.97156" stroke="#737373" stroke-width="1.5"/>
<line x1="13.0312" y1="2.61218" x2="13.0312" y2="6.97156" stroke="#737373" stroke-width="1.5"/>
<line x1="1.75" y1="7.08093" x2="17.6875" y2="7.08093" stroke="#737373" stroke-width="1.5"/>
<line x1="1.75" y1="11.7684" x2="17.6875" y2="11.7684" stroke="#737373" stroke-width="1.5"/>
<rect x="2.20833" y="7.07052" width="15.5833" height="4.70833" stroke="#737373" stroke-width="1.41667"/>
<line x1="7.09375" y1="11.9716" x2="7.09375" y2="15.7372" stroke="#737373" stroke-width="1.5"/>
<line x1="13.0312" y1="11.9716" x2="13.0312" y2="15.7372" stroke="#737373" stroke-width="1.5"/>
<g clip-path="url(#clip0_8052_21055)">
<rect width="11" height="11" rx="5.5" transform="matrix(-1 0 0 1 15.2949 8.12598)" fill="#1A1A1A"/>
<path fill-rule="evenodd" clip-rule="evenodd" d="M14.3782 13.626C14.3782 16.1574 12.3262 18.2093 9.79484 18.2093C7.26347 18.2093 5.21151 16.1574 5.21151 13.626C5.21151 11.0946 7.26347 9.04266 9.79484 9.04266C12.3262 9.04266 14.3782 11.0946 14.3782 13.626ZM8.17692 13.8414C8.11255 13.9059 8.07639 13.9932 8.07639 14.0843C8.07639 14.1754 8.11255 14.2628 8.17692 14.3272L9.55192 15.7022C9.61638 15.7666 9.70375 15.8028 9.79484 15.8028C9.88593 15.8028 9.9733 15.7666 10.0378 15.7022L11.4128 14.3272C11.4465 14.2958 11.4736 14.2578 11.4924 14.2157C11.5112 14.1735 11.5213 14.128 11.5221 14.0818C11.5229 14.0357 11.5144 13.9898 11.4971 13.947C11.4799 13.9042 11.4541 13.8653 11.4215 13.8327C11.3888 13.8 11.35 13.7743 11.3072 13.757C11.2644 13.7397 11.2185 13.7312 11.1724 13.7321C11.1262 13.7329 11.0807 13.743 11.0385 13.7618C10.9963 13.7806 10.9584 13.8076 10.9269 13.8414L10.1386 14.6297V11.7927C10.1386 11.7015 10.1024 11.6141 10.0379 11.5496C9.97344 11.4851 9.88601 11.4489 9.79484 11.4489C9.70367 11.4489 9.61624 11.4851 9.55177 11.5496C9.48731 11.6141 9.45109 11.7015 9.45109 11.7927V14.6297L8.66276 13.8414C8.5983 13.777 8.51093 13.7409 8.41984 13.7409C8.32875 13.7409 8.24138 13.777 8.17692 13.8414Z" fill="#737373"/>
</g>
<rect x="-0.785714" y="0.785714" width="9.42857" height="9.42857" rx="4.71429" transform="matrix(-1 0 0 1 13.7235 8.12598)" stroke="#101010" stroke-width="1.57143"/>
<defs>
<clipPath id="clip0_8052_21055">
<rect width="11" height="11" rx="5.5" transform="matrix(-1 0 0 1 15.2949 8.12598)" fill="white"/>
</clipPath>
</defs>
</svg>
