<svg width="24" height="25" viewBox="0 0 24 25" fill="none" xmlns="http://www.w3.org/2000/svg">
<path d="M20 5.5H4C2.9 5.5 2 6.4 2 7.5V9.5V11V14V15.5V17.5C2 18.6 2.9 19.5 4 19.5H20C21.1 19.5 22 18.6 22 17.5V15.5V14V11V9.5V7.5C22 6.4 21.1 5.5 20 5.5ZM9.5 14V11H14.5V14H9.5ZM14.5 15.5V18H9.5V15.5H14.5ZM9.5 9.5V7H14.5V9.5H9.5ZM3.5 7.5C3.5 7.2 3.7 7 4 7H8V9.5H3.5V7.5ZM3.5 11H8V14H3.5V11ZM3.5 17.5V15.5H8V18H4C3.7 18 3.5 17.8 3.5 17.5ZM20.5 17.5C20.5 17.8 20.3 18 20 18H16V15.5H20.5V17.5ZM20.5 14H16V11H20.5V14ZM16 9.5V7H20C20.3 7 20.5 7.2 20.5 7.5V9.5H16Z" fill="#737373"/>
</svg>
