<svg width="18" height="19" viewBox="0 0 18 19" fill="none" xmlns="http://www.w3.org/2000/svg">
<path d="M9 0.5C13.9706 0.5 18 4.52944 18 9.5C18 14.4706 13.9706 18.5 9 18.5C4.02944 18.5 0 14.4706 0 9.5C0 4.52944 4.02944 0.5 9 0.5ZM12.707 5.79297C12.3165 5.40245 11.6835 5.40244 11.293 5.79297L9 8.08594L6.70703 5.79297C6.31651 5.40245 5.68349 5.40244 5.29297 5.79297C4.90245 6.18349 4.90245 6.81651 5.29297 7.20703L7.58594 9.5L5.29297 11.793C4.90245 12.1835 4.90245 12.8165 5.29297 13.207C5.68349 13.5976 6.31651 13.5976 6.70703 13.207L9 10.9141L11.293 13.207L11.3691 13.2754C11.7619 13.5957 12.3409 13.5731 12.707 13.207C13.0731 12.8409 13.0957 12.2619 12.7754 11.8691L12.707 11.793L10.4141 9.5L12.707 7.20703C13.0976 6.81651 13.0976 6.18349 12.707 5.79297Z" fill="#737373"/>
</svg>
