<svg width="24" height="25" viewBox="0 0 24 25" fill="none" xmlns="http://www.w3.org/2000/svg">
<path d="M8.5 18.5C9.05228 18.5 9.5 18.9477 9.5 19.5C9.5 20.0523 9.05228 20.5 8.5 20.5C7.94772 20.5 7.5 20.0523 7.5 19.5C7.5 18.9477 7.94772 18.5 8.5 18.5Z" fill="#737373"/>
<path d="M15.5 18.5C16.0523 18.5 16.5 18.9477 16.5 19.5C16.5 20.0523 16.0523 20.5 15.5 20.5C14.9477 20.5 14.5 20.0523 14.5 19.5C14.5 18.9477 14.9477 18.5 15.5 18.5Z" fill="#737373"/>
<path d="M8.5 11.5C9.05228 11.5 9.5 11.9477 9.5 12.5C9.5 13.0523 9.05228 13.5 8.5 13.5C7.94771 13.5 7.5 13.0523 7.5 12.5C7.5 11.9477 7.94771 11.5 8.5 11.5Z" fill="#737373"/>
<path d="M15.5 11.5C16.0523 11.5 16.5 11.9477 16.5 12.5C16.5 13.0523 16.0523 13.5 15.5 13.5C14.9477 13.5 14.5 13.0523 14.5 12.5C14.5 11.9477 14.9477 11.5 15.5 11.5Z" fill="#737373"/>
<path d="M8.5 4.5C9.05228 4.5 9.5 4.94771 9.5 5.5C9.5 6.05229 9.05228 6.5 8.5 6.5C7.94771 6.5 7.5 6.05229 7.5 5.5C7.5 4.94771 7.94771 4.5 8.5 4.5Z" fill="#737373"/>
<path d="M15.5 4.5C16.0523 4.5 16.5 4.94771 16.5 5.5C16.5 6.05228 16.0523 6.5 15.5 6.5C14.9477 6.5 14.5 6.05228 14.5 5.5C14.5 4.94771 14.9477 4.5 15.5 4.5Z" fill="#737373"/>
<path d="M8.5 18.5C9.05228 18.5 9.5 18.9477 9.5 19.5C9.5 20.0523 9.05228 20.5 8.5 20.5C7.94772 20.5 7.5 20.0523 7.5 19.5C7.5 18.9477 7.94772 18.5 8.5 18.5Z" stroke="#737373" stroke-linecap="round" stroke-linejoin="round"/>
<path d="M15.5 18.5C16.0523 18.5 16.5 18.9477 16.5 19.5C16.5 20.0523 16.0523 20.5 15.5 20.5C14.9477 20.5 14.5 20.0523 14.5 19.5C14.5 18.9477 14.9477 18.5 15.5 18.5Z" stroke="#737373" stroke-linecap="round" stroke-linejoin="round"/>
<path d="M8.5 11.5C9.05228 11.5 9.5 11.9477 9.5 12.5C9.5 13.0523 9.05228 13.5 8.5 13.5C7.94771 13.5 7.5 13.0523 7.5 12.5C7.5 11.9477 7.94771 11.5 8.5 11.5Z" stroke="#737373" stroke-linecap="round" stroke-linejoin="round"/>
<path d="M15.5 11.5C16.0523 11.5 16.5 11.9477 16.5 12.5C16.5 13.0523 16.0523 13.5 15.5 13.5C14.9477 13.5 14.5 13.0523 14.5 12.5C14.5 11.9477 14.9477 11.5 15.5 11.5Z" stroke="#737373" stroke-linecap="round" stroke-linejoin="round"/>
<path d="M8.5 4.5C9.05228 4.5 9.5 4.94771 9.5 5.5C9.5 6.05229 9.05228 6.5 8.5 6.5C7.94771 6.5 7.5 6.05229 7.5 5.5C7.5 4.94771 7.94771 4.5 8.5 4.5Z" stroke="#737373" stroke-linecap="round" stroke-linejoin="round"/>
<path d="M15.5 4.5C16.0523 4.5 16.5 4.94771 16.5 5.5C16.5 6.05228 16.0523 6.5 15.5 6.5C14.9477 6.5 14.5 6.05228 14.5 5.5C14.5 4.94771 14.9477 4.5 15.5 4.5Z" stroke="#737373" stroke-linecap="round" stroke-linejoin="round"/>
</svg>
