<svg width="21" height="20" viewBox="0 0 21 20" fill="none" xmlns="http://www.w3.org/2000/svg">
<path d="M9.66536 6.66797H7.03203C5.91193 6.66797 5.35187 6.66797 4.92405 6.88596C4.54773 7.0777 4.24176 7.38366 4.05002 7.75999C3.83203 8.18781 3.83203 8.74786 3.83203 9.86797V13.468C3.83203 14.5881 3.83203 15.1481 4.05002 15.5759C4.24176 15.9523 4.54773 16.2582 4.92405 16.45C5.35187 16.668 5.91193 16.668 7.03203 16.668H10.632C11.7521 16.668 12.3122 16.668 12.74 16.45C13.1163 16.2582 13.4223 15.9523 13.614 15.5759C13.832 15.1481 13.832 14.5881 13.832 13.468V10.8346" stroke="#737373" stroke-width="1.5" stroke-linecap="round" stroke-linejoin="round"/>
<path d="M17.168 3.33203H13.8346M17.168 3.33203V6.66536M17.168 3.33203L9.66797 10.832" stroke="#737373" stroke-width="1.5" stroke-linecap="round"/>
</svg>
