<svg width="20" height="20" viewBox="0 0 20 20" fill="none" xmlns="http://www.w3.org/2000/svg">
<path d="M8.92754 1.8673C8.85145 1.82185 8.76447 1.79785 8.67584 1.79785C8.58721 1.79785 8.50023 1.82185 8.42414 1.8673C8.36138 1.91703 8.31903 1.98805 8.30511 2.06691C8.29119 2.14577 8.30668 2.22699 8.34863 2.2952C9.8966 4.97583 10.2238 8.62551 8.10951 10.6391C7.29604 9.95553 6.65023 9.09444 6.22174 8.12211C5.43987 8.55636 4.79189 9.1965 4.34816 9.97303C3.90442 10.7496 3.68189 11.6328 3.70472 12.5269C3.73664 13.3151 3.92588 14.0889 4.26132 14.8029C4.59676 15.5168 5.07162 16.1565 5.65795 16.6842C6.24428 17.2119 6.93024 17.6169 7.67546 17.8756C8.42068 18.1342 9.2101 18.2412 9.99728 18.1902C14.0497 18.1902 16.1514 15.6732 16.2898 12.5269C16.4534 8.75136 13.7728 4.10746 8.92754 1.8673Z" stroke="#737373" stroke-width="1.5" stroke-linecap="round" stroke-linejoin="round"/>
<path d="M13.1435 12.5269C13.1435 13.1944 12.8783 13.8346 12.4063 14.3067C11.9342 14.7787 11.294 15.0439 10.6265 15.0439" stroke="#737373" stroke-width="1.5" stroke-linecap="round" stroke-linejoin="round"/>
</svg>
