<svg width="20" height="20" viewBox="0 0 20 20" fill="none" xmlns="http://www.w3.org/2000/svg">
<path d="M4.60664 13.9183C5.55025 15.217 6.93083 16.1317 8.49474 16.4942C10.0586 16.8567 11.7008 16.6427 13.1196 15.8915C14.5384 15.1403 15.6384 13.9023 16.2177 12.4051C16.7969 10.9079 16.8164 9.2519 16.2726 7.74144C15.7288 6.23097 14.6582 4.96747 13.2576 4.18305C11.8569 3.39863 10.2202 3.14599 8.64817 3.47154C7.07615 3.79708 5.6744 4.67896 4.70045 5.95514C3.7265 7.23132 3.24577 8.81609 3.34657 10.4183M3.34657 10.4183L2.09657 9.16829M3.34657 10.4183L4.59657 9.16829" stroke="#737373" stroke-width="1.5" stroke-linecap="round" stroke-linejoin="round"/>
<path d="M10 6.66699V10.0003L12.5 12.5003" stroke="#737373" stroke-width="1.5" stroke-linecap="round" stroke-linejoin="round"/>
</svg>
