<svg width="23" height="24" viewBox="0 0 23 24" fill="none" xmlns="http://www.w3.org/2000/svg">
<path d="M13.5936 11.0489L17.206 15.8019H5.79856L8.65041 12.0945L10.6467 14.6612L13.4035 11.0489H13.5936ZM8.17511 11.0489C8.9356 11.0489 9.60103 10.3834 9.60103 9.62293C9.60103 8.86243 8.9356 8.197 8.17511 8.197C7.41461 8.197 6.74918 8.86243 6.74918 9.62293C6.74918 10.3834 7.41461 11.0489 8.17511 11.0489ZM21.0084 6.29577V17.7032C21.0084 18.7489 20.1529 19.6044 19.1072 19.6044H3.89733C2.85165 19.6044 1.99609 18.7489 1.99609 17.7032V6.29577C1.99609 5.25009 2.85165 4.39453 3.89733 4.39453H19.1072C20.1529 4.39453 21.0084 5.25009 21.0084 6.29577ZM19.1072 8.95749V6.29577H3.89733V17.7032H19.1072V8.95749Z" fill="#737373"/>
</svg>
