<svg width="32" height="32" viewBox="0 0 32 32" fill="none" xmlns="http://www.w3.org/2000/svg">
<path d="M14.5 8.49992H10C7.51472 8.49992 5.5 10.5146 5.5 12.9999C5.5 15.4852 7.51472 17.4999 10 17.4999M14.5 8.49992V17.4999M14.5 8.49992L20.5358 6.99096C22.5688 6.48271 23.5853 6.22859 24.3859 6.47602C25.0875 6.69287 25.6852 7.15957 26.0658 7.78768C26.5 8.50432 26.5 9.5521 26.5 11.6476V14.3522C26.5 16.4477 26.5 17.4955 26.0658 18.2122C25.6852 18.8403 25.0875 19.307 24.3859 19.5238C23.5853 19.7712 22.5688 19.5171 20.5358 19.0089L14.5 17.4999M14.5 17.4999H10M14.5 17.4999L12.8552 23.6904C12.3831 25.4522 12.2871 26.4999 10.8302 26.4999C9.91139 26.4999 8.80516 26.0832 8.80516 25.0404C8.80516 23.9976 10 17.4999 10 17.4999" stroke="#737373" stroke-width="2"/>
</svg>
