<svg width="20" height="16" viewBox="0 0 20 16" fill="none" xmlns="http://www.w3.org/2000/svg">
<path d="M7.91756 8.00314L15.6655 2.61296L16.8449 3.90887L10.7509 11.1163L7.91756 8.00314ZM5.58746 8.41432L10.1228 13.3976C10.2167 13.4906 10.3292 13.5626 10.453 13.6089C10.5768 13.6552 10.709 13.6747 10.8409 13.6661C10.9728 13.6575 11.1013 13.621 11.2181 13.5591C11.3348 13.4971 11.4371 13.4111 11.5181 13.3067L18.9695 4.49371C19.1179 4.3306 19.202 4.11905 19.2059 3.89853C19.2098 3.67801 19.1333 3.4636 18.9908 3.29532L16.4778 0.534155C16.3236 0.376432 16.1174 0.280187 15.8975 0.263384C15.6775 0.24658 15.459 0.310365 15.2827 0.442835L5.80905 7.03367C5.69748 7.10453 5.60223 7.19826 5.52958 7.30867C5.45693 7.41907 5.40853 7.54364 5.38759 7.67413C5.36664 7.80462 5.37363 7.93808 5.40808 8.06567C5.44254 8.19327 5.50367 8.3121 5.58746 8.41432ZM0.793945 14.29L6.4113 15.2623L7.89044 13.9161L4.86155 10.5881L0.793945 14.29Z" fill="#737373"/>
</svg>
