<svg width="12" height="12" viewBox="0 0 12 12" fill="none" xmlns="http://www.w3.org/2000/svg">
<g clip-path="url(#clip0_9139_672881)">
<path d="M9.99997 0.666047L0.666667 9.99935C0.298477 10.3675 0.298477 10.9645 0.666667 11.3327L0.666668 11.3327C1.03486 11.7009 1.63181 11.7009 2 11.3327L11.3333 1.99938C11.7015 1.63119 11.7015 1.03424 11.3333 0.666047C10.9651 0.297858 10.3682 0.297857 9.99997 0.666047Z" fill="#464646"/>
<path d="M9.9987 6.0013L5.9987 10.0013C5.63051 10.3695 5.63051 10.9664 5.9987 11.3346L5.9987 11.3346C6.36689 11.7028 6.96384 11.7028 7.33203 11.3346L11.332 7.33464C11.7002 6.96645 11.7002 6.3695 11.332 6.0013C10.9638 5.63311 10.3669 5.63311 9.9987 6.0013Z" fill="#464646"/>
</g>
<defs>
<clipPath id="clip0_9139_672881">
<rect width="12" height="12" fill="white"/>
</clipPath>
</defs>
</svg>
