<svg width="20" height="21" viewBox="0 0 20 21" fill="none" xmlns="http://www.w3.org/2000/svg">
<path d="M3.33203 5.83301C3.33203 4.72844 4.22746 3.83301 5.33203 3.83301H9.9987H11.6703C12.2007 3.83301 12.7094 4.04372 13.0845 4.41879L16.0796 7.41389C16.4547 7.78896 16.6654 8.29767 16.6654 8.8281V10.4997V15.1663C16.6654 16.2709 15.7699 17.1663 14.6654 17.1663H5.33203C4.22746 17.1663 3.33203 16.2709 3.33203 15.1663V5.83301Z" stroke="#737373" stroke-width="1.5" stroke-linecap="round" stroke-linejoin="round"/>
<path d="M6.66797 3.83301H10.8346V6.16634C10.8346 6.71863 10.3869 7.16634 9.83464 7.16634H7.66797C7.11568 7.16634 6.66797 6.71863 6.66797 6.16634V3.83301Z" stroke="#737373" stroke-width="1.5" stroke-linecap="round" stroke-linejoin="round"/>
<path d="M5.83203 13.333C5.83203 12.2284 6.72746 11.333 7.83203 11.333H12.1654C13.2699 11.333 14.1654 12.2284 14.1654 13.333V17.1663H5.83203V13.333Z" stroke="#737373" stroke-width="1.5" stroke-linecap="round" stroke-linejoin="round"/>
</svg>
