<svg width="20" height="21" viewBox="0 0 20 21" fill="none" xmlns="http://www.w3.org/2000/svg">
<path d="M10 12.1667V14.6667M6.66667 8.83333V6.33333C6.66667 4.49238 8.15905 3 10 3C11.5532 3 12.8583 4.06231 13.2283 5.5M15 13C15 15.7614 12.7614 18 10 18C7.23858 18 5 15.7614 5 13C5 10.2386 7.23858 8 10 8C12.7614 8 15 10.2386 15 13ZM10.8333 12.1667C10.8333 12.6269 10.4602 13 10 13C9.53976 13 9.16667 12.6269 9.16667 12.1667C9.16667 11.7064 9.53976 11.3333 10 11.3333C10.4602 11.3333 10.8333 11.7064 10.8333 12.1667Z" stroke="#737373" stroke-width="1.5" stroke-linecap="round" stroke-linejoin="round"/>
</svg>
