<svg width="80" height="80" viewBox="0 0 80 80" fill="none" xmlns="http://www.w3.org/2000/svg">
<g clip-path="url(#clip0_8055_2169)">
<path d="M66.4415 24.182C65.703 22.8879 64.875 21.6521 63.9663 20.4827C70.1318 12.8842 75.3824 5.82603 77.1407 2.34446C73.8061 4.18517 66.8815 9.58182 59.4873 15.8101C58.4361 14.9193 57.3258 14.0967 56.1617 13.3493C60.1343 8.30121 63.3229 3.8733 64.5389 1.46533C62.0512 2.83824 57.2048 6.54833 51.8055 11.0175C47.9869 9.34971 43.7687 8.42398 39.3354 8.42398C22.1131 8.42398 8.15191 22.3852 8.15191 39.6075C8.15191 44.3249 9.19952 48.7976 11.0743 52.8061C7.18406 57.7126 4.03586 62.015 2.86011 64.311C4.95084 63.1728 8.807 60.2729 13.2358 56.6811C14.0916 57.9877 15.0442 59.2253 16.0811 60.3858C10.5653 67.2154 5.92048 73.4285 4.3307 76.5318C7.3848 74.8695 13.6274 70.0249 20.3961 64.3853C21.6525 65.3478 22.9851 66.2162 24.3822 66.9806C20.9535 71.3404 18.2139 75.1186 17.1538 77.1896C19.3583 75.9897 23.6133 72.7429 28.3934 68.8186C31.7979 70.0948 35.4847 70.7929 39.3346 70.7929C56.5569 70.7929 70.5181 56.8316 70.5181 39.6093C70.5181 35.5739 69.7519 31.7169 68.3557 28.1771C72.0711 23.4436 75.0437 19.3051 76.189 17.0378C74.1896 18.141 70.5996 20.8214 66.4406 24.1838L66.4415 24.182Z" fill="#FCB300"/>
<path d="M39.3346 61.6332C51.4986 61.6332 61.3595 51.7723 61.3595 39.6083C61.3595 27.4443 51.4986 17.5835 39.3346 17.5835C27.1707 17.5835 17.3098 27.4443 17.3098 39.6083C17.3098 51.7723 27.1707 61.6332 39.3346 61.6332Z" fill="#1E1E1E"/>
</g>
<path d="M31.0833 41.7835L36.4333 47.1335L48.9166 34.6501" stroke="#FCB300" stroke-width="4.45833" stroke-linecap="round" stroke-linejoin="round"/>
<defs>
<clipPath id="clip0_8055_2169">
<rect width="74.2797" height="75.7234" fill="white" transform="translate(2.86011 1.46533)"/>
</clipPath>
</defs>
</svg>
