<svg width="24" height="24" viewBox="0 0 24 24" fill="none" xmlns="http://www.w3.org/2000/svg">
<path fill-rule="evenodd" clip-rule="evenodd" d="M6.94688 5.86111C5.91346 6.87554 5.21752 8.23258 5.04298 9.74832C3.01743 10.4886 1.57141 12.4316 1.57141 14.7142C1.57141 17.6334 3.93791 19.9999 6.85713 19.9999H8.97071L8.99998 20H17C18.1477 20 19.205 19.6133 20.0489 18.9631L18.6146 17.5289C18.1485 17.8271 17.5944 18 17 18H8.99998L8.97785 17.9999V17.9999H8.97071H6.85713C5.04248 17.9999 3.57141 16.5288 3.57141 14.7142C3.57141 13.1257 4.69958 11.7986 6.19893 11.4942C6.66596 11.3994 7.0012 10.9882 7 10.5117L6.99998 10.5C6.99998 9.23554 7.52151 8.09289 8.36118 7.27541L6.94688 5.86111ZM19.8509 15.9367C19.9476 15.642 20 15.3271 20 15C20 13.3431 18.6568 12 17 12H16.9776C16.6967 12 16.4289 11.8819 16.2394 11.6746C16.05 11.4673 15.9564 11.1899 15.9816 10.9102C15.9938 10.7754 16 10.6385 16 10.5C16 8.01472 13.9853 6 11.5 6C11.0213 6 10.5601 6.07474 10.1274 6.21318L8.59692 4.68272C9.47069 4.24583 10.4566 4 11.5 4C14.9547 4 17.7799 6.69515 17.9877 10.0975C20.2761 10.5561 22 12.5767 22 15C22 15.889 21.768 16.7237 21.3613 17.4471L19.8509 15.9367Z" fill="black"/>
<path d="M4 4L20 20" stroke="black" stroke-width="2" stroke-linecap="round" stroke-linejoin="round"/>
</svg>
