<svg width="24" height="24" viewBox="0 0 24 24" fill="none" xmlns="http://www.w3.org/2000/svg">
<path d="M17 19C19.2091 19 21 17.2091 21 15C21 12.7909 19.2091 11 17 11H16.9776C16.9924 10.8353 17 10.6685 17 10.5C17 7.46243 14.5376 5 11.5 5C8.46242 5 5.99998 7.46243 5.99998 10.5C5.99998 10.5047 5.99999 10.5095 6 10.5142C4.04379 10.9113 2.57141 12.6408 2.57141 14.7142C2.57141 17.0811 4.49019 18.9999 6.85713 18.9999" stroke="black" stroke-width="2" stroke-linecap="round" stroke-linejoin="round"/>
<path d="M12 19L12 14M12 14L14 16M12 14L10 16" stroke="black" stroke-width="2" stroke-linecap="round" stroke-linejoin="round"/>
</svg>
