<svg width="24" height="25" viewBox="0 0 24 25" fill="none" xmlns="http://www.w3.org/2000/svg">
<g clip-path="url(#clip0_3347_75103)">
<path d="M15.2484 12.3C15.7381 12.0018 16.1513 11.5934 16.4551 11.1073C16.7589 10.6212 16.945 10.0708 16.9984 9.5C17.0077 8.98388 16.9152 8.471 16.7262 7.99063C16.5373 7.51027 16.2555 7.07184 15.8971 6.70039C15.5386 6.32894 15.1105 6.03174 14.6372 5.82578C14.1638 5.61981 13.6546 5.50911 13.1384 5.5H6.64844V19.5H13.6484C14.1396 19.4948 14.6249 19.3929 15.0767 19.2001C15.5284 19.0073 15.9378 18.7274 16.2814 18.3764C16.6249 18.0253 16.896 17.6101 17.0791 17.1543C17.2622 16.6985 17.3537 16.2112 17.3484 15.72V15.6C17.3488 14.9071 17.1514 14.2285 16.7794 13.644C16.4074 13.0594 15.8763 12.5931 15.2484 12.3ZM8.64844 7.5H12.8484C13.2746 7.48681 13.6946 7.60428 14.0521 7.83665C14.4096 8.06902 14.6875 8.40517 14.8484 8.8C15.0113 9.32779 14.9586 9.89859 14.7019 10.3877C14.4452 10.8767 14.0053 11.2443 13.4784 11.41C13.2738 11.47 13.0617 11.5003 12.8484 11.5H8.64844V7.5ZM13.2484 17.5H8.64844V13.5H13.2484C13.6746 13.4868 14.0946 13.6043 14.4521 13.8367C14.8096 14.069 15.0875 14.4052 15.2484 14.8C15.4113 15.3278 15.3586 15.8986 15.1019 16.3877C14.8452 16.8767 14.4053 17.2443 13.8784 17.41C13.6738 17.47 13.4617 17.5003 13.2484 17.5Z" fill="#737373"/>
</g>
<defs>
<clipPath id="clip0_3347_75103">
<rect width="24" height="24" fill="white" transform="translate(0 0.5)"/>
</clipPath>
</defs>
</svg>
