<svg width="24" height="25" viewBox="0 0 24 25" fill="none" xmlns="http://www.w3.org/2000/svg">
<path d="M11.7586 9.5H13.7586L11.5586 19.5H9.55859L11.7586 9.5ZM13.4386 5.5C13.2408 5.5 13.0475 5.55865 12.883 5.66853C12.7186 5.77841 12.5904 5.93459 12.5147 6.11732C12.439 6.30004 12.4192 6.50111 12.4578 6.69509C12.4964 6.88907 12.5916 7.06725 12.7315 7.20711C12.8713 7.34696 13.0495 7.4422 13.2435 7.48079C13.4375 7.51937 13.6386 7.49957 13.8213 7.42388C14.004 7.34819 14.1602 7.22002 14.2701 7.05557C14.3799 6.89112 14.4386 6.69778 14.4386 6.5C14.4386 6.23478 14.3332 5.98043 14.1457 5.79289C13.9582 5.60536 13.7038 5.5 13.4386 5.5Z" fill="#737373"/>
</svg>
