<svg width="24" height="25" viewBox="0 0 24 25" fill="none" xmlns="http://www.w3.org/2000/svg">
<path d="M15.2504 12.3C15.74 12.0018 16.1532 11.5934 16.4571 11.1073C16.7609 10.6212 16.9469 10.0708 17.0004 9.5C17.0097 8.98388 16.9172 8.471 16.7282 7.99063C16.5392 7.51027 16.2575 7.07184 15.899 6.70039C15.5406 6.32894 15.1124 6.03174 14.6391 5.82578C14.1658 5.61981 13.6565 5.50911 13.1404 5.5H6.65039V19.5H13.6504C14.1415 19.4948 14.6269 19.3929 15.0786 19.2001C15.5304 19.0073 15.9397 18.7274 16.2833 18.3764C16.6269 18.0253 16.898 17.6101 17.0811 17.1543C17.2642 16.6985 17.3557 16.2112 17.3504 15.72V15.6C17.3507 14.9071 17.1533 14.2285 16.7813 13.644C16.4093 13.0594 15.8782 12.5931 15.2504 12.3ZM8.65039 7.5H12.8504C13.2766 7.48681 13.6966 7.60428 14.0541 7.83665C14.4116 8.06902 14.6894 8.40517 14.8504 8.8C15.0133 9.32779 14.9606 9.89859 14.7039 10.3877C14.4472 10.8767 14.0073 11.2443 13.4804 11.41C13.2758 11.47 13.0636 11.5003 12.8504 11.5H8.65039V7.5ZM13.2504 17.5H8.65039V13.5H13.2504C13.6766 13.4868 14.0966 13.6043 14.4541 13.8367C14.8116 14.069 15.0894 14.4052 15.2504 14.8C15.4133 15.3278 15.3606 15.8986 15.1039 16.3877C14.8472 16.8767 14.4073 17.2443 13.8804 17.41C13.6758 17.47 13.4636 17.5003 13.2504 17.5Z" fill="#737373"/>
</svg>
