<svg width="18" height="15" viewBox="0 0 18 15" fill="none" xmlns="http://www.w3.org/2000/svg">
<path d="M10.5498 14.5H12.5498L7.5498 0.5H5.5498L0.549805 14.5H2.5498L3.9498 10.5H9.0498L10.5498 14.5ZM4.64981 8.5L6.5498 3.3L8.4498 8.5H4.64981ZM17.4498 13C17.4498 13.2967 17.3618 13.5867 17.197 13.8334C17.0322 14.08 16.7979 14.2723 16.5238 14.3858C16.2497 14.4993 15.9481 14.5291 15.6572 14.4712C15.3662 14.4133 15.0989 14.2704 14.8891 14.0607C14.6794 13.8509 14.5365 13.5836 14.4786 13.2926C14.4207 13.0017 14.4505 12.7001 14.564 12.426C14.6775 12.1519 14.8698 11.9176 15.1164 11.7528C15.3631 11.588 15.6531 11.5 15.9498 11.5C16.3476 11.5 16.7292 11.658 17.0105 11.9393C17.2918 12.2206 17.4498 12.6022 17.4498 13ZM17.4498 9C17.4498 9.29667 17.3618 9.58668 17.197 9.83335C17.0322 10.08 16.7979 10.2723 16.5238 10.3858C16.2497 10.4994 15.9481 10.5291 15.6572 10.4712C15.3662 10.4133 15.0989 10.2704 14.8891 10.0607C14.6794 9.85088 14.5365 9.58361 14.4786 9.29264C14.4207 9.00166 14.4505 8.70006 14.564 8.42597C14.6775 8.15189 14.8698 7.91762 15.1164 7.7528C15.3631 7.58797 15.6531 7.5 15.9498 7.5C16.3476 7.5 16.7292 7.65804 17.0105 7.93934C17.2918 8.22064 17.4498 8.60218 17.4498 9ZM17.4498 5C17.4498 5.29667 17.3618 5.58668 17.197 5.83335C17.0322 6.08003 16.7979 6.27229 16.5238 6.38582C16.2497 6.49935 15.9481 6.52906 15.6572 6.47118C15.3662 6.4133 15.0989 6.27044 14.8891 6.06066C14.6794 5.85088 14.5365 5.58361 14.4786 5.29264C14.4207 5.00166 14.4505 4.70006 14.564 4.42597C14.6775 4.15189 14.8698 3.91762 15.1164 3.7528C15.3631 3.58797 15.6531 3.5 15.9498 3.5C16.3476 3.5 16.7292 3.65804 17.0105 3.93934C17.2918 4.22064 17.4498 4.60218 17.4498 5Z" fill="#737373"/>
</svg>
