<svg width="24" height="25" viewBox="0 0 24 25" fill="none" xmlns="http://www.w3.org/2000/svg">
<path d="M3 12.7031H21V14.2031H16.6342C16.8711 14.7003 16.9906 15.2452 16.9836 15.796C16.9977 16.3184 16.8855 16.8366 16.6567 17.3066C16.428 17.7765 16.0893 18.1844 15.6694 18.4957C14.6579 19.2073 13.4378 19.5609 12.2025 19.5001C11.3 19.5062 10.4062 19.3226 9.57916 18.9611C8.82387 18.6478 8.16917 18.133 7.68652 17.4729C7.24212 16.8428 7.00762 16.0886 7.01636 15.3175V15.2041H7.30359V15.203H7.64508V15.2041H9.02V15.3175C9.00433 15.6688 9.07382 16.0188 9.22253 16.3376C9.37125 16.6563 9.59479 16.9344 9.87413 17.1481C10.5515 17.6304 11.372 17.8698 12.2025 17.8274C12.9356 17.8753 13.6645 17.6836 14.2792 17.2812C14.507 17.1127 14.6901 16.8909 14.8124 16.6352C14.9346 16.3796 14.9923 16.0978 14.9804 15.8147C14.9964 15.5411 14.9459 15.2677 14.8332 15.018C14.7205 14.7682 14.5491 14.5494 14.3335 14.3803C14.2451 14.3162 14.1533 14.2571 14.0585 14.203H3V12.7031ZM16.3447 7.55992C15.9232 6.90493 15.3271 6.3807 14.6236 6.04631C13.8394 5.67272 12.9793 5.48577 12.1107 5.50011C10.8996 5.44813 9.70883 5.82415 8.74719 6.56224C8.33435 6.88109 8.00134 7.29159 7.77448 7.76131C7.54762 8.23103 7.43313 8.74708 7.44006 9.26866C7.43656 9.76295 7.54659 10.2515 7.76166 10.6965H10.3583C10.275 10.6429 10.173 10.5908 10.1056 10.5359C9.90219 10.3858 9.73702 10.1898 9.62358 9.96385C9.51014 9.73789 9.45164 9.48835 9.45282 9.23552C9.43773 8.94691 9.49242 8.65892 9.61226 8.39593C9.73209 8.13294 9.91354 7.9027 10.1412 7.72472C10.7173 7.32519 11.4109 7.13065 12.1107 7.17229C12.8717 7.12391 13.6231 7.36251 14.2167 7.84099C14.465 8.07478 14.6594 8.35979 14.7865 8.67624C14.9136 8.99269 14.9703 9.33301 14.9527 9.67357V9.78698H16.9559V9.67357C16.9592 8.92497 16.7471 8.19122 16.3447 7.55992Z" fill="#737373"/>
</svg>
