<svg width="24" height="25" viewBox="0 0 24 25" fill="none" xmlns="http://www.w3.org/2000/svg">
<path d="M19 20.5V22.5H5V20.5H19ZM16 13.715C15.9671 14.375 15.7711 15.0165 15.4297 15.5823C15.0883 16.1481 14.6121 16.6205 14.0435 16.9572C13.475 17.294 12.8318 17.4847 12.1716 17.5122C11.5114 17.5397 10.8546 17.4033 10.26 17.115C9.57464 16.8185 8.99341 16.3241 8.59077 15.6952C8.18813 15.0663 7.98242 14.3315 8 13.585V5.505H6V13.715C6.03383 14.6564 6.28885 15.5766 6.74442 16.4012C7.19998 17.2257 7.84329 17.9314 8.62227 18.4611C9.40125 18.9908 10.294 19.3296 11.2283 19.4502C12.1625 19.5707 13.1121 19.4696 14 19.155C15.1811 18.7613 16.2059 18.0012 16.9252 16.985C17.6446 15.9689 18.0211 14.7498 18 13.505V5.505H16V13.715ZM16 5.5H18H16ZM8 5.5H6H8Z" fill="#737373"/>
</svg>
