<svg width="24" height="24" viewBox="0 0 24 24" fill="none" xmlns="http://www.w3.org/2000/svg">
<path d="M6.07179 6.26794L6.57179 5.40192L6.07179 6.26794ZM4.70577 6.63397L3.83974 6.13397L3.83974 6.13397L4.70577 6.63397ZM3.70577 8.36602L2.83974 7.86602H2.83974L3.70577 8.36602ZM4.07179 9.73205L3.57179 10.5981H3.57179L4.07179 9.73205ZM4.07179 14.2679L3.57179 13.4019H3.57179L4.07179 14.2679ZM3.70577 15.634L4.57179 15.134H4.57179L3.70577 15.634ZM4.70577 17.366L3.83974 17.866H3.83974L4.70577 17.366ZM6.07179 17.732L6.57179 18.5981L6.07179 17.732ZM17.9282 17.732L17.4282 18.5981L17.4282 18.5981L17.9282 17.732ZM19.2942 17.366L18.4282 16.866L19.2942 17.366ZM20.2942 15.634L21.1602 16.134L20.2942 15.634ZM19.9282 14.2679L19.4282 15.134V15.134L19.9282 14.2679ZM19.9282 9.73205L20.4282 10.5981V10.5981L19.9282 9.73205ZM20.2942 8.36602L19.4282 8.86602L19.4282 8.86602L20.2942 8.36602ZM19.2942 6.63397L18.4282 7.13397L19.2942 6.63397ZM17.9282 6.26794L18.4282 7.13397L17.9282 6.26794ZM14.6512 6.61604L14.2088 7.51283L14.6512 6.61604ZM16.5118 7.08573L17.0118 7.95175L16.5118 7.08573ZM15.3358 7.01204L14.7792 7.84277L15.3358 7.01204ZM17.9871 11.6035L16.9892 11.6686L17.9871 11.6035ZM18.5116 10.5499L18.0116 9.68388L18.5116 10.5499ZM15.3358 16.988L14.7792 16.1572L15.3358 16.988ZM16.5118 16.9143L16.0118 17.7803L16.5118 16.9143ZM18.5116 13.4501L18.0116 14.3161L18.5116 13.4501ZM9.34876 17.384L9.79121 16.4872L9.34876 17.384ZM7.48823 16.9143L6.98823 16.0482L7.48823 16.9143ZM8.66415 16.988L8.10747 17.8187L8.66415 16.988ZM14.6512 17.384L15.0937 18.2808L14.6512 17.384ZM5.48837 10.5499L4.98837 11.4159L5.48837 10.5499ZM6.01289 11.6035L5.01501 11.5385L6.01289 11.6035ZM7.48824 7.08573L6.98824 7.95176L7.48824 7.08573ZM11 4V4V2C9.89543 2 9 2.89543 9 4H11ZM11 5.63424V4H9V5.63424H11ZM9.22084 7.84277C9.40297 7.72073 9.59345 7.6104 9.79121 7.51283L8.90631 5.71924C8.62907 5.85603 8.3623 6.01056 8.10748 6.18131L9.22084 7.84277ZM5.57179 7.13397L6.98824 7.95176L7.98824 6.2197L6.57179 5.40192L5.57179 7.13397ZM5.57179 7.13397L6.57179 5.40192C5.61521 4.84963 4.39203 5.17738 3.83974 6.13397L5.57179 7.13397ZM4.57179 8.86602L5.57179 7.13397L3.83974 6.13397L2.83974 7.86602L4.57179 8.86602ZM4.57179 8.86602L4.57179 8.86602L2.83974 7.86602C2.28746 8.82261 2.61521 10.0458 3.57179 10.5981L4.57179 8.86602ZM5.98837 9.68388L4.57179 8.86602L3.57179 10.5981L4.98837 11.4159L5.98837 9.68388ZM7 12C7 11.8885 7.00363 11.778 7.01076 11.6686L5.01501 11.5385C5.00505 11.6912 5 11.8451 5 12H7ZM7.01076 12.3314C7.00363 12.222 7 12.1115 7 12H5C5 12.1549 5.00505 12.3088 5.01501 12.4615L7.01076 12.3314ZM4.57179 15.134L5.98836 14.3161L4.98836 12.5841L3.57179 13.4019L4.57179 15.134ZM4.57179 15.134L4.57179 15.134L3.57179 13.4019C2.61521 13.9542 2.28746 15.1774 2.83974 16.134L4.57179 15.134ZM5.57179 16.866L4.57179 15.134L2.83974 16.134L3.83974 17.866L5.57179 16.866ZM5.57179 16.866L5.57179 16.866L3.83974 17.866C4.39203 18.8226 5.61521 19.1504 6.57179 18.5981L5.57179 16.866ZM6.98823 16.0482L5.57179 16.866L6.57179 18.5981L7.98823 17.7803L6.98823 16.0482ZM9.79121 16.4872C9.59345 16.3896 9.40296 16.2793 9.22083 16.1572L8.10747 17.8187C8.3623 17.9894 8.62907 18.144 8.90631 18.2808L9.79121 16.4872ZM11 20V18.3658H9V20H11ZM11 20H9C9 21.1046 9.89543 22 11 22V20ZM13 20H11V22H13V20ZM13 20V22C14.1046 22 15 21.1046 15 20H13ZM13 18.3658V20H15V18.3658H13ZM14.7792 16.1572C14.597 16.2793 14.4065 16.3896 14.2088 16.4872L15.0937 18.2808C15.3709 18.144 15.6377 17.9894 15.8925 17.8187L14.7792 16.1572ZM18.4282 16.866L17.0118 16.0482L16.0118 17.7803L17.4282 18.5981L18.4282 16.866ZM18.4282 16.866H18.4282L17.4282 18.5981C18.3848 19.1504 19.608 18.8226 20.1602 17.866L18.4282 16.866ZM19.4282 15.134L18.4282 16.866L20.1602 17.866L21.1602 16.134L19.4282 15.134ZM19.4282 15.134V15.134L21.1602 16.134C21.7125 15.1774 21.3848 13.9542 20.4282 13.4019L19.4282 15.134ZM18.0116 14.3161L19.4282 15.134L20.4282 13.4019L19.0116 12.5841L18.0116 14.3161ZM17 12C17 12.1115 16.9964 12.222 16.9892 12.3314L18.985 12.4615C18.9949 12.3088 19 12.1549 19 12H17ZM16.9892 11.6686C16.9964 11.778 17 11.8885 17 12H19C19 11.8451 18.9949 11.6912 18.985 11.5385L16.9892 11.6686ZM19.4282 8.86602L18.0116 9.68388L19.0116 11.4159L20.4282 10.5981L19.4282 8.86602ZM19.4282 8.86602L19.4282 8.86602L20.4282 10.5981C21.3848 10.0458 21.7125 8.82261 21.1602 7.86602L19.4282 8.86602ZM18.4282 7.13397L19.4282 8.86602L21.1602 7.86602L20.1602 6.13397L18.4282 7.13397ZM18.4282 7.13397V7.13397L20.1602 6.13397C19.608 5.17738 18.3848 4.84963 17.4282 5.40192L18.4282 7.13397ZM17.0118 7.95175L18.4282 7.13397L17.4282 5.40192L16.0118 6.2197L17.0118 7.95175ZM14.2088 7.51283C14.4065 7.6104 14.597 7.72072 14.7792 7.84277L15.8925 6.18131C15.6377 6.01056 15.3709 5.85603 15.0937 5.71924L14.2088 7.51283ZM13 4V5.63423H15V4H13ZM13 4H15C15 2.89543 14.1046 2 13 2V4ZM11 4H13V2H11V4ZM15.0937 5.71924C15.0509 5.69815 15.023 5.67053 15.0092 5.65025C14.9971 5.63248 15 5.62788 15 5.63423H13C13 6.50299 13.549 7.18731 14.2088 7.51283L15.0937 5.71924ZM16.0118 6.2197C16.0172 6.21655 16.0147 6.22132 15.9935 6.21972C15.9693 6.21789 15.9318 6.20762 15.8925 6.18131L14.7792 7.84277C15.3914 8.25303 16.2592 8.38623 17.0118 7.95175L16.0118 6.2197ZM18.985 11.5385C18.9819 11.4913 18.9918 11.4537 19.0024 11.4318C19.0116 11.4126 19.017 11.4128 19.0116 11.4159L18.0116 9.68388C17.2602 10.1177 16.9413 10.9342 16.9892 11.6686L18.985 11.5385ZM15.8925 17.8187C15.9318 17.7924 15.9693 17.7821 15.9935 17.7803C16.0147 17.7787 16.0172 17.7834 16.0118 17.7803L17.0118 16.0482C16.2592 15.6138 15.3914 15.747 14.7792 16.1572L15.8925 17.8187ZM19.0116 12.5841C19.017 12.5872 19.0116 12.5874 19.0024 12.5682C18.9918 12.5462 18.9819 12.5087 18.985 12.4615L16.9892 12.3314C16.9413 13.0658 17.2602 13.8823 18.0116 14.3161L19.0116 12.5841ZM8.90631 18.2808C8.94907 18.3019 8.97696 18.3295 8.99079 18.3497C9.00291 18.3675 9 18.3721 9 18.3658H11C11 17.497 10.451 16.8127 9.79121 16.4872L8.90631 18.2808ZM7.98823 17.7803C7.98277 17.7834 7.98524 17.7787 8.00646 17.7803C8.03069 17.7821 8.06821 17.7924 8.10747 17.8187L9.22083 16.1572C8.6086 15.747 7.74076 15.6138 6.98823 16.0482L7.98823 17.7803ZM15 18.3658C15 18.3721 14.9971 18.3675 15.0092 18.3497C15.023 18.3295 15.0509 18.3019 15.0937 18.2808L14.2088 16.4872C13.549 16.8127 13 17.497 13 18.3658H15ZM5.01501 12.4615C5.01808 12.5086 5.00818 12.5462 4.99762 12.5682C4.98836 12.5874 4.98295 12.5872 4.98836 12.5841L5.98836 14.3161C6.73976 13.8823 7.05867 13.0658 7.01076 12.3314L5.01501 12.4615ZM4.98837 11.4159C4.98295 11.4128 4.98836 11.4126 4.99762 11.4318C5.00818 11.4537 5.01808 11.4913 5.01501 11.5385L7.01076 11.6686C7.05867 10.9342 6.73976 10.1177 5.98837 9.68388L4.98837 11.4159ZM8.10748 6.18131C8.06822 6.20763 8.0307 6.21789 8.00647 6.21972C7.98525 6.22133 7.98278 6.21655 7.98824 6.2197L6.98824 7.95176C7.74077 8.38623 8.60861 8.25303 9.22084 7.84277L8.10748 6.18131ZM9 5.63424C9 5.62788 9.00291 5.63248 8.99079 5.65025C8.97696 5.67053 8.94907 5.69815 8.90631 5.71924L9.79121 7.51283C10.451 7.18731 11 6.50299 11 5.63424H9Z" fill="black"/>
<circle cx="12" cy="12" r="3" stroke="black" stroke-width="2" stroke-linecap="round" stroke-linejoin="round"/>
</svg>
