<svg width="24" height="24" viewBox="0 0 24 24" fill="none" xmlns="http://www.w3.org/2000/svg">
<path d="M4 4L21 21" stroke="black" stroke-width="2" stroke-linecap="round" stroke-linejoin="round"/>
<path d="M8 6.91406V7C8 9.20914 9.79086 11 12 11C12.0278 11 12.0554 10.9976 12.083 10.9971L17.9971 16.9111C17.9975 16.9407 18 16.9703 18 17V20C18.5523 20 19 20.4477 19 21C19 21.5523 18.5523 22 18 22H6C5.44772 22 5 21.5523 5 21C5 20.4477 5.44772 20 6 20V17C6 14.9129 7.06576 13.0749 8.68262 12C7.06576 10.9251 6 9.08709 6 7V4.91406L8 6.91406ZM12 13C9.79086 13 8 14.7909 8 17V20H16V17L15.9951 16.7939C15.8879 14.6806 14.14 13 12 13ZM18 2C18.5523 2 19 2.44772 19 3C19 3.55228 18.5523 4 18 4V7C18 8.93379 17.0836 10.6518 15.6631 11.749L14.2324 10.3184C15.2984 9.59983 16 8.38221 16 7V4H8V4.08594L5.91797 2.00391C5.94504 2.00171 5.97236 2 6 2H18Z" fill="black"/>
</svg>
