<svg width="24" height="24" viewBox="0 0 24 24" fill="none" xmlns="http://www.w3.org/2000/svg">
<path d="M17 3H7C4.79086 3 3 4.79086 3 7V15C3 17.2091 4.54086 19 6.75 19L8.2 20.9333C8.6 21.4667 9.4 21.4667 9.8 20.9333L11.25 19H17C19.2091 19 21 17.2091 21 15V7C21 4.79086 19.2091 3 17 3Z" stroke="black" stroke-width="2" stroke-linecap="round" stroke-linejoin="round"/>
<path d="M9 13.923V8.07699C9 7.5971 9.51843 7.29624 9.93509 7.53434L15.0504 10.4573C15.4702 10.6973 15.4702 11.3027 15.0504 11.5427L9.93509 14.4657C9.51843 14.7038 9 14.4029 9 13.923Z" fill="black"/>
</svg>
