<svg width="24" height="24" viewBox="0 0 24 24" fill="none" xmlns="http://www.w3.org/2000/svg">
<path d="M3 6.83337C3 4.62423 4.79086 2.83337 7 2.83337H17C19.2091 2.83337 21 4.62423 21 6.83337V14.8334C21 17.0425 19.2091 18.8334 17 18.8334H14.25L12.8 20.7667C12.4 21.3 11.6 21.3 11.2 20.7667L9.75 18.8334H7C4.79086 18.8334 3 17.0425 3 14.8334V6.83337Z" stroke="black" stroke-width="2" stroke-linecap="round" stroke-linejoin="round"/>
<path d="M15.8507 14.9688V11.5199C15.8507 10.4154 14.9553 9.51992 13.8507 9.51992H8.14931M8.14931 9.51992L10.6354 7.03381M8.14931 9.51992L10.6354 12.006" stroke="black" stroke-width="2" stroke-linecap="round" stroke-linejoin="round"/>
</svg>
