<svg width="24" height="24" viewBox="0 0 24 24" fill="none" xmlns="http://www.w3.org/2000/svg">
<path d="M8 19C8.53043 19 9.03914 18.7893 9.41421 18.4142C9.78929 18.0391 10 17.5304 10 17V9C10 7.93913 9.57857 6.92172 8.82843 6.17157C8.07828 5.42143 7.06087 5 6 5M6 5C4.93913 5 3.92172 5.42143 3.17157 6.17157C2.42143 6.92172 2 7.93913 2 9V17C2 17.5304 2.21071 18.0391 2.58579 18.4142C2.96086 18.7893 3.46957 19 4 19H20C20.5304 19 21.0391 18.7893 21.4142 18.4142C21.7893 18.0391 22 17.5304 22 17V9C22 7.93913 21.5786 6.92172 20.8284 6.17157C20.0783 5.42143 19.0609 5 18 5H6ZM2 11H22M16 11V14" stroke="black" stroke-width="2" stroke-linecap="round" stroke-linejoin="round"/>
</svg>
