<svg width="64" height="64" viewBox="0 0 64 64" fill="none" xmlns="http://www.w3.org/2000/svg">
<path d="M45.3336 50.6666C51.2247 50.6666 56.0003 45.891 56.0003 39.9999C56.0003 34.1089 51.2247 29.3333 45.3336 29.3333H45.2738C45.3134 28.8941 45.3336 28.4494 45.3336 27.9999C45.3336 19.8997 38.7671 13.3333 30.667 13.3333C22.5668 13.3333 16.0003 19.8997 16.0003 27.9999C16.0003 28.0125 16.0003 28.0252 16.0003 28.0378C10.7838 29.0966 6.85742 33.7087 6.85742 39.2377C6.85742 45.5496 11.9742 50.6663 18.286 50.6663" stroke="#737373" stroke-width="4" stroke-linecap="round" stroke-linejoin="round"/>
<path d="M31.9997 50.6667L31.9997 37.3334M31.9997 37.3334L37.333 42.6667M31.9997 37.3334L26.6663 42.6667" stroke="#737373" stroke-width="4" stroke-linecap="round" stroke-linejoin="round"/>
</svg>
