<svg width="24" height="24" viewBox="0 0 24 24" fill="none" xmlns="http://www.w3.org/2000/svg">
<path d="M19.8387 10.7124L10.7877 20.2946C10.4853 20.6146 10.0819 20.8206 9.64537 20.8779C9.20884 20.9351 8.76592 20.8402 8.39124 20.609C8.01657 20.3777 7.73306 20.0244 7.58849 19.6086C7.44392 19.1927 7.44713 18.7397 7.59758 18.326L9.03492 14.3721H5.68706C5.36203 14.3721 5.04195 14.2925 4.75484 14.1401C4.46773 13.9878 4.22233 13.7674 4.04012 13.4982C3.85792 13.2291 3.74445 12.9193 3.70967 12.5962C3.67488 12.273 3.71983 11.9463 3.84057 11.6445L6.59547 4.75783C6.79104 4.27063 7.1278 3.85303 7.56248 3.55866C7.99717 3.26429 8.50994 3.10659 9.03492 3.10583H13.7786C14.9266 3.10583 15.72 4.25262 15.3179 5.32707L14.3716 7.84953H18.6041C18.9357 7.84952 19.2601 7.94664 19.5371 8.12891C19.814 8.31117 20.0316 8.5706 20.1628 8.87512C20.294 9.17965 20.3331 9.51594 20.2753 9.84245C20.2175 10.169 20.0665 10.4714 19.8387 10.7124Z" stroke="black" stroke-width="2"/>
</svg>
