<svg width="24" height="24" viewBox="0 0 24 24" fill="none" xmlns="http://www.w3.org/2000/svg">
<path d="M5 5L19 19" stroke="black" stroke-width="2" stroke-linecap="round"/>
<path fill-rule="evenodd" clip-rule="evenodd" d="M7.19213 6.10634C7.18739 6.10865 7.18265 6.11095 7.17791 6.11327C5.61768 6.87424 4.2597 7.99367 3.215 9.38003C2.88263 9.82111 2.97075 10.4481 3.41182 10.7805C3.8529 11.1129 4.4799 11.0247 4.81227 10.5837C5.66703 9.44937 6.7781 8.53347 8.05465 7.91085C8.26931 7.80616 8.48763 7.71025 8.70905 7.62326L7.19213 6.10634ZM10.2742 9.18837C9.66015 9.32403 9.06214 9.53207 8.49302 9.80965C7.35831 10.3631 6.37069 11.1772 5.61091 12.1855C5.27854 12.6266 5.36665 13.2536 5.80773 13.5859C6.2488 13.9183 6.87581 13.8302 7.20818 13.3891C7.77802 12.6329 8.51873 12.0223 9.36977 11.6072C10.2153 11.1948 11.1459 10.9871 12.0864 11.0006L10.2742 9.18837ZM17.8876 13.9733L12.9737 9.05948C13.9446 9.17853 14.8879 9.47497 15.7558 9.93642C16.8705 10.5291 17.8291 11.3772 18.5532 12.4114C18.87 12.8638 18.76 13.4873 18.3076 13.8041C18.1779 13.8949 18.0341 13.9507 17.8876 13.9733ZM10.973 7.05879L9.26074 5.34653C10.2147 5.10125 11.2005 4.98437 12.192 5.00168C13.9276 5.03197 15.6315 5.47261 17.1642 6.28758C18.6969 7.10254 20.015 8.26868 21.0107 9.69066C21.3274 10.1431 21.2175 10.7666 20.7651 11.0834C20.3127 11.4002 19.6891 11.2902 19.3724 10.8378C18.5577 9.67438 17.4793 8.72026 16.2252 8.05347C14.9712 7.38669 13.5771 7.02616 12.1571 7.00137C11.7604 6.99445 11.3649 7.01377 10.973 7.05879ZM13 18C13 17.4477 12.5523 17 12 17C11.4477 17 11 17.4477 11 18C11 18.5523 11.4477 19 12 19C12.5523 19 13 18.5523 13 18ZM10.2465 13.4048C10.8139 13.1281 11.4387 12.9896 12.0698 13.0006C12.7009 13.0116 13.3205 13.1719 13.8779 13.4682C14.4352 13.7646 14.9145 14.1886 15.2766 14.7057C15.5934 15.1581 15.4834 15.7816 15.031 16.0984C14.5786 16.4152 13.9551 16.3053 13.6383 15.8528C13.4573 15.5943 13.2176 15.3823 12.9389 15.2341C12.6603 15.0859 12.3505 15.0058 12.0349 15.0003C11.7193 14.9948 11.4069 15.0641 11.1233 15.2024C10.8396 15.3408 10.5927 15.5443 10.4027 15.7964C10.0703 16.2374 9.44335 16.3256 9.00227 15.9932C8.5612 15.6608 8.47308 15.0338 8.80545 14.5927C9.18534 14.0886 9.67915 13.6815 10.2465 13.4048Z" fill="black"/>
</svg>
