<svg width="40" height="41" viewBox="0 0 40 41" fill="none" xmlns="http://www.w3.org/2000/svg">
<g clip-path="url(#clip0_3851_128949)">
<path d="M9 1.58557H26.0439L34.25 9.12268V36.8356C34.25 38.6304 32.7948 40.0855 31 40.0856H9C7.20507 40.0856 5.75 38.6305 5.75 36.8356V4.83557C5.75 3.04065 7.20508 1.58557 9 1.58557Z" stroke="#D0D5DD" stroke-width="1.5"/>
<mask id="path-2-inside-1_3851_128949" fill="white">
<path d="M25 1.83557H33.5V10.3356H26C25.4477 10.3356 25 9.88786 25 9.33557V1.83557Z"/>
</mask>
<path d="M25 1.83557H33.5H25ZM33.5 11.3356H26C24.8954 11.3356 24 10.4401 24 9.33557H26H33.5V11.3356ZM26 11.3356C24.8954 11.3356 24 10.4401 24 9.33557V1.83557H26V9.33557V11.3356ZM33.5 1.83557V10.3356V1.83557Z" fill="#D0D5DD" mask="url(#path-2-inside-1_3851_128949)"/>
<rect x="1" y="20.8356" width="29" height="13" rx="2" fill="#FDB022"/>
<path d="M11.8971 23.8156V30.8356H10.1871V26.6256L8.61715 30.8356H7.23715L5.65715 26.6156V30.8356H3.94715V23.8156H5.96715L7.93715 28.6756L9.88715 23.8156H11.8971ZM16.4468 30.9056C15.7868 30.9056 15.1802 30.7522 14.6268 30.4456C14.0802 30.1389 13.6435 29.7122 13.3168 29.1656C12.9968 28.6122 12.8368 27.9922 12.8368 27.3056C12.8368 26.6189 12.9968 26.0022 13.3168 25.4556C13.6435 24.9089 14.0802 24.4822 14.6268 24.1756C15.1802 23.8689 15.7868 23.7156 16.4468 23.7156C17.1068 23.7156 17.7102 23.8689 18.2568 24.1756C18.8102 24.4822 19.2435 24.9089 19.5568 25.4556C19.8768 26.0022 20.0368 26.6189 20.0368 27.3056C20.0368 27.9922 19.8768 28.6122 19.5568 29.1656C19.2368 29.7122 18.8035 30.1389 18.2568 30.4456C17.7102 30.7522 17.1068 30.9056 16.4468 30.9056ZM16.4468 29.3456C17.0068 29.3456 17.4535 29.1589 17.7868 28.7856C18.1268 28.4122 18.2968 27.9189 18.2968 27.3056C18.2968 26.6856 18.1268 26.1922 17.7868 25.8256C17.4535 25.4522 17.0068 25.2656 16.4468 25.2656C15.8802 25.2656 15.4268 25.4489 15.0868 25.8156C14.7535 26.1822 14.5868 26.6789 14.5868 27.3056C14.5868 27.9256 14.7535 28.4222 15.0868 28.7956C15.4268 29.1622 15.8802 29.3456 16.4468 29.3456ZM27.5782 23.8156L25.0882 30.8356H22.9482L20.4582 23.8156H22.2782L24.0182 29.1156L25.7682 23.8156H27.5782Z" fill="white"/>
</g>
<defs>
<clipPath id="clip0_3851_128949">
<rect width="40" height="40" fill="white" transform="translate(0 0.835571)"/>
</clipPath>
</defs>
</svg>
