<svg width="40" height="41" viewBox="0 0 40 41" fill="none" xmlns="http://www.w3.org/2000/svg">
<g clip-path="url(#clip0_215_62462)">
<path d="M9 1.01562H26.0439L34.25 8.55273V36.2656C34.25 38.0605 32.7948 39.5155 31 39.5156H9C7.20507 39.5156 5.75 38.0606 5.75 36.2656V4.26562C5.75 2.4707 7.20508 1.01563 9 1.01562Z" stroke="#D0D5DD" stroke-width="1.5"/>
<mask id="path-2-inside-1_215_62462" fill="white">
<path d="M25 1.26562H33.5V9.76562H26C25.4477 9.76562 25 9.31791 25 8.76562V1.26562Z"/>
</mask>
<path d="M25 1.26562H33.5H25ZM33.5 10.7656H26C24.8954 10.7656 24 9.87019 24 8.76562H26H33.5V10.7656ZM26 10.7656C24.8954 10.7656 24 9.87019 24 8.76562V1.26562H26V8.76562V10.7656ZM33.5 1.26562V9.76562V1.26562Z" fill="#D0D5DD" mask="url(#path-2-inside-1_215_62462)"/>
<rect x="1" y="20.2656" width="27" height="13" rx="2" fill="#FDB022"/>
<path d="M11.9763 23.2456V30.2656H10.2663V26.0556L8.69625 30.2656H7.31625L5.73625 26.0456V30.2656H4.02625V23.2456H6.04625L8.01625 28.1056L9.96625 23.2456H11.9763ZM18.5559 25.5056C18.5559 25.9123 18.4626 26.2856 18.2759 26.6256C18.0893 26.959 17.8026 27.229 17.4159 27.4356C17.0293 27.6423 16.5493 27.7456 15.9759 27.7456H14.9159V30.2656H13.2059V23.2456H15.9759C16.5359 23.2456 17.0093 23.3423 17.3959 23.5356C17.7826 23.729 18.0726 23.9956 18.2659 24.3356C18.4593 24.6756 18.5559 25.0656 18.5559 25.5056ZM15.8459 26.3856C16.1726 26.3856 16.4159 26.309 16.5759 26.1556C16.7359 26.0023 16.8159 25.7856 16.8159 25.5056C16.8159 25.2256 16.7359 25.009 16.5759 24.8556C16.4159 24.7023 16.1726 24.6256 15.8459 24.6256H14.9159V26.3856H15.8459ZM19.3162 28.9656V27.5856L22.4762 23.0656H24.3862V27.4856H25.2062V28.9656H24.3862V30.2656H22.6762V28.9656H19.3162ZM22.7962 24.9456L21.1162 27.4856H22.7962V24.9456Z" fill="white"/>
</g>
<defs>
<clipPath id="clip0_215_62462">
<rect width="40" height="40" fill="white" transform="translate(0 0.265625)"/>
</clipPath>
</defs>
</svg>
