<svg width="24" height="24" viewBox="0 0 24 24" fill="none" xmlns="http://www.w3.org/2000/svg">
<path d="M3 6.81161C3 5.03787 4.34248 3.59998 5.99852 3.59998H13.4948C15.1509 3.59998 16.4933 5.03787 16.4933 6.81161V13.2349C16.4933 15.0086 15.1509 16.4465 13.4948 16.4465H8.43482L7.34785 17.9988C7.048 18.427 6.4483 18.427 6.14845 17.9988L5.06148 16.4465C3.40545 16.4465 3 15.0086 3 13.2349V6.81161Z" stroke="black" stroke-width="2" stroke-linecap="round" stroke-linejoin="round"/>
<path d="M18.8835 9.73328C19.4801 9.73328 20.0282 9.95407 20.4595 10.323C21.033 10.8136 21.4 11.566 21.4 12.4096V17.7624C21.4 19.2405 21.0597 20.4387 19.6699 20.4387L18.7577 21.7323C18.5061 22.0892 18.0028 22.0892 17.7511 21.7323L16.8389 20.4387H12.5924C11.9488 20.4387 11.3615 20.1817 10.9165 19.7589C10.6906 19.5443 10.5014 19.2869 10.36 18.9987" stroke="black" stroke-width="2" stroke-linecap="round" stroke-linejoin="round"/>
<path d="M7.77522 10.9601H10.36V7.14868" stroke="black" stroke-width="2" stroke-linecap="round"/>
</svg>
