<svg width="24" height="24" viewBox="0 0 24 24" fill="none" xmlns="http://www.w3.org/2000/svg">
<path d="M11.4216 5.34681L11.8885 4.46251C11.6388 4.33065 11.3449 4.31053 11.0796 4.40712L11.4216 5.34681ZM8.60251 6.37287L8.26049 5.43318C7.96713 5.53995 7.74047 5.7776 7.64769 6.07568C7.55491 6.37376 7.60666 6.69806 7.7876 6.95247L8.60251 6.37287ZM15.3736 7.43348L14.9067 8.31778C15.1757 8.45982 15.4948 8.47168 15.7736 8.35001L15.3736 7.43348ZM21.0969 9.27453L20.7549 8.33483L21.0969 9.27453ZM7.70772 14.1478L7.02019 14.8739C7.29524 15.1344 7.69381 15.217 8.04974 15.0875L7.70772 14.1478ZM6.89589 13.3791L7.58342 12.653C7.30837 12.3926 6.9098 12.3099 6.55387 12.4394L6.89589 13.3791ZM6.89587 13.3791L6.20834 14.1053C6.48338 14.3657 6.88196 14.4484 7.23789 14.3188L6.89587 13.3791ZM5.27212 11.8417L5.95966 11.1156L5.95966 11.1156L5.27212 11.8417ZM3.6484 10.3044L3.30638 9.36468C2.9807 9.48322 2.73962 9.76193 2.66924 10.1013C2.59885 10.4406 2.70919 10.7922 2.96086 11.0305L3.6484 10.3044ZM6.46747 9.27831L7.15501 8.55216C6.87996 8.29174 6.48138 8.20907 6.12545 8.33862L6.46747 9.27831ZM7.94358 10.6759L7.25605 11.4021C7.5475 11.678 7.9757 11.753 8.34356 11.5924L7.94358 10.6759ZM10.782 9.43723L11.182 10.3538C11.4581 10.2333 11.6651 9.99476 11.7456 9.70449C11.8262 9.41421 11.7715 9.10311 11.5969 8.85764L10.782 9.43723ZM11.0796 4.40712L8.26049 5.43318L8.94453 7.31256L11.7636 6.2865L11.0796 4.40712ZM15.8405 6.54918L11.8885 4.46251L10.9547 6.23111L14.9067 8.31778L15.8405 6.54918ZM16.1296 6.01247L14.9736 6.51695L15.7736 8.35001L16.9296 7.84553L16.1296 6.01247ZM22.1869 8.61011C21.2949 6.1593 18.52 4.96931 16.1296 6.01247L16.9296 7.84553C18.2626 7.26379 19.8101 7.92741 20.3075 9.29415L22.1869 8.61011ZM21.4389 10.2142C22.0884 9.97781 22.4233 9.25963 22.1869 8.61011L20.3075 9.29415C20.1662 8.90572 20.3664 8.47621 20.7549 8.33483L21.4389 10.2142ZM8.04974 15.0875L21.4389 10.2142L20.7549 8.33483L7.3657 13.2081L8.04974 15.0875ZM6.20836 14.1053L7.02019 14.8739L8.39525 13.4216L7.58342 12.653L6.20836 14.1053ZM6.55387 12.4394L6.55385 12.4394L7.23789 14.3188L7.23791 14.3188L6.55387 12.4394ZM7.58341 12.653L5.95966 11.1156L4.58459 12.5679L6.20834 14.1053L7.58341 12.653ZM5.95966 11.1156L4.33593 9.57822L2.96086 11.0305L4.58459 12.5679L5.95966 11.1156ZM3.99042 11.2441L6.80949 10.218L6.12545 8.33862L3.30638 9.36468L3.99042 11.2441ZM5.77994 10.0045L7.25605 11.4021L8.63112 9.94977L7.15501 8.55216L5.77994 10.0045ZM10.3821 8.52071L7.54361 9.75939L8.34356 11.5924L11.182 10.3538L10.3821 8.52071ZM7.7876 6.95247L9.96712 10.0168L11.5969 8.85764L9.41741 5.79327L7.7876 6.95247Z" fill="black"/>
<path d="M4 19L20 19" stroke="black" stroke-width="2" stroke-linecap="round" stroke-linejoin="round"/>
</svg>
