<svg width="24" height="24" viewBox="0 0 24 24" fill="none" xmlns="http://www.w3.org/2000/svg">
<path d="M12.1591 19.2727C11 19.2727 9.97538 19.1136 9.08523 18.7955C8.19508 18.4811 7.44697 18.017 6.84091 17.4034C6.23485 16.7898 5.77652 16.0379 5.46591 15.1477C5.1553 14.2576 5 13.2386 5 12.0909C5 10.9811 5.1572 9.98864 5.47159 9.11364C5.78977 8.23864 6.25 7.49621 6.85227 6.88636C7.45833 6.27273 8.19318 5.80492 9.05682 5.48295C9.92424 5.16098 10.9053 5 12 5C13.0644 5 13.9962 5.17424 14.7955 5.52273C15.5985 5.86742 16.2689 6.33523 16.8068 6.92614C17.3485 7.51326 17.7538 8.17424 18.0227 8.90909C18.2955 9.64394 18.4318 10.4015 18.4318 11.1818C18.4318 11.7311 18.4053 12.2879 18.3523 12.8523C18.2992 13.4167 18.1875 13.9356 18.017 14.4091C17.8466 14.8788 17.5833 15.2576 17.2273 15.5455C16.875 15.8333 16.3977 15.9773 15.7955 15.9773C15.5303 15.9773 15.2386 15.9356 14.9205 15.8523C14.6023 15.7689 14.3201 15.6307 14.0739 15.4375C13.8277 15.2443 13.6818 14.9848 13.6364 14.6591H13.5682C13.4773 14.8788 13.3371 15.0871 13.1477 15.2841C12.9621 15.4811 12.7178 15.6383 12.4148 15.7557C12.1155 15.8731 11.75 15.9242 11.3182 15.9091C10.8258 15.8902 10.392 15.7803 10.017 15.5795C9.64205 15.375 9.32765 15.0985 9.07386 14.75C8.82386 14.3977 8.63447 13.9905 8.50568 13.5284C8.38068 13.0625 8.31818 12.5606 8.31818 12.0227C8.31818 11.5114 8.39394 11.0436 8.54545 10.6193C8.69697 10.1951 8.9072 9.82386 9.17614 9.50568C9.44886 9.1875 9.76705 8.93371 10.1307 8.74432C10.4981 8.55114 10.8939 8.43182 11.3182 8.38636C11.697 8.34849 12.0417 8.36553 12.3523 8.4375C12.6629 8.50568 12.9186 8.60985 13.1193 8.75C13.3201 8.88636 13.447 9.03788 13.5 9.20455H13.5682V8.56818C13.5682 8.56818 13.5682 8.26705 14.1705 8.26705C14.7727 8.26705 14.7727 8.56818 14.7727 8.56818V13.7045C14.7727 14.0227 14.8617 14.303 15.0398 14.5455C15.2178 14.7879 15.4773 14.9091 15.8182 14.9091C16.2045 14.9091 16.5 14.7765 16.7045 14.5114C16.9129 14.2462 17.0549 13.8371 17.1307 13.2841C17.2102 12.7311 17.25 12.0227 17.25 11.1591C17.25 10.6515 17.1799 10.1515 17.0398 9.65909C16.9034 9.16288 16.6951 8.69886 16.4148 8.26705C16.1383 7.83523 15.7879 7.45455 15.3636 7.125C14.9394 6.79545 14.4413 6.53788 13.8693 6.35227C13.3011 6.16288 12.6553 6.06818 11.9318 6.06818C11.0417 6.06818 10.2443 6.20644 9.53977 6.48295C8.83902 6.75568 8.24242 7.1553 7.75 7.68182C7.26136 8.20455 6.88826 8.84091 6.63068 9.59091C6.37689 10.3371 6.25 11.1856 6.25 12.1364C6.25 13.1023 6.37689 13.9602 6.63068 14.7102C6.88826 15.4602 7.26705 16.0928 7.76705 16.608C8.27083 17.1231 8.89394 17.5133 9.63636 17.7784C10.3788 18.0473 11.2348 18.1818 12.2045 18.1818C12.6212 18.1818 13.0322 18.142 13.4375 18.0625C13.8428 17.983 14.2008 17.8958 14.5114 17.8011C14.822 17.7064 15.0455 17.6364 15.1818 17.5909C15.1818 17.5909 15.631 17.5 15.765 18C15.899 18.5 15.5 18.6364 15.5 18.6364C15.2652 18.7348 14.9583 18.8333 14.5795 18.9318C14.2045 19.0303 13.803 19.1117 13.375 19.1761C12.9508 19.2405 12.5455 19.2727 12.1591 19.2727ZM11.5 14.75C12.0076 14.75 12.4186 14.6477 12.733 14.4432C13.0473 14.2386 13.2765 13.9299 13.4205 13.517C13.5644 13.1042 13.6364 12.5833 13.6364 11.9545C13.6364 11.3182 13.5568 10.822 13.3977 10.4659C13.2386 10.1098 13.0038 9.85985 12.6932 9.71591C12.3826 9.57197 12 9.5 11.5455 9.5C11.1136 9.5 10.7443 9.61364 10.4375 9.84091C10.1345 10.0644 9.90152 10.3636 9.73864 10.7386C9.57955 11.1098 9.5 11.5152 9.5 11.9545C9.5 12.4394 9.56439 12.8958 9.69318 13.3239C9.82197 13.7481 10.0322 14.0928 10.3239 14.358C10.6155 14.6193 11.0076 14.75 11.5 14.75Z" fill="black" stroke="black" stroke-width="0.3" stroke-linejoin="bevel"/>
</svg>
