<svg width="24" height="24" viewBox="0 0 24 24" fill="none" xmlns="http://www.w3.org/2000/svg">
<path d="M14.4749 11.4247C14.6142 11.2854 14.7247 11.12 14.8 10.938C14.8754 10.756 14.9142 10.561 14.9142 10.364C14.9142 10.167 14.8754 9.97196 14.8 9.78997C14.7247 9.60798 14.6142 9.44262 14.4749 9.30334C14.3356 9.16405 14.1702 9.05356 13.9882 8.97818C13.8063 8.90279 13.6112 8.864 13.4142 8.864C13.2172 8.864 13.0222 8.90279 12.8402 8.97818C12.6582 9.05356 12.4928 9.16405 12.3536 9.30334L13.4142 10.364L14.4749 11.4247Z" fill="black"/>
<path d="M8.05887 15.9411C7.40613 15.2883 6.88835 14.5134 6.53508 13.6606C6.18182 12.8077 6 11.8936 6 10.9705C6 10.0474 6.18182 9.13331 6.53508 8.28046C6.88835 7.42761 7.40613 6.65269 8.05888 5.99995L18 15.9411C17.3473 16.5938 16.5723 17.1116 15.7195 17.4649C14.8666 17.8181 13.9526 17.9999 13.0294 17.9999C12.1063 17.9999 11.1922 17.8181 10.3394 17.4649C9.48654 17.1116 8.71162 16.5938 8.05887 15.9411ZM8.05887 15.9411L5 21H10M17.6025 9.0463C17.1056 7.87566 16.1813 6.93835 15.0177 6.42515M20.6901 8.79485C20.3187 7.49954 19.6261 6.31904 18.6766 5.36288C17.7271 4.40672 16.5514 3.7059 15.2587 3.32544" stroke="black" stroke-width="2" stroke-linecap="round" stroke-linejoin="round"/>
</svg>
