<svg width="24" height="25" viewBox="0 0 24 25" fill="none" xmlns="http://www.w3.org/2000/svg">
<path d="M6 9C6 9.55228 5.55228 10 5 10C4.44772 10 4 9.55228 4 9C4 8.44772 4.44772 8 5 8C5.55228 8 6 8.44772 6 9Z" fill="#737373"/>
<path d="M6 16C6 16.5523 5.55228 17 5 17C4.44772 17 4 16.5523 4 16C4 15.4477 4.44772 15 5 15C5.55228 15 6 15.4477 6 16Z" fill="#737373"/>
<path d="M13 9C13 9.55228 12.5523 10 12 10C11.4477 10 11 9.55228 11 9C11 8.44772 11.4477 8 12 8C12.5523 8 13 8.44772 13 9Z" fill="#737373"/>
<path d="M13 16C13 16.5523 12.5523 17 12 17C11.4477 17 11 16.5523 11 16C11 15.4477 11.4477 15 12 15C12.5523 15 13 15.4477 13 16Z" fill="#737373"/>
<path d="M20 9C20 9.55228 19.5523 10 19 10C18.4477 10 18 9.55228 18 9C18 8.44772 18.4477 8 19 8C19.5523 8 20 8.44772 20 9Z" fill="#737373"/>
<path d="M20 16C20 16.5523 19.5523 17 19 17C18.4477 17 18 16.5523 18 16C18 15.4477 18.4477 15 19 15C19.5523 15 20 15.4477 20 16Z" fill="#737373"/>
<path d="M6 9C6 9.55228 5.55228 10 5 10C4.44772 10 4 9.55228 4 9C4 8.44772 4.44772 8 5 8C5.55228 8 6 8.44772 6 9Z" stroke="#737373" stroke-linecap="round" stroke-linejoin="round"/>
<path d="M6 16C6 16.5523 5.55228 17 5 17C4.44772 17 4 16.5523 4 16C4 15.4477 4.44772 15 5 15C5.55228 15 6 15.4477 6 16Z" stroke="#737373" stroke-linecap="round" stroke-linejoin="round"/>
<path d="M13 9C13 9.55228 12.5523 10 12 10C11.4477 10 11 9.55228 11 9C11 8.44772 11.4477 8 12 8C12.5523 8 13 8.44772 13 9Z" stroke="#737373" stroke-linecap="round" stroke-linejoin="round"/>
<path d="M13 16C13 16.5523 12.5523 17 12 17C11.4477 17 11 16.5523 11 16C11 15.4477 11.4477 15 12 15C12.5523 15 13 15.4477 13 16Z" stroke="#737373" stroke-linecap="round" stroke-linejoin="round"/>
<path d="M20 9C20 9.55228 19.5523 10 19 10C18.4477 10 18 9.55228 18 9C18 8.44772 18.4477 8 19 8C19.5523 8 20 8.44772 20 9Z" stroke="#737373" stroke-linecap="round" stroke-linejoin="round"/>
<path d="M20 16C20 16.5523 19.5523 17 19 17C18.4477 17 18 16.5523 18 16C18 15.4477 18.4477 15 19 15C19.5523 15 20 15.4477 20 16Z" stroke="#737373" stroke-linecap="round" stroke-linejoin="round"/>
</svg>
