<svg width="24" height="24" viewBox="0 0 24 24" fill="none" xmlns="http://www.w3.org/2000/svg">
<path d="M13.6408 3.87457V2.62486C13.6408 2.45913 13.7048 2.3002 13.8187 2.18302C13.9326 2.06583 14.087 2 14.248 2C14.4091 2 14.5635 2.06583 14.6774 2.18302C14.7912 2.3002 14.8552 2.45913 14.8552 2.62486V3.87457C14.8552 4.04029 14.7912 4.19922 14.6774 4.31641C14.5635 4.43359 14.4091 4.49942 14.248 4.49942C14.087 4.49942 13.9326 4.43359 13.8187 4.31641C13.7048 4.19922 13.6408 4.04029 13.6408 3.87457ZM16.364 5.20238C16.4592 5.26255 16.5688 5.2942 16.6805 5.29377C16.7847 5.29394 16.8872 5.26651 16.9781 5.21412C17.069 5.16173 17.1453 5.08614 17.1996 4.99462L17.8068 3.97064C17.8483 3.90048 17.876 3.82259 17.8883 3.74143C17.9005 3.66026 17.8971 3.5774 17.8783 3.49758C17.8594 3.41776 17.8255 3.34255 17.7784 3.27623C17.7313 3.20991 17.672 3.15379 17.6038 3.11107C17.5356 3.06835 17.4599 3.03987 17.3811 3.02725C17.3022 3.01463 17.2217 3.01812 17.1441 3.03752C17.0666 3.05692 16.9935 3.09185 16.929 3.14032C16.8646 3.18879 16.8101 3.24985 16.7685 3.32001L16.1614 4.34321C16.1198 4.4133 16.0921 4.49114 16.0798 4.57227C16.0675 4.6534 16.0708 4.73622 16.0897 4.81602C16.1085 4.89581 16.1424 4.971 16.1895 5.0373C16.2366 5.1036 16.2959 5.15969 16.364 5.20238ZM19.9699 6.18575C19.9454 6.10755 19.9062 6.03508 19.8545 5.97248C19.8028 5.90989 19.7396 5.8584 19.6686 5.82097C19.5975 5.78353 19.52 5.76089 19.4404 5.75432C19.3608 5.74776 19.2808 5.75741 19.2048 5.78272L18.0618 6.16154C17.9237 6.20697 17.806 6.30175 17.7299 6.42874C17.6538 6.55573 17.6244 6.70655 17.6469 6.85393C17.6695 7.0013 17.7425 7.13551 17.8529 7.23229C17.9632 7.32906 18.1036 7.38201 18.2485 7.38157C18.3119 7.38132 18.3749 7.37104 18.4352 7.35111L19.5775 6.97229C19.6538 6.94721 19.7245 6.90685 19.7856 6.85351C19.8467 6.80018 19.8969 6.73493 19.9334 6.66152C19.9699 6.58812 19.9919 6.50802 19.9981 6.42582C20.0044 6.34363 19.9948 6.26098 19.9699 6.18263V6.18575ZM17.9503 9.62167C18.5933 10.7723 18.8647 12.1033 18.7253 13.4228C18.5859 14.7423 18.0429 15.9822 17.1746 16.9637C17.1488 17.0989 17.1199 17.234 17.0843 17.3683C16.7712 18.5631 16.1213 19.6356 15.2164 20.4505C14.3115 21.2654 13.1923 21.7861 12 21.9469C10.8078 22.1077 9.59603 21.9013 8.51767 21.3539C7.43931 20.8065 6.54273 19.9425 5.94114 18.8711L3.26426 14.1066C3.10167 13.8167 3.01123 13.4899 3.00098 13.1554C2.99073 12.8208 3.06099 12.4889 3.20551 12.189C3.35003 11.8892 3.56433 11.6307 3.82934 11.4367C4.09436 11.2426 4.40187 11.119 4.72451 11.0768L4.49682 10.6707C4.33445 10.381 4.24408 10.0546 4.23376 9.72034C4.22343 9.38612 4.29346 9.05444 4.43764 8.75476C4.58181 8.45508 4.79566 8.19668 5.06019 8.0025C5.32473 7.80832 5.63177 7.68437 5.95404 7.64166L5.90091 7.54559C5.67583 7.14667 5.58942 6.68077 5.65592 6.22458C5.72241 5.76839 5.93784 5.34908 6.26676 5.03569C6.59567 4.72229 7.01846 4.53347 7.46554 4.50031C7.91263 4.46715 8.35736 4.59163 8.72654 4.85325C8.90471 4.55125 9.1562 4.30218 9.45626 4.13053C9.75633 3.95888 10.0946 3.87056 10.4379 3.87427C10.7812 3.87797 11.1176 3.97357 11.4142 4.15165C11.7107 4.32974 11.957 4.58418 12.129 4.88996L13.0595 6.54582C13.2574 6.2802 13.5159 6.06887 13.812 5.93056C14.1082 5.79224 14.4329 5.73119 14.7575 5.75281C15.0821 5.77444 15.3965 5.87807 15.6728 6.05453C15.9492 6.231 16.179 6.47485 16.342 6.76452L17.9503 9.62167ZM9.75874 6.29588L11.6562 9.66776C11.8144 9.45462 12.0121 9.27586 12.2379 9.1418C12.4636 9.00774 12.7129 8.92103 12.9714 8.88669L11.0755 5.51481C10.9749 5.33511 10.809 5.20391 10.6144 5.15008C10.4197 5.09625 10.2123 5.12419 10.0377 5.22777C9.86304 5.33135 9.73555 5.50207 9.68324 5.70238C9.63094 5.90269 9.65809 6.11618 9.75874 6.29588ZM6.95436 6.92074L7.44465 7.79319C7.60296 7.5803 7.80059 7.4017 8.02618 7.26766C8.25177 7.13362 8.50087 7.04677 8.75918 7.01212L8.26964 6.13967C8.21981 6.05079 8.15345 5.97288 8.07436 5.9104C7.99527 5.84791 7.905 5.80207 7.80869 5.77549C7.71238 5.7489 7.61193 5.7421 7.51307 5.75547C7.41421 5.76884 7.31888 5.80212 7.23252 5.85341C7.14615 5.90469 7.07045 5.97298 7.00973 6.05437C6.94902 6.13577 6.90447 6.22867 6.87864 6.32778C6.85281 6.4269 6.8462 6.53027 6.85919 6.63201C6.87219 6.73375 6.90452 6.83186 6.95436 6.92074ZM15.4199 13.2474L13.8852 10.5137C13.7921 10.3299 13.6319 10.1918 13.4398 10.1296C13.2478 10.0674 13.0396 10.0863 12.861 10.1821C12.6825 10.2779 12.5482 10.4428 12.4878 10.6404C12.4274 10.8381 12.4457 11.0524 12.5388 11.2361L13.4951 12.935C13.5756 13.0786 13.5974 13.2493 13.5556 13.4095C13.5139 13.5697 13.412 13.7062 13.2724 13.7891C13.1328 13.8719 12.9669 13.8943 12.8113 13.8513C12.6556 13.8083 12.523 13.7035 12.4424 13.5598L9.67221 8.63909C9.57157 8.45938 9.40568 8.32819 9.21104 8.27435C9.0164 8.22052 8.80895 8.24847 8.63433 8.35205C8.45971 8.45562 8.33222 8.62634 8.27991 8.82665C8.22761 9.02696 8.25476 9.24045 8.35541 9.42016L10.3325 12.935C10.413 13.0786 10.4348 13.2493 10.393 13.4095C10.3512 13.5697 10.2494 13.7062 10.1098 13.7891C9.97016 13.8719 9.8043 13.8943 9.64866 13.8513C9.49302 13.8083 9.36034 13.7035 9.27983 13.5598L6.86935 9.26394C6.76871 9.08445 6.6029 8.95345 6.4084 8.89976C6.2139 8.84608 6.00664 8.87411 5.83223 8.97768C5.65781 9.08126 5.53051 9.2519 5.47835 9.45206C5.42618 9.65223 5.45342 9.86552 5.55406 10.045L8.22714 14.8095C8.30766 14.9534 8.32934 15.1243 8.28743 15.2846C8.24551 15.4449 8.14342 15.5816 8.00363 15.6644C7.86383 15.7473 7.69778 15.7696 7.54199 15.7265C7.38621 15.6833 7.25346 15.5783 7.17294 15.4344L5.63376 12.7006C5.53311 12.521 5.36726 12.3899 5.17269 12.3362C4.97812 12.2824 4.77077 12.3104 4.59625 12.414C4.42173 12.5176 4.29434 12.6883 4.2421 12.8885C4.18987 13.0887 4.21706 13.3021 4.31771 13.4817L6.99458 18.2462C7.47611 19.103 8.19349 19.7936 9.05615 20.2311C9.91881 20.6685 10.8881 20.8331 11.8416 20.7041C12.7951 20.5751 13.69 20.1582 14.4135 19.5061C15.1369 18.854 15.6564 17.996 15.9064 17.0403C16.0732 16.4064 16.1162 15.7447 16.0326 15.0936C15.9491 14.4426 15.7408 13.815 15.4199 13.2474ZM16.893 10.2465L15.2886 7.38938C15.2387 7.30024 15.1723 7.22208 15.0931 7.15936C15.014 7.09664 14.9235 7.05058 14.8271 7.02382C14.6322 6.96976 14.4245 6.99759 14.2495 7.10116C14.1629 7.15245 14.087 7.22079 14.026 7.30228C13.9651 7.38377 13.9203 7.47682 13.8943 7.57611C13.8418 7.77664 13.8688 7.99043 13.9695 8.17045L16.4741 12.6264C16.8212 13.2425 17.0638 13.915 17.1913 14.615C17.4657 13.9111 17.5815 13.1522 17.5298 12.3955C17.4781 11.6389 17.2604 10.9041 16.893 10.2465Z" fill="black" stroke="black" stroke-width="0.5"/>
</svg>
