<svg width="24" height="24" viewBox="0 0 24 24" fill="none" xmlns="http://www.w3.org/2000/svg">
<path d="M4 15L20 15" stroke="black" stroke-width="2" stroke-linecap="round" stroke-linejoin="round"/>
<path d="M4 9L20 9" stroke="black" stroke-width="2" stroke-linecap="round" stroke-linejoin="round"/>
<circle cx="12" cy="12" r="9" stroke="black" stroke-width="2" stroke-linecap="round" stroke-linejoin="round"/>
<path d="M12 20.8182L11.2858 21.5181C11.4739 21.71 11.7313 21.8182 12 21.8182C12.2688 21.8182 12.5262 21.71 12.7143 21.5181L12 20.8182ZM12 3.18183L12.7143 2.48193C12.5262 2.28999 12.2688 2.18183 12 2.18183C11.7313 2.18183 11.4739 2.28999 11.2858 2.48193L12 3.18183ZM14.6 12C14.6 15.161 13.337 18.025 11.2858 20.1183L12.7143 21.5181C15.1169 19.0662 16.6 15.7053 16.6 12H14.6ZM11.2858 3.88173C13.337 5.97495 14.6 8.83897 14.6 12H16.6C16.6 8.29472 15.1169 4.93383 12.7143 2.48193L11.2858 3.88173ZM9.40002 12C9.40002 8.83897 10.6631 5.97495 12.7143 3.88173L11.2858 2.48193C8.88311 4.93383 7.40002 8.29472 7.40002 12H9.40002ZM12.7143 20.1183C10.6631 18.025 9.40002 15.161 9.40002 12H7.40002C7.40002 15.7053 8.88311 19.0662 11.2858 21.5181L12.7143 20.1183Z" fill="black"/>
</svg>
