<svg width="20" height="15" viewBox="0 0 20 15" fill="none" xmlns="http://www.w3.org/2000/svg">
<path d="M7.91756 7.74093L15.6655 2.35076L16.8449 3.64667L10.7509 10.8541L7.91756 7.74093ZM5.58746 8.15211L10.1228 13.1354C10.2167 13.2284 10.3292 13.3004 10.453 13.3467C10.5768 13.393 10.709 13.4125 10.8409 13.4039C10.9728 13.3953 11.1013 13.3588 11.2181 13.2969C11.3348 13.2349 11.4371 13.1489 11.5181 13.0445L18.9695 4.23151C19.1179 4.0684 19.202 3.85684 19.2059 3.63632C19.2098 3.41581 19.1333 3.2014 18.9908 3.03311L16.4778 0.271948C16.3236 0.114225 16.1174 0.0179803 15.8975 0.00117661C15.6775 -0.015627 15.459 0.048158 15.2827 0.180628L5.80905 6.77146C5.69748 6.84232 5.60223 6.93605 5.52958 7.04646C5.45693 7.15686 5.40853 7.28143 5.38759 7.41192C5.36664 7.54242 5.37363 7.67587 5.40808 7.80347C5.44254 7.93106 5.50367 8.04989 5.58746 8.15211ZM0.793945 14.0278L6.4113 15.0001L7.89044 13.6539L4.86155 10.3259L0.793945 14.0278Z" fill="#737373"/>
</svg>
