<svg width="24" height="25" viewBox="0 0 24 25" fill="none" xmlns="http://www.w3.org/2000/svg">
<g clip-path="url(#clip0_4162_114789)">
<path d="M13 4.5H8.8C7.11984 4.5 6.27976 4.5 5.63803 4.82698C5.07354 5.1146 4.6146 5.57354 4.32698 6.13803C4 6.77976 4 7.61984 4 9.3V15.7C4 17.3802 4 18.2202 4.32698 18.862C4.6146 19.4265 5.07354 19.8854 5.63803 20.173C6.27976 20.5 7.11984 20.5 8.8 20.5H15.2C16.8802 20.5 17.7202 20.5 18.362 20.173C18.9265 19.8854 19.3854 19.4265 19.673 18.862C20 18.2202 20 17.3802 20 15.7V11.5" stroke="#737373" stroke-width="1.5" stroke-linecap="round" stroke-linejoin="round"/>
<path d="M4 16.5L8.29289 12.2071C8.68342 11.8166 9.31658 11.8166 9.70711 12.2071L13 15.5M13 15.5L15.7929 12.7071C16.1834 12.3166 16.8166 12.3166 17.2071 12.7071L20 15.5M13 15.5L15.25 17.75" stroke="#737373" stroke-width="1.5" stroke-linecap="round" stroke-linejoin="round"/>
<path d="M18.5 3.5V6M18.5 8.5V6M18.5 6H16M18.5 6H21" stroke="#737373" stroke-width="1.5" stroke-linecap="round" stroke-linejoin="round"/>
</g>
<defs>
<clipPath id="clip0_4162_114789">
<rect width="24" height="24" fill="white" transform="translate(0 0.5)"/>
</clipPath>
</defs>
</svg>
