<svg width="24" height="24" viewBox="0 0 24 24" fill="none" xmlns="http://www.w3.org/2000/svg">
<path fill-rule="evenodd" clip-rule="evenodd" d="M8.99998 7.91421V11C8.99998 12.6569 10.3431 14 12 14C12.8502 14 13.6179 13.6463 14.1638 13.078L12.7487 11.6629C12.5655 11.8697 12.298 12 12 12C11.4477 12 11 11.5523 11 11V9.91422L8.99998 7.91421ZM13 9.08579V5C13 4.44772 12.5523 4 12 4C11.4477 4 11 4.44772 11 5V7.08579L8.99998 5.08579V5C8.99998 3.34315 10.3431 2 12 2C13.6568 2 15 3.34315 15 5V11C15 11.0283 14.9996 11.0565 14.9988 11.0846L13 9.08579ZM15.5782 14.4924C15.4022 14.6727 15.2121 14.8402 15.0091 14.9932C14.1658 15.6286 13.143 15.9808 12.0872 15.9992C12.0593 15.9997 12.0314 16 12.0036 16C10.9769 16.0007 9.97418 15.6854 9.1321 15.0958C8.26716 14.4901 7.61616 13.6262 7.27239 12.6278C7.09258 12.1056 6.5235 11.8281 6.0013 12.0079C5.47911 12.1877 5.20155 12.7568 5.38135 13.279C5.86263 14.6767 6.77403 15.8862 7.98495 16.7341C8.88688 17.3656 9.92048 17.7724 11 17.9282V20H8.99998C8.4477 20 7.99998 20.4477 7.99998 21C7.99998 21.5523 8.4477 22 8.99998 22H12H15C15.5523 22 16 21.5523 16 21C16 20.4477 15.5523 20 15 20H13V17.9282C14.1617 17.7605 15.2677 17.3025 16.2127 16.5904C16.4904 16.3812 16.7509 16.1525 16.9924 15.9067L15.5782 14.4924ZM18.1875 14.2733L16.6784 12.7642C16.7159 12.6648 16.7503 12.5639 16.7815 12.4619C16.943 11.9337 17.502 11.6365 18.0302 11.7979C18.5583 11.9594 18.8556 12.5184 18.6941 13.0466C18.5638 13.4729 18.3938 13.8834 18.1875 14.2733Z" fill="black"/>
<path d="M5 5L19 19" stroke="black" stroke-width="2" stroke-linecap="round" stroke-linejoin="round"/>
</svg>
