<svg width="24" height="24" viewBox="0 0 24 24" fill="none" xmlns="http://www.w3.org/2000/svg">
<path d="M5 5L19 19" stroke="black" stroke-width="2" stroke-linecap="round" stroke-linejoin="round"/>
<path fill-rule="evenodd" clip-rule="evenodd" d="M8.00287 6.91705L6.64922 7.99997H4C2.89543 7.99997 2 8.8954 2 9.99997V14C2 15.1045 2.89543 16 4 16H6.64922L9.75061 18.4811C11.0601 19.5287 13 18.5964 13 16.9193V11.9142L11 9.91419V16.9193L7.89861 14.4382C7.54398 14.1545 7.10336 14 6.64922 14H4V9.99997H6.64922C7.10336 9.99997 7.54398 9.84541 7.89861 9.56171L9.42578 8.33997L8.00287 6.91705ZM11 7.08576V7.0806L10.9971 7.08289L9.57422 5.65998L9.75061 5.51886C11.0601 4.47124 13 5.40358 13 7.0806V9.08576L11 7.08576ZM15.3187 14.2329C15.2402 14.3496 15.1553 14.4626 15.0642 14.5711C14.7092 14.9942 14.7644 15.625 15.1874 15.98C15.6105 16.335 16.2413 16.2798 16.5963 15.8567C16.6491 15.7937 16.7006 15.7297 16.7507 15.6648L15.3187 14.2329ZM17.7214 13.8071L15.9991 12.0849C16.0174 11.2215 15.7558 10.3746 15.2524 9.67148C14.9309 9.22242 15.0343 8.59776 15.4834 8.27626C15.9324 7.95476 16.5571 8.05817 16.8786 8.50724C17.6537 9.58993 18.0467 10.8997 17.9956 12.2303C17.9749 12.7694 17.8818 13.2994 17.7214 13.8071ZM18.1736 17.0878C18.1586 17.106 18.1435 17.1242 18.1284 17.1423C17.7734 17.5654 17.8285 18.1961 18.2516 18.5511C18.6479 18.8836 19.2263 18.8563 19.5897 18.5039L18.1736 17.0878ZM20.752 16.8377L19.2646 15.3504C19.7379 14.3242 19.9918 13.2019 19.9998 12.0558C20.0128 10.1942 19.3762 8.3864 18.1996 6.94374C17.8505 6.51575 17.9145 5.88583 18.3425 5.53677C18.7705 5.18771 19.4004 5.25169 19.7494 5.67968C21.2202 7.48301 22.016 9.74281 21.9998 12.0698C21.988 13.7484 21.5543 15.3862 20.752 16.8377Z" fill="black"/>
</svg>
