<svg width="32" height="32" viewBox="0 0 32 32" fill="none" xmlns="http://www.w3.org/2000/svg">
<path d="M17.667 5.33301L17.6671 4.33301H17.667V5.33301ZM22.667 10.333H23.667V10.3329L22.667 10.333ZM25.333 20.333H26.333V20.3329L25.333 20.333ZM6.66699 20.333L5.66699 20.3329V20.333H6.66699ZM9.33301 10.333L8.33301 10.3329V10.333H9.33301ZM14.333 5.33301V4.33301H14.3329L14.333 5.33301ZM17.667 5.33301L17.6669 6.33301C19.8759 6.33315 21.6669 8.12414 21.667 10.3331L22.667 10.333L23.667 10.3329C23.6668 7.01954 20.9805 4.33322 17.6671 4.33301L17.667 5.33301ZM22.667 10.333H21.667V15.5607H22.667H23.667V10.333H22.667ZM24.2851 18.055L23.634 18.814C24.0634 19.1823 24.3329 19.7257 24.333 20.3331L25.333 20.333L26.333 20.3329C26.3329 19.1176 25.7896 18.028 24.9361 17.2959L24.2851 18.055ZM25.333 20.333H24.333V20.667H25.333H26.333V20.333H25.333ZM23.333 22.667V21.667H8.66699V22.667V23.667H23.333V22.667ZM6.66699 20.667H7.66699V20.333H6.66699H5.66699V20.667H6.66699ZM6.66699 20.333L7.66699 20.3331C7.66706 19.7257 7.93659 19.1823 8.36596 18.814L7.71493 18.055L7.06389 17.2959C6.21036 18.028 5.66712 19.1176 5.66699 20.3329L6.66699 20.333ZM9.33301 15.5607H10.333V10.333H9.33301H8.33301V15.5607H9.33301ZM9.33301 10.333L10.333 10.3331C10.3331 8.12414 12.1241 6.33315 14.3331 6.33301L14.333 5.33301L14.3329 4.33301C11.0195 4.33322 8.33322 7.01954 8.33301 10.3329L9.33301 10.333ZM14.333 5.33301V6.33301H17.667V5.33301V4.33301H14.333V5.33301ZM8.66699 22.667V21.667C8.11471 21.667 7.66699 21.2193 7.66699 20.667H6.66699H5.66699C5.66699 22.3238 7.01014 23.667 8.66699 23.667V22.667ZM25.333 20.667H24.333C24.333 21.2193 23.8853 21.667 23.333 21.667V22.667V23.667C24.9899 23.667 26.333 22.3238 26.333 20.667H25.333ZM7.71493 18.055L8.36596 18.814C8.7589 18.477 9.23709 18.0474 9.61609 17.5386C9.99971 17.0236 10.333 16.3598 10.333 15.5607H9.33301H8.33301C8.33301 15.781 8.24417 16.0324 8.0122 16.3438C7.77561 16.6614 7.44476 16.9693 7.06389 17.2959L7.71493 18.055ZM22.667 15.5607H21.667C21.667 16.3598 22.0003 17.0236 22.3839 17.5386C22.7629 18.0474 23.2411 18.477 23.634 18.814L24.2851 18.055L24.9361 17.2959C24.5552 16.9693 24.2244 16.6614 23.9878 16.3438C23.7558 16.0324 23.667 15.781 23.667 15.5607H22.667Z" fill="#737373"/>
<path d="M18.3969 26.5026C18.1751 26.9575 17.8285 27.3398 17.3975 27.6049C16.9665 27.8701 16.4689 28.0071 15.9629 28.0001C15.4569 27.993 14.9634 27.8421 14.54 27.565C14.1166 27.2879 13.7807 26.8961 13.5717 26.4353" stroke="#737373" stroke-width="2" stroke-linecap="round" stroke-linejoin="round"/>
<path d="M16 4V5.33333" stroke="#737373" stroke-width="2" stroke-linecap="round" stroke-linejoin="round"/>
</svg>
