<svg width="36" height="36" viewBox="0 0 36 36" fill="none" xmlns="http://www.w3.org/2000/svg">
<rect x="0.5" y="0.859131" width="35" height="35" rx="17.5" fill="#EDEDED"/>
<path d="M30.2021 18.593C30.2021 17.5688 30.119 16.8214 29.9391 16.0463H18.2433V20.6692H25.1085C24.9701 21.818 24.2227 23.5482 22.5617 24.7108L22.5384 24.8655L26.2364 27.7303L26.4926 27.7559C28.8456 25.5828 30.2021 22.3855 30.2021 18.593Z" fill="#4285F4"/>
<path d="M18.2433 30.7732C21.6067 30.7732 24.4303 29.6659 26.4927 27.7559L22.5617 24.7107C21.5098 25.4443 20.098 25.9564 18.2433 25.9564C14.9492 25.9564 12.1533 23.7834 11.1566 20.7799L11.0105 20.7923L7.16528 23.7682L7.11499 23.908C9.16346 27.9772 13.3712 30.7732 18.2433 30.7732Z" fill="#34A853"/>
<path d="M11.1566 20.7798C10.8936 20.0047 10.7414 19.1742 10.7414 18.3161C10.7414 17.4578 10.8936 16.6274 11.1427 15.8523L11.1358 15.6872L7.24236 12.6636L7.11498 12.7242C6.2707 14.4128 5.78625 16.3091 5.78625 18.3161C5.78625 20.323 6.2707 22.2192 7.11498 23.9078L11.1566 20.7798Z" fill="#FBBC05"/>
<path d="M18.2433 10.6758C20.5825 10.6758 22.1603 11.6862 23.06 12.5306L26.5757 9.09797C24.4165 7.091 21.6067 5.85913 18.2433 5.85913C13.3712 5.85913 9.16346 8.65503 7.11499 12.7243L11.1428 15.8525C12.1533 12.8489 14.9492 10.6758 18.2433 10.6758Z" fill="#EB4335"/>
</svg>
