<svg xmlns="http://www.w3.org/2000/svg" viewBox="0 0 192 192" fill="#0a0a0a"><path d="M141.537 88.988a66.667 66.667 0 0 0-2.518-1.143c-1.482-27.307-16.403-42.94-41.457-43.1h-.34c-14.986 0-27.449 6.396-35.12 18.036l13.779 9.452c5.73-8.695 14.724-10.548 21.348-10.548h.229c8.249.053 14.474 2.452 18.503 7.129 2.932 3.405 4.892 8.111 5.864 14.05-7.32-1.245-15.236-1.626-23.696-1.137-23.83 1.375-39.154 15.279-38.126 34.61.521 9.811 5.405 18.252 13.755 23.764 7.058 4.661 16.146 6.942 25.592 6.425 12.48-.685 22.275-5.448 29.114-14.153 5.193-6.612 8.474-15.174 9.92-25.943 5.94 3.583 10.348 8.298 12.78 13.965 4.137 9.629 4.379 25.453-8.535 38.357-11.314 11.303-24.911 16.195-45.434 16.346-22.769-.169-40.001-7.484-51.21-21.74C95.827 165.282 80.046 170.688 62.349 170.96 47.353 170.873 31.34 162.74 22.018 145.84 12.873 129.28 6.39 109.05 6.391 95.997c.001-13.054 6.482-33.282 15.627-49.842C31.34 29.255 47.353 21.123 62.349 21.04c20.523.151 34.12 5.043 45.434 16.346 12.914 12.904 12.672 28.728 8.535 38.357-2.432 5.667-6.84 10.382-12.78 13.965-1.446-10.769-4.727-19.331-9.92-25.943-6.839-8.705-16.634-13.468-29.114-14.153-9.446-.517-18.534 1.764-25.592 6.425-8.35 5.512-13.234 13.953-13.755 23.764-1.028 19.331 14.296 33.235 38.126 34.61 8.46.489 16.376.108 23.696-1.137-.972 5.939-2.932 10.645-5.864 14.05-4.029 4.677-10.254 7.076-18.503 7.129h-.229c-6.624 0-15.618-1.853-21.348-10.548l-13.779 9.452c7.671 11.64 20.134 18.036 35.12 18.036h.34c25.054-.16 39.975-15.793 41.457-43.1.834-.367 1.66-.748 2.518-1.143"/></svg>
