<svg width="32" height="25" viewBox="0 0 32 25" fill="none" xmlns="http://www.w3.org/2000/svg">
<path d="M22.5 2.125C24.7091 2.125 26.5 3.91586 26.5 6.125V19.125C26.5 21.3341 24.7091 23.125 22.5 23.125H9.5C7.29086 23.125 5.5 21.3341 5.5 19.125V6.125C5.5 3.91586 7.29086 2.125 9.5 2.125H22.5ZM16 7.5C15.4477 7.5 15 7.94772 15 8.5V11.5H12C11.4477 11.5 11 11.9477 11 12.5C11 13.0523 11.4477 13.5 12 13.5H15V16.5C15 17.0523 15.4477 17.5 16 17.5C16.5523 17.5 17 17.0523 17 16.5V13.5H20C20.5523 13.5 21 13.0523 21 12.5C21 11.9477 20.5523 11.5 20 11.5H17V8.5C17 7.94772 16.5523 7.5 16 7.5Z" fill="white"/>
</svg>
