<svg width="25" height="25" viewBox="0 0 25 25" fill="none" xmlns="http://www.w3.org/2000/svg">
<path d="M15.6125 7.06873C15.6125 9.07076 13.9896 10.6937 11.9876 10.6937C9.98552 10.6937 8.36255 9.07076 8.36255 7.06873C8.36255 5.06669 9.98552 3.44373 11.9876 3.44373C13.9896 3.44373 15.6125 5.06669 15.6125 7.06873Z" fill="white"/>
<path d="M19.2375 19.1521C19.2375 16.4827 17.0736 14.3187 14.4042 14.3187H11.9876H9.57088C6.90151 14.3187 4.73755 16.4827 4.73755 19.1521C4.73755 19.8194 5.27854 20.3604 5.94588 20.3604H18.0292C18.6966 20.3604 19.2375 19.8194 19.2375 19.1521Z" fill="white"/>
<path d="M19.2375 19.1521C19.2375 16.4827 17.0736 14.3187 14.4042 14.3187H11.9876H9.57088C6.90151 14.3187 4.73755 16.4827 4.73755 19.1521M19.2375 19.1521C19.2375 19.8194 18.6966 20.3604 18.0292 20.3604M19.2375 19.1521C19.2375 19.8194 18.6966 20.3604 18.0292 20.3604M4.73755 19.1521C4.73755 19.8194 5.27854 20.3604 5.94588 20.3604M4.73755 19.1521C4.73755 19.8194 5.27854 20.3604 5.94588 20.3604M18.0292 20.3604H5.94588M18.0292 20.3604H5.94588M15.6125 7.06873C15.6125 9.07076 13.9896 10.6937 11.9876 10.6937C9.98552 10.6937 8.36255 9.07076 8.36255 7.06873C8.36255 5.06669 9.98552 3.44373 11.9876 3.44373C13.9896 3.44373 15.6125 5.06669 15.6125 7.06873Z" stroke="white" stroke-width="2" stroke-linecap="round" stroke-linejoin="round"/>
</svg>
