<svg width="31" height="32" viewBox="0 0 31 32" fill="none" xmlns="http://www.w3.org/2000/svg">
<g clip-path="url(#clip0_10470_1540)">
<path d="M26.3398 9.41083C26.0339 8.87474 25.6909 8.36279 25.3144 7.8783C27.8687 4.73047 30.0438 1.8065 30.7722 0.364197C29.3908 1.12674 26.5221 3.36241 23.4589 5.94261C23.0235 5.57358 22.5635 5.23277 22.0812 4.92315C23.727 2.8319 25.0479 0.99755 25.5517 0C24.5211 0.568756 22.5134 2.10573 20.2766 3.95716C18.6947 3.26626 16.9472 2.88276 15.1106 2.88276C7.97594 2.88276 2.19223 8.66647 2.19223 15.8012C2.19223 17.7554 2.62623 19.6083 3.40288 21.2689C1.79128 23.3015 0.48708 25.0839 0 26.035C0.866127 25.5636 2.46362 24.3622 4.29834 22.8742C4.65288 23.4155 5.04752 23.9282 5.47706 24.409C3.19201 27.2383 1.26782 29.8121 0.609222 31.0978C1.87444 30.4091 4.46057 28.4021 7.26463 26.0659C7.78512 26.4646 8.33717 26.8243 8.91595 27.141C7.49554 28.9471 6.36063 30.5123 5.92144 31.3703C6.83472 30.8732 8.59742 29.5281 10.5777 27.9024C11.988 28.4311 13.5154 28.7203 15.1103 28.7203C22.245 28.7203 28.0287 22.9366 28.0287 15.8019C28.0287 14.1302 27.7112 12.5323 27.1328 11.0659C28.672 9.10492 29.9035 7.39048 30.3779 6.45122C29.5497 6.90823 28.0624 8.01864 26.3395 9.41157L26.3398 9.41083Z" fill="#FCB300"/>
<path d="M15.1108 24.9258C20.15 24.9258 24.235 20.8408 24.235 15.8016C24.235 10.7624 20.15 6.67737 15.1108 6.67737C10.0717 6.67737 5.9866 10.7624 5.9866 15.8016C5.9866 20.8408 10.0717 24.9258 15.1108 24.9258Z" fill="#1E1E1E"/>
<path d="M18.9838 13.1493C19.0269 13.1489 19.3102 13.1452 19.439 12.9529C19.5125 12.843 19.5095 12.7112 19.5062 12.6652C19.4958 12.5267 19.4297 12.4279 19.3959 12.3789C19.0466 11.8703 18.7826 11.5822 18.7826 11.5822C18.6479 11.4352 18.418 11.1843 18.313 11.0695C17.6473 10.3827 17.0077 9.85778 16.4775 9.46908C16.4103 9.4197 15.2494 8.57585 13.9567 7.98816C13.6534 7.85043 13.4062 7.73831 13.2031 7.6507C12.9963 7.67965 12.8274 7.69153 12.7134 7.6971C12.569 7.70416 12.5289 7.70007 12.1643 7.70638C12.1272 7.70713 11.9717 7.70935 11.7823 7.71492C11.469 7.72383 11.3123 7.72866 11.2492 7.73423C11.1111 7.74648 10.8538 7.7695 10.6069 7.85897C10.48 7.905 9.99029 8.08209 9.73487 8.57288C9.73487 8.57288 9.53922 8.94822 9.58637 9.5218C9.59454 9.62278 9.61422 9.7141 9.61496 9.71819C9.65877 9.92015 9.73487 10.0612 9.77794 10.1399C9.80912 10.1971 9.84216 10.2494 9.87595 10.2985C9.90082 10.3326 9.93312 10.3757 9.97173 10.4239C10.0066 10.4674 10.0337 10.4989 10.0541 10.5219C10.1299 10.6096 10.1689 10.6541 10.2164 10.6901C10.2238 10.6957 10.2156 10.6938 10.2958 10.7436C10.3693 10.7889 10.4607 10.8457 10.5746 10.9741C10.6801 11.0933 10.7766 11.2125 10.8141 11.3502C10.9708 11.2756 11.1159 11.1286 11.1534 10.9359C11.2021 10.6864 11.0454 10.4863 11.0168 10.4507C10.9845 10.4462 10.9284 10.4362 10.8653 10.4091C10.4135 10.216 10.1503 9.40597 10.4458 8.88807C10.5928 8.63005 10.836 8.51942 10.8661 8.50606C11.5792 8.19495 12.5497 8.88436 13.0371 9.45497C13.3494 9.82065 13.506 10.1871 13.5836 10.4039C13.6534 10.3753 13.7418 10.3434 13.8457 10.3166C13.8457 10.3166 14.018 10.2725 14.2018 10.2602C14.8347 10.2175 15.8549 10.7681 15.8549 10.7681C16.2106 10.96 16.4582 11.1327 16.7318 11.3238C17.0433 11.5414 17.341 11.7493 17.6759 12.0522C18.4125 12.7186 18.5677 13.1549 18.9842 13.1497L18.9838 13.1493Z" fill="#FCB300"/>
<path d="M21.7092 11.2329C21.8725 11.6832 22.0077 12.1473 22.1112 12.6147C22.1918 12.4948 22.2623 12.3686 22.321 12.2379C22.4428 11.968 22.5163 11.6803 22.5408 11.3814C22.5408 11.3213 22.5378 11.257 22.5304 11.1895C22.5152 11.0447 22.4851 10.9203 22.4535 10.8205C22.54 10.6801 22.651 10.4748 22.7412 10.212C22.8125 10.0033 22.9284 9.66476 22.8998 9.27903C22.8923 9.18065 22.8155 8.30487 22.171 7.98374C22.0077 7.90243 21.8376 7.87125 21.6672 7.87125C21.355 7.87125 21.0417 7.97594 20.7658 8.06986C20.5308 8.15006 20.3456 8.24435 20.2182 8.31712C20.3511 8.5395 20.5364 8.85617 20.7473 9.24227C21.1434 9.96695 21.4463 10.5105 21.7092 11.2337V11.2329ZM21.9267 9.21703C22.0166 8.78861 22.102 8.69431 22.1736 8.64419C22.207 8.6208 22.2716 8.57588 22.3533 8.58182C22.5512 8.59593 22.6659 8.89478 22.6863 8.94861C22.7977 9.23819 22.7309 9.50883 22.6314 9.87823C22.5801 10.0672 22.4973 10.323 22.3581 10.6137C22.266 10.4106 22.1833 10.2576 22.1231 10.1537C22.0856 10.0887 22.0292 9.99406 21.9553 9.85187C21.9122 9.76871 21.8788 9.69928 21.8569 9.65288C21.8766 9.47468 21.9033 9.32655 21.9264 9.21666L21.9267 9.21703Z" fill="#FCB300"/>
<path d="M20.3645 17.1901C20.3363 17.1901 20.3088 17.1901 20.2817 17.1901C20.0007 17.1886 19.2545 17.1849 18.6456 16.6169C18.3649 16.3548 18.2005 16.0548 18.1036 15.7942L18.0976 15.7949C18.1062 15.8903 18.1177 16.0192 18.1262 16.1183C18.173 16.6477 18.199 16.9506 18.2053 17.0241C18.2313 17.3171 18.2877 17.7585 18.4217 18.3952C18.5495 18.9387 18.4852 19.069 18.6367 19.2167C18.7392 19.3166 18.9174 19.3422 19.221 19.3422C19.3532 19.3422 19.5095 19.3374 19.6936 19.3315C20.4365 19.3081 20.5973 19.1971 20.6786 19.0864C20.7153 19.0363 20.7517 18.9494 20.8245 18.7757C20.9191 18.5504 20.9711 18.3781 20.9875 18.3254C21.1063 17.937 21.2614 17.77 21.4426 17.4054C21.5336 17.2224 21.6386 16.974 21.7236 16.6566C21.6891 16.7004 21.6509 16.7435 21.6086 16.7851C21.2195 17.1663 20.738 17.1908 20.3641 17.1908L20.3645 17.1901Z" fill="#1E1E1E"/>
<path d="M20.0265 19.5353C19.193 19.6422 18.7765 19.6953 18.4988 19.4792C18.38 19.3868 18.3933 19.3326 18.2927 18.9792C18.2214 18.7293 18.1903 18.7649 18.0818 18.3361C18.0328 18.1416 18.0432 17.9478 18.0748 17.519C18.1193 16.9146 18.1394 16.8563 18.1542 16.8489C18.155 16.8485 18.1561 16.8485 18.1576 16.8478C18.2678 16.8159 18.3792 16.8972 18.4056 16.9161C18.4958 16.9815 18.5314 17.078 18.5782 17.2254C18.6996 17.6089 18.7471 17.858 18.7471 17.858C18.7898 18.083 18.7887 18.1141 18.8258 18.3287C18.8488 18.4613 18.8852 18.6409 18.9446 18.8533C19.0096 18.8295 19.1061 18.7846 19.1963 18.6974C19.2112 18.6829 19.2632 18.6313 19.3441 18.4936C19.3924 18.4115 19.4532 18.2953 19.5078 18.1461C19.604 18.2871 19.6255 18.4108 19.6311 18.4754C19.6385 18.5582 19.6281 18.6354 19.6203 18.6948C19.6092 18.7798 19.5917 18.85 19.5772 18.8997C19.6222 18.9004 19.6797 18.9008 19.7462 18.8986C19.852 18.8949 19.9537 18.8919 20.0729 18.8711C20.1501 18.8578 20.2559 18.8329 20.3788 18.785C20.4449 18.7137 20.5328 18.602 20.6015 18.4471C20.6568 18.3224 20.6825 18.2092 20.6951 18.1238C20.7296 18.1698 20.7768 18.2448 20.8065 18.3465C20.8432 18.472 20.8859 18.5793 20.8774 18.6413C20.9304 18.5905 20.9145 18.5841 20.9356 18.5908C21.0303 18.6209 21.0626 18.9584 20.9115 19.2008C20.8473 19.3036 20.7415 19.4428 20.0261 19.5345L20.0265 19.5353Z" fill="white"/>
<path d="M18.8959 18.2793C18.8862 18.0621 18.8602 17.8457 18.819 17.6356C18.7797 17.4358 18.7355 17.287 18.7032 17.1778C18.6516 17.0037 18.6193 16.9276 18.6055 16.8949C18.5703 16.811 18.5294 16.729 18.4838 16.651L18.3683 16.4539L18.5848 16.3811C18.6798 16.3492 18.9148 16.2708 19.0429 16.2345C19.0548 16.2311 19.0863 16.2222 19.1286 16.2155C19.168 16.2092 19.217 16.2014 19.2679 16.2014C19.3295 16.2014 19.3818 16.2126 19.4279 16.2359C19.6473 16.3462 19.6358 16.6655 19.6287 16.8559C19.6272 16.8927 19.6261 16.9202 19.6257 16.9257L19.625 16.9369C19.596 17.3504 19.5771 17.6237 19.4668 17.9248C19.4097 18.0811 19.3317 18.2325 19.2352 18.3751L18.9211 18.8384L18.8959 18.2793Z" fill="white"/>
<path d="M19.2673 16.3874C19.2955 16.3874 19.3222 16.3911 19.3441 16.4023C19.4511 16.4561 19.4488 16.6848 19.4429 16.8496C19.4418 16.8834 19.4407 16.9083 19.4403 16.9131C19.4117 17.323 19.3943 17.5825 19.2922 17.8613C19.2536 17.9667 19.1901 18.1108 19.0809 18.2711C19.069 18.0035 19.0353 17.7763 19.0007 17.5999C18.9606 17.3957 18.9161 17.2443 18.8805 17.1251C18.8292 16.9532 18.7958 16.87 18.7761 16.8233C18.7286 16.71 18.68 16.6202 18.6432 16.5575C18.6982 16.5389 18.9588 16.4513 19.0924 16.4138C19.1036 16.4108 19.1262 16.4045 19.157 16.3993C19.1919 16.3937 19.2309 16.3874 19.2673 16.3874ZM19.2673 16.0162C19.202 16.0162 19.1426 16.0255 19.0991 16.0325C19.0442 16.0414 19.0041 16.0529 18.9907 16.0566C18.8652 16.0919 18.6447 16.165 18.5248 16.2055L18.0919 16.351L18.3232 16.7449C18.3648 16.8158 18.4019 16.8905 18.4342 16.9666C18.4468 16.9963 18.4762 17.0664 18.5248 17.2305C18.556 17.3356 18.599 17.4796 18.6365 17.6712C18.6759 17.8724 18.7008 18.0796 18.7101 18.2875L18.7602 19.4057L19.388 18.479C19.493 18.3242 19.578 18.159 19.6404 17.9886C19.7596 17.663 19.7804 17.3642 19.8093 16.9502L19.8101 16.9387C19.8112 16.9213 19.813 16.8726 19.8134 16.863C19.8216 16.6432 19.8364 16.2341 19.5105 16.0704C19.4388 16.0344 19.3571 16.0162 19.2669 16.0162H19.2673Z" fill="#1E1E1E"/>
<path d="M16.6028 15.1477C16.7223 14.9903 16.8771 14.8143 17.0742 14.6406C17.1767 14.5504 17.2773 14.4728 17.3727 14.406C17.1559 14.2085 16.8764 13.9679 16.5382 13.7102C16.3882 13.5959 15.9074 13.2354 15.1939 12.8189C14.4811 12.4027 14.079 12.1681 13.5325 12.027C13.3681 11.9843 13.0777 11.9212 12.757 11.8703C12.4845 11.8269 12.3189 11.8005 12.0884 11.7913C11.8066 11.7797 11.5868 11.8054 11.1465 11.8559C10.7645 11.8997 10.6368 11.9331 10.5343 11.9665C10.3335 12.0318 10.176 12.1146 10.068 12.1796C10.0417 12.1165 9.96926 11.9186 10.0465 11.6981C10.0669 11.6402 10.1144 11.5069 10.231 11.43C10.2135 11.4081 10.1905 11.3803 10.1582 11.3435C10.0988 11.2763 10.0628 11.2544 10.0038 11.2177C9.90206 11.1546 9.63959 10.9934 9.51448 10.8542C7.81118 12.582 7.40095 13.1775 7.31482 13.3847C7.30257 13.414 7.29811 13.7693 7.12808 14.0963C7.08167 14.1858 7.04975 14.2422 7.02747 14.2831C6.92055 14.478 6.83739 14.6606 6.56007 15.3471C6.43161 15.6656 6.3466 15.8806 6.27235 16.188C6.27235 16.188 6.1684 16.6194 6.25081 16.648C6.30427 16.6665 6.53074 16.4794 6.56378 16.4723C6.56378 16.4723 6.56489 16.4723 6.56601 16.472C6.57677 16.4698 6.59942 16.4601 6.61019 16.4601C6.61278 16.4601 6.61464 16.4608 6.61575 16.462C6.62095 16.4705 6.58457 16.5006 6.57937 16.505C6.52591 16.5511 6.43421 16.7311 6.40043 17.0018C6.35959 17.3296 6.42345 17.6332 6.4602 17.7769C6.52703 17.693 6.62021 17.5913 6.74495 17.4922C6.8682 17.3938 6.987 17.3262 7.08279 17.2802C6.99332 17.5727 6.93874 17.83 6.90384 18.0353C6.81771 18.5439 6.73047 19.0915 6.90384 19.7178C6.97921 19.9899 7.08464 20.2082 7.1756 20.3671C7.24168 20.3051 7.30814 20.2435 7.37422 20.1815C7.38387 20.2895 7.40466 20.4395 7.45367 20.6122C7.50564 20.7944 7.58397 20.9853 7.65228 21.0959C7.92478 21.5355 8.59823 21.6079 8.71889 21.6194C8.83063 20.8052 9.06563 20.1875 9.24866 19.791C9.79811 18.6015 10.5874 17.8764 11.1565 17.3533C11.4788 17.0574 11.7769 16.7864 12.2428 16.5054C12.6471 16.2618 13.283 15.8787 14.177 15.79C14.2591 15.7818 14.3315 15.7774 14.4035 15.7774C14.4202 15.7774 14.4369 15.7774 14.454 15.7781C14.5921 15.7822 14.7201 15.7889 14.8586 15.8037C15.789 15.904 16.915 16.3075 16.915 16.3075C17.2888 16.4371 17.3605 16.479 17.4147 16.5147C17.4303 16.5251 17.4451 16.5358 17.4603 16.5466C17.3557 16.3027 17.2239 16.025 17.0148 15.7035C16.8567 15.4603 16.7071 15.2725 16.6024 15.1488L16.6028 15.1477Z" fill="#FCB300"/>
<path d="M23.2131 12.682C23.1062 12.539 23.0275 12.4236 22.9142 12.2539C22.8879 12.3256 22.86 12.3968 22.8285 12.4666C22.7609 12.617 22.6803 12.7621 22.5894 12.9006C22.6729 12.973 22.7312 13.0387 22.768 13.0803C22.922 13.2555 23.0152 13.4252 23.0661 13.5366C23.1648 13.7526 23.219 13.9843 23.2283 14.2256C23.242 14.2356 23.2554 14.2464 23.2673 14.2587C23.3141 14.2691 23.3701 14.2772 23.4329 14.2772C23.473 14.2772 23.5153 14.2739 23.5602 14.2661C23.6014 14.2587 23.6389 14.2483 23.672 14.2368C23.6449 14.1725 23.614 14.1053 23.5795 14.0359C23.542 13.9613 23.5038 13.8919 23.4663 13.8276C23.5368 13.7957 23.6085 13.7619 23.6812 13.7267C23.7507 13.6929 23.8186 13.6591 23.8843 13.6249C23.8461 13.5574 23.7874 13.4575 23.7113 13.3409C23.5528 13.0985 23.4733 13.0302 23.2127 12.682H23.2131Z" fill="#FCB300"/>
<path d="M21.144 18.2333C21.144 18.2333 21.1592 18.2143 21.1655 18.1813L20.8009 18.1111C20.8429 17.8928 20.8611 17.6731 20.8544 17.4581C20.8511 17.3497 20.8414 17.2454 20.8258 17.1485C20.8184 17.1032 20.811 17.0575 20.8002 17.0234C20.7987 17.0182 20.7965 17.013 20.7946 17.0078C20.7787 16.9651 20.7486 16.8853 20.7764 16.7884C20.8377 16.5756 21.0623 16.5563 21.3006 16.5359L21.3263 16.5333C21.3563 16.5303 21.3901 16.527 21.4265 16.527C21.4725 16.527 21.5134 16.5326 21.5512 16.5437C21.81 16.6194 21.7242 16.9784 21.6879 17.1318C21.6838 17.1485 21.6756 17.1823 21.6756 17.1823C21.5962 17.5027 21.4384 17.8279 21.1937 18.1765C21.1811 18.1943 21.1677 18.2084 21.1562 18.2207C21.1521 18.2247 21.1481 18.2288 21.1443 18.2333H21.144Z" fill="white"/>
<path d="M21.4264 16.7125C21.4513 16.7125 21.4758 16.7147 21.4992 16.7218C21.5813 16.7459 21.5356 16.9709 21.5074 17.0886C21.5026 17.1083 21.4985 17.1253 21.4955 17.1376C21.4079 17.4899 21.2271 17.8062 21.0418 18.0698C21.0281 18.0895 20.9884 18.1207 20.9835 18.1463C21.0273 17.918 21.0474 17.6822 21.0403 17.4524C21.037 17.3392 21.027 17.2271 21.0092 17.1183C21.001 17.0674 20.9921 17.0147 20.9776 16.9679C20.9657 16.9293 20.9408 16.8877 20.955 16.8391C20.9802 16.7507 21.1049 16.7385 21.3166 16.7199C21.3518 16.717 21.3897 16.7118 21.4268 16.7118" fill="#1E1E1E"/>
<path d="M22.5598 13.7683C22.5308 13.7048 22.4651 13.5793 22.35 13.4483C22.3069 13.3992 22.242 13.3254 22.1384 13.2545C22.0393 13.1865 21.9279 13.1375 21.808 13.1082L21.6365 13.0662L21.6008 12.8932C21.4987 12.3958 21.3591 11.9009 21.1854 11.4227C21.0491 11.0474 20.7952 10.3483 20.2781 9.54196C19.9094 8.96726 19.4387 8.40185 18.9167 7.90697C18.4255 7.44142 17.8809 7.03156 17.2969 6.68556C17.0422 6.62281 16.5006 6.51181 15.7856 6.51181C15.2781 6.51181 14.6837 6.56787 14.0429 6.73679C14.0229 6.74199 14.0028 6.74755 13.9831 6.75312C15.124 7.1964 16.7753 8.04099 18.2124 9.65519C18.7589 10.2692 19.1747 10.8825 19.4921 11.4379C19.7078 11.7561 19.8337 12.0468 19.909 12.2573C19.9759 12.444 20.0538 12.6686 20.0672 12.976C20.0735 13.1201 20.0638 13.2411 20.0527 13.3283C19.8615 13.3718 19.4691 13.4883 19.1108 13.8243C18.9891 13.9387 18.7511 14.167 18.6253 14.5468C18.4471 15.0851 18.616 15.5596 18.6795 15.7151C18.6776 15.7151 18.6754 15.7155 18.6735 15.7158C18.7485 15.8792 18.8595 16.0537 19.0255 16.2085C19.4747 16.628 20.0215 16.6306 20.284 16.6321C20.6025 16.634 20.9638 16.6354 21.2188 16.386C21.3692 16.2386 21.4375 16.0529 21.4679 15.8992C21.4616 15.8889 21.456 15.8785 21.4494 15.8681C21.371 15.7444 21.2782 15.6442 21.1676 15.5499C21.0866 15.4808 20.9979 15.4073 20.891 15.384C20.8037 15.365 20.708 15.3784 20.6189 15.3706C20.4251 15.3535 20.2461 15.2681 20.1964 15.0665C20.15 14.8787 20.2023 14.725 20.3055 14.6032C20.4719 14.4076 20.7384 14.3088 20.9827 14.2557C21.5303 14.1365 22.1065 14.1592 22.6648 14.1447C22.6496 14.0129 22.6143 13.8863 22.5598 13.7672V13.7683Z" fill="white"/>
<path d="M21.9651 16.2735C21.9547 16.2776 21.9443 16.2817 21.9339 16.2858C21.922 16.3159 21.909 16.3463 21.8949 16.3767C21.948 16.3946 22.0115 16.4083 22.0824 16.4083C22.1065 16.4083 22.1314 16.4068 22.157 16.4031C22.2918 16.3842 22.4124 16.3155 22.5546 16.1681C22.7644 15.9517 22.8984 15.6925 22.9882 15.446C22.7324 15.8128 22.372 16.1169 21.9654 16.2735H21.9651Z" fill="white"/>
<path d="M24.3697 13.3506C24.3096 13.2444 24.245 13.1386 24.1782 13.0362C24.0709 12.8721 23.9907 12.7718 23.8979 12.6556C23.8344 12.5758 23.7624 12.4856 23.6595 12.3482C23.5433 12.1927 23.4628 12.072 23.3165 11.8523L23.3005 11.8281C23.2311 11.7238 23.1624 11.6184 23.0949 11.5126C23.0967 11.4784 23.0975 11.4442 23.0978 11.4101C23.1019 11.357 23.1049 11.3032 23.1064 11.2493H23.0941C23.0919 11.2096 23.0889 11.1699 23.0848 11.1305C23.0767 11.0533 23.0648 10.9765 23.0496 10.9C23.1357 10.7363 23.2092 10.5659 23.269 10.3914C23.3473 10.1627 23.4928 9.7365 23.4561 9.23716C23.4401 9.02258 23.3161 7.93036 22.4199 7.48412C22.1924 7.37052 21.9392 7.31297 21.6678 7.31297C21.2568 7.31297 20.8696 7.44514 20.5867 7.54129C20.4939 7.57285 20.4022 7.60849 20.312 7.64747C20.0617 7.43289 19.695 7.15074 19.2301 6.88195C18.488 6.45316 17.809 6.24489 17.5514 6.17509C17.538 6.17138 17.5246 6.16804 17.5113 6.1647C17.4626 6.15245 17.4136 6.14057 17.365 6.12832C16.8798 6.01545 16.327 5.95383 15.7868 5.95383C15.1486 5.95383 14.5145 6.03587 13.902 6.19737C13.3599 6.3403 12.8331 6.54634 12.3364 6.80919L11.6741 7.15965C11.3964 7.16782 11.2728 7.17153 11.2007 7.17821C11.0489 7.19158 10.7333 7.21979 10.4185 7.33376C9.74024 7.57953 9.40426 8.00276 9.24202 8.31424C9.21418 8.36807 8.97398 8.85478 9.03227 9.56572C9.04304 9.69863 9.06717 9.81335 9.07199 9.83488C9.13399 10.1196 9.24388 10.3201 9.29066 10.4059C9.30625 10.4344 9.36417 10.4693 9.33929 10.4905C7.48787 12.0598 6.35258 13.9071 5.92268 16.096C5.90634 16.1781 5.86142 16.2538 5.83172 16.3329L5.41406 17.4418L5.83283 17.2978C5.84063 17.5394 5.8811 17.7544 5.92156 17.9122L6.19851 18.9999L6.24789 18.9379C6.24641 19.2245 6.27722 19.5338 6.36855 19.8642C6.44317 20.1337 6.55232 20.3955 6.69376 20.642L7.04348 21.2519L7.08655 21.2115C7.11736 21.2764 7.14892 21.3358 7.18047 21.3871C7.5636 22.0052 8.3488 22.1415 8.66844 22.1715L9.1997 22.2213L9.2721 21.6926C9.35303 21.1042 9.51564 20.5421 9.75584 20.0224C10.2589 18.9342 10.9962 18.2563 11.5349 17.7611C11.8278 17.4919 12.1044 17.2376 12.5317 16.9803C12.9029 16.7565 13.4643 16.4183 14.2335 16.3422C14.3014 16.3355 14.356 16.3321 14.405 16.3321C14.4165 16.3321 14.4277 16.3321 14.4392 16.3325C14.5847 16.337 14.6927 16.3436 14.8008 16.3551C15.6528 16.4472 16.7186 16.8259 16.7294 16.8296L16.8204 16.8623H16.8222C17.042 16.9406 17.0966 16.9685 17.1099 16.9774C17.3282 17.1214 17.4437 17.3494 17.6074 17.7072C17.6824 17.871 17.7893 18.1397 17.8743 18.4906C17.9233 18.6922 17.9423 18.8299 17.9579 18.9405C17.9872 19.151 18.0206 19.3897 18.2493 19.6132C18.5177 19.8753 18.8927 19.8976 19.2227 19.8976C19.3638 19.8976 19.5257 19.8924 19.7128 19.8869C20.3892 19.8657 20.8618 19.7792 21.1295 19.4143C21.2052 19.311 21.2501 19.2038 21.34 18.9895C21.4439 18.7415 21.5022 18.5511 21.5211 18.4887L21.5219 18.4865C21.5802 18.296 21.6492 18.1772 21.7454 18.0128C21.8044 17.9111 21.8716 17.796 21.9432 17.6516C22.0524 17.4321 22.1445 17.1994 22.2187 16.9562C22.2246 16.9555 22.2306 16.9547 22.2365 16.954C22.5833 16.905 22.8135 16.7026 22.9568 16.5549C23.5014 15.9924 23.6376 15.2533 23.7033 14.898C23.7093 14.8657 23.7148 14.8334 23.7204 14.8011C23.7672 14.7903 23.8136 14.777 23.8589 14.7614L24.4191 14.5653L24.2149 14.0824L24.6578 13.8544L24.372 13.3499L24.3697 13.3506ZM20.7656 8.06921C21.0741 7.95672 21.3455 7.87059 21.667 7.87059C21.8374 7.87059 22.0075 7.90178 22.1708 7.98308C22.8153 8.30421 22.8925 9.17999 22.8996 9.27837C22.9278 9.66447 22.8123 10.0027 22.7411 10.2113C22.6512 10.4742 22.5402 10.6798 22.4533 10.8198C22.4849 10.9197 22.515 11.044 22.5302 11.1888C22.5372 11.2564 22.5402 11.3206 22.5406 11.3808C22.5161 11.6796 22.4426 11.9673 22.3208 12.2372C22.2618 12.3679 22.1912 12.4941 22.111 12.6141C21.9655 12.0561 21.8233 11.5876 21.709 11.2323C21.5497 10.7363 21.3299 10.0587 20.9602 9.2134C20.7731 8.78535 20.6001 8.43489 20.4727 8.18727C20.5399 8.15683 20.6409 8.11376 20.7656 8.0681V8.06921ZM17.4147 16.5133C17.3609 16.4777 17.2889 16.4357 16.915 16.3061C16.915 16.3061 15.789 15.903 14.8587 15.8024C14.7202 15.7875 14.5917 15.7808 14.454 15.7767C14.4373 15.7764 14.4202 15.776 14.4035 15.776C14.3315 15.776 14.2591 15.7805 14.1771 15.7886C13.2831 15.8773 12.6471 16.2605 12.2428 16.504C11.7766 16.7851 11.4784 17.0557 11.1566 17.352C10.5874 17.875 9.79853 18.6001 9.24871 19.7896C9.06568 20.1857 8.83068 20.8035 8.71893 21.618C8.59828 21.6069 7.92483 21.5345 7.65233 21.0945C7.58365 20.9839 7.50532 20.7934 7.45371 20.6108C7.40471 20.4382 7.38392 20.2882 7.37426 20.1801C7.30818 20.2421 7.24173 20.3038 7.17565 20.3658C7.08469 20.2069 6.97925 19.9886 6.90389 19.7164C6.73052 19.0898 6.81776 18.5422 6.90389 18.0339C6.93879 17.8286 6.99336 17.5714 7.08283 17.2788C6.98705 17.3249 6.86825 17.3924 6.745 17.4908C6.62026 17.5903 6.52707 17.6916 6.46025 17.7756C6.42349 17.6319 6.36001 17.3286 6.40047 17.0004C6.43426 16.7297 6.52559 16.5497 6.57942 16.5036C6.58461 16.4992 6.621 16.4691 6.6158 16.4606C6.61506 16.4591 6.6132 16.4587 6.61023 16.4587C6.59946 16.4587 6.57682 16.4684 6.56605 16.4706C6.4892 16.4869 6.41792 16.5074 6.35184 16.5304C6.37449 16.4788 6.39713 16.4272 6.41978 16.3756C6.42646 16.3507 6.43611 16.3262 6.4402 16.3009C6.71084 14.5553 7.70282 12.499 9.68121 10.9483C9.53383 11.0637 9.90174 11.1539 10.0035 11.2167C10.0629 11.2534 10.0985 11.2753 10.1579 11.3425C10.1902 11.3793 10.2136 11.4068 10.2307 11.429C10.1145 11.5059 10.0666 11.6392 10.0462 11.6971C9.96893 11.9176 10.0413 12.1155 10.0677 12.1786C10.1753 12.1136 10.3328 12.0312 10.534 11.9655C10.6364 11.9321 10.7642 11.899 11.1462 11.8549C11.5861 11.804 11.8063 11.7787 12.088 11.7903C12.3182 11.7995 12.4842 11.8259 12.7567 11.8693C13.0778 11.9206 13.3677 11.9837 13.5322 12.026C14.0787 12.1671 14.4804 12.4021 15.1935 12.8179C15.9071 13.2344 16.3879 13.5949 16.5378 13.7092C16.8764 13.9669 17.1556 14.2075 17.3724 14.405C17.277 14.4718 17.1764 14.5498 17.0739 14.6396C16.8764 14.8133 16.7216 14.9893 16.6024 15.1467C16.7071 15.2704 16.8567 15.4578 17.0149 15.7014C17.2239 16.0229 17.3557 16.3006 17.4604 16.5445C17.4455 16.5337 17.4307 16.523 17.4147 16.5126V16.5133ZM17.6757 12.052C17.3409 11.749 17.0431 11.5411 16.7316 11.3236C16.4576 11.1324 16.2104 10.9594 15.8547 10.7678C15.8547 10.7678 14.8345 10.2173 14.2016 10.26C14.0178 10.2722 13.8455 10.3164 13.8455 10.3164C13.7416 10.3431 13.6532 10.375 13.5834 10.4036C13.5062 10.1868 13.3492 9.8204 13.0369 9.45472C12.5499 8.88411 11.5794 8.19469 10.8659 8.5058C10.8358 8.5188 10.593 8.6298 10.4456 8.88782C10.1501 9.40571 10.4133 10.2154 10.8651 10.4088C10.9286 10.4359 10.9843 10.446 11.0166 10.4504C11.0452 10.4861 11.2015 10.6862 11.1532 10.9356C11.1157 11.1283 10.9706 11.2753 10.8139 11.35C10.7768 11.2122 10.6799 11.0927 10.5744 10.9739C10.4605 10.8454 10.3691 10.789 10.2956 10.7433C10.2154 10.6936 10.2236 10.6958 10.2162 10.6899C10.1687 10.6539 10.1297 10.6093 10.0539 10.5217C10.0339 10.4987 10.0068 10.4671 9.97153 10.4237C9.93255 10.3754 9.90062 10.3327 9.87575 10.2982C9.84197 10.2496 9.80892 10.1968 9.77774 10.1397C9.73467 10.061 9.65857 9.91989 9.61476 9.71793C9.61402 9.71385 9.59434 9.62215 9.58617 9.52154C9.5394 8.94796 9.73467 8.57263 9.73467 8.57263C9.99009 8.08183 10.4798 7.90438 10.6067 7.85871C10.8536 7.76924 11.1109 7.74622 11.249 7.73397C11.3121 7.7284 11.4688 7.72395 11.7821 7.71467C11.9715 7.7091 12.127 7.70687 12.1641 7.70613C12.5283 7.69982 12.5688 7.70353 12.7132 7.69685C12.8276 7.69128 12.9961 7.6794 13.2029 7.65044C13.4063 7.73806 13.6536 7.85017 13.9565 7.98791C15.2492 8.5756 16.4098 9.41945 16.4773 9.46883C17.0075 9.85752 17.6471 10.3825 18.3128 11.0693C18.4178 11.184 18.6477 11.435 18.7824 11.582C18.7824 11.582 19.0464 11.8701 19.3957 12.3787C19.4291 12.4277 19.4952 12.5264 19.506 12.6649C19.5093 12.7106 19.5123 12.8427 19.4388 12.9526C19.31 13.1449 19.0267 13.1487 18.9836 13.149C18.5671 13.1542 18.4119 12.718 17.6753 12.0516L17.6757 12.052ZM21.4424 17.4047C21.2613 17.7692 21.1061 17.9363 20.9873 18.3246C20.9713 18.3773 20.919 18.5496 20.8243 18.775C20.7515 18.9487 20.7148 19.0356 20.6784 19.0857C20.5971 19.1967 20.4363 19.3077 19.6935 19.3307C19.5093 19.3367 19.3534 19.3415 19.2209 19.3415C18.9172 19.3415 18.739 19.3159 18.6365 19.216C18.4854 19.0682 18.5493 18.9379 18.4216 18.3944C18.2875 17.7574 18.2311 17.3163 18.2051 17.0234C18.1984 16.9503 18.1728 16.647 18.126 16.1175C18.1171 16.0184 18.106 15.8896 18.0975 15.7942L18.1034 15.7934C18.2003 16.0541 18.3648 16.354 18.6454 16.6161C19.2539 17.1841 20.0001 17.1879 20.2815 17.1893C20.3086 17.1893 20.3361 17.1893 20.3643 17.1893C20.7382 17.1893 21.2197 17.1648 21.6087 16.7836C21.6511 16.742 21.6889 16.6989 21.7238 16.6551C21.6384 16.9729 21.5338 17.2209 21.4428 17.4039L21.4424 17.4047ZM20.9828 14.2568C20.7385 14.3099 20.472 14.4087 20.3057 14.6043C20.2025 14.7261 20.1501 14.8794 20.1965 15.0677C20.2463 15.2692 20.4252 15.3546 20.619 15.3717C20.7081 15.3795 20.8039 15.3658 20.8911 15.3851C20.9977 15.4085 21.0864 15.482 21.1677 15.551C21.2783 15.6453 21.3711 15.7456 21.4495 15.8692C21.4558 15.8792 21.4617 15.89 21.468 15.9004C21.4376 16.0541 21.3693 16.2397 21.2189 16.3871C20.9643 16.6369 20.603 16.6351 20.2841 16.6332C20.0213 16.6317 19.4748 16.6291 19.0256 16.2096C18.8596 16.0548 18.7486 15.8803 18.6736 15.717C18.6755 15.717 18.6777 15.7166 18.6796 15.7162C18.6161 15.5607 18.4472 15.0862 18.6254 14.5479C18.7512 14.1685 18.9892 13.9398 19.111 13.8254C19.4692 13.4895 19.8613 13.3729 20.0528 13.3295C20.0636 13.2422 20.0736 13.1212 20.0673 12.9771C20.0539 12.6694 19.976 12.4451 19.9092 12.2584C19.8338 12.0475 19.7079 11.7572 19.4922 11.4391C19.1752 10.8837 18.7594 10.2704 18.2125 9.65631C16.7754 8.04211 15.3038 7.15037 14.1629 6.70747C14.1629 6.70747 14.1644 6.70709 14.1648 6.70709C14.3746 6.64621 14.5925 6.60277 14.9333 6.56602C15.1583 6.54189 15.4278 6.51256 15.7861 6.51293C16.1595 6.5133 16.68 6.54597 17.2974 6.68668C17.5332 6.82627 17.8042 7.00075 18.0937 7.21645C18.2556 7.33673 18.5686 7.57805 18.9172 7.90846C19.6816 8.6324 20.1468 9.33815 20.2786 9.54345C20.7953 10.3498 21.0493 11.0489 21.1859 11.4242C21.3596 11.9024 21.4992 12.3972 21.6013 12.8947L21.637 13.0677L21.8085 13.1097C21.9284 13.139 22.0398 13.188 22.1389 13.2559C22.2425 13.3269 22.3074 13.4007 22.3505 13.4497C22.4656 13.5808 22.5313 13.7063 22.5603 13.7698C22.6148 13.8889 22.6497 14.0155 22.6653 14.1473C22.1073 14.1618 21.5312 14.1392 20.9832 14.2583L20.9828 14.2568ZM22.5543 16.1684C22.4118 16.3154 22.2915 16.3841 22.1567 16.4034C22.1311 16.4071 22.1062 16.4086 22.0821 16.4086C22.0112 16.4086 21.9477 16.3945 21.8946 16.3771C21.9087 16.3466 21.9221 16.3162 21.9336 16.2861C21.944 16.282 21.9544 16.2779 21.9648 16.2738C22.3713 16.1175 22.7318 15.8135 22.9876 15.4463C22.8981 15.6932 22.7637 15.952 22.5539 16.1684H22.5543ZM23.6818 13.7267C23.609 13.762 23.5374 13.7957 23.4669 13.8277C23.5047 13.8915 23.543 13.961 23.5801 14.0359C23.615 14.1054 23.6454 14.1726 23.6725 14.2368C23.6395 14.2483 23.602 14.2587 23.5608 14.2661C23.5162 14.2739 23.4735 14.2773 23.4334 14.2773C23.3707 14.2773 23.3146 14.2691 23.2679 14.2587C23.256 14.2464 23.2426 14.2357 23.2289 14.2257C23.2196 13.9843 23.1654 13.7527 23.0666 13.5366C23.0158 13.4252 22.9226 13.2556 22.7685 13.0803C22.7321 13.0388 22.6739 12.9731 22.59 12.9007C22.6809 12.7622 22.7611 12.617 22.829 12.4667C22.8606 12.3969 22.8884 12.3256 22.9148 12.2539C23.028 12.4236 23.1067 12.5387 23.2137 12.682C23.4743 13.0302 23.5537 13.0985 23.7122 13.341C23.7887 13.4579 23.847 13.5574 23.8853 13.625C23.8192 13.6588 23.7516 13.6929 23.6822 13.7267H23.6818Z" fill="#1E1E1E"/>
<path d="M22.1226 10.1541C22.1824 10.2581 22.2652 10.411 22.3576 10.6141C22.4968 10.323 22.5796 10.0676 22.6309 9.87864C22.7307 9.50924 22.7972 9.2386 22.6858 8.94903C22.6654 8.89557 22.5503 8.59671 22.3528 8.58223C22.2711 8.57629 22.2065 8.62121 22.1731 8.6446C22.1015 8.69435 22.0164 8.78902 21.9262 9.21744C21.9032 9.32733 21.8765 9.47546 21.8568 9.65366C21.8787 9.70007 21.9117 9.76949 21.9552 9.85265C22.0291 9.99484 22.0855 10.0899 22.123 10.1545L22.1226 10.1541Z" fill="#1E1E1E"/>
<path d="M9.17013 13.4398C9.06246 13.523 8.94404 13.6254 8.82338 13.7498C8.68193 13.8961 8.56982 14.039 8.48257 14.166C8.64778 14.1151 8.81298 14.0639 8.97856 14.013C8.87313 14.1359 8.75507 14.2918 8.64407 14.483C8.54383 14.6553 8.47143 14.8171 8.41872 14.9575C8.57984 14.8765 8.75433 14.7956 8.94292 14.7184C9.09031 14.6579 9.23287 14.6044 9.36949 14.5576C9.29635 14.7106 9.2169 14.9118 9.1627 15.1557C9.10107 15.4327 9.09142 15.6755 9.09773 15.8592C9.27779 15.8581 9.46527 15.8529 9.65943 15.8433C9.85546 15.8332 10.0444 15.8191 10.2252 15.8021C10.0663 16.017 9.90372 16.2702 9.75596 16.5635C9.70473 16.6648 9.65906 16.764 9.61748 16.8609C9.84209 16.6793 10.1387 16.4789 10.5107 16.3133C10.664 16.245 10.8111 16.1911 10.9484 16.1484C11.0171 16.1195 11.0969 16.0909 11.1871 16.0668C11.2595 16.0475 11.3271 16.0345 11.3883 16.0256C11.2603 16.1444 11.0676 16.3578 10.9514 16.6771C10.9057 16.803 10.8808 16.9203 10.8679 17.0209C11.013 16.8546 11.2436 16.63 11.5751 16.4384C11.8624 16.2721 12.0028 16.2661 12.2556 16.157C12.4561 16.0705 13.1522 15.7694 13.4369 15.1075C13.647 14.6185 13.5891 14.0349 13.3456 13.5942C12.8615 12.7192 11.7704 12.6353 11.4581 12.6112C10.2416 12.5176 9.37023 13.2609 9.1705 13.4409L9.17013 13.4398Z" fill="#1E1E1E"/>
<path d="M10.0423 12.6416C9.9343 12.7244 9.81513 12.8261 9.69411 12.9497C9.55192 13.0952 9.43906 13.2374 9.35107 13.364C9.51665 13.3139 9.68223 13.2638 9.8478 13.2133C9.74163 13.3354 9.6232 13.491 9.51071 13.6818C9.40973 13.8533 9.33659 14.0152 9.28276 14.1551C9.44425 14.075 9.61911 13.9951 9.80808 13.9187C9.95584 13.8589 10.0984 13.8062 10.2354 13.7601C10.1615 13.9127 10.0809 14.1136 10.0253 14.3571C9.96215 14.6337 9.95138 14.8765 9.95695 15.0603C10.137 15.0603 10.3245 15.0558 10.5187 15.0469C10.7147 15.038 10.9036 15.0246 11.0848 15.0083C10.9248 15.2225 10.7611 15.4746 10.6115 15.7675C10.5599 15.8685 10.5135 15.9676 10.4715 16.0641C10.6972 15.8837 10.9946 15.6851 11.3677 15.521C11.5214 15.4534 11.6688 15.4003 11.8065 15.3584C11.8752 15.3298 11.955 15.3016 12.0456 15.2778C12.118 15.2589 12.1856 15.2463 12.2472 15.2373C12.1187 15.3554 11.9246 15.5678 11.8069 15.8867C11.7605 16.0125 11.7352 16.1295 11.7219 16.2301C11.8681 16.0645 12.0994 15.841 12.4321 15.6509C12.7205 15.4861 12.8609 15.4809 13.1137 15.3729C13.3145 15.2871 14.0121 14.9897 14.3002 14.3293C14.5129 13.8414 14.458 13.2575 14.2163 12.8157C13.7367 11.938 12.6459 11.8486 12.3337 11.823C11.1175 11.7235 10.2424 12.4622 10.042 12.6412L10.0423 12.6416Z" fill="#FCB300"/>
<path d="M17.0644 12.3211C17.3908 12.5784 17.5961 12.8486 17.7041 13.009C17.8229 13.185 17.9046 13.3461 17.9599 13.4694C17.9046 13.4386 17.8288 13.4252 17.7449 13.3996C17.69 13.3825 17.6198 13.3806 17.5745 13.3736C17.4851 13.4764 17.462 13.5058 17.3269 13.5421C17.1688 13.5848 17.0384 13.5678 16.9746 13.5492C16.6824 13.4642 16.5098 13.2366 16.4222 13.1182C16.1879 12.8011 16.13 12.4722 16.0903 12.248C16.0572 12.0597 16.0498 11.9016 16.0494 11.7935C16.3034 11.8704 16.6824 12.02 17.0644 12.3211Z" fill="white"/>
<path d="M15.2683 18.8165C14.5384 18.652 14.0718 18.7545 13.9173 18.7935C13.7974 18.8239 13.6868 18.8618 13.5858 18.9033C13.6611 18.9538 13.7714 19.0292 13.9021 19.1246C14.1653 19.3162 14.3517 19.4721 14.4304 19.5378C14.5325 19.6228 14.5956 19.6741 14.6472 19.7153C14.6472 19.7153 14.7307 19.7825 14.8261 19.8556C14.9241 19.931 15.0017 19.9911 15.0934 20.055C15.3206 20.2135 15.6451 20.3965 15.6581 20.4039C15.8727 20.5224 16.2373 20.9122 16.8892 22.1496C17.3224 21.0978 17.2768 20.0119 16.6957 19.4261C16.3275 19.0548 15.7936 18.9345 15.2683 18.8165Z" fill="white" stroke="#1E1E1E" stroke-width="0.556876" stroke-linecap="round" stroke-linejoin="round"/>
<path d="M14.5945 19.3426C14.2912 19.2605 13.6686 19.135 12.9246 19.2932C12.7705 19.3259 12.6458 19.3634 12.5626 19.3908C12.6402 19.4495 12.7538 19.5371 12.8882 19.647C13.1778 19.8839 13.3786 20.0747 13.4291 20.1218C13.4291 20.1218 13.6033 20.2829 13.7833 20.44C13.875 20.5198 13.9493 20.5844 14.0369 20.6557C14.3227 20.8888 14.6821 21.1398 14.7003 21.152C14.942 21.3184 15.3203 21.7809 15.9265 23.0614C15.9971 22.9337 16.675 21.6633 16.0494 20.4756C15.8055 20.0127 15.4528 19.7313 15.2163 19.5779C15.0006 19.4525 14.8236 19.4049 14.5945 19.3429V19.3426Z" fill="white" stroke="#1E1E1E" stroke-width="0.556876" stroke-linecap="round" stroke-linejoin="round"/>
<path d="M13.0697 20.122C12.5897 20.0095 12.0484 19.8662 11.5583 20.1454C11.3734 20.2508 11.2498 20.3844 11.1756 20.4795C11.284 20.5259 11.4559 20.6024 11.6608 20.7089C11.9363 20.8522 12.0985 20.9558 13.0905 21.627C13.3804 21.8234 13.5657 21.9493 13.8118 22.1453C13.9763 22.2763 14.1084 22.3829 14.2599 22.5373C14.4292 22.7096 14.6226 22.942 14.8012 23.2475C14.8673 23.0979 14.949 22.8785 14.9983 22.6041C15.0462 22.3365 15.1231 21.9563 14.9794 21.555C14.8068 21.0738 14.44 20.8006 14.1949 20.618C13.745 20.2823 13.311 20.1784 13.0689 20.122H13.0697Z" fill="white" stroke="#1E1E1E" stroke-width="0.556876" stroke-linecap="round" stroke-linejoin="round"/>
<path d="M13.004 21.6132C12.9405 21.5018 12.8496 21.3069 12.8377 21.0533C12.831 20.9082 12.8106 20.4296 13.1577 20.2143C13.3935 20.068 13.719 20.0937 13.9912 20.2622C13.9878 20.2232 13.957 19.7688 14.2882 19.5245C14.4786 19.3842 14.6876 19.3875 14.7767 19.3905C15.2972 19.4065 15.6161 19.8791 15.6588 19.9448C15.5415 19.7057 15.5913 19.4239 15.7732 19.2565C15.9206 19.1206 16.1363 19.0772 16.336 19.1392C16.2372 18.9547 15.9948 18.5648 15.5222 18.3161C15.0994 18.0937 14.7129 18.1019 14.3502 18.1064C13.6314 18.1145 13.1187 18.3629 13.0033 18.4212C12.808 18.5196 12.4082 18.7263 12.0763 19.1559C11.9816 19.2784 11.1704 20.3257 11.6501 21.0667C12.0343 21.6611 12.9357 21.6176 13.0033 21.6132H13.004Z" fill="#FCB300" stroke="#1E1E1E" stroke-width="0.556876" stroke-linecap="round" stroke-linejoin="round"/>
<path d="M24.4442 20.2796C24.2241 19.8994 23.8436 19.6696 23.6175 19.5334C23.5265 19.4784 23.4485 19.438 23.3951 19.4116C23.4047 19.4777 23.4185 19.5753 23.4315 19.6938C23.4574 19.9321 23.4649 20.1114 23.4682 20.1872C23.4727 20.2852 23.476 20.3449 23.479 20.3936C23.479 20.3936 23.4838 20.4723 23.4912 20.5606C23.4987 20.6516 23.5046 20.724 23.5154 20.8057C23.5332 20.9441 23.5391 21.0136 23.6048 21.2853C23.6498 21.4713 23.6331 21.87 23.3999 22.7726C23.4775 22.7403 24.4494 22.3196 24.6139 21.3562C24.6343 21.2359 24.7126 20.7429 24.4446 20.28L24.4442 20.2796Z" fill="white" stroke="#1E1E1E" stroke-width="0.556876" stroke-linecap="round" stroke-linejoin="round"/>
<path d="M23.5927 20.0868C23.3462 19.515 22.9145 19.1995 22.7771 19.1018C22.6828 19.0346 22.5985 18.9853 22.5369 18.9515C22.5425 19.0265 22.5506 19.1364 22.5599 19.2693C22.6186 20.1179 22.6549 20.6429 22.6431 21.0795C22.633 21.457 22.5807 21.9991 22.3843 22.6625C22.4764 22.6372 23.4216 22.3607 23.7145 21.4749C23.9217 20.8489 23.68 20.2902 23.5924 20.0875L23.5927 20.0868Z" fill="white" stroke="#1E1E1E" stroke-width="0.556876" stroke-linecap="round" stroke-linejoin="round"/>
<path d="M22.3743 19.5715C22.2432 19.3395 22.0186 18.9419 21.6886 18.9646C21.621 18.9694 21.5646 18.9905 21.5286 19.0072C21.4435 19.0325 21.35 19.0741 21.327 19.1442C21.308 19.2014 21.3504 19.2519 21.3544 19.2719C21.3893 19.4531 21.4168 19.6859 21.4937 20.4076C21.5215 20.6693 21.5389 20.8368 21.5453 21.0751C21.5501 21.257 21.5434 21.4052 21.5386 21.4865C21.5375 21.5076 21.5363 21.5202 21.536 21.5284C21.5282 21.6453 21.5293 21.8369 21.5668 22.1662C21.6652 22.1395 21.8055 22.0901 21.9536 21.994C22.2688 21.789 22.4092 21.5084 22.4752 21.3725C22.6683 20.9749 22.6505 20.6125 22.6404 20.4421C22.6145 20.0033 22.453 19.71 22.375 19.5715H22.3743Z" fill="white" stroke="#1E1E1E" stroke-width="0.556876" stroke-linecap="round" stroke-linejoin="round"/>
<path d="M21.4754 20.3642C21.4932 20.2914 21.5452 20.1247 21.6956 19.9903C21.7379 19.9525 21.9985 19.7138 22.2996 19.8129C22.5416 19.8923 22.6348 20.1325 22.6489 20.1704C22.666 20.1496 22.9084 19.8645 23.2466 19.9116C23.4341 19.9376 23.5581 20.0531 23.5934 20.0869C23.7389 20.2261 23.7783 20.3902 23.7898 20.4503C23.9134 20.255 24.1454 20.1782 24.327 20.2532C24.5274 20.3363 24.5713 20.5654 24.5742 20.5814C24.5742 20.3408 24.53 20.1552 24.4926 20.0356C24.246 19.2516 23.5169 18.8617 23.2206 18.7489C23.2106 18.7452 23.2028 18.7422 23.1976 18.7403C22.7566 18.5774 22.3456 18.6175 22.3456 18.6175C22.3415 18.6178 22.3274 18.6193 22.3129 18.6212C22.0397 18.6538 21.2979 18.8398 21.1476 19.38C21.0128 19.8645 21.439 20.3256 21.4758 20.3642H21.4754Z" fill="#FCB300" stroke="#1E1E1E" stroke-width="0.556876" stroke-linecap="round" stroke-linejoin="round"/>
<path d="M21.5148 14.7709C21.7891 14.7442 22.0772 14.7241 22.3779 14.7126C22.5576 14.7059 22.5316 14.7026 22.7024 14.7022" fill="#1E1E1E"/>
<path d="M21.5148 14.7709C21.7891 14.7442 22.0772 14.7241 22.3779 14.7126C22.5576 14.7059 22.5316 14.7026 22.7024 14.7022" stroke="white" stroke-width="0.297" stroke-linecap="round" stroke-linejoin="round"/>
<path d="M26.3398 9.41083C26.0339 8.87474 25.6909 8.36279 25.3144 7.8783C27.8687 4.73047 30.0438 1.8065 30.7722 0.364197C29.3908 1.12674 26.5221 3.36241 23.4589 5.94261C23.0235 5.57358 22.5635 5.23277 22.0812 4.92315C23.727 2.8319 25.0479 0.99755 25.5517 0C24.5211 0.568756 22.5134 2.10573 20.2766 3.95716C18.6947 3.26626 16.9472 2.88276 15.1106 2.88276C7.97594 2.88276 2.19223 8.66647 2.19223 15.8012C2.19223 17.7554 2.62623 19.6083 3.40288 21.2689C1.79128 23.3015 0.48708 25.0839 0 26.035C0.866127 25.5636 2.46362 24.3622 4.29834 22.8742C4.65288 23.4155 5.04752 23.9282 5.47706 24.409C3.19201 27.2383 1.26782 29.8121 0.609222 31.0978C1.87444 30.4091 4.46057 28.4021 7.26463 26.0659C7.78512 26.4646 8.33717 26.8243 8.91595 27.141C7.49554 28.9471 6.36063 30.5123 5.92144 31.3703C6.83472 30.8732 8.59742 29.5281 10.5777 27.9024C11.988 28.4311 13.5154 28.7203 15.1103 28.7203C22.245 28.7203 28.0287 22.9366 28.0287 15.8019C28.0287 14.1302 27.7112 12.5323 27.1328 11.0659C28.672 9.10492 29.9035 7.39048 30.3779 6.45122C29.5497 6.90823 28.0624 8.01864 26.3395 9.41157L26.3398 9.41083Z" fill="#FCB300"/>
<path d="M15.1108 24.9258C20.15 24.9258 24.235 20.8408 24.235 15.8016C24.235 10.7624 20.15 6.67737 15.1108 6.67737C10.0717 6.67737 5.9866 10.7624 5.9866 15.8016C5.9866 20.8408 10.0717 24.9258 15.1108 24.9258Z" fill="#1E1E1E"/>
<path d="M18.9838 13.1493C19.0269 13.1489 19.3102 13.1452 19.439 12.9529C19.5125 12.843 19.5095 12.7112 19.5062 12.6652C19.4958 12.5267 19.4297 12.4279 19.3959 12.3789C19.0466 11.8703 18.7826 11.5822 18.7826 11.5822C18.6479 11.4352 18.418 11.1843 18.313 11.0695C17.6473 10.3827 17.0077 9.85778 16.4775 9.46908C16.4103 9.4197 15.2494 8.57585 13.9567 7.98816C13.6534 7.85043 13.4062 7.73831 13.2031 7.6507C12.9963 7.67965 12.8274 7.69153 12.7134 7.6971C12.569 7.70416 12.5289 7.70007 12.1643 7.70638C12.1272 7.70713 11.9717 7.70935 11.7823 7.71492C11.469 7.72383 11.3123 7.72866 11.2492 7.73423C11.1111 7.74648 10.8538 7.7695 10.6069 7.85897C10.48 7.905 9.99029 8.08209 9.73487 8.57288C9.73487 8.57288 9.53922 8.94822 9.58637 9.5218C9.59454 9.62278 9.61422 9.7141 9.61496 9.71819C9.65877 9.92015 9.73487 10.0612 9.77794 10.1399C9.80912 10.1971 9.84216 10.2494 9.87595 10.2985C9.90082 10.3326 9.93312 10.3757 9.97173 10.4239C10.0066 10.4674 10.0337 10.4989 10.0541 10.5219C10.1299 10.6096 10.1689 10.6541 10.2164 10.6901C10.2238 10.6957 10.2156 10.6938 10.2958 10.7436C10.3693 10.7889 10.4607 10.8457 10.5746 10.9741C10.6801 11.0933 10.7766 11.2125 10.8141 11.3502C10.9708 11.2756 11.1159 11.1286 11.1534 10.9359C11.2021 10.6864 11.0454 10.4863 11.0168 10.4507C10.9845 10.4462 10.9284 10.4362 10.8653 10.4091C10.4135 10.216 10.1503 9.40597 10.4458 8.88807C10.5928 8.63005 10.836 8.51942 10.8661 8.50606C11.5792 8.19495 12.5497 8.88436 13.0371 9.45497C13.3494 9.82065 13.506 10.1871 13.5836 10.4039C13.6534 10.3753 13.7418 10.3434 13.8457 10.3166C13.8457 10.3166 14.018 10.2725 14.2018 10.2602C14.8347 10.2175 15.8549 10.7681 15.8549 10.7681C16.2106 10.96 16.4582 11.1327 16.7318 11.3238C17.0433 11.5414 17.341 11.7493 17.6759 12.0522C18.4125 12.7186 18.5677 13.1549 18.9842 13.1497L18.9838 13.1493Z" fill="#FCB300"/>
<path d="M21.7092 11.2329C21.8725 11.6832 22.0077 12.1473 22.1112 12.6147C22.1918 12.4948 22.2623 12.3686 22.321 12.2379C22.4428 11.968 22.5163 11.6803 22.5408 11.3814C22.5408 11.3213 22.5378 11.257 22.5304 11.1895C22.5152 11.0447 22.4851 10.9203 22.4535 10.8205C22.54 10.6801 22.651 10.4748 22.7412 10.212C22.8125 10.0033 22.9284 9.66476 22.8998 9.27903C22.8923 9.18065 22.8155 8.30487 22.171 7.98374C22.0077 7.90243 21.8376 7.87125 21.6672 7.87125C21.355 7.87125 21.0417 7.97594 20.7658 8.06986C20.5308 8.15006 20.3456 8.24435 20.2182 8.31712C20.3511 8.5395 20.5364 8.85617 20.7473 9.24227C21.1434 9.96695 21.4463 10.5105 21.7092 11.2337V11.2329ZM21.9267 9.21703C22.0166 8.78861 22.102 8.69431 22.1736 8.64419C22.207 8.6208 22.2716 8.57588 22.3533 8.58182C22.5512 8.59593 22.6659 8.89478 22.6863 8.94861C22.7977 9.23819 22.7309 9.50883 22.6314 9.87823C22.5801 10.0672 22.4973 10.323 22.3581 10.6137C22.266 10.4106 22.1833 10.2576 22.1231 10.1537C22.0856 10.0887 22.0292 9.99406 21.9553 9.85187C21.9122 9.76871 21.8788 9.69928 21.8569 9.65288C21.8766 9.47468 21.9033 9.32655 21.9264 9.21666L21.9267 9.21703Z" fill="#FCB300"/>
<path d="M20.3645 17.1901C20.3363 17.1901 20.3088 17.1901 20.2817 17.1901C20.0007 17.1886 19.2545 17.1849 18.6456 16.6169C18.3649 16.3548 18.2005 16.0548 18.1036 15.7942L18.0976 15.7949C18.1062 15.8903 18.1177 16.0192 18.1262 16.1183C18.173 16.6477 18.199 16.9506 18.2053 17.0241C18.2313 17.3171 18.2877 17.7585 18.4217 18.3952C18.5495 18.9387 18.4852 19.069 18.6367 19.2167C18.7392 19.3166 18.9174 19.3422 19.221 19.3422C19.3532 19.3422 19.5095 19.3374 19.6936 19.3315C20.4365 19.3081 20.5973 19.1971 20.6786 19.0864C20.7153 19.0363 20.7517 18.9494 20.8245 18.7757C20.9191 18.5504 20.9711 18.3781 20.9875 18.3254C21.1063 17.937 21.2614 17.77 21.4426 17.4054C21.5336 17.2224 21.6386 16.974 21.7236 16.6566C21.6891 16.7004 21.6509 16.7435 21.6086 16.7851C21.2195 17.1663 20.738 17.1908 20.3641 17.1908L20.3645 17.1901Z" fill="#1E1E1E"/>
<path d="M20.0265 19.5353C19.193 19.6422 18.7765 19.6953 18.4988 19.4792C18.38 19.3868 18.3933 19.3326 18.2927 18.9792C18.2214 18.7293 18.1903 18.7649 18.0818 18.3361C18.0328 18.1416 18.0432 17.9478 18.0748 17.519C18.1193 16.9146 18.1394 16.8563 18.1542 16.8489C18.155 16.8485 18.1561 16.8485 18.1576 16.8478C18.2678 16.8159 18.3792 16.8972 18.4056 16.9161C18.4958 16.9815 18.5314 17.078 18.5782 17.2254C18.6996 17.6089 18.7471 17.858 18.7471 17.858C18.7898 18.083 18.7887 18.1141 18.8258 18.3287C18.8488 18.4613 18.8852 18.6409 18.9446 18.8533C19.0096 18.8295 19.1061 18.7846 19.1963 18.6974C19.2112 18.6829 19.2632 18.6313 19.3441 18.4936C19.3924 18.4115 19.4532 18.2953 19.5078 18.1461C19.604 18.2871 19.6255 18.4108 19.6311 18.4754C19.6385 18.5582 19.6281 18.6354 19.6203 18.6948C19.6092 18.7798 19.5917 18.85 19.5772 18.8997C19.6222 18.9004 19.6797 18.9008 19.7462 18.8986C19.852 18.8949 19.9537 18.8919 20.0729 18.8711C20.1501 18.8578 20.2559 18.8329 20.3788 18.785C20.4449 18.7137 20.5328 18.602 20.6015 18.4471C20.6568 18.3224 20.6825 18.2092 20.6951 18.1238C20.7296 18.1698 20.7768 18.2448 20.8065 18.3465C20.8432 18.472 20.8859 18.5793 20.8774 18.6413C20.9304 18.5905 20.9145 18.5841 20.9356 18.5908C21.0303 18.6209 21.0626 18.9584 20.9115 19.2008C20.8473 19.3036 20.7415 19.4428 20.0261 19.5345L20.0265 19.5353Z" fill="white"/>
<path d="M18.8959 18.2793C18.8862 18.0621 18.8602 17.8457 18.819 17.6356C18.7797 17.4358 18.7355 17.287 18.7032 17.1778C18.6516 17.0037 18.6193 16.9276 18.6055 16.8949C18.5703 16.811 18.5294 16.729 18.4838 16.651L18.3683 16.4539L18.5848 16.3811C18.6798 16.3492 18.9148 16.2708 19.0429 16.2345C19.0548 16.2311 19.0863 16.2222 19.1286 16.2155C19.168 16.2092 19.217 16.2014 19.2679 16.2014C19.3295 16.2014 19.3818 16.2126 19.4279 16.2359C19.6473 16.3462 19.6358 16.6655 19.6287 16.8559C19.6272 16.8927 19.6261 16.9202 19.6257 16.9257L19.625 16.9369C19.596 17.3504 19.5771 17.6237 19.4668 17.9248C19.4097 18.0811 19.3317 18.2325 19.2352 18.3751L18.9211 18.8384L18.8959 18.2793Z" fill="white"/>
<path d="M19.2673 16.3874C19.2955 16.3874 19.3222 16.3911 19.3441 16.4023C19.4511 16.4561 19.4488 16.6848 19.4429 16.8496C19.4418 16.8834 19.4407 16.9083 19.4403 16.9131C19.4117 17.323 19.3943 17.5825 19.2922 17.8613C19.2536 17.9667 19.1901 18.1108 19.0809 18.2711C19.069 18.0035 19.0353 17.7763 19.0007 17.5999C18.9606 17.3957 18.9161 17.2443 18.8805 17.1251C18.8292 16.9532 18.7958 16.87 18.7761 16.8233C18.7286 16.71 18.68 16.6202 18.6432 16.5575C18.6982 16.5389 18.9588 16.4513 19.0924 16.4138C19.1036 16.4108 19.1262 16.4045 19.157 16.3993C19.1919 16.3937 19.2309 16.3874 19.2673 16.3874ZM19.2673 16.0162C19.202 16.0162 19.1426 16.0255 19.0991 16.0325C19.0442 16.0414 19.0041 16.0529 18.9907 16.0566C18.8652 16.0919 18.6447 16.165 18.5248 16.2055L18.0919 16.351L18.3232 16.7449C18.3648 16.8158 18.4019 16.8905 18.4342 16.9666C18.4468 16.9963 18.4762 17.0664 18.5248 17.2305C18.556 17.3356 18.599 17.4796 18.6365 17.6712C18.6759 17.8724 18.7008 18.0796 18.7101 18.2875L18.7602 19.4057L19.388 18.479C19.493 18.3242 19.578 18.159 19.6404 17.9886C19.7596 17.663 19.7804 17.3642 19.8093 16.9502L19.8101 16.9387C19.8112 16.9213 19.813 16.8726 19.8134 16.863C19.8216 16.6432 19.8364 16.2341 19.5105 16.0704C19.4388 16.0344 19.3571 16.0162 19.2669 16.0162H19.2673Z" fill="#1E1E1E"/>
<path d="M16.6028 15.1477C16.7223 14.9903 16.8771 14.8143 17.0742 14.6406C17.1767 14.5504 17.2773 14.4728 17.3727 14.406C17.1559 14.2085 16.8764 13.9679 16.5382 13.7102C16.3882 13.5959 15.9074 13.2354 15.1939 12.8189C14.4811 12.4027 14.079 12.1681 13.5325 12.027C13.3681 11.9843 13.0777 11.9212 12.757 11.8703C12.4845 11.8269 12.3189 11.8005 12.0884 11.7913C11.8066 11.7797 11.5868 11.8054 11.1465 11.8559C10.7645 11.8997 10.6368 11.9331 10.5343 11.9665C10.3335 12.0318 10.176 12.1146 10.068 12.1796C10.0417 12.1165 9.96926 11.9186 10.0465 11.6981C10.0669 11.6402 10.1144 11.5069 10.231 11.43C10.2135 11.4081 10.1905 11.3803 10.1582 11.3435C10.0988 11.2763 10.0628 11.2544 10.0038 11.2177C9.90206 11.1546 9.63959 10.9934 9.51448 10.8542C7.81118 12.582 7.40095 13.1775 7.31482 13.3847C7.30257 13.414 7.29811 13.7693 7.12808 14.0963C7.08167 14.1858 7.04975 14.2422 7.02747 14.2831C6.92055 14.478 6.83739 14.6606 6.56007 15.3471C6.43161 15.6656 6.3466 15.8806 6.27235 16.188C6.27235 16.188 6.1684 16.6194 6.25081 16.648C6.30427 16.6665 6.53074 16.4794 6.56378 16.4723C6.56378 16.4723 6.56489 16.4723 6.56601 16.472C6.57677 16.4698 6.59942 16.4601 6.61019 16.4601C6.61278 16.4601 6.61464 16.4608 6.61575 16.462C6.62095 16.4705 6.58457 16.5006 6.57937 16.505C6.52591 16.5511 6.43421 16.7311 6.40043 17.0018C6.35959 17.3296 6.42345 17.6332 6.4602 17.7769C6.52703 17.693 6.62021 17.5913 6.74495 17.4922C6.8682 17.3938 6.987 17.3262 7.08279 17.2802C6.99332 17.5727 6.93874 17.83 6.90384 18.0353C6.81771 18.5439 6.73047 19.0915 6.90384 19.7178C6.97921 19.9899 7.08464 20.2082 7.1756 20.3671C7.24168 20.3051 7.30814 20.2435 7.37422 20.1815C7.38387 20.2895 7.40466 20.4395 7.45367 20.6122C7.50564 20.7944 7.58397 20.9853 7.65228 21.0959C7.92478 21.5355 8.59823 21.6079 8.71889 21.6194C8.83063 20.8052 9.06563 20.1875 9.24866 19.791C9.79811 18.6015 10.5874 17.8764 11.1565 17.3533C11.4788 17.0574 11.7769 16.7864 12.2428 16.5054C12.6471 16.2618 13.283 15.8787 14.177 15.79C14.2591 15.7818 14.3315 15.7774 14.4035 15.7774C14.4202 15.7774 14.4369 15.7774 14.454 15.7781C14.5921 15.7822 14.7201 15.7889 14.8586 15.8037C15.789 15.904 16.915 16.3075 16.915 16.3075C17.2888 16.4371 17.3605 16.479 17.4147 16.5147C17.4303 16.5251 17.4451 16.5358 17.4603 16.5466C17.3557 16.3027 17.2239 16.025 17.0148 15.7035C16.8567 15.4603 16.7071 15.2725 16.6024 15.1488L16.6028 15.1477Z" fill="#FCB300"/>
<path d="M23.2131 12.682C23.1062 12.539 23.0275 12.4236 22.9142 12.2539C22.8879 12.3256 22.86 12.3968 22.8285 12.4666C22.7609 12.617 22.6803 12.7621 22.5894 12.9006C22.6729 12.973 22.7312 13.0387 22.768 13.0803C22.922 13.2555 23.0152 13.4252 23.0661 13.5366C23.1648 13.7526 23.219 13.9843 23.2283 14.2256C23.242 14.2356 23.2554 14.2464 23.2673 14.2587C23.3141 14.2691 23.3701 14.2772 23.4329 14.2772C23.473 14.2772 23.5153 14.2739 23.5602 14.2661C23.6014 14.2587 23.6389 14.2483 23.672 14.2368C23.6449 14.1725 23.614 14.1053 23.5795 14.0359C23.542 13.9613 23.5038 13.8919 23.4663 13.8276C23.5368 13.7957 23.6085 13.7619 23.6812 13.7267C23.7507 13.6929 23.8186 13.6591 23.8843 13.6249C23.8461 13.5574 23.7874 13.4575 23.7113 13.3409C23.5528 13.0985 23.4733 13.0302 23.2127 12.682H23.2131Z" fill="#FCB300"/>
<path d="M21.144 18.2333C21.144 18.2333 21.1592 18.2143 21.1655 18.1813L20.8009 18.1111C20.8429 17.8928 20.8611 17.6731 20.8544 17.4581C20.8511 17.3497 20.8414 17.2454 20.8258 17.1485C20.8184 17.1032 20.811 17.0575 20.8002 17.0234C20.7987 17.0182 20.7965 17.013 20.7946 17.0078C20.7787 16.9651 20.7486 16.8853 20.7764 16.7884C20.8377 16.5756 21.0623 16.5563 21.3006 16.5359L21.3263 16.5333C21.3563 16.5303 21.3901 16.527 21.4265 16.527C21.4725 16.527 21.5134 16.5326 21.5512 16.5437C21.81 16.6194 21.7242 16.9784 21.6879 17.1318C21.6838 17.1485 21.6756 17.1823 21.6756 17.1823C21.5962 17.5027 21.4384 17.8279 21.1937 18.1765C21.1811 18.1943 21.1677 18.2084 21.1562 18.2207C21.1521 18.2247 21.1481 18.2288 21.1443 18.2333H21.144Z" fill="white"/>
<path d="M21.4264 16.7125C21.4513 16.7125 21.4758 16.7147 21.4992 16.7218C21.5813 16.7459 21.5356 16.9709 21.5074 17.0886C21.5026 17.1083 21.4985 17.1253 21.4955 17.1376C21.4079 17.4899 21.2271 17.8062 21.0418 18.0698C21.0281 18.0895 20.9884 18.1207 20.9835 18.1463C21.0273 17.918 21.0474 17.6822 21.0403 17.4524C21.037 17.3392 21.027 17.2271 21.0092 17.1183C21.001 17.0674 20.9921 17.0147 20.9776 16.9679C20.9657 16.9293 20.9408 16.8877 20.955 16.8391C20.9802 16.7507 21.1049 16.7385 21.3166 16.7199C21.3518 16.717 21.3897 16.7118 21.4268 16.7118" fill="#1E1E1E"/>
<path d="M22.5598 13.7683C22.5308 13.7048 22.4651 13.5793 22.35 13.4483C22.3069 13.3992 22.242 13.3254 22.1384 13.2545C22.0393 13.1865 21.9279 13.1375 21.808 13.1082L21.6365 13.0662L21.6008 12.8932C21.4987 12.3958 21.3591 11.9009 21.1854 11.4227C21.0491 11.0474 20.7952 10.3483 20.2781 9.54196C19.9094 8.96726 19.4387 8.40185 18.9167 7.90697C18.4255 7.44142 17.8809 7.03156 17.2969 6.68556C17.0422 6.62281 16.5006 6.51181 15.7856 6.51181C15.2781 6.51181 14.6837 6.56787 14.0429 6.73679C14.0229 6.74199 14.0028 6.74755 13.9831 6.75312C15.124 7.1964 16.7753 8.04099 18.2124 9.65519C18.7589 10.2692 19.1747 10.8825 19.4921 11.4379C19.7078 11.7561 19.8337 12.0468 19.909 12.2573C19.9759 12.444 20.0538 12.6686 20.0672 12.976C20.0735 13.1201 20.0638 13.2411 20.0527 13.3283C19.8615 13.3718 19.4691 13.4883 19.1108 13.8243C18.9891 13.9387 18.7511 14.167 18.6253 14.5468C18.4471 15.0851 18.616 15.5596 18.6795 15.7151C18.6776 15.7151 18.6754 15.7155 18.6735 15.7158C18.7485 15.8792 18.8595 16.0537 19.0255 16.2085C19.4747 16.628 20.0215 16.6306 20.284 16.6321C20.6025 16.634 20.9638 16.6354 21.2188 16.386C21.3692 16.2386 21.4375 16.0529 21.4679 15.8992C21.4616 15.8889 21.456 15.8785 21.4494 15.8681C21.371 15.7444 21.2782 15.6442 21.1676 15.5499C21.0866 15.4808 20.9979 15.4073 20.891 15.384C20.8037 15.365 20.708 15.3784 20.6189 15.3706C20.4251 15.3535 20.2461 15.2681 20.1964 15.0665C20.15 14.8787 20.2023 14.725 20.3055 14.6032C20.4719 14.4076 20.7384 14.3088 20.9827 14.2557C21.5303 14.1365 22.1065 14.1592 22.6648 14.1447C22.6496 14.0129 22.6143 13.8863 22.5598 13.7672V13.7683Z" fill="white"/>
<path d="M21.9651 16.2735C21.9547 16.2776 21.9443 16.2817 21.9339 16.2858C21.922 16.3159 21.909 16.3463 21.8949 16.3767C21.948 16.3946 22.0115 16.4083 22.0824 16.4083C22.1065 16.4083 22.1314 16.4068 22.157 16.4031C22.2918 16.3842 22.4124 16.3155 22.5546 16.1681C22.7644 15.9517 22.8984 15.6925 22.9882 15.446C22.7324 15.8128 22.372 16.1169 21.9654 16.2735H21.9651Z" fill="white"/>
<path d="M24.3697 13.3506C24.3096 13.2444 24.245 13.1386 24.1782 13.0362C24.0709 12.8721 23.9907 12.7718 23.8979 12.6556C23.8344 12.5758 23.7624 12.4856 23.6595 12.3482C23.5433 12.1927 23.4628 12.072 23.3165 11.8523L23.3005 11.8281C23.2311 11.7238 23.1624 11.6184 23.0949 11.5126C23.0967 11.4784 23.0975 11.4442 23.0978 11.4101C23.1019 11.357 23.1049 11.3032 23.1064 11.2493H23.0941C23.0919 11.2096 23.0889 11.1699 23.0848 11.1305C23.0767 11.0533 23.0648 10.9765 23.0496 10.9C23.1357 10.7363 23.2092 10.5659 23.269 10.3914C23.3473 10.1627 23.4928 9.7365 23.4561 9.23716C23.4401 9.02258 23.3161 7.93036 22.4199 7.48412C22.1924 7.37052 21.9392 7.31297 21.6678 7.31297C21.2568 7.31297 20.8696 7.44514 20.5867 7.54129C20.4939 7.57285 20.4022 7.60849 20.312 7.64747C20.0617 7.43289 19.695 7.15074 19.2301 6.88195C18.488 6.45316 17.809 6.24489 17.5514 6.17509C17.538 6.17138 17.5246 6.16804 17.5113 6.1647C17.4626 6.15245 17.4136 6.14057 17.365 6.12832C16.8798 6.01545 16.327 5.95383 15.7868 5.95383C15.1486 5.95383 14.5145 6.03587 13.902 6.19737C13.3599 6.3403 12.8331 6.54634 12.3364 6.80919L11.6741 7.15965C11.3964 7.16782 11.2728 7.17153 11.2007 7.17821C11.0489 7.19158 10.7333 7.21979 10.4185 7.33376C9.74024 7.57953 9.40426 8.00276 9.24202 8.31424C9.21418 8.36807 8.97398 8.85478 9.03227 9.56572C9.04304 9.69863 9.06717 9.81335 9.07199 9.83488C9.13399 10.1196 9.24388 10.3201 9.29066 10.4059C9.30625 10.4344 9.36417 10.4693 9.33929 10.4905C7.48787 12.0598 6.35258 13.9071 5.92268 16.096C5.90634 16.1781 5.86142 16.2538 5.83172 16.3329L5.41406 17.4418L5.83283 17.2978C5.84063 17.5394 5.8811 17.7544 5.92156 17.9122L6.19851 18.9999L6.24789 18.9379C6.24641 19.2245 6.27722 19.5338 6.36855 19.8642C6.44317 20.1337 6.55232 20.3955 6.69376 20.642L7.04348 21.2519L7.08655 21.2115C7.11736 21.2764 7.14892 21.3358 7.18047 21.3871C7.5636 22.0052 8.3488 22.1415 8.66844 22.1715L9.1997 22.2213L9.2721 21.6926C9.35303 21.1042 9.51564 20.5421 9.75584 20.0224C10.2589 18.9342 10.9962 18.2563 11.5349 17.7611C11.8278 17.4919 12.1044 17.2376 12.5317 16.9803C12.9029 16.7565 13.4643 16.4183 14.2335 16.3422C14.3014 16.3355 14.356 16.3321 14.405 16.3321C14.4165 16.3321 14.4277 16.3321 14.4392 16.3325C14.5847 16.337 14.6927 16.3436 14.8008 16.3551C15.6528 16.4472 16.7186 16.8259 16.7294 16.8296L16.8204 16.8623H16.8222C17.042 16.9406 17.0966 16.9685 17.1099 16.9774C17.3282 17.1214 17.4437 17.3494 17.6074 17.7072C17.6824 17.871 17.7893 18.1397 17.8743 18.4906C17.9233 18.6922 17.9423 18.8299 17.9579 18.9405C17.9872 19.151 18.0206 19.3897 18.2493 19.6132C18.5177 19.8753 18.8927 19.8976 19.2227 19.8976C19.3638 19.8976 19.5257 19.8924 19.7128 19.8869C20.3892 19.8657 20.8618 19.7792 21.1295 19.4143C21.2052 19.311 21.2501 19.2038 21.34 18.9895C21.4439 18.7415 21.5022 18.5511 21.5211 18.4887L21.5219 18.4865C21.5802 18.296 21.6492 18.1772 21.7454 18.0128C21.8044 17.9111 21.8716 17.796 21.9432 17.6516C22.0524 17.4321 22.1445 17.1994 22.2187 16.9562C22.2246 16.9555 22.2306 16.9547 22.2365 16.954C22.5833 16.905 22.8135 16.7026 22.9568 16.5549C23.5014 15.9924 23.6376 15.2533 23.7033 14.898C23.7093 14.8657 23.7148 14.8334 23.7204 14.8011C23.7672 14.7903 23.8136 14.777 23.8589 14.7614L24.4191 14.5653L24.2149 14.0824L24.6578 13.8544L24.372 13.3499L24.3697 13.3506ZM20.7656 8.06921C21.0741 7.95672 21.3455 7.87059 21.667 7.87059C21.8374 7.87059 22.0075 7.90178 22.1708 7.98308C22.8153 8.30421 22.8925 9.17999 22.8996 9.27837C22.9278 9.66447 22.8123 10.0027 22.7411 10.2113C22.6512 10.4742 22.5402 10.6798 22.4533 10.8198C22.4849 10.9197 22.515 11.044 22.5302 11.1888C22.5372 11.2564 22.5402 11.3206 22.5406 11.3808C22.5161 11.6796 22.4426 11.9673 22.3208 12.2372C22.2618 12.3679 22.1912 12.4941 22.111 12.6141C21.9655 12.0561 21.8233 11.5876 21.709 11.2323C21.5497 10.7363 21.3299 10.0587 20.9602 9.2134C20.7731 8.78535 20.6001 8.43489 20.4727 8.18727C20.5399 8.15683 20.6409 8.11376 20.7656 8.0681V8.06921ZM17.4147 16.5133C17.3609 16.4777 17.2889 16.4357 16.915 16.3061C16.915 16.3061 15.789 15.903 14.8587 15.8024C14.7202 15.7875 14.5917 15.7808 14.454 15.7767C14.4373 15.7764 14.4202 15.776 14.4035 15.776C14.3315 15.776 14.2591 15.7805 14.1771 15.7886C13.2831 15.8773 12.6471 16.2605 12.2428 16.504C11.7766 16.7851 11.4784 17.0557 11.1566 17.352C10.5874 17.875 9.79853 18.6001 9.24871 19.7896C9.06568 20.1857 8.83068 20.8035 8.71893 21.618C8.59828 21.6069 7.92483 21.5345 7.65233 21.0945C7.58365 20.9839 7.50532 20.7934 7.45371 20.6108C7.40471 20.4382 7.38392 20.2882 7.37426 20.1801C7.30818 20.2421 7.24173 20.3038 7.17565 20.3658C7.08469 20.2069 6.97925 19.9886 6.90389 19.7164C6.73052 19.0898 6.81776 18.5422 6.90389 18.0339C6.93879 17.8286 6.99336 17.5714 7.08283 17.2788C6.98705 17.3249 6.86825 17.3924 6.745 17.4908C6.62026 17.5903 6.52707 17.6916 6.46025 17.7756C6.42349 17.6319 6.36001 17.3286 6.40047 17.0004C6.43426 16.7297 6.52559 16.5497 6.57942 16.5036C6.58461 16.4992 6.621 16.4691 6.6158 16.4606C6.61506 16.4591 6.6132 16.4587 6.61023 16.4587C6.59946 16.4587 6.57682 16.4684 6.56605 16.4706C6.4892 16.4869 6.41792 16.5074 6.35184 16.5304C6.37449 16.4788 6.39713 16.4272 6.41978 16.3756C6.42646 16.3507 6.43611 16.3262 6.4402 16.3009C6.71084 14.5553 7.70282 12.499 9.68121 10.9483C9.53383 11.0637 9.90174 11.1539 10.0035 11.2167C10.0629 11.2534 10.0985 11.2753 10.1579 11.3425C10.1902 11.3793 10.2136 11.4068 10.2307 11.429C10.1145 11.5059 10.0666 11.6392 10.0462 11.6971C9.96893 11.9176 10.0413 12.1155 10.0677 12.1786C10.1753 12.1136 10.3328 12.0312 10.534 11.9655C10.6364 11.9321 10.7642 11.899 11.1462 11.8549C11.5861 11.804 11.8063 11.7787 12.088 11.7903C12.3182 11.7995 12.4842 11.8259 12.7567 11.8693C13.0778 11.9206 13.3677 11.9837 13.5322 12.026C14.0787 12.1671 14.4804 12.4021 15.1935 12.8179C15.9071 13.2344 16.3879 13.5949 16.5378 13.7092C16.8764 13.9669 17.1556 14.2075 17.3724 14.405C17.277 14.4718 17.1764 14.5498 17.0739 14.6396C16.8764 14.8133 16.7216 14.9893 16.6024 15.1467C16.7071 15.2704 16.8567 15.4578 17.0149 15.7014C17.2239 16.0229 17.3557 16.3006 17.4604 16.5445C17.4455 16.5337 17.4307 16.523 17.4147 16.5126V16.5133ZM17.6757 12.052C17.3409 11.749 17.0431 11.5411 16.7316 11.3236C16.4576 11.1324 16.2104 10.9594 15.8547 10.7678C15.8547 10.7678 14.8345 10.2173 14.2016 10.26C14.0178 10.2722 13.8455 10.3164 13.8455 10.3164C13.7416 10.3431 13.6532 10.375 13.5834 10.4036C13.5062 10.1868 13.3492 9.8204 13.0369 9.45472C12.5499 8.88411 11.5794 8.19469 10.8659 8.5058C10.8358 8.5188 10.593 8.6298 10.4456 8.88782C10.1501 9.40571 10.4133 10.2154 10.8651 10.4088C10.9286 10.4359 10.9843 10.446 11.0166 10.4504C11.0452 10.4861 11.2015 10.6862 11.1532 10.9356C11.1157 11.1283 10.9706 11.2753 10.8139 11.35C10.7768 11.2122 10.6799 11.0927 10.5744 10.9739C10.4605 10.8454 10.3691 10.789 10.2956 10.7433C10.2154 10.6936 10.2236 10.6958 10.2162 10.6899C10.1687 10.6539 10.1297 10.6093 10.0539 10.5217C10.0339 10.4987 10.0068 10.4671 9.97153 10.4237C9.93255 10.3754 9.90062 10.3327 9.87575 10.2982C9.84197 10.2496 9.80892 10.1968 9.77774 10.1397C9.73467 10.061 9.65857 9.91989 9.61476 9.71793C9.61402 9.71385 9.59434 9.62215 9.58617 9.52154C9.5394 8.94796 9.73467 8.57263 9.73467 8.57263C9.99009 8.08183 10.4798 7.90438 10.6067 7.85871C10.8536 7.76924 11.1109 7.74622 11.249 7.73397C11.3121 7.7284 11.4688 7.72395 11.7821 7.71467C11.9715 7.7091 12.127 7.70687 12.1641 7.70613C12.5283 7.69982 12.5688 7.70353 12.7132 7.69685C12.8276 7.69128 12.9961 7.6794 13.2029 7.65044C13.4063 7.73806 13.6536 7.85017 13.9565 7.98791C15.2492 8.5756 16.4098 9.41945 16.4773 9.46883C17.0075 9.85752 17.6471 10.3825 18.3128 11.0693C18.4178 11.184 18.6477 11.435 18.7824 11.582C18.7824 11.582 19.0464 11.8701 19.3957 12.3787C19.4291 12.4277 19.4952 12.5264 19.506 12.6649C19.5093 12.7106 19.5123 12.8427 19.4388 12.9526C19.31 13.1449 19.0267 13.1487 18.9836 13.149C18.5671 13.1542 18.4119 12.718 17.6753 12.0516L17.6757 12.052ZM21.4424 17.4047C21.2613 17.7692 21.1061 17.9363 20.9873 18.3246C20.9713 18.3773 20.919 18.5496 20.8243 18.775C20.7515 18.9487 20.7148 19.0356 20.6784 19.0857C20.5971 19.1967 20.4363 19.3077 19.6935 19.3307C19.5093 19.3367 19.3534 19.3415 19.2209 19.3415C18.9172 19.3415 18.739 19.3159 18.6365 19.216C18.4854 19.0682 18.5493 18.9379 18.4216 18.3944C18.2875 17.7574 18.2311 17.3163 18.2051 17.0234C18.1984 16.9503 18.1728 16.647 18.126 16.1175C18.1171 16.0184 18.106 15.8896 18.0975 15.7942L18.1034 15.7934C18.2003 16.0541 18.3648 16.354 18.6454 16.6161C19.2539 17.1841 20.0001 17.1879 20.2815 17.1893C20.3086 17.1893 20.3361 17.1893 20.3643 17.1893C20.7382 17.1893 21.2197 17.1648 21.6087 16.7836C21.6511 16.742 21.6889 16.6989 21.7238 16.6551C21.6384 16.9729 21.5338 17.2209 21.4428 17.4039L21.4424 17.4047ZM20.9828 14.2568C20.7385 14.3099 20.472 14.4087 20.3057 14.6043C20.2025 14.7261 20.1501 14.8794 20.1965 15.0677C20.2463 15.2692 20.4252 15.3546 20.619 15.3717C20.7081 15.3795 20.8039 15.3658 20.8911 15.3851C20.9977 15.4085 21.0864 15.482 21.1677 15.551C21.2783 15.6453 21.3711 15.7456 21.4495 15.8692C21.4558 15.8792 21.4617 15.89 21.468 15.9004C21.4376 16.0541 21.3693 16.2397 21.2189 16.3871C20.9643 16.6369 20.603 16.6351 20.2841 16.6332C20.0213 16.6317 19.4748 16.6291 19.0256 16.2096C18.8596 16.0548 18.7486 15.8803 18.6736 15.717C18.6755 15.717 18.6777 15.7166 18.6796 15.7162C18.6161 15.5607 18.4472 15.0862 18.6254 14.5479C18.7512 14.1685 18.9892 13.9398 19.111 13.8254C19.4692 13.4895 19.8613 13.3729 20.0528 13.3295C20.0636 13.2422 20.0736 13.1212 20.0673 12.9771C20.0539 12.6694 19.976 12.4451 19.9092 12.2584C19.8338 12.0475 19.7079 11.7572 19.4922 11.4391C19.1752 10.8837 18.7594 10.2704 18.2125 9.65631C16.7754 8.04211 15.3038 7.15037 14.1629 6.70747C14.1629 6.70747 14.1644 6.70709 14.1648 6.70709C14.3746 6.64621 14.5925 6.60277 14.9333 6.56602C15.1583 6.54189 15.4278 6.51256 15.7861 6.51293C16.1595 6.5133 16.68 6.54597 17.2974 6.68668C17.5332 6.82627 17.8042 7.00075 18.0937 7.21645C18.2556 7.33673 18.5686 7.57805 18.9172 7.90846C19.6816 8.6324 20.1468 9.33815 20.2786 9.54345C20.7953 10.3498 21.0493 11.0489 21.1859 11.4242C21.3596 11.9024 21.4992 12.3972 21.6013 12.8947L21.637 13.0677L21.8085 13.1097C21.9284 13.139 22.0398 13.188 22.1389 13.2559C22.2425 13.3269 22.3074 13.4007 22.3505 13.4497C22.4656 13.5808 22.5313 13.7063 22.5603 13.7698C22.6148 13.8889 22.6497 14.0155 22.6653 14.1473C22.1073 14.1618 21.5312 14.1392 20.9832 14.2583L20.9828 14.2568ZM22.5543 16.1684C22.4118 16.3154 22.2915 16.3841 22.1567 16.4034C22.1311 16.4071 22.1062 16.4086 22.0821 16.4086C22.0112 16.4086 21.9477 16.3945 21.8946 16.3771C21.9087 16.3466 21.9221 16.3162 21.9336 16.2861C21.944 16.282 21.9544 16.2779 21.9648 16.2738C22.3713 16.1175 22.7318 15.8135 22.9876 15.4463C22.8981 15.6932 22.7637 15.952 22.5539 16.1684H22.5543ZM23.6818 13.7267C23.609 13.762 23.5374 13.7957 23.4669 13.8277C23.5047 13.8915 23.543 13.961 23.5801 14.0359C23.615 14.1054 23.6454 14.1726 23.6725 14.2368C23.6395 14.2483 23.602 14.2587 23.5608 14.2661C23.5162 14.2739 23.4735 14.2773 23.4334 14.2773C23.3707 14.2773 23.3146 14.2691 23.2679 14.2587C23.256 14.2464 23.2426 14.2357 23.2289 14.2257C23.2196 13.9843 23.1654 13.7527 23.0666 13.5366C23.0158 13.4252 22.9226 13.2556 22.7685 13.0803C22.7321 13.0388 22.6739 12.9731 22.59 12.9007C22.6809 12.7622 22.7611 12.617 22.829 12.4667C22.8606 12.3969 22.8884 12.3256 22.9148 12.2539C23.028 12.4236 23.1067 12.5387 23.2137 12.682C23.4743 13.0302 23.5537 13.0985 23.7122 13.341C23.7887 13.4579 23.847 13.5574 23.8853 13.625C23.8192 13.6588 23.7516 13.6929 23.6822 13.7267H23.6818Z" fill="#1E1E1E"/>
<path d="M22.1226 10.1541C22.1824 10.2581 22.2652 10.411 22.3576 10.6141C22.4968 10.323 22.5796 10.0676 22.6309 9.87864C22.7307 9.50924 22.7972 9.2386 22.6858 8.94903C22.6654 8.89557 22.5503 8.59671 22.3528 8.58223C22.2711 8.57629 22.2065 8.62121 22.1731 8.6446C22.1015 8.69435 22.0164 8.78902 21.9262 9.21744C21.9032 9.32733 21.8765 9.47546 21.8568 9.65366C21.8787 9.70007 21.9117 9.76949 21.9552 9.85265C22.0291 9.99484 22.0855 10.0899 22.123 10.1545L22.1226 10.1541Z" fill="#1E1E1E"/>
<path d="M9.17013 13.4398C9.06246 13.523 8.94404 13.6254 8.82338 13.7498C8.68193 13.8961 8.56982 14.039 8.48257 14.166C8.64778 14.1151 8.81298 14.0639 8.97856 14.013C8.87313 14.1359 8.75507 14.2918 8.64407 14.483C8.54383 14.6553 8.47143 14.8171 8.41872 14.9575C8.57984 14.8765 8.75433 14.7956 8.94292 14.7184C9.09031 14.6579 9.23287 14.6044 9.36949 14.5576C9.29635 14.7106 9.2169 14.9118 9.1627 15.1557C9.10107 15.4327 9.09142 15.6755 9.09773 15.8592C9.27779 15.8581 9.46527 15.8529 9.65943 15.8433C9.85546 15.8332 10.0444 15.8191 10.2252 15.8021C10.0663 16.017 9.90372 16.2702 9.75596 16.5635C9.70473 16.6648 9.65906 16.764 9.61748 16.8609C9.84209 16.6793 10.1387 16.4789 10.5107 16.3133C10.664 16.245 10.8111 16.1911 10.9484 16.1484C11.0171 16.1195 11.0969 16.0909 11.1871 16.0668C11.2595 16.0475 11.3271 16.0345 11.3883 16.0256C11.2603 16.1444 11.0676 16.3578 10.9514 16.6771C10.9057 16.803 10.8808 16.9203 10.8679 17.0209C11.013 16.8546 11.2436 16.63 11.5751 16.4384C11.8624 16.2721 12.0028 16.2661 12.2556 16.157C12.4561 16.0705 13.1522 15.7694 13.4369 15.1075C13.647 14.6185 13.5891 14.0349 13.3456 13.5942C12.8615 12.7192 11.7704 12.6353 11.4581 12.6112C10.2416 12.5176 9.37023 13.2609 9.1705 13.4409L9.17013 13.4398Z" fill="#1E1E1E"/>
<path d="M10.0423 12.6416C9.9343 12.7244 9.81513 12.8261 9.69411 12.9497C9.55192 13.0952 9.43906 13.2374 9.35107 13.364C9.51665 13.3139 9.68223 13.2638 9.8478 13.2133C9.74163 13.3354 9.6232 13.491 9.51071 13.6818C9.40973 13.8533 9.33659 14.0152 9.28276 14.1551C9.44425 14.075 9.61911 13.9951 9.80808 13.9187C9.95584 13.8589 10.0984 13.8062 10.2354 13.7601C10.1615 13.9127 10.0809 14.1136 10.0253 14.3571C9.96215 14.6337 9.95138 14.8765 9.95695 15.0603C10.137 15.0603 10.3245 15.0558 10.5187 15.0469C10.7147 15.038 10.9036 15.0246 11.0848 15.0083C10.9248 15.2225 10.7611 15.4746 10.6115 15.7675C10.5599 15.8685 10.5135 15.9676 10.4715 16.0641C10.6972 15.8837 10.9946 15.6851 11.3677 15.521C11.5214 15.4534 11.6688 15.4003 11.8065 15.3584C11.8752 15.3298 11.955 15.3016 12.0456 15.2778C12.118 15.2589 12.1856 15.2463 12.2472 15.2373C12.1187 15.3554 11.9246 15.5678 11.8069 15.8867C11.7605 16.0125 11.7352 16.1295 11.7219 16.2301C11.8681 16.0645 12.0994 15.841 12.4321 15.6509C12.7205 15.4861 12.8609 15.4809 13.1137 15.3729C13.3145 15.2871 14.0121 14.9897 14.3002 14.3293C14.5129 13.8414 14.458 13.2575 14.2163 12.8157C13.7367 11.938 12.6459 11.8486 12.3337 11.823C11.1175 11.7235 10.2424 12.4622 10.042 12.6412L10.0423 12.6416Z" fill="#FCB300"/>
<path d="M17.0644 12.3211C17.3908 12.5784 17.5961 12.8486 17.7041 13.009C17.8229 13.185 17.9046 13.3461 17.9599 13.4694C17.9046 13.4386 17.8288 13.4252 17.7449 13.3996C17.69 13.3825 17.6198 13.3806 17.5745 13.3736C17.4851 13.4764 17.462 13.5058 17.3269 13.5421C17.1688 13.5848 17.0384 13.5678 16.9746 13.5492C16.6824 13.4642 16.5098 13.2366 16.4222 13.1182C16.1879 12.8011 16.13 12.4722 16.0903 12.248C16.0572 12.0597 16.0498 11.9016 16.0494 11.7935C16.3034 11.8704 16.6824 12.02 17.0644 12.3211Z" fill="white"/>
<path d="M15.2683 18.8165C14.5384 18.652 14.0718 18.7545 13.9173 18.7935C13.7974 18.8239 13.6868 18.8618 13.5858 18.9033C13.6611 18.9538 13.7714 19.0292 13.9021 19.1246C14.1653 19.3162 14.3517 19.4721 14.4304 19.5378C14.5325 19.6228 14.5956 19.6741 14.6472 19.7153C14.6472 19.7153 14.7307 19.7825 14.8261 19.8556C14.9241 19.931 15.0017 19.9911 15.0934 20.055C15.3206 20.2135 15.6451 20.3965 15.6581 20.4039C15.8727 20.5224 16.2373 20.9122 16.8892 22.1496C17.3224 21.0978 17.2768 20.0119 16.6957 19.4261C16.3275 19.0548 15.7936 18.9345 15.2683 18.8165Z" fill="white" stroke="#1E1E1E" stroke-width="0.556876" stroke-linecap="round" stroke-linejoin="round"/>
<path d="M14.5945 19.3426C14.2912 19.2605 13.6686 19.135 12.9246 19.2932C12.7705 19.3259 12.6458 19.3634 12.5626 19.3908C12.6402 19.4495 12.7538 19.5371 12.8882 19.647C13.1778 19.8839 13.3786 20.0747 13.4291 20.1218C13.4291 20.1218 13.6033 20.2829 13.7833 20.44C13.875 20.5198 13.9493 20.5844 14.0369 20.6557C14.3227 20.8888 14.6821 21.1398 14.7003 21.152C14.942 21.3184 15.3203 21.7809 15.9265 23.0614C15.9971 22.9337 16.675 21.6633 16.0494 20.4756C15.8055 20.0127 15.4528 19.7313 15.2163 19.5779C15.0006 19.4525 14.8236 19.4049 14.5945 19.3429V19.3426Z" fill="white" stroke="#1E1E1E" stroke-width="0.556876" stroke-linecap="round" stroke-linejoin="round"/>
<path d="M13.0697 20.122C12.5897 20.0095 12.0484 19.8662 11.5583 20.1454C11.3734 20.2508 11.2498 20.3844 11.1756 20.4795C11.284 20.5259 11.4559 20.6024 11.6608 20.7089C11.9363 20.8522 12.0985 20.9558 13.0905 21.627C13.3804 21.8234 13.5657 21.9493 13.8118 22.1453C13.9763 22.2763 14.1084 22.3829 14.2599 22.5373C14.4292 22.7096 14.6226 22.942 14.8012 23.2475C14.8673 23.0979 14.949 22.8785 14.9983 22.6041C15.0462 22.3365 15.1231 21.9563 14.9794 21.555C14.8068 21.0738 14.44 20.8006 14.1949 20.618C13.745 20.2823 13.311 20.1784 13.0689 20.122H13.0697Z" fill="white" stroke="#1E1E1E" stroke-width="0.556876" stroke-linecap="round" stroke-linejoin="round"/>
<path d="M13.004 21.6132C12.9405 21.5018 12.8496 21.3069 12.8377 21.0533C12.831 20.9082 12.8106 20.4296 13.1577 20.2143C13.3935 20.068 13.719 20.0937 13.9912 20.2622C13.9878 20.2232 13.957 19.7688 14.2882 19.5245C14.4786 19.3842 14.6876 19.3875 14.7767 19.3905C15.2972 19.4065 15.6161 19.8791 15.6588 19.9448C15.5415 19.7057 15.5913 19.4239 15.7732 19.2565C15.9206 19.1206 16.1363 19.0772 16.336 19.1392C16.2372 18.9547 15.9948 18.5648 15.5222 18.3161C15.0994 18.0937 14.7129 18.1019 14.3502 18.1064C13.6314 18.1145 13.1187 18.3629 13.0033 18.4212C12.808 18.5196 12.4082 18.7263 12.0763 19.1559C11.9816 19.2784 11.1704 20.3257 11.6501 21.0667C12.0343 21.6611 12.9357 21.6176 13.0033 21.6132H13.004Z" fill="#FCB300" stroke="#1E1E1E" stroke-width="0.556876" stroke-linecap="round" stroke-linejoin="round"/>
<path d="M24.4442 20.2796C24.2241 19.8994 23.8436 19.6696 23.6175 19.5334C23.5265 19.4784 23.4485 19.438 23.3951 19.4116C23.4047 19.4777 23.4185 19.5753 23.4315 19.6938C23.4574 19.9321 23.4649 20.1114 23.4682 20.1872C23.4727 20.2852 23.476 20.3449 23.479 20.3936C23.479 20.3936 23.4838 20.4723 23.4912 20.5606C23.4987 20.6516 23.5046 20.724 23.5154 20.8057C23.5332 20.9441 23.5391 21.0136 23.6048 21.2853C23.6498 21.4713 23.6331 21.87 23.3999 22.7726C23.4775 22.7403 24.4494 22.3196 24.6139 21.3562C24.6343 21.2359 24.7126 20.7429 24.4446 20.28L24.4442 20.2796Z" fill="white" stroke="#1E1E1E" stroke-width="0.556876" stroke-linecap="round" stroke-linejoin="round"/>
<path d="M23.5927 20.0868C23.3462 19.515 22.9145 19.1995 22.7771 19.1018C22.6828 19.0346 22.5985 18.9853 22.5369 18.9515C22.5425 19.0265 22.5506 19.1364 22.5599 19.2693C22.6186 20.1179 22.6549 20.6429 22.6431 21.0795C22.633 21.457 22.5807 21.9991 22.3843 22.6625C22.4764 22.6372 23.4216 22.3607 23.7145 21.4749C23.9217 20.8489 23.68 20.2902 23.5924 20.0875L23.5927 20.0868Z" fill="white" stroke="#1E1E1E" stroke-width="0.556876" stroke-linecap="round" stroke-linejoin="round"/>
<path d="M22.3743 19.5715C22.2432 19.3395 22.0186 18.9419 21.6886 18.9646C21.621 18.9694 21.5646 18.9905 21.5286 19.0072C21.4435 19.0325 21.35 19.0741 21.327 19.1442C21.308 19.2014 21.3504 19.2519 21.3544 19.2719C21.3893 19.4531 21.4168 19.6859 21.4937 20.4076C21.5215 20.6693 21.5389 20.8368 21.5453 21.0751C21.5501 21.257 21.5434 21.4052 21.5386 21.4865C21.5375 21.5076 21.5363 21.5202 21.536 21.5284C21.5282 21.6453 21.5293 21.8369 21.5668 22.1662C21.6652 22.1395 21.8055 22.0901 21.9536 21.994C22.2688 21.789 22.4092 21.5084 22.4752 21.3725C22.6683 20.9749 22.6505 20.6125 22.6404 20.4421C22.6145 20.0033 22.453 19.71 22.375 19.5715H22.3743Z" fill="white" stroke="#1E1E1E" stroke-width="0.556876" stroke-linecap="round" stroke-linejoin="round"/>
<path d="M21.4754 20.3642C21.4932 20.2914 21.5452 20.1247 21.6956 19.9903C21.7379 19.9525 21.9985 19.7138 22.2996 19.8129C22.5416 19.8923 22.6348 20.1325 22.6489 20.1704C22.666 20.1496 22.9084 19.8645 23.2466 19.9116C23.4341 19.9376 23.5581 20.0531 23.5934 20.0869C23.7389 20.2261 23.7783 20.3902 23.7898 20.4503C23.9134 20.255 24.1454 20.1782 24.327 20.2532C24.5274 20.3363 24.5713 20.5654 24.5742 20.5814C24.5742 20.3408 24.53 20.1552 24.4926 20.0356C24.246 19.2516 23.5169 18.8617 23.2206 18.7489C23.2106 18.7452 23.2028 18.7422 23.1976 18.7403C22.7566 18.5774 22.3456 18.6175 22.3456 18.6175C22.3415 18.6178 22.3274 18.6193 22.3129 18.6212C22.0397 18.6538 21.2979 18.8398 21.1476 19.38C21.0128 19.8645 21.439 20.3256 21.4758 20.3642H21.4754Z" fill="#FCB300" stroke="#1E1E1E" stroke-width="0.556876" stroke-linecap="round" stroke-linejoin="round"/>
<path d="M21.5148 14.7709C21.7891 14.7442 22.0772 14.7241 22.3779 14.7126C22.5576 14.7059 22.5316 14.7026 22.7024 14.7022" fill="#1E1E1E"/>
<path d="M21.5148 14.7709C21.7891 14.7442 22.0772 14.7241 22.3779 14.7126C22.5576 14.7059 22.5316 14.7026 22.7024 14.7022" stroke="white" stroke-width="0.297" stroke-linecap="round" stroke-linejoin="round"/>
</g>
<defs>
<clipPath id="clip0_10470_1540">
<rect width="30.7718" height="31.3699" fill="white"/>
</clipPath>
</defs>
</svg>
