<svg width="24" height="24" viewBox="0 0 24 24" fill="none" xmlns="http://www.w3.org/2000/svg">
<path d="M10.7132 2.24057C10.6218 2.18603 10.5175 2.15723 10.4111 2.15723C10.3047 2.15723 10.2004 2.18603 10.1091 2.24057C10.0337 2.30024 9.98293 2.38547 9.96623 2.4801C9.94953 2.57473 9.96811 2.67219 10.0185 2.75404C11.876 5.9708 12.2687 10.3504 9.73151 12.7668C8.75535 11.9464 7.98037 10.9131 7.46619 9.74633C6.52794 10.2674 5.75036 11.0356 5.21788 11.9674C4.6854 12.8993 4.41837 13.9592 4.44576 15.0321C4.48406 15.9779 4.71116 16.9065 5.11369 17.7632C5.51622 18.62 6.08604 19.3876 6.78964 20.0208C7.49324 20.654 8.31639 21.1401 9.21065 21.4505C10.1049 21.7609 11.0522 21.8892 11.9968 21.828C16.8597 21.828 19.3818 18.8076 19.5479 15.0321C19.7442 10.5014 16.5275 4.92875 10.7132 2.24057Z" stroke="#000001" stroke-width="2" stroke-linecap="round" stroke-linejoin="round"/>
<path d="M15.7724 15.032C15.7724 15.833 15.4542 16.6013 14.8877 17.1677C14.3213 17.7342 13.553 18.0524 12.752 18.0524" stroke="#000001" stroke-width="2" stroke-linecap="round" stroke-linejoin="round"/>
</svg>
