<svg width="24" height="25" viewBox="0 0 24 25" fill="none" xmlns="http://www.w3.org/2000/svg">
<path d="M6.89761 19.0993C8.28247 20.2474 10.0607 20.9375 12.0001 20.9375C16.4184 20.9375 20.0001 17.3558 20.0001 12.9375C20.0001 12.3685 19.9407 11.8133 19.8278 11.2779M6.89761 19.0993C5.12756 17.6319 4.00014 15.4164 4.00014 12.9375C4.00014 8.51922 7.58186 4.9375 12.0001 4.9375C15.8494 4.9375 19.0637 7.65603 19.8278 11.2779M6.89761 19.0993C8.85314 18.6522 11.1796 17.7203 13.526 16.3656C16.2564 14.7892 18.4773 12.95 19.8278 11.2779M6.89761 19.0993C4.46844 19.6546 2.61159 19.4618 1.99965 18.4019C1.36934 17.3101 2.19631 15.5344 3.99999 13.6465M19.8278 11.2779C21.0796 9.72791 21.5836 8.32155 21.0522 7.40124C20.5134 6.46801 19.0095 6.20689 16.9997 6.53679" stroke="black" stroke-width="2" stroke-linecap="round" stroke-linejoin="round"/>
</svg>
