<svg width="24" height="24" viewBox="0 0 24 24" fill="none" xmlns="http://www.w3.org/2000/svg">
<path d="M3.45013 13.8666L3.44995 9.175C3.44991 7.99447 4.4069 7.03744 5.58743 7.03743L18.4125 7.03734C19.5931 7.03733 20.55 7.99432 20.55 9.17483V13.8666M3.45013 13.8666H20.55M3.45013 13.8666L3.44995 18.7934C3.44991 19.974 4.40691 20.931 5.58744 20.931H18.4126C19.5931 20.931 20.55 19.974 20.55 18.7935V13.8666M12.1555 20.931V7.03732M11.0776 6.58739C11.2376 6.58081 11.3856 6.49666 11.4652 6.35884C11.5447 6.22102 11.5436 6.05077 11.4693 5.90891C11.1855 5.39172 10.1897 3.67205 9.53988 3.29686C8.73024 2.82941 7.69027 3.10522 7.22514 3.91086C6.76004 4.71643 7.04107 5.755 7.85077 6.22248C8.51126 6.60382 10.4878 6.60021 11.0776 6.58739ZM12.5653 5.90877C12.4909 6.05067 12.4898 6.22088 12.5694 6.3587C12.649 6.49652 12.797 6.58062 12.957 6.58724C13.5468 6.60005 15.5339 6.59753 16.1838 6.22234C16.9934 5.75489 17.2746 4.71635 16.8094 3.91071C16.3443 3.10513 15.3044 2.82924 14.4947 3.29671C13.8342 3.67805 12.8491 5.39159 12.5653 5.90877Z" stroke="black" stroke-width="2" stroke-linecap="round" stroke-linejoin="round"/>
</svg>
