<svg width="24" height="24" viewBox="0 0 24 24" fill="none" xmlns="http://www.w3.org/2000/svg">
<path d="M7.74609 11.7474L14.941 3.03773L20.981 3.0188L20.9621 9.05876L12.2524 16.2537" stroke="black" stroke-width="1.92561" stroke-linecap="round" stroke-linejoin="round"/>
<path d="M9.99927 14.0005L15.6795 8.32031" stroke="black" stroke-width="1.92561" stroke-linecap="round" stroke-linejoin="round"/>
<path d="M8.30484 17.9294L5.4742 20.7601C5.33222 20.9017 5.13986 20.9813 4.93931 20.9813C4.73876 20.9813 4.5464 20.9017 4.40442 20.7601L3.23998 19.5956C3.09834 19.4537 3.0188 19.2613 3.0188 19.0607C3.0188 18.8602 3.09834 18.6678 3.23998 18.5259L6.07062 15.6952C6.14218 15.6247 6.19901 15.5407 6.2378 15.4481C6.27658 15.3555 6.29656 15.256 6.29656 15.1556C6.29656 15.0552 6.27658 14.9557 6.2378 14.8631C6.19901 14.7704 6.14218 14.6864 6.07062 14.616L4.10148 12.6468C4.02992 12.5764 3.97309 12.4924 3.9343 12.3997C3.89551 12.3071 3.87553 12.2076 3.87553 12.1072C3.87553 12.0068 3.89551 11.9073 3.9343 11.8147C3.97309 11.7221 4.02992 11.6381 4.10148 11.5676L5.29432 10.3747C5.36479 10.3032 5.4488 10.2464 5.54144 10.2076C5.63408 10.1688 5.73351 10.1488 5.83394 10.1488C5.93438 10.1488 6.03381 10.1688 6.12645 10.2076C6.21909 10.2464 6.30309 10.3032 6.37356 10.3747L13.6253 17.6265C13.6969 17.697 13.7537 17.781 13.7925 17.8736C13.8313 17.9662 13.8513 18.0657 13.8513 18.1661C13.8513 18.2665 13.8313 18.366 13.7925 18.4586C13.7537 18.5513 13.6969 18.6353 13.6253 18.7057L12.4325 19.8986C12.362 19.9701 12.278 20.027 12.1853 20.0658C12.0927 20.1045 11.9933 20.1245 11.8928 20.1245C11.7924 20.1245 11.693 20.1045 11.6003 20.0658C11.5077 20.027 11.4237 19.9701 11.3532 19.8986L9.38408 17.9294C9.31361 17.8579 9.22961 17.801 9.13696 17.7623C9.04432 17.7235 8.94489 17.7035 8.84446 17.7035C8.74402 17.7035 8.64459 17.7235 8.55195 17.7623C8.45931 17.801 8.37531 17.8579 8.30484 17.9294Z" stroke="black" stroke-width="1.92561" stroke-linecap="round" stroke-linejoin="round"/>
</svg>
