<svg width="24" height="24" viewBox="0 0 24 24" fill="none" xmlns="http://www.w3.org/2000/svg">
<path d="M19.8389 10.7124L10.788 20.2946C10.4856 20.6146 10.0821 20.8206 9.64561 20.8779C9.20908 20.9351 8.76616 20.8402 8.39149 20.609C8.01682 20.3777 7.73331 20.0244 7.58874 19.6086C7.44417 19.1927 7.44737 18.7397 7.59782 18.326L9.03516 14.3721H5.6873C5.36227 14.3721 5.0422 14.2925 4.75508 14.1401C4.46797 13.9878 4.22257 13.7674 4.04037 13.4982C3.85816 13.2291 3.7447 12.9193 3.70991 12.5962C3.67512 12.273 3.72007 11.9463 3.84082 11.6445L6.59572 4.75783C6.79129 4.27063 7.12804 3.85303 7.56273 3.55866C7.99741 3.26429 8.51018 3.10659 9.03516 3.10583H13.7789C14.9268 3.10583 15.7202 4.25262 15.3182 5.32707L14.3718 7.84953H18.6044C18.936 7.84952 19.2603 7.94664 19.5373 8.12891C19.8143 8.31117 20.0318 8.5706 20.163 8.87512C20.2942 9.17965 20.3333 9.51594 20.2755 9.84245C20.2177 10.169 20.0667 10.4714 19.8389 10.7124Z" stroke="black" stroke-width="2"/>
</svg>
