<svg width="24" height="24" viewBox="0 0 24 24" fill="none" xmlns="http://www.w3.org/2000/svg">
<path d="M12 7.29688V5.41563C12 3.85419 11.1794 2.59375 10.1628 2.59375H8.32568" stroke="black" stroke-width="1.88125" stroke-linecap="round" stroke-linejoin="round"/>
<path d="M20.9828 11.6896C20.8134 9.21575 18.7712 7.29688 16.3055 7.29688H7.7039C5.23823 7.29688 3.19605 9.21575 3.02665 11.6896L2.59375 19.1111V19.2428C2.59375 20.428 3.54426 21.4063 4.72063 21.4063C5.4735 21.4063 6.1605 21.0112 6.55576 20.3622L7.97682 18.4057C8.34384 17.9259 8.89909 17.6438 9.49198 17.6438H14.5174C15.1103 17.6438 15.675 17.9259 16.0232 18.4057L17.4442 20.3622C17.8395 21.0112 18.5359 21.4063 19.2794 21.4063C20.4557 21.4063 21.4062 20.428 21.4062 19.2428V19.1111L20.9828 11.6896Z" stroke="black" stroke-width="1.88125" stroke-linecap="round" stroke-linejoin="round"/>
<path d="M14.1769 13.5226C14.6444 13.5226 15.0234 13.1436 15.0234 12.676C15.0234 12.2085 14.6444 11.8295 14.1769 11.8295C13.7093 11.8295 13.3303 12.2085 13.3303 12.676C13.3303 13.1436 13.7093 13.5226 14.1769 13.5226Z" fill="black"/>
<path d="M15.87 15.2158C15.7025 15.2158 15.5387 15.1661 15.3995 15.073C15.2602 14.9799 15.1517 14.8476 15.0877 14.6927C15.0237 14.5379 15.007 14.3676 15.0399 14.2033C15.0727 14.0391 15.1535 13.8882 15.2721 13.7699C15.3907 13.6516 15.5418 13.5711 15.7061 13.5387C15.8705 13.5063 16.0408 13.5234 16.1954 13.5878C16.3501 13.6522 16.4822 13.761 16.5749 13.9005C16.6677 14.04 16.717 14.2039 16.7166 14.3714C16.716 14.5955 16.6266 14.8103 16.4679 14.9686C16.3092 15.1269 16.0942 15.2158 15.87 15.2158Z" fill="black"/>
<path d="M15.87 11.8295C16.3375 11.8295 16.7166 11.4505 16.7166 10.9829C16.7166 10.5154 16.3375 10.1364 15.87 10.1364C15.4025 10.1364 15.0234 10.5154 15.0234 10.9829C15.0234 11.4505 15.4025 11.8295 15.87 11.8295Z" fill="black"/>
<path d="M17.5634 13.5226C18.0309 13.5226 18.4099 13.1436 18.4099 12.676C18.4099 12.2085 18.0309 11.8295 17.5634 11.8295C17.0958 11.8295 16.7168 12.2085 16.7168 12.676C16.7168 13.1436 17.0958 13.5226 17.5634 13.5226Z" fill="black"/>
<path d="M10.0011 12.676H6.65015" stroke="black" stroke-width="1.41094" stroke-linecap="round" stroke-linejoin="round"/>
<path d="M8.32568 14.3516V11.0006" stroke="black" stroke-width="1.41094" stroke-linecap="round" stroke-linejoin="round"/>
</svg>
