<svg width="24" height="25" viewBox="0 0 24 25" fill="none" xmlns="http://www.w3.org/2000/svg">
<path d="M17.3301 21.3539H6.64014C6.3585 21.3515 6.08385 21.2659 5.85064 21.108C5.61742 20.9501 5.43603 20.7268 5.32923 20.4662C5.22242 20.2056 5.19495 19.9193 5.25026 19.6431C5.30557 19.3669 5.4412 19.1133 5.64014 18.9139L7.26014 14.8775V8.61388C7.26007 8.41574 7.33739 8.2254 7.47562 8.08343C7.61385 7.94146 7.80206 7.8591 8.00014 7.85388H16.0601C16.2591 7.85388 16.4498 7.9329 16.5905 8.07355C16.7311 8.2142 16.8101 8.40497 16.8101 8.60388V14.9375L18.3501 18.8939C18.5511 19.0941 18.6884 19.3491 18.7449 19.6271C18.8014 19.905 18.7746 20.1935 18.6678 20.4562C18.561 20.719 18.3789 20.9444 18.1445 21.1041C17.9101 21.2637 17.6338 21.3507 17.3501 21.3539H17.3301ZM6.81014 19.8539H17.1901L15.5301 15.7775C15.3894 15.637 15.3103 15.4463 15.3101 15.2475V9.35388H8.75014V15.1975C8.74997 15.3963 8.67083 15.587 8.53014 15.7275L6.81014 19.8539Z" fill="black"/>
<path d="M16.0601 9.34424C15.9639 9.34556 15.8684 9.32175 15.7791 9.27416C15.6899 9.22657 15.6086 9.15616 15.5401 9.06696L13.2201 6.08296C12.8942 5.65643 12.4539 5.41712 11.9951 5.41712C11.5362 5.41712 11.096 5.65643 10.7701 6.08296L8.53009 9.05376C8.38792 9.22868 8.19987 9.32391 8.00557 9.31938C7.81127 9.31485 7.62588 9.21093 7.48847 9.02949C7.35106 8.84806 7.27234 8.60328 7.26892 8.34674C7.26549 8.09019 7.33761 7.84191 7.47009 7.65418L9.71009 4.69659C10.3193 3.90951 11.1377 3.46875 11.9901 3.46875C12.8424 3.46875 13.6609 3.90951 14.2701 4.69659L16.5901 7.68059C16.6983 7.81833 16.7727 7.99584 16.8037 8.19009C16.8346 8.38435 16.8205 8.58639 16.7634 8.76999C16.7063 8.9536 16.6087 9.11029 16.4833 9.21975C16.3578 9.32921 16.2104 9.38638 16.0601 9.38385V9.34424Z" fill="black"/>
<path d="M4.46003 16.9439C4.36117 16.9452 4.26303 16.9268 4.17143 16.8895C4.07983 16.8523 3.99662 16.7971 3.9267 16.7272C3.85679 16.6573 3.80159 16.5741 3.76438 16.4825C3.72716 16.3909 3.70868 16.2928 3.71003 16.1939V9.61389C3.71003 9.41498 3.78905 9.22421 3.9297 9.08356C4.07035 8.94291 4.26112 8.86389 4.46003 8.86389C4.65894 8.86389 4.84971 8.94291 4.99036 9.08356C5.13101 9.22421 5.21003 9.41498 5.21003 9.61389V16.1539C5.21547 16.2557 5.20009 16.3575 5.16484 16.4532C5.12959 16.5489 5.07521 16.6363 5.00502 16.7103C4.93483 16.7842 4.85029 16.8431 4.75659 16.8832C4.66289 16.9234 4.56198 16.944 4.46003 16.9439Z" fill="black"/>
<path d="M19.54 16.9439C19.3411 16.9439 19.1504 16.8649 19.0097 16.7242C18.8691 16.5836 18.79 16.3928 18.79 16.1939V9.61389C18.79 9.41498 18.8691 9.22421 19.0097 9.08356C19.1504 8.94291 19.3411 8.86389 19.54 8.86389C19.739 8.86389 19.9297 8.94291 20.0704 9.08356C20.211 9.22421 20.29 9.41498 20.29 9.61389V16.1539C20.297 16.256 20.2826 16.3585 20.2479 16.4548C20.2132 16.5512 20.1589 16.6392 20.0884 16.7135C20.0179 16.7877 19.9328 16.8465 19.8384 16.8862C19.744 16.9259 19.6424 16.9455 19.54 16.9439Z" fill="black"/>
<circle cx="11.998" cy="12.6139" r="1.51562" fill="black"/>
</svg>
