<svg width="24" height="24" viewBox="0 0 24 24" fill="none" xmlns="http://www.w3.org/2000/svg">
<path d="M5 5L19 19" stroke="black" stroke-width="2" stroke-linecap="round" stroke-linejoin="round"/>
<path fill-rule="evenodd" clip-rule="evenodd" d="M19.0857 3.49997C18.3047 2.71892 17.0383 2.71892 16.2573 3.49997L14.1716 5.58569L12.8787 4.29287C12.4882 3.90234 11.8551 3.90234 11.4645 4.29287C11.074 4.68339 11.074 5.31656 11.4645 5.70708L12.7574 6.99991L11.5858 8.17153L13 9.58574L14.1716 8.41413L15.5858 9.82834L14.4142 11L15.8284 12.4142L17 11.2426L18.2929 12.5354C18.6834 12.926 19.3166 12.926 19.7071 12.5354C20.0976 12.1449 20.0976 11.5118 19.7071 11.1212L18.4142 9.82833L20.4999 7.74261C21.281 6.96156 21.281 5.69523 20.4999 4.91418L19.0857 3.49997ZM14.4142 13.8284L13 12.4142L8.25661 17.1576C8.18182 17.2324 8.09607 17.2944 8.0028 17.3419L6.64189 16.0307C6.69105 15.9244 6.75874 15.8271 6.8424 15.7434L11.5858 11L10.1716 9.58575L5.42817 14.3292C5.00938 14.748 4.72392 15.2814 4.60777 15.8622L4.54975 16.1523L4.37297 17.0361L4.01942 18.8039C3.95384 19.1318 4.05647 19.4707 4.29289 19.7071C4.52931 19.9436 4.86825 20.0462 5.19611 19.9806L7.9144 19.437L8.13785 19.3923C8.71863 19.2761 9.25203 18.9906 9.67083 18.5718L14.4142 13.8284ZM15.5858 6.99991L17 8.41412L19.0857 6.3284L17.6715 4.91418L15.5858 6.99991Z" fill="black"/>
</svg>
