<svg width="24" height="24" viewBox="0 0 24 24" fill="none" xmlns="http://www.w3.org/2000/svg">
<path d="M13.8156 5.68884L14.7417 5.31155C14.6352 5.05002 14.423 4.84573 14.1576 4.74914L13.8156 5.68884ZM10.9965 4.66278L11.3386 3.72308C11.0452 3.61631 10.7188 3.65266 10.4561 3.82137C10.1935 3.99007 10.0247 4.27177 9.99974 4.58296L10.9965 4.66278ZM15.5018 9.82763L14.5757 10.2049C14.6904 10.4866 14.9272 10.7008 15.219 10.7868L15.5018 9.82763ZM18.7027 14.9168L18.3606 15.8565L18.7027 14.9168ZM5.31348 10.0436L4.32004 10.1579C4.36335 10.5342 4.61553 10.8537 4.97146 10.9832L5.31348 10.0436ZM5.18566 8.93289L6.1791 8.81856C6.1358 8.44227 5.88361 8.12275 5.52768 7.9932L5.18566 8.93289ZM5.18565 8.93289L4.1922 9.04721C4.23551 9.4235 4.48769 9.74303 4.84363 9.87258L5.18565 8.93289ZM4.93 6.71145L5.92345 6.59712L5.92345 6.59712L4.93 6.71145ZM4.67436 4.49004L5.01638 3.55035C4.6907 3.43181 4.32687 3.49036 4.05482 3.70508C3.78277 3.91979 3.64129 4.26007 3.68092 4.60437L4.67436 4.49004ZM7.49344 5.5161L8.48688 5.40178C8.44358 5.02549 8.19139 4.70596 7.83546 4.57641L7.49344 5.5161ZM7.72584 7.53556L6.73239 7.64989C6.77828 8.04861 7.05812 8.38128 7.4431 8.49476L7.72584 7.53556ZM10.6964 8.41118L10.4137 9.37038C10.7026 9.45555 11.0146 9.40593 11.2628 9.23532C11.5111 9.0647 11.6692 8.79127 11.6932 8.49099L10.6964 8.41118ZM14.1576 4.74914L11.3386 3.72308L10.6545 5.60247L13.4736 6.62853L14.1576 4.74914ZM16.4279 9.45034L14.7417 5.31155L12.8895 6.06613L14.5757 10.2049L16.4279 9.45034ZM16.9943 9.22505L15.7845 8.86843L15.219 10.7868L16.4289 11.1434L16.9943 9.22505ZM19.9647 15.1085C20.8568 12.6577 19.496 9.96245 16.9943 9.22505L16.4289 11.1434C17.824 11.5547 18.5828 13.0577 18.0854 14.4245L19.9647 15.1085ZM18.3606 15.8565C19.0102 16.0929 19.7283 15.758 19.9647 15.1085L18.0854 14.4245C18.2267 14.036 18.6562 13.8357 19.0447 13.9771L18.3606 15.8565ZM4.97146 10.9832L18.3606 15.8565L19.0447 13.9771L5.6555 9.10386L4.97146 10.9832ZM4.19222 9.04722L4.32004 10.1579L6.30693 9.92922L6.1791 8.81856L4.19222 9.04722ZM5.52768 7.9932L5.52767 7.99319L4.84363 9.87258L4.84364 9.87259L5.52768 7.9932ZM6.17909 8.81856L5.92345 6.59712L3.93656 6.82577L4.1922 9.04721L6.17909 8.81856ZM5.92345 6.59712L5.6678 4.37571L3.68092 4.60437L3.93656 6.82577L5.92345 6.59712ZM4.33234 5.42973L7.15142 6.4558L7.83546 4.57641L5.01638 3.55035L4.33234 5.42973ZM6.49999 5.63043L6.73239 7.64989L8.71928 7.42123L8.48688 5.40178L6.49999 5.63043ZM10.9792 7.45198L8.00858 6.57636L7.4431 8.49476L10.4137 9.37038L10.9792 7.45198ZM9.99974 4.58296L9.69961 8.33137L11.6932 8.49099L11.9934 4.74259L9.99974 4.58296Z" fill="black"/>
<path d="M4 19L20 19" stroke="black" stroke-width="2" stroke-linecap="round" stroke-linejoin="round"/>
</svg>
