<svg width="24" height="25" viewBox="0 0 24 25" fill="none" xmlns="http://www.w3.org/2000/svg">
<path d="M3 12.7028H21V14.2028H16.6342C16.8711 14.7 16.9906 15.245 16.9836 15.7957C16.9977 16.3182 16.8855 16.8364 16.6567 17.3063C16.428 17.7763 16.0893 18.1842 15.6694 18.4954C14.6579 19.2071 13.4378 19.5606 12.2025 19.4999C11.3 19.506 10.4062 19.3223 9.57916 18.9609C8.82387 18.6475 8.16917 18.1328 7.68652 17.4727C7.24212 16.8425 7.00762 16.0883 7.01636 15.3172V15.2039H7.30359V15.2028H7.64508V15.2039H9.02V15.3172C9.00433 15.6686 9.07382 16.0186 9.22253 16.3373C9.37125 16.6561 9.59479 16.9341 9.87413 17.1479C10.5515 17.6302 11.372 17.8696 12.2025 17.8272C12.9356 17.8751 13.6645 17.6834 14.2792 17.281C14.507 17.1125 14.6901 16.8907 14.8124 16.635C14.9346 16.3793 14.9923 16.0976 14.9804 15.8144C14.9964 15.5408 14.9459 15.2675 14.8332 15.0177C14.7205 14.7679 14.5491 14.5491 14.3335 14.38C14.2451 14.316 14.1533 14.2568 14.0585 14.2028H3V12.7028ZM16.3447 7.55968C15.9232 6.90469 15.3271 6.38046 14.6236 6.04607C13.8394 5.67248 12.9793 5.48553 12.1107 5.49987C10.8996 5.44789 9.70883 5.82391 8.74719 6.562C8.33435 6.88084 8.00134 7.29135 7.77448 7.76107C7.54762 8.23078 7.43313 8.74683 7.44006 9.26842C7.43656 9.76271 7.54659 10.2512 7.76166 10.6963H10.3583C10.275 10.6426 10.173 10.5905 10.1056 10.5356C9.90219 10.3855 9.73702 10.1896 9.62358 9.9636C9.51014 9.73765 9.45164 9.48811 9.45282 9.23528C9.43773 8.94667 9.49242 8.65867 9.61226 8.39568C9.73209 8.13269 9.91354 7.90246 10.1412 7.72448C10.7173 7.32494 11.4109 7.1304 12.1107 7.17205C12.8717 7.12367 13.6231 7.36226 14.2167 7.84075C14.465 8.07454 14.6594 8.35955 14.7865 8.676C14.9136 8.99245 14.9703 9.33276 14.9527 9.67333V9.78674H16.9559V9.67333C16.9592 8.92472 16.7471 8.19097 16.3447 7.55968Z" fill="#737373"/>
</svg>
