<svg width="24" height="24" viewBox="0 0 24 24" fill="none" xmlns="http://www.w3.org/2000/svg">
<path d="M10.875 6.37506H7.5C5.63604 6.37506 4.125 7.8861 4.125 9.75006C4.125 11.614 5.63604 13.1251 7.5 13.1251M10.875 6.37506V13.1251M10.875 6.37506L15.4019 5.24334C16.9266 4.86216 17.689 4.67157 18.2894 4.85714C18.8156 5.01978 19.2639 5.3698 19.5493 5.84088C19.875 6.37836 19.875 7.16419 19.875 8.73585V10.7643C19.875 12.3359 19.875 13.1218 19.5493 13.6592C19.2639 14.1303 18.8156 14.4803 18.2894 14.643C17.689 14.8286 16.9266 14.638 15.4019 14.2568L10.875 13.1251M10.875 13.1251H7.5M10.875 13.1251L9.64137 17.7679C9.28731 19.0892 9.21533 19.8751 8.12262 19.8751C7.43354 19.8751 6.60387 19.5625 6.60387 18.7804C6.60387 17.9983 7.5 13.1251 7.5 13.1251" stroke="black" stroke-width="2"/>
</svg>
