<svg width="24" height="24" viewBox="0 0 24 24" fill="none" xmlns="http://www.w3.org/2000/svg">
<path d="M7.3864 13.7173C5.75255 14.2572 4.07992 15.1304 2.41001 16.4317C1.88873 16.8379 1.866 17.6058 2.33331 18.0731L3.46807 19.2079C3.8393 19.5791 4.41555 19.65 4.86574 19.3799L6.83091 18.2008C7.17553 17.994 7.3864 17.6216 7.3864 17.2197L7.3864 13.7173ZM7.3864 13.7173C10.4652 12.7001 13.4062 12.8666 15.9317 13.5832M15.9317 13.5832C18.2407 14.2385 20.2024 15.3536 21.6044 16.4443C22.1149 16.8415 22.126 17.5893 21.6686 18.0466L20.539 19.1763C20.1533 19.5619 19.5491 19.6218 19.0953 19.3192L16.4412 17.5498C16.1229 17.3376 15.9317 16.9804 15.9317 16.5979V13.5832Z" stroke="black" stroke-width="2" stroke-linejoin="round"/>
<path d="M16.5 4.5L12.7071 8.29289C12.3166 8.68342 11.6834 8.68342 11.2929 8.29289L7 4M7 4V7M7 4H10" stroke="black" stroke-width="2" stroke-linecap="round" stroke-linejoin="round"/>
</svg>
