<svg width="22" height="20" viewBox="0 0 22 20" fill="none" xmlns="http://www.w3.org/2000/svg">
<g clip-path="url(#clip0_6657_275996)">
<path d="M13.7087 9.83341C14.1167 9.58495 14.461 9.2446 14.7142 8.83949C14.9674 8.43438 15.1225 7.97572 15.167 7.50008C15.1747 7.06998 15.0976 6.64258 14.9402 6.24227C14.7827 5.84197 14.5479 5.47661 14.2492 5.16707C13.9505 4.85753 13.5937 4.60987 13.1993 4.43823C12.8048 4.26659 12.3804 4.17434 11.9503 4.16675H6.54199V15.8334H12.3753C12.7846 15.8291 13.189 15.7441 13.5655 15.5835C13.942 15.4228 14.2831 15.1896 14.5694 14.897C14.8557 14.6045 15.0816 14.2585 15.2342 13.8787C15.3868 13.4989 15.4631 13.0927 15.4587 12.6834V12.5834C15.4589 12.006 15.2944 11.4405 14.9844 10.9534C14.6744 10.4662 14.2318 10.0777 13.7087 9.83341ZM8.20866 5.83341H11.7087C12.0638 5.82242 12.4138 5.92032 12.7117 6.11396C13.0096 6.3076 13.2412 6.58773 13.3753 6.91675C13.5111 7.35657 13.4672 7.83224 13.2532 8.23979C13.0393 8.64735 12.6727 8.95365 12.2337 9.09175C12.0631 9.14172 11.8863 9.16698 11.7087 9.16675H8.20866V5.83341ZM12.042 14.1667H8.20866V10.8334H12.042C12.3971 10.8224 12.7471 10.9203 13.0451 11.114C13.343 11.3076 13.5745 11.5877 13.7087 11.9167C13.8444 12.3566 13.8005 12.8322 13.5866 13.2398C13.3726 13.6473 13.0061 13.9536 12.567 14.0917C12.3965 14.1417 12.2197 14.167 12.042 14.1667Z" fill="#D4D4D4"/>
</g>
<defs>
<clipPath id="clip0_6657_275996">
<rect width="20" height="20" fill="white" transform="translate(1)"/>
</clipPath>
</defs>
</svg>
