<svg width="20" height="20" viewBox="0 0 20 20" fill="none" xmlns="http://www.w3.org/2000/svg">
<path d="M15.8337 16.6667V18.3334H4.16699V16.6667H15.8337ZM13.3337 11.0126C13.3062 11.5626 13.143 12.0972 12.8584 12.5687C12.5739 13.0402 12.1771 13.4338 11.7033 13.7144C11.2295 13.9951 10.6935 14.154 10.1433 14.1769C9.59314 14.1999 9.04584 14.0861 8.55033 13.8459C7.97919 13.5988 7.49483 13.1869 7.1593 12.6628C6.82377 12.1387 6.65234 11.5264 6.66699 10.9042V4.17091H5.00033V11.0126C5.02852 11.7971 5.24104 12.5639 5.62067 13.251C6.00031 13.9382 6.5364 14.5262 7.18555 14.9676C7.8347 15.4091 8.57866 15.6914 9.35722 15.7919C10.1358 15.8924 10.9271 15.8081 11.667 15.5459C12.6512 15.2178 13.5052 14.5844 14.1047 13.7376C14.7042 12.8908 15.0179 11.8749 15.0003 10.8376V4.17091H13.3337V11.0126ZM13.3337 4.16675H15.0003H13.3337ZM6.66699 4.16675H5.00033H6.66699Z" fill="#D4D4D4"/>
</svg>
