<svg width="20" height="20" viewBox="0 0 20 20" fill="none" xmlns="http://www.w3.org/2000/svg">
<path d="M3.33301 8.74992C2.66634 8.74992 2.08301 9.33325 2.08301 9.99992C2.08301 10.6666 2.66634 11.2499 3.33301 11.2499C3.99967 11.2499 4.58301 10.6666 4.58301 9.99992C4.58301 9.33325 3.99967 8.74992 3.33301 8.74992ZM3.33301 4.58325C2.66634 4.58325 2.08301 5.16659 2.08301 5.83325C2.08301 6.49992 2.66634 7.08325 3.33301 7.08325C3.99967 7.08325 4.58301 6.49992 4.58301 5.83325C4.58301 5.16659 3.99967 4.58325 3.33301 4.58325ZM3.33301 12.9166C2.66634 12.9166 2.08301 13.4999 2.08301 14.1666C2.08301 14.8333 2.66634 15.4166 3.33301 15.4166C3.99967 15.4166 4.58301 14.8333 4.58301 14.1666C4.58301 13.4999 3.99967 12.9166 3.33301 12.9166ZM6.24967 4.99992V6.66659H17.9163V4.99992H6.24967ZM6.24967 14.9999H17.9163V13.3333H6.24967V14.9999ZM6.24967 10.8333H17.9163V9.16658H6.24967V10.8333Z" fill="#D4D4D4"/>
</svg>
