<svg width="20" height="20" viewBox="0 0 20 20" fill="none" xmlns="http://www.w3.org/2000/svg">
<path d="M8.26447 10.2008L14.7211 5.70896L15.7039 6.78889L10.6256 12.7951L8.26447 10.2008ZM6.32272 10.5434L10.1022 14.6961C10.1804 14.7737 10.2742 14.8337 10.3774 14.8722C10.4805 14.9108 10.5907 14.9271 10.7006 14.9199C10.8105 14.9127 10.9176 14.8823 11.0149 14.8307C11.1122 14.7791 11.1974 14.7074 11.2649 14.6204L17.4744 7.27626C17.5981 7.14033 17.6681 6.96403 17.6714 6.78027C17.6747 6.59651 17.611 6.41783 17.4922 6.27759L15.398 3.97662C15.2695 3.84519 15.0976 3.76498 14.9144 3.75098C14.7311 3.73698 14.549 3.79013 14.4021 3.90052L6.50737 9.39288C6.41441 9.45194 6.33503 9.53004 6.27449 9.62205C6.21394 9.71405 6.17361 9.81786 6.15616 9.9266C6.13871 10.0353 6.14453 10.1466 6.17324 10.2529C6.20195 10.3592 6.2529 10.4582 6.32272 10.5434V10.5434ZM2.32812 15.4399L7.00926 16.2501L8.24187 15.1283L5.71779 12.3549L2.32812 15.4399Z" fill="#D4D4D4"/>
</svg>
