<svg width="20" height="20" viewBox="0 0 20 20" fill="none" xmlns="http://www.w3.org/2000/svg">
<path d="M12.6667 11.2451C12.6667 11.2451 9.66667 14.4951 9.66667 16.4951C9.6612 16.8945 9.73445 17.2911 9.88225 17.6622C10.0301 18.0334 10.2495 18.3718 10.5281 18.6581C11.0907 19.2363 11.86 19.5674 12.6667 19.5784C13.4734 19.5895 14.2514 19.2796 14.8297 18.717C15.116 18.4384 15.3446 18.1062 15.5025 17.7392C15.6604 17.3723 15.7445 16.9779 15.75 16.5784V16.4951C15.75 14.4951 12.6667 11.2451 12.6667 11.2451ZM11.4417 10.1142L11.9992 9.51092L10.0833 4.16675H8.41667L4.25 15.8334H5.91667L7.10833 12.5001H9.56083C10.1264 11.6592 10.754 10.8617 11.4383 10.1142H11.4417ZM9.25 6.50008L10.8 10.8334H7.70333L9.25 6.50008Z" fill="#D4D4D4"/>
</svg>
