<svg width="20" height="20" viewBox="0 0 20 20" fill="none" xmlns="http://www.w3.org/2000/svg">
<path d="M11.2913 15.8334H12.958L8.79134 4.16675H7.12467L2.95801 15.8334H4.62467L5.79134 12.5001H10.0413L11.2913 15.8334ZM6.37468 10.8334L7.95801 6.50008L9.54134 10.8334H6.37468ZM17.0413 14.5834C17.0413 14.8306 16.968 15.0723 16.8307 15.2779C16.6933 15.4834 16.4981 15.6437 16.2697 15.7383C16.0413 15.8329 15.79 15.8576 15.5475 15.8094C15.305 15.7612 15.0823 15.6421 14.9075 15.4673C14.7326 15.2925 14.6136 15.0698 14.5654 14.8273C14.5171 14.5848 14.5419 14.3335 14.6365 14.1051C14.7311 13.8767 14.8913 13.6814 15.0969 13.5441C15.3024 13.4067 15.5441 13.3334 15.7913 13.3334C16.1229 13.3334 16.4408 13.4651 16.6752 13.6995C16.9096 13.934 17.0413 14.2519 17.0413 14.5834ZM17.0413 11.2501C17.0413 11.4973 16.968 11.739 16.8307 11.9445C16.6933 12.1501 16.4981 12.3103 16.2697 12.4049C16.0413 12.4995 15.79 12.5243 15.5475 12.4761C15.305 12.4278 15.0823 12.3088 14.9075 12.134C14.7326 11.9591 14.6136 11.7364 14.5654 11.4939C14.5171 11.2515 14.5419 11.0001 14.6365 10.7717C14.7311 10.5433 14.8913 10.3481 15.0969 10.2107C15.3024 10.0734 15.5441 10.0001 15.7913 10.0001C16.1229 10.0001 16.4408 10.1318 16.6752 10.3662C16.9096 10.6006 17.0413 10.9186 17.0413 11.2501ZM17.0413 7.91675C17.0413 8.16398 16.968 8.40565 16.8307 8.61121C16.6933 8.81677 16.4981 8.97699 16.2697 9.0716C16.0413 9.16621 15.79 9.19096 15.5475 9.14273C15.305 9.0945 15.0823 8.97545 14.9075 8.80063C14.7326 8.62582 14.6136 8.40309 14.5654 8.16061C14.5171 7.91814 14.5419 7.6668 14.6365 7.43839C14.7311 7.20999 14.8913 7.01476 15.0969 6.87741C15.3024 6.74006 15.5441 6.66675 15.7913 6.66675C16.1229 6.66675 16.4408 6.79844 16.6752 7.03286C16.9096 7.26729 17.0413 7.58523 17.0413 7.91675Z" fill="#D4D4D4"/>
</svg>
