<svg width="20" height="20" viewBox="0 0 20 20" fill="none" xmlns="http://www.w3.org/2000/svg">
<path d="M9.80013 7.50008H11.4668L9.63346 15.8334H7.9668L9.80013 7.50008ZM11.2001 4.16675C11.0353 4.16675 10.8742 4.21562 10.7372 4.30719C10.6001 4.39876 10.4933 4.52891 10.4302 4.68118C10.3672 4.83345 10.3507 5.00101 10.3828 5.16266C10.415 5.32431 10.4943 5.47279 10.6109 5.58934C10.7274 5.70588 10.8759 5.78525 11.0376 5.8174C11.1992 5.84956 11.3668 5.83305 11.519 5.76998C11.6713 5.70691 11.8015 5.6001 11.893 5.46306C11.9846 5.32602 12.0335 5.1649 12.0335 5.00008C12.0335 4.77907 11.9457 4.56711 11.7894 4.41083C11.6331 4.25455 11.4211 4.16675 11.2001 4.16675Z" fill="#D4D4D4"/>
</svg>
