<svg width="20" height="20" viewBox="0 0 20 20" fill="none" xmlns="http://www.w3.org/2000/svg">
<path d="M9.16699 14.1666H5.83366C4.72859 14.1666 3.66878 13.7276 2.88738 12.9462C2.10598 12.1648 1.66699 11.105 1.66699 9.99992C1.66699 8.89485 2.10598 7.83504 2.88738 7.05364C3.66878 6.27224 4.72859 5.83325 5.83366 5.83325H9.16699V7.49992H5.83366C5.17062 7.49992 4.53473 7.76331 4.06589 8.23215C3.59705 8.70099 3.33366 9.33688 3.33366 9.99992C3.33366 10.663 3.59705 11.2988 4.06589 11.7677C4.53473 12.2365 5.17062 12.4999 5.83366 12.4999H9.16699V14.1666ZM14.167 5.83325H10.8337V7.49992H14.167C14.83 7.49992 15.4659 7.76331 15.9348 8.23215C16.4036 8.70099 16.667 9.33688 16.667 9.99992C16.667 10.663 16.4036 11.2988 15.9348 11.7677C15.4659 12.2365 14.83 12.4999 14.167 12.4999H10.8337V14.1666H14.167C15.2721 14.1666 16.3319 13.7276 17.1133 12.9462C17.8947 12.1648 18.3337 11.105 18.3337 9.99992C18.3337 8.89485 17.8947 7.83504 17.1133 7.05364C16.3319 6.27224 15.2721 5.83325 14.167 5.83325ZM13.3337 9.16659H6.66699V10.8333H13.3337V9.16659Z" fill="#D4D4D4"/>
</svg>
